<svg width="59" height="70" viewBox="0 0 59 70" fill="none" xmlns="http://www.w3.org/2000/svg">
<path d="M6.38966 34.4994C7.24884 34.4994 7.94534 33.8029 7.94534 32.9437C7.94534 32.0846 7.24884 31.3881 6.38966 31.3881C5.53049 31.3881 4.83398 32.0846 4.83398 32.9437C4.83398 33.8029 5.53049 34.4994 6.38966 34.4994Z" fill="black"/>
<path d="M11.0567 34.4994C11.9158 34.4994 12.6123 33.8029 12.6123 32.9437C12.6123 32.0846 11.9158 31.3881 11.0567 31.3881C10.1975 31.3881 9.50098 32.0846 9.50098 32.9437C9.50098 33.8029 10.1975 34.4994 11.0567 34.4994Z" fill="black"/>
<path d="M50.7529 32.2065H14.9502C14.7546 32.2065 14.5671 32.2841 14.4288 32.4224C14.2906 32.5607 14.2129 32.7482 14.2129 32.9438C14.2129 33.1393 14.2906 33.3268 14.4288 33.4651C14.5671 33.6034 14.7546 33.681 14.9502 33.681H50.7529C50.9484 33.681 51.136 33.6034 51.2742 33.4651C51.4125 33.3268 51.4902 33.1393 51.4902 32.9438C51.4902 32.7482 51.4125 32.5607 51.2742 32.4224C51.136 32.2841 50.9484 32.2065 50.7529 32.2065ZM26.2381 20.7269C26.3554 20.7996 26.4908 20.8379 26.6288 20.8375C26.7422 20.8396 26.8542 20.8116 26.9532 20.7564L36.2947 16.0893C36.4176 16.0291 36.5214 15.9358 36.5943 15.8199C36.6672 15.704 36.7065 15.5701 36.7076 15.4332C36.7078 15.295 36.6693 15.1595 36.5963 15.0422C36.5233 14.9248 36.4188 14.8304 36.2947 14.7696L26.9532 10.1026C26.8411 10.0379 26.714 10.0038 26.5846 10.0038C26.4552 10.0038 26.328 10.0379 26.2159 10.1026C26.1097 10.169 26.0221 10.2614 25.9615 10.371C25.9008 10.4807 25.8692 10.604 25.8694 10.7293V20.0781C25.8676 20.2092 25.9008 20.3385 25.9656 20.4526C26.0304 20.5666 26.1245 20.6613 26.2381 20.7269ZM27.3661 11.9679L34.3187 15.4479L27.3661 18.9205V11.9679Z" fill="black"/>
<path d="M29.7396 26.286C31.8882 26.2875 33.9889 25.6516 35.776 24.4588C37.5631 23.266 38.9562 21.5699 39.7791 19.5852C40.602 17.6004 40.8177 15.4162 40.3989 13.3088C39.9801 11.2015 38.9456 9.26567 37.4263 7.74639C35.9071 6.22711 33.9713 5.19262 31.8639 4.77381C29.7565 4.355 27.5723 4.57069 25.5875 5.39359C23.6028 6.2165 21.9067 7.60962 20.7139 9.39671C19.5212 11.1838 18.8853 13.2845 18.8867 15.4331C18.8906 18.3103 20.0353 21.0685 22.0698 23.103C24.1042 25.1374 26.8624 26.2821 29.7396 26.286ZM29.7396 6.06956C31.5972 6.06811 33.4134 6.61789 34.9583 7.6493C36.5032 8.6807 37.7073 10.1473 38.4182 11.8635C39.129 13.5797 39.3147 15.4682 38.9516 17.2899C38.5885 19.1117 37.6929 20.7847 36.3784 22.0971C35.0639 23.4096 33.3894 24.3025 31.5671 24.6627C29.7449 25.023 27.8566 24.8344 26.1416 24.1208C24.4265 23.4073 22.9618 22.2008 21.9328 20.6543C20.9038 19.1078 20.3569 17.2907 20.3613 15.4331C20.3691 12.9496 21.3601 10.5702 23.1176 8.81549C24.8751 7.06074 27.2561 6.07345 29.7396 6.06956Z" fill="black"/>
<path d="M55.0363 0.296631H4.44355C3.42283 0.296631 2.44391 0.702112 1.72215 1.42387C1.00039 2.14563 0.594905 3.12455 0.594905 4.14528V32.9437C0.594905 33.9645 1.00039 34.9434 1.72215 35.6652C2.44391 36.3869 3.42283 36.7924 4.44355 36.7924H55.0363C56.057 36.7924 57.0359 36.3869 57.7577 35.6652C58.4794 34.9434 58.8849 33.9645 58.8849 32.9437V4.14528C58.8849 3.63986 58.7854 3.1394 58.5919 2.67246C58.3985 2.20552 58.115 1.78125 57.7577 1.42387C57.4003 1.06649 56.976 0.783004 56.5091 0.589591C56.0421 0.396179 55.5417 0.296631 55.0363 0.296631ZM4.44355 1.77121H55.0363C55.6659 1.77121 56.2698 2.02133 56.715 2.46656C57.1602 2.91178 57.4103 3.51563 57.4103 4.14528V29.0951H2.06948V4.14528C2.06948 3.51563 2.31961 2.91178 2.76483 2.46656C3.21005 2.02133 3.81391 1.77121 4.44355 1.77121ZM55.0363 35.3178H4.44355C3.81391 35.3178 3.21005 35.0677 2.76483 34.6225C2.31961 34.1772 2.06948 33.5734 2.06948 32.9437V30.5697H57.4103V32.9437C57.4103 33.2555 57.3489 33.5642 57.2296 33.8523C57.1103 34.1403 56.9354 34.402 56.715 34.6225C56.4945 34.8429 56.2328 35.0178 55.9448 35.1371C55.6567 35.2564 55.348 35.3178 55.0363 35.3178ZM31.7674 48.6996C31.6131 47.8558 31.1693 47.0923 30.5126 46.5406C29.8558 45.9888 29.0272 45.6833 28.1695 45.6767L27.1889 40.4567C27.1236 40.1092 26.9895 39.7782 26.7946 39.4832C26.5996 39.1882 26.3476 38.9351 26.0535 38.7388C25.6869 38.4872 25.2635 38.3308 24.8213 38.2838C24.3792 38.2368 23.9323 38.3007 23.5211 38.4698C23.1098 38.6388 22.7472 38.9076 22.4659 39.2519C22.1846 39.5963 21.9935 40.0053 21.9099 40.442L9.37601 47.4093L5.29143 48.1835C3.94906 48.4402 2.74062 49.1631 1.8796 50.2245C1.01859 51.2859 0.560395 52.6174 0.585977 53.9839C0.61156 55.3503 1.11927 56.6638 2.01941 57.6922C2.91956 58.7206 4.1542 59.3978 5.50524 59.6041L6.88397 66.8516C7.03601 67.6506 7.49844 68.3568 8.17003 68.8156C8.84161 69.2744 9.66762 69.4483 10.4672 69.2994C11.2681 69.1474 11.9762 68.6841 12.4363 68.0112C12.8965 67.3382 13.0712 66.5104 12.9224 65.7088L11.6174 58.8078L25.6258 59.9949C25.8682 60.3714 26.2009 60.6813 26.5937 60.8964C26.9864 61.1114 27.4268 61.2248 27.8746 61.2261C28.0426 61.2257 28.2104 61.2109 28.3759 61.1819C29.068 61.0411 29.6767 60.6333 30.0701 60.0467C30.4634 59.4601 30.6097 58.7421 30.4772 58.0484L29.5187 52.8284C30.3103 52.5027 30.9659 51.9146 31.3753 51.1628C31.7848 50.411 31.9232 49.5413 31.7674 48.6996ZM19.1598 43.6713L21.9025 58.1959L12.1556 57.3701L10.4819 48.5226L19.1598 43.6713ZM2.14321 54.679C1.93182 53.5518 2.17647 52.3868 2.82344 51.4398C3.47041 50.4929 4.46678 49.8414 5.59372 49.6286L9.09584 48.9724L10.6958 57.466H10.6515L7.20838 58.1148C6.08109 58.3308 4.91414 58.0902 3.96423 57.4459C3.01433 56.8016 2.35929 55.8063 2.14321 54.679ZM10.2091 67.847C10.0039 67.8885 9.79242 67.8883 9.58724 67.8465C9.38207 67.8048 9.18738 67.7222 9.01474 67.6037C8.66956 67.3618 8.43375 66.9935 8.35855 66.5788L7.05355 59.6557L7.48118 59.5746L8.44702 59.3903L10.1944 59.0585L11.4994 65.9816C11.5387 66.189 11.5364 66.4021 11.4926 66.6085C11.4489 66.8149 11.3645 67.0106 11.2445 67.1842C11.1244 67.3578 10.9711 67.5057 10.7933 67.6195C10.6156 67.7333 10.417 67.8106 10.2091 67.847ZM23.4213 58.3286L20.5164 42.934L21.991 42.0935L22.1974 43.1921L25.0802 58.4908L23.4213 58.3286ZM28.0884 59.7294C27.7738 59.7879 27.4488 59.7202 27.1838 59.5408C26.9189 59.3614 26.7353 59.0848 26.6728 58.771L25.0213 49.9751L23.3624 41.1719C23.3042 40.8571 23.3732 40.5321 23.5542 40.2681C23.7353 40.0042 24.0136 39.8227 24.3282 39.7637C24.4018 39.7564 24.4758 39.7564 24.5494 39.7637C24.8265 39.7654 25.0949 39.8612 25.3105 40.0353C25.5262 40.2094 25.6763 40.4516 25.7364 40.7221L26.8424 46.6204L27.9409 52.4598L29.0542 58.3581C29.1019 58.6672 29.0278 58.9827 28.8477 59.2385C28.6677 59.4942 28.3955 59.6701 28.0884 59.7294ZM29.9685 50.646C29.777 50.9229 29.5248 51.1523 29.2312 51.317L28.4496 47.1882C28.8255 47.2387 29.182 47.3851 29.485 47.6132C29.788 47.8414 30.0272 48.1435 30.1797 48.4907C30.3322 48.838 30.3929 49.2186 30.3559 49.596C30.3189 49.9735 30.1855 50.335 29.9685 50.646ZM58.0002 40.4788L40.5338 44.0694C40.3648 44.1039 40.2132 44.1966 40.1054 44.3313C39.9976 44.466 39.9405 44.6342 39.944 44.8067V60.6289C39.1063 59.774 37.9976 59.2368 36.8075 59.1093C35.6174 58.9817 34.42 59.2718 33.4202 59.9298C32.4204 60.5878 31.6804 61.5728 31.3269 62.7163C30.9733 63.8598 31.0281 65.0906 31.482 66.1981C31.9359 67.3056 32.7606 68.2209 33.815 68.7873C34.8693 69.3538 36.0878 69.5362 37.2618 69.3033C38.4358 69.0704 39.4924 68.4367 40.2507 67.5106C41.0089 66.5846 41.4218 65.4238 41.4185 64.2269V51.693L57.4103 48.4047V57.0015C56.5727 56.1465 55.4639 55.6093 54.2738 55.4818C53.0838 55.3543 51.8864 55.6443 50.8866 56.3023C49.8868 56.9603 49.1468 57.9454 48.7932 59.0888C48.4396 60.2323 48.4945 61.4631 48.9484 62.5706C49.4023 63.6781 50.227 64.5934 51.2813 65.1599C52.3357 65.7263 53.5542 65.9087 54.7282 65.6758C55.9022 65.4429 56.9587 64.8092 57.717 63.8832C58.4753 62.9571 58.8882 61.7963 58.8849 60.5994V41.2014C58.8871 41.0908 58.8645 40.9811 58.8186 40.8805C58.7727 40.7799 58.7047 40.6909 58.6198 40.6201C58.5348 40.5492 58.435 40.4985 58.3277 40.4715C58.2205 40.4445 58.1085 40.4419 58.0002 40.4641V40.4788ZM36.2796 67.8765C35.5505 67.8765 34.8378 67.6603 34.2316 67.2552C33.6253 66.8501 33.1528 66.2744 32.8738 65.6008C32.5948 64.9271 32.5218 64.1859 32.664 63.4708C32.8063 62.7557 33.1574 62.0989 33.6729 61.5833C34.1885 61.0678 34.8454 60.7167 35.5605 60.5744C36.2756 60.4322 37.0168 60.5052 37.6904 60.7842C38.364 61.0632 38.9397 61.5357 39.3448 62.1419C39.7499 62.7482 39.9661 63.4609 39.9661 64.19C39.9661 65.1677 39.5777 66.1054 38.8864 66.7967C38.195 67.4881 37.2574 67.8765 36.2796 67.8765ZM53.746 64.2637C53.0169 64.2637 52.3042 64.0475 51.6979 63.6425C51.0917 63.2374 50.6192 62.6617 50.3402 61.988C50.0612 61.3144 49.9882 60.5732 50.1304 59.8581C50.2726 59.143 50.6237 58.4862 51.1393 57.9706C51.6549 57.455 52.3117 57.1039 53.0268 56.9617C53.7419 56.8195 54.4831 56.8925 55.1567 57.1715C55.8304 57.4505 56.4061 57.923 56.8112 58.5292C57.2162 59.1355 57.4324 59.8482 57.4324 60.5773C57.4324 61.555 57.0441 62.4927 56.3527 63.184C55.6614 63.8754 54.7237 64.2637 53.746 64.2637ZM41.4185 45.3965L57.4103 42.1082V46.9301L41.4185 50.2184V45.3965Z" fill="black"/>
</svg>
