<svg width="67" height="67" viewBox="0 0 67 67" fill="none" xmlns="http://www.w3.org/2000/svg">
<g clip-path="url(#clip0_125_2016)">
<path d="M60.5417 38.9985C59.9811 38.9985 59.5275 38.5448 59.5275 37.9842V28.6328C59.5275 26.8489 58.0754 25.3968 56.2914 25.3968C55.7308 25.3968 55.2772 24.9431 55.2772 24.3825C55.2772 23.8219 55.7308 23.3682 56.2914 23.3682C59.1946 23.3682 61.556 25.7296 61.556 28.6328V37.9842C61.556 38.5448 61.1024 38.9985 60.5417 38.9985ZM56.2914 66.9726H5.28298C2.38573 66.9726 0.0292969 64.6112 0.0292969 61.709V18.5642C0.0292969 18.0036 0.482952 17.5499 1.04358 17.5499C1.60421 17.5499 2.05787 18.0036 2.05787 18.5642V61.709C2.05787 63.4929 3.50501 64.944 5.28298 64.944H56.2914C58.0754 64.944 59.5275 63.4929 59.5275 61.709V52.3566C59.5275 51.7959 59.9811 51.3423 60.5417 51.3423C61.1024 51.3423 61.556 51.7959 61.556 52.3566V61.709C61.556 64.6112 59.1946 66.9726 56.2914 66.9726Z" fill="black"/>
<path d="M56.2914 25.3968H6.86582C6.62909 25.3968 6.40523 25.3849 6.16949 25.3621C2.66109 24.9996 0.0292969 22.0756 0.0292969 18.5612C0.0292969 14.7973 3.09593 11.7346 6.86582 11.7346H18.4816C19.0422 11.7346 19.4959 12.1883 19.4959 12.7489C19.4959 13.3095 19.0422 13.7632 18.4816 13.7632H6.86582C4.21521 13.7632 2.05787 15.9156 2.05787 18.5612C2.05787 21.0227 3.8923 23.072 6.33094 23.3405C6.34283 23.3415 6.35571 23.3424 6.36561 23.3434C6.53598 23.3603 6.69644 23.3682 6.86582 23.3682H55.2772V13.7632H42.7729C42.2123 13.7632 41.7586 13.3095 41.7586 12.7489C41.7586 12.1883 42.2123 11.7346 42.7729 11.7346H56.2914C56.8521 11.7346 57.3057 12.1883 57.3057 12.7489V24.3825C57.3057 24.9431 56.8521 25.3968 56.2914 25.3968ZM63.3865 53.3689H52.6909C48.1702 53.3689 44.4925 49.6911 44.4925 45.1704C44.4925 40.6497 48.1702 36.9719 52.6909 36.9719H63.3865C65.3636 36.9719 66.9712 38.5795 66.9712 40.5556V49.7852C66.9712 51.7613 65.3636 53.3689 63.3865 53.3689ZM52.6909 39.0005C49.2885 39.0005 46.521 41.768 46.521 45.1704C46.521 48.5728 49.2885 51.3403 52.6909 51.3403H63.3865C64.2443 51.3403 64.9426 50.643 64.9426 49.7852V40.5556C64.9426 39.6978 64.2443 39.0005 63.3865 39.0005H52.6909Z" fill="black"/>
<path d="M53.1823 49.6554C50.709 49.6554 48.6973 47.6437 48.6973 45.1703C48.6973 42.697 50.709 40.6853 53.1823 40.6853C55.6556 40.6853 57.6674 42.697 57.6674 45.1703C57.6674 47.6437 55.6556 49.6554 53.1823 49.6554ZM53.1823 42.7139C51.8283 42.7139 50.7258 43.8163 50.7258 45.1703C50.7258 46.5244 51.8283 47.6268 53.1823 47.6268C54.5363 47.6268 55.6388 46.5244 55.6388 45.1703C55.6388 43.8163 54.5363 42.7139 53.1823 42.7139Z" fill="black"/>
<path d="M41.9705 25.3967C41.7566 25.3967 41.5406 25.3294 41.3574 25.1897C40.9117 24.85 40.8255 24.2141 41.1642 23.7683L46.4526 16.8218L27.5863 2.46337L10.4603 24.9708C10.2681 25.2224 9.96999 25.371 9.65303 25.371C9.0924 25.371 8.63379 24.9173 8.63379 24.3567C8.63379 24.0892 8.7368 23.8456 8.90519 23.6643L26.5859 0.427864C26.9256 -0.0178668 27.5625 -0.105032 28.0072 0.234714L48.4881 15.8214C48.702 15.9839 48.8427 16.2256 48.8793 16.492C48.915 16.7585 48.8437 17.0289 48.6812 17.2428L42.7788 24.9966C42.5787 25.259 42.2766 25.3967 41.9705 25.3967Z" fill="black"/>
<path d="M15.0454 25.3967C14.8314 25.3967 14.6155 25.3294 14.4323 25.1897C13.9865 24.85 13.9004 24.2141 14.2391 23.7683L24.5523 10.2151C24.8921 9.76841 25.528 9.68223 25.9737 10.022C27.7883 11.4047 30.3914 11.0491 31.7732 9.23353C32.1119 8.7878 32.7469 8.70163 33.1946 9.04038L38.6226 13.1669C38.8365 13.3293 38.9772 13.571 39.0138 13.8374C39.0495 14.1039 38.9782 14.3743 38.8157 14.5882C37.434 16.4048 37.7886 19.0059 39.6052 20.3877C40.0509 20.7265 40.1371 21.3624 39.7983 21.8081L37.3765 24.9966C37.0387 25.4423 36.4018 25.5285 35.9561 25.1897C35.5094 24.851 35.4232 24.215 35.762 23.7693L37.6202 21.3227C35.8194 19.412 35.4282 16.5405 36.6534 14.2178L32.7072 11.2185C30.7985 13.0193 27.925 13.4095 25.6033 12.1843L15.8536 24.9966C15.6536 25.259 15.3515 25.3967 15.0454 25.3967Z" fill="black"/>
</g>
<defs>
<clipPath id="clip0_125_2016">
<rect width="67" height="67" fill="white"/>
</clipPath>
</defs>
</svg>
