<svg width="72" height="72" viewBox="0 0 72 72" fill="none" xmlns="http://www.w3.org/2000/svg">
<rect width="72" height="72" rx="16" fill="#ECEBFF"/>
<path d="M35.5254 17C30.4863 17 25.6536 19.0018 22.0904 22.565C18.5272 26.1282 16.5254 30.9609 16.5254 36C16.5254 41.0391 18.5272 45.8718 22.0904 49.435C25.6536 52.9982 30.4863 55 35.5254 55L35.5254 36V17Z" fill="#4A3AFF"/>
<path d="M35.5254 55C40.5645 55 45.3972 52.9982 48.9604 49.435C52.5236 45.8718 54.5254 41.0391 54.5254 36C54.5254 30.9609 52.5236 26.1282 48.9604 22.565C45.3972 19.0018 40.5645 17 35.5254 17L35.5254 36L35.5254 55Z" fill="#B8B1FF"/>
</svg>
