<svg width="526" height="553" viewBox="0 0 526 553" fill="none" xmlns="http://www.w3.org/2000/svg">
<path d="M394.502 417.661C467.126 344.996 467.124 227.185 394.498 154.523C321.871 81.8611 204.122 81.8631 131.498 154.528C58.8735 227.192 58.8756 345.003 131.502 417.665C204.129 490.327 321.878 490.325 394.502 417.661Z" fill="#EEEDF7"/>
<path d="M322.643 505.475C322.643 510.087 299.589 513.823 271.152 513.823C242.715 513.823 219.662 510.087 219.662 505.475C219.662 500.864 242.715 497.127 271.152 497.127C299.589 497.127 322.643 500.864 322.643 505.475Z" fill="#8CD2FE"/>
<path d="M219.664 177.806H323.344V505.475H219.664V177.806Z" fill="#8CD2FE"/>
<path opacity="0.2" d="M323.342 235.743L219.664 209.453V177.806H323.342V235.743Z" fill="#395B64"/>
<path d="M296.013 100.023C293.046 100.023 290.309 98.9755 287.929 96.8969L291.196 93.1519C293.571 95.2243 296.356 95.593 299.704 94.2828C307.623 91.1835 316.065 79.4362 317.07 70.1133C317.482 66.2975 316.564 63.6127 314.343 62.1276C307.698 57.6974 301.082 66.4746 300.801 66.8516L296.804 63.9022C300.12 59.3887 308.631 52.3465 317.097 57.9931C320.874 60.5134 322.618 65.0061 322.01 70.6465C320.815 81.7086 311.045 95.1785 301.513 98.9089C299.617 99.6546 297.774 100.023 296.013 100.023Z" fill="#D3C848"/>
<g opacity="0.2">
<path d="M310.296 60.9071C309.894 59.2429 309.936 57.5016 310.531 55.9145C304.532 55.8832 299.252 60.5759 296.806 63.9064L300.803 66.8557C301.024 66.5558 305.244 60.9841 310.296 60.9071ZM297.916 94.8182C295.349 95.3805 293.134 94.8432 291.196 93.154L287.929 96.8989C290.309 98.9756 293.046 100.025 296.013 100.025C296.417 100.025 296.827 100 297.239 99.9608C296.987 98.2153 297.27 96.4532 297.916 94.8182Z" fill="#395B64"/>
</g>
<path d="M246.997 100.027C249.964 100.027 252.701 98.9797 255.081 96.901L251.815 93.156C249.439 95.2285 246.654 95.5992 243.306 94.287C235.385 91.1877 226.944 79.4425 225.936 70.1196C225.524 66.3038 226.44 63.619 228.663 62.1339C235.308 57.7036 241.924 66.4787 242.205 66.8557L246.202 63.9064C242.886 59.3928 234.374 52.3527 225.909 57.9994C222.133 60.5197 220.388 65.0124 220.998 70.6528C222.195 81.7149 231.965 95.1847 241.497 98.9131C243.394 99.6587 245.236 100.027 246.997 100.027Z" fill="#D3C848"/>
<g opacity="0.2">
<path d="M232.71 60.9112C233.112 59.247 233.068 57.5058 232.475 55.9165C238.475 55.8853 243.754 60.5759 246.202 63.9085L242.205 66.8578C241.983 66.5579 237.763 60.9862 232.71 60.9112ZM245.095 94.8223C247.662 95.3847 249.877 94.8473 251.815 93.156L255.081 96.901C252.702 98.9797 249.964 100.027 246.998 100.027C246.594 100.027 246.184 100.002 245.771 99.9649C246.021 98.2174 245.74 96.4574 245.095 94.8223Z" fill="#395B64"/>
</g>
<path d="M285.233 147.606C275.873 149.7 266.166 149.701 256.805 147.608C259.576 135.205 265.119 123.106 265.117 110.396H276.919C276.919 123.103 282.465 135.203 285.233 147.606Z" fill="#D3C848"/>
<path d="M306.418 46.3853C306.418 41.4948 290.565 37.5311 271.013 37.5311C251.461 37.5332 235.608 41.499 235.608 46.3895C232.071 94.9973 271.017 121.366 271.017 121.366C271.017 121.366 309.961 94.9952 306.418 46.3853Z" fill="#D3C848"/>
<path opacity="0.2" d="M306.418 46.3853C306.418 44.4774 303.98 42.7153 299.877 41.2698C303.018 48.1599 303.126 56.1581 301.398 63.5481C300.482 67.4639 295.586 68.1908 293.931 83.9164C291.083 110.979 276.659 89.6193 276.325 104.945C276.278 107.201 275.953 109.344 274.875 111.319C273.827 113.237 272.314 115.014 272.233 117.298C272.143 119.802 273.136 122.345 273.894 124.691C275.272 128.96 276.157 133.518 273.798 137.638C270.705 143.043 263.737 142.849 258.32 141.687C257.771 143.655 257.246 145.627 256.805 147.606C266.165 149.7 275.873 149.699 285.233 147.604C282.891 137.121 278.58 126.855 277.298 116.255C288.158 106.422 309.055 82.5688 306.418 46.3853Z" fill="#395B64"/>
<path d="M271.308 51.9653L275.903 61.2757L286.17 62.7671L278.74 70.0154L280.495 80.2464L271.311 75.4163L262.126 80.2485L263.881 70.0154L256.449 62.7691L266.718 61.2757L271.308 51.9653Z" fill="#E2D661"/>
<path d="M241.22 144.392H301.998V168.433H241.22V144.392Z" fill="#395B64"/>
<path d="M288.918 148.514L254.302 148.516C249.943 148.516 246.41 152.053 246.41 156.413C246.41 160.774 249.943 164.309 254.302 164.309L288.918 164.307C293.277 164.307 296.81 160.77 296.81 156.41C296.81 152.051 293.275 148.514 288.918 148.514Z" fill="#D3C848"/>
<path d="M329.902 168.554H213.102C207.996 168.554 203.857 172.694 203.857 177.804C203.857 182.913 207.996 187.054 213.102 187.054H329.902C335.009 187.054 339.147 182.913 339.147 177.804C339.149 172.696 335.009 168.554 329.902 168.554Z" fill="#8CD2FE"/>
<path d="M261.405 251.843L264.507 513.823C267.151 523.929 325.566 549.488 325.566 549.488L334.076 545.641L272.249 513.821L272.166 502.095L313.41 494.461V510.241C315.529 516.333 381.066 537.406 381.066 537.406C384.832 539.526 387.638 530.099 387.638 530.099L322.811 505.588L319.566 240.067C319.539 237.744 317.757 236.286 315.586 236.819C313.416 237.348 311.678 239.66 311.707 241.983L311.955 262.182L269.508 269.816L269.264 249.925C269.235 247.602 267.453 246.146 265.284 246.678C263.112 247.209 261.376 249.521 261.405 251.843ZM271.51 455.476L313.958 447.842L314.545 488.848L272.097 496.481L271.51 455.476ZM271.198 408.197L313.645 400.564L313.887 442.225L271.44 449.859L271.198 408.197ZM270.8 375.551L313.248 367.917L313.579 394.948L271.131 402.582L270.8 375.551ZM270.401 342.904L312.848 335.27L313.179 362.301L270.732 369.935L270.401 342.904ZM270.001 310.255L312.448 302.621L312.779 329.653L270.332 337.286L270.001 310.255ZM269.576 275.436L312.024 267.802L312.38 297.006L269.932 304.639L269.576 275.436Z" fill="#EEEDF7"/>
<path d="M258.799 229.969L271.45 290.624C271.373 290.974 271.356 291.357 271.419 291.763C271.498 292.276 271.714 292.742 271.983 293.175L325.202 548.32C325.718 550.798 327.41 552.525 329.315 552.765C329.817 552.827 330.335 552.788 330.849 552.627C333.295 551.873 334.736 548.745 334.078 545.641L322.143 489.339L367.813 481.847L380.015 535.037C380.55 537.37 382.121 539.009 383.843 539.253C384.297 539.318 384.763 539.286 385.221 539.143C387.405 538.464 388.617 535.541 387.936 532.619L318.469 233.778C317.93 231.46 315.802 229.54 313.712 229.486C311.612 229.431 310.336 231.279 310.871 233.616L315.577 254.134L271.665 251.214L267.203 230.171C266.689 227.738 264.399 225.718 262.088 225.651C259.765 225.584 258.287 227.515 258.799 229.969ZM316.899 259.9L323.878 290.318L279.659 288.926L272.936 257.219L316.899 259.9ZM280.97 295.117L325.239 296.254L331.882 325.214L287.378 325.343L280.97 295.117ZM288.729 331.713L333.283 331.315L340.113 361.089L295.326 362.826L288.729 331.713ZM296.712 369.383L341.55 367.361L348.574 397.981L303.505 401.42L296.712 369.383ZM304.938 408.176L350.056 404.436L357.282 435.943L311.934 441.184L304.938 408.176ZM320.62 482.164L313.408 448.145L358.803 442.583L366.242 475.013L320.62 482.164Z" fill="#395B64"/>
<path opacity="0.2" d="M258.799 229.969L271.452 290.626C271.375 290.976 271.356 291.359 271.419 291.765C271.498 292.278 271.714 292.744 271.983 293.177L325.201 548.322C325.718 550.801 327.41 552.527 329.315 552.767C329.817 552.829 330.335 552.79 330.847 552.629C333.293 551.875 334.734 548.747 334.076 545.643L322.141 489.341L367.811 481.849L380.012 535.039C380.547 537.372 382.119 539.012 383.841 539.257C384.295 539.322 384.761 539.289 385.219 539.147C387.403 538.466 388.614 535.544 387.934 532.623L375.322 478.369C373.992 476.659 372.741 474.878 371.617 472.991C369.483 469.409 367.761 465.572 366.462 461.564C364.822 456.501 363.825 451.186 362.432 446.037C361.018 440.817 359.363 435.716 357.504 430.661C355.643 425.606 354.203 420.324 352.791 415.108C347.195 394.446 343.694 373.228 339.051 352.31C337.869 346.986 336.616 341.679 335.231 336.411C334.28 332.791 333.21 329.219 332.138 325.645C330.335 328.259 326.009 328.093 323.338 328.128C318.496 328.192 313.67 328.732 308.824 328.638C305.735 328.578 302.616 328.382 299.525 328.23C296.573 328.086 293.5 327.838 290.706 326.789C289.795 326.445 288.968 325.955 288.314 325.341L287.378 325.343L280.97 295.119L325.239 296.256L327.391 305.641C326.598 300.638 326.024 295.589 325.507 290.553C324.964 285.263 324.491 279.966 323.915 274.68C323.369 269.677 322.287 264.773 321.186 259.883C319.037 250.337 316.718 240.762 316.739 230.856C315.867 230.042 314.786 229.515 313.71 229.486C311.609 229.431 310.333 231.279 310.868 233.616L315.575 254.134L314.103 254.036C314.033 254.395 313.804 254.665 313.425 254.753C310.756 255.369 308.033 255.498 305.316 255.534C302.56 255.571 299.841 255.642 297.091 255.798C291.477 256.113 285.812 255.715 280.31 254.582C276.088 253.711 271.86 252.718 268.829 249.321C266.233 246.409 264.776 242.524 263.785 238.715C262.677 234.459 262.146 230.069 261.726 225.68C259.619 225.82 258.316 227.651 258.799 229.969ZM313.408 448.145L358.803 442.583L366.048 474.162C366.198 474.359 366.258 474.611 366.206 474.853L366.244 475.011L366.154 475.026C366.098 475.136 366.019 475.241 365.894 475.328C358.986 480.244 350.455 482.566 342.316 483.689C337.144 484.401 331.563 485.465 326.394 484.559C324.541 484.234 322.641 483.509 321.521 482.022L320.621 482.164L313.408 448.145ZM304.937 408.176L350.054 404.434L357.282 435.941L356.644 436.014C356.626 436.087 356.617 436.158 356.576 436.235C355.56 438.124 353.534 438.892 351.659 439.461C349.34 440.163 346.97 440.777 344.599 441.238C340.935 441.952 337.211 442.398 333.499 442.667C330.699 442.871 327.893 442.989 325.087 442.979C322.122 442.971 319.073 442.885 316.183 442.156C315.315 441.938 314.257 441.573 313.394 441.009L311.932 441.177L304.937 408.176ZM296.714 369.383L341.552 367.361L348.576 397.981L347.075 398.095C347.012 398.302 346.868 398.489 346.627 398.606C340.773 401.405 334.201 401.697 327.912 402.126C321.184 402.586 314.384 404.169 307.677 402.907C306.617 402.707 305.549 402.394 304.725 401.638C304.629 401.551 304.556 401.443 304.469 401.347L303.505 401.42L296.714 369.383ZM294.491 358.896L288.729 331.713L333.281 331.315L340.111 361.089L337.617 361.185C335.995 362.716 333.547 362.839 331.461 363.116C327.531 363.639 323.546 363.843 319.599 364.126C316.433 364.353 313.321 364.813 310.169 365.203C307.408 365.544 304.527 365.786 301.798 365.163C299.981 364.749 298.371 363.93 297.016 362.76L295.326 362.824L294.737 360.048C294.67 359.939 294.597 359.842 294.535 359.731C294.368 359.444 294.387 359.15 294.491 358.896ZM272.936 257.219L316.899 259.9L323.426 288.349C324.133 288.368 324.323 289.42 323.78 289.897L323.875 290.32L322.655 290.28C314.747 292.307 306.634 293.504 298.517 293.677C295.565 293.74 292.559 293.763 289.624 293.409C287.259 293.123 284.809 292.561 282.81 291.159C281.948 290.553 281.278 289.807 280.783 288.964L279.656 288.928L272.936 257.219Z" fill="#2B4C54"/>
<path d="M418.088 496.18L419.092 498.31C419.092 498.31 414.591 506.263 406.422 511.705C399.725 516.167 395.851 516.9 394.574 514.588L418.088 496.18Z" fill="#395B64"/>
<path d="M395.574 510.418C400.46 502.826 407.588 492.003 407.588 492.003C407.588 492.003 411.268 488.467 414.029 489.97C415.746 490.906 416.204 493.659 418.398 496.619C419.687 498.356 408.037 510.51 400.268 514.146C398.413 515.015 391.342 516.994 395.574 510.418Z" fill="#2B4C54"/>
<path d="M410.306 481.41C410.442 481.752 413.546 490.858 413.546 490.858C413.546 490.858 413.404 495.396 409.195 496.186C404.985 496.973 400.932 485.151 400.932 485.151L410.306 481.41Z" fill="#F5B297"/>
<path d="M408.566 498.081C408.566 498.081 407.654 491.091 404.421 490.506C401.188 489.921 402.746 499.383 402.746 499.383C402.746 499.383 396.18 508.193 396.053 509.672C395.928 511.153 401.892 510.499 408.566 498.081Z" fill="#395B64"/>
<path d="M390.378 352.599C390.378 352.599 374.733 372.368 368.101 411.013C364.276 433.296 401.047 488.817 401.047 488.817L412.322 484.472L400.239 423.144L434.276 346.188L390.378 352.599Z" fill="#2B4C54"/>
<path d="M427.106 526.816L427.25 529.166C427.25 529.166 420.126 534.885 410.523 536.912C402.652 538.574 398.78 537.82 398.453 535.2L427.106 526.816Z" fill="#395B64"/>
<path d="M400.924 531.699C408.273 526.458 418.9 519.047 418.9 519.047C418.9 519.047 423.628 517.127 425.637 519.545C426.886 521.049 426.292 523.777 427.235 527.341C427.789 529.432 412.469 536.406 403.905 536.902C401.859 537.02 394.558 536.239 400.924 531.699Z" fill="#2B4C54"/>
<path d="M425.345 510.214C425.345 510.58 424.856 520.189 424.856 520.189C424.856 520.189 423.043 524.352 418.842 523.525C414.641 522.698 415.253 510.214 415.253 510.214H425.345Z" fill="#F5B297"/>
<path d="M417.559 525.054C417.559 525.054 419.302 518.225 416.514 516.481C413.729 514.74 411.672 524.107 411.672 524.107C411.672 524.107 402.31 529.857 401.646 531.184C400.98 532.513 406.761 534.115 417.559 525.054Z" fill="#395B64"/>
<path d="M438.373 345.401L403.616 353.822C403.616 353.822 396.132 439.951 413.642 515.302C413.642 515.302 418.269 519.449 426.028 514.857C426.028 514.857 431.249 417.352 435.071 400.553C438.891 383.755 447.062 363.035 438.373 345.401Z" fill="#395B64"/>
<path d="M442.52 287.866C442.52 287.866 468.19 320.875 461.356 332.508C456.018 341.594 437.979 313.527 437.979 313.527L442.52 287.866Z" fill="#FA9C70"/>
<path d="M389.278 289.959C389.278 289.959 363.185 314.071 372.112 324.443C383.364 337.515 396.369 302.934 396.369 302.934L389.278 289.959Z" fill="#FDAE88"/>
<path d="M440.086 316.862C437.026 317.743 433.866 318.543 431.245 319.924C427.204 311.798 423.064 303.313 421.044 298.691C411.882 277.818 415.963 269.593 415.963 269.593C436.545 272.074 447.248 288.749 454.247 304.2C454.247 304.2 444.648 315.56 440.086 316.862ZM396.892 307.216C399.827 301.326 402.837 295.169 404.309 291.809C410.946 276.662 407.994 270.695 407.994 270.695C397.999 271.637 390.04 280.855 382.856 291.965C382.856 291.965 379.619 297.285 380.364 298.782C382.731 303.542 392.201 304.714 396.892 307.216Z" fill="#77C6EE"/>
<path opacity="0.1" d="M400.033 289.076C399.508 289.478 398.959 289.849 398.378 290.164C396.477 291.195 394.012 291.49 392.318 292.84C391.121 293.792 390.682 295.358 390.088 296.706C389.46 298.131 388.592 299.403 387.238 300.228C386.17 300.88 384.942 301.361 383.666 301.634C386.683 304.873 392.765 305.014 396.892 307.214C399.827 301.324 402.837 295.167 404.309 291.807C404.569 291.211 404.79 290.655 405.023 290.089C404.921 290.126 404.819 290.166 404.717 290.205C403.035 290.849 401.292 290.23 400.033 289.076ZM441.648 308.705C440.95 307.885 436.17 292.08 435.344 291.382C434.343 290.536 434.118 304.452 432.875 304.562C430.289 304.792 427.725 305.7 425.114 305.198C424.685 305.116 424.281 304.996 423.888 304.862C425.984 309.276 428.634 314.673 431.245 319.924C433.866 318.543 437.026 317.743 440.086 316.862C442.437 316.191 445.699 313.329 448.313 310.711C444.72 311.532 444.187 311.69 441.648 308.705Z" fill="#231F20"/>
<path d="M412.85 269.241C412.85 269.241 393.69 269.835 391.206 295.919C388.723 322.004 379.142 352.535 386.593 357.278C394.044 362.02 435.202 362.02 442.653 356.684C450.104 351.348 439.813 303.625 436.976 293.546C434.141 283.469 431.655 269.833 412.85 269.241Z" fill="#8CD2FE"/>
<path opacity="0.1" d="M443.505 325.731C443.299 329.386 442.888 333.029 442.041 336.626C440.701 342.325 438.123 348.303 433.025 352.431C427.269 357.092 419.523 357.5 412.001 358.227C404.253 358.975 396.346 359.419 389.106 356.538C387.374 355.849 385.827 354.961 384.438 353.945C384.882 355.482 385.573 356.628 386.593 357.278C394.044 362.02 435.203 362.02 442.653 356.684C446.486 353.943 445.626 340.002 443.505 325.731Z" fill="#231F20"/>
<path d="M376.469 325.731C393.409 318.295 354.521 275.873 354.521 275.873L349.061 280.214C349.061 280.212 366.146 330.263 376.469 325.731Z" fill="#FDAE88"/>
<path d="M356.028 281.678C356.028 281.678 354.248 276.692 354.521 275.873C354.985 274.48 355.533 275.311 354.942 270.016C354.531 266.354 356.663 264.717 355.658 263.915C353.678 262.339 351.7 268.416 351.7 268.416C351.7 268.416 350.122 256.334 348.036 256.927C346.912 257.248 348.153 266.315 348.153 266.315C348.153 266.315 346.814 264.638 345.911 265.238C344.581 266.121 345.405 267.917 345.405 267.917C345.405 267.917 344.389 267.296 343.619 268.225C342.738 269.285 343.717 270.46 343.717 270.46C343.717 270.46 342.924 269.976 342.359 270.326C341.793 270.678 340.979 271.63 343.177 274.467C344.968 276.777 349.046 277.539 350.738 284.382L356.028 281.678Z" fill="#FDAE88"/>
<path d="M346.585 272.599C347.06 272.518 347.491 272.241 347.762 271.895C348.213 271.316 348.199 270.62 347.722 270.083C347.713 270.072 347.701 270.063 347.688 270.057C347.675 270.05 347.661 270.046 347.647 270.046C347.632 270.045 347.618 270.047 347.604 270.052C347.591 270.057 347.578 270.065 347.568 270.074C347.522 270.114 347.518 270.185 347.56 270.229C347.968 270.689 347.98 271.262 347.591 271.759C347.193 272.27 346.392 272.618 345.696 272.253C344.426 271.589 343.827 270.42 343.821 270.408C343.806 270.384 343.783 270.366 343.757 270.358C343.73 270.351 343.701 270.354 343.676 270.366C343.651 270.379 343.632 270.401 343.623 270.427C343.613 270.453 343.614 270.482 343.625 270.508C343.65 270.558 344.262 271.751 345.594 272.447C345.917 272.618 346.261 272.655 346.585 272.599Z" fill="#FA9C70"/>
<path d="M348.911 270.882C349.073 270.855 349.219 270.768 349.338 270.622C349.904 269.924 349.752 267.821 348.234 266.238C348.224 266.227 348.213 266.219 348.2 266.213C348.187 266.207 348.172 266.204 348.158 266.204C348.144 266.203 348.13 266.206 348.116 266.211C348.103 266.216 348.091 266.224 348.08 266.234C348.07 266.243 348.062 266.255 348.056 266.268C348.05 266.281 348.047 266.295 348.046 266.31C348.046 266.324 348.048 266.338 348.053 266.352C348.059 266.365 348.066 266.377 348.076 266.388C349.463 267.835 349.689 269.839 349.167 270.483C348.923 270.783 348.592 270.672 348.359 270.526C346.923 269.631 345.507 267.864 345.493 267.846C345.484 267.834 345.472 267.825 345.46 267.818C345.447 267.811 345.433 267.807 345.419 267.805C345.405 267.804 345.39 267.805 345.376 267.809C345.363 267.813 345.35 267.82 345.339 267.829C345.291 267.867 345.284 267.935 345.322 267.983C345.336 268.002 346.775 269.797 348.243 270.714C348.482 270.862 348.709 270.918 348.911 270.882ZM344.523 274.305C344.829 274.253 345.078 274.098 345.255 273.905C345.69 273.428 345.803 272.57 345.155 271.92C345.145 271.909 345.133 271.901 345.12 271.895C345.107 271.89 345.093 271.887 345.078 271.887C345.064 271.887 345.05 271.89 345.036 271.895C345.023 271.901 345.011 271.909 345.001 271.92C344.958 271.961 344.958 272.032 345.001 272.074C345.553 272.628 345.461 273.355 345.095 273.757C344.745 274.14 344.033 274.334 343.173 273.624C342.478 273.049 342.001 271.897 341.997 271.886C341.986 271.86 341.964 271.838 341.938 271.827C341.911 271.816 341.881 271.816 341.854 271.826C341.827 271.837 341.805 271.858 341.794 271.885C341.782 271.912 341.782 271.943 341.793 271.97C341.814 272.02 342.295 273.184 343.032 273.794C343.596 274.259 344.11 274.375 344.523 274.305ZM350.139 275.173C350.177 275.167 350.208 275.142 350.222 275.104C350.243 275.048 350.216 274.986 350.16 274.963C349.429 274.682 348.977 274.253 348.819 273.686C348.465 272.432 349.635 270.887 349.648 270.872C349.685 270.824 349.675 270.755 349.627 270.718C349.616 270.709 349.603 270.702 349.589 270.698C349.575 270.695 349.56 270.694 349.546 270.696C349.531 270.698 349.517 270.702 349.505 270.71C349.492 270.717 349.482 270.727 349.473 270.739C349.421 270.805 348.226 272.384 348.607 273.744C348.786 274.382 349.281 274.861 350.081 275.167C350.102 275.175 350.12 275.177 350.139 275.173ZM349.91 278.689C349.998 278.674 350.083 278.649 350.166 278.614C350.893 278.312 351.324 277.344 351.457 276.996C351.825 277.185 352.186 277.229 352.531 277.127C353.235 276.921 353.612 276.183 353.626 276.152C353.653 276.098 353.632 276.033 353.578 276.006C353.552 275.993 353.522 275.991 353.494 276C353.467 276.009 353.444 276.028 353.43 276.054C353.426 276.06 353.079 276.74 352.469 276.919C352.148 277.012 351.807 276.954 351.455 276.744C351.441 276.736 351.425 276.731 351.409 276.729C351.393 276.728 351.376 276.73 351.361 276.735C351.33 276.748 351.307 276.773 351.297 276.804C351.292 276.817 350.866 278.089 350.085 278.412C349.81 278.527 349.521 278.508 349.221 278.358C349.208 278.351 349.194 278.348 349.179 278.347C349.165 278.345 349.15 278.347 349.137 278.352C349.123 278.357 349.11 278.364 349.099 278.374C349.088 278.383 349.08 278.395 349.073 278.408C349.046 278.462 349.069 278.529 349.123 278.556C349.39 278.687 349.654 278.733 349.91 278.689ZM348.724 275.19C348.765 275.184 348.801 275.152 348.811 275.111C348.813 275.1 349.092 273.973 347.77 273.374C347.716 273.349 347.649 273.374 347.624 273.428C347.599 273.484 347.624 273.549 347.678 273.574C348.828 274.094 348.607 275.017 348.599 275.054C348.594 275.072 348.594 275.091 348.599 275.108C348.603 275.126 348.612 275.142 348.625 275.156C348.637 275.169 348.652 275.179 348.67 275.185C348.687 275.191 348.705 275.193 348.724 275.19ZM349.719 261.078C349.769 261.07 349.806 261.028 349.81 260.976C349.812 260.947 349.801 260.919 349.782 260.898C349.762 260.876 349.735 260.863 349.706 260.862L348.607 260.812C348.593 260.811 348.578 260.813 348.565 260.818C348.551 260.823 348.538 260.83 348.528 260.84C348.517 260.85 348.509 260.861 348.502 260.874C348.496 260.887 348.493 260.902 348.492 260.916C348.49 260.976 348.536 261.028 348.597 261.031L349.696 261.081C349.704 261.078 349.712 261.078 349.719 261.078ZM350.252 264.436C350.306 264.428 350.345 264.38 350.343 264.324C350.342 264.294 350.329 264.267 350.308 264.247C350.286 264.227 350.258 264.216 350.229 264.217L348.944 264.267C348.93 264.268 348.916 264.271 348.903 264.277C348.889 264.283 348.878 264.292 348.868 264.303C348.858 264.313 348.851 264.326 348.846 264.339C348.841 264.353 348.839 264.367 348.84 264.382C348.842 264.442 348.894 264.49 348.955 264.488L350.239 264.438C350.243 264.438 350.247 264.438 350.252 264.436ZM350.129 264.892C350.175 264.884 350.212 264.846 350.218 264.798C350.22 264.784 350.219 264.77 350.215 264.756C350.211 264.742 350.205 264.729 350.196 264.717C350.187 264.706 350.176 264.696 350.163 264.689C350.151 264.682 350.137 264.677 350.122 264.676L349.331 264.576C349.317 264.574 349.302 264.575 349.289 264.579C349.275 264.583 349.262 264.589 349.25 264.598C349.239 264.607 349.229 264.618 349.222 264.631C349.215 264.643 349.21 264.657 349.209 264.671C349.207 264.686 349.208 264.7 349.212 264.714C349.216 264.728 349.222 264.741 349.231 264.753C349.24 264.764 349.251 264.774 349.264 264.781C349.276 264.788 349.29 264.793 349.304 264.794L350.095 264.894C350.108 264.894 350.118 264.894 350.129 264.892Z" fill="#FA9C70"/>
<path d="M410.679 263.984L409.114 272.357C409.114 272.357 410.534 280.28 421.375 274.461L418.961 262.414L410.679 263.984Z" fill="#FDAE88"/>
<path opacity="0.15" d="M418.96 262.414L410.679 263.984L410 267.617C410.196 267.677 410.394 267.735 410.59 267.792C411.531 268.058 412.492 268.283 413.412 268.591C414.133 268.833 414.849 269.137 415.376 269.581C415.929 270.045 416.198 270.62 416.225 271.228C416.273 272.228 415.548 273.088 415.032 273.973C414.701 274.54 414.514 275.309 413.798 275.696C413.279 275.977 412.603 276.069 411.939 276.048C413.75 276.925 416.677 276.985 421.373 274.463L418.96 262.414Z" fill="#33133F"/>
<path d="M412.003 235.799C412.003 235.799 394.296 256.742 402.733 262.312C411.168 267.883 422.504 262.018 422.504 262.018C422.504 262.018 426.467 263.524 429.226 259.287C431.449 255.871 428.901 255.259 428.901 255.259C428.901 255.259 435.74 247.217 430.475 241.856C425.208 236.497 412.003 235.799 412.003 235.799Z" fill="#FDAE88"/>
<path opacity="0.05" d="M417.938 255.284C417.707 255.909 416.756 256.132 415.811 255.784C414.868 255.434 414.289 254.647 414.518 254.022C414.749 253.397 415.7 253.174 416.646 253.522C417.591 253.87 418.169 254.659 417.938 255.284ZM408.156 249.744C407.925 250.368 406.974 250.591 406.031 250.241C405.088 249.894 404.509 249.104 404.738 248.479C404.969 247.854 405.92 247.631 406.863 247.981C407.808 248.329 408.387 249.119 408.156 249.744Z" fill="#33133F"/>
<path d="M411.637 244.628C411.553 244.58 411.497 244.491 411.497 244.389C411.497 244.299 411.447 242.227 408.585 241.929C408.431 241.912 408.32 241.777 408.337 241.625C408.354 241.473 408.489 241.362 408.641 241.377C412.016 241.727 412.051 244.361 412.051 244.389C412.051 244.543 411.926 244.666 411.774 244.666C411.724 244.663 411.676 244.651 411.637 244.628ZM416.279 247.348C416.249 247.331 416.222 247.307 416.2 247.28C416.104 247.159 416.125 246.986 416.244 246.89C416.265 246.873 418.344 245.276 421.119 247.767C421.234 247.869 421.242 248.044 421.14 248.159C421.038 248.273 420.863 248.283 420.749 248.179C418.317 245.994 416.606 247.309 416.589 247.323C416.546 247.359 416.494 247.38 416.438 247.385C416.383 247.389 416.327 247.377 416.279 247.348ZM410.086 251.804C410.003 251.756 409.928 251.697 409.861 251.629C409.436 251.187 409.551 250.489 409.555 250.46C409.569 250.373 409.624 250.3 409.703 250.26C411.327 249.429 412.124 247.507 412.13 247.488C412.188 247.346 412.351 247.277 412.492 247.336C412.638 247.394 412.703 247.557 412.644 247.698C412.611 247.784 411.803 249.729 410.092 250.683C410.088 250.85 410.117 251.097 410.263 251.247C410.398 251.387 410.633 251.437 410.96 251.393C410.996 251.388 411.033 251.391 411.068 251.4C411.103 251.41 411.136 251.426 411.165 251.448C411.194 251.47 411.218 251.498 411.237 251.529C411.255 251.561 411.267 251.596 411.271 251.632C411.276 251.668 411.274 251.704 411.264 251.74C411.255 251.775 411.239 251.808 411.217 251.837C411.194 251.866 411.167 251.89 411.135 251.908C411.104 251.926 411.069 251.938 411.033 251.943C410.65 251.989 410.331 251.943 410.086 251.804Z" fill="#2B4C54"/>
<path d="M405.2 253.166C405.2 253.166 407.232 255.984 411.127 256.317C411.091 257.998 405.539 259.235 405.2 253.166Z" fill="#FCFAF7"/>
<path d="M409.794 246.151C409.366 246.9 408.599 247.271 408.087 246.975C407.575 246.682 407.507 245.834 407.937 245.084C408.366 244.334 409.132 243.966 409.645 244.259C410.157 244.553 410.223 245.401 409.794 246.151ZM418.153 250.945C417.724 251.695 416.958 252.066 416.446 251.77C415.934 251.476 415.865 250.629 416.296 249.879C416.725 249.129 417.489 248.758 418.003 249.054C418.515 249.348 418.582 250.196 418.153 250.945Z" fill="#2B4C54"/>
<path opacity="0.05" d="M406.805 258.621C406.551 258.475 406.407 258.342 406.393 258.327C406.38 258.315 406.369 258.3 406.361 258.283C406.354 258.266 406.35 258.249 406.349 258.23C406.349 258.212 406.352 258.194 406.358 258.177C406.364 258.16 406.374 258.144 406.387 258.131C406.399 258.118 406.414 258.107 406.431 258.1C406.447 258.092 406.465 258.088 406.483 258.088C406.501 258.087 406.519 258.09 406.536 258.096C406.553 258.103 406.569 258.113 406.582 258.125C406.591 258.133 407.513 258.975 408.945 258.694C409.02 258.681 409.093 258.729 409.107 258.804C409.122 258.879 409.072 258.952 408.997 258.966C408.002 259.16 407.24 258.871 406.805 258.621ZM427.664 256.457C427.664 256.457 429.446 256.6 429.155 257.75C428.861 258.9 426.544 260.899 424.867 260.704C424.867 260.704 428.672 259.741 428.695 257.85C428.716 255.963 427.352 257.192 427.664 256.457Z" fill="#33133F"/>
<path d="M426.27 241.391C426.27 241.391 421.103 244.545 418.502 242.791C415.902 241.037 415.938 240.387 415.938 240.387C415.938 240.387 412.984 241.895 409.078 239.394C405.173 236.892 406.426 233.945 406.426 233.945C406.426 233.945 403.982 231.3 406.776 228.457C409.57 225.614 411.791 228.273 411.791 228.273C411.791 228.273 411.458 225.372 415.621 224.789C419.785 224.206 420.276 229.819 420.276 229.819C420.276 229.819 421.713 229.102 426.426 230.086C431.139 231.069 431.414 236.907 431.414 236.907C431.414 236.907 437.925 238.284 436.029 244.186C436.029 244.186 438.467 248.469 434.976 250.75C434.976 250.75 434.062 258.792 428.333 255.546C428.333 255.546 425.522 258.248 423.33 256.736C421.14 255.224 424.298 252.789 424.523 251.239C424.748 249.689 421.702 246.463 426.27 241.391Z" fill="#2B4C54"/>
<path d="M451.097 323.21C443.802 329.351 430.11 360.014 428.308 359.917C427.612 359.65 426.072 360.114 424.908 360.8C423.744 361.483 420.397 359.892 420.097 360.673C419.797 361.454 421.49 362.899 422.61 362.841C423.73 362.783 423.771 363.789 422.964 364.488C422.83 364.605 422.622 364.757 422.37 364.93C423.522 366.355 424.735 367.729 425.851 369.183C426.732 370.331 427.456 371.622 428.337 372.776C429.548 371.012 430.568 368.904 430.968 367.648C431.622 365.588 432.565 363.855 432.565 363.855C432.565 363.855 451.705 346.503 460.371 334.231C465.613 326.812 459.313 316.293 451.097 323.21Z" fill="#FDAE88"/>
<g opacity="0.2">
<path d="M420.253 360.625C420.461 360.462 420.921 360.593 421.107 360.654C421.107 360.654 421.196 361.039 420.961 361.035C420.728 361.031 420.045 360.787 420.253 360.625Z" fill="white"/>
</g>
<path d="M422.572 363.364L429.75 372.372C429.75 372.372 429.892 374.711 428.803 374.844C427.714 374.978 420.351 366.815 420.143 365.111C419.937 363.407 422.572 363.364 422.572 363.364Z" fill="#2B4C54"/>
<path d="M326.282 85.7619L363.217 70.4799L365.413 84.1018L326.282 85.7619Z" fill="#EEEDF7"/>
<path d="M334.199 146.856L368.5 155.09L363.015 165.96L334.199 146.856Z" fill="white"/>
<path d="M274.658 30.4015L277.485 0L288.793 3.86371L274.658 30.4015Z" fill="#BDE0FB"/>
<path d="M338.298 37.5332C338.298 40.6096 335.806 43.1027 332.731 43.1027C329.656 43.1027 327.165 40.6096 327.165 37.5332C327.165 34.4568 329.656 31.9636 332.731 31.9636C335.806 31.9636 338.298 34.4568 338.298 37.5332Z" fill="#EEEDF7"/>
<path d="M205.935 73.0189L171.637 64.2542L171.446 78.1198L205.935 73.0189Z" fill="#BDE0FB"/>
<path d="M378.628 259.029C378.628 261.243 376.836 263.036 374.623 263.036C372.41 263.036 370.617 261.243 370.617 259.029C370.617 256.817 372.41 255.021 374.623 255.021C376.834 255.021 378.628 256.817 378.628 259.029Z" fill="#EEEDF7"/>
<path d="M190.355 201.44L150.634 205.868L155.272 218.863L190.355 201.44Z" fill="white"/>
<path d="M210.392 135.355C213.466 135.355 215.958 132.861 215.958 129.785C215.958 126.709 213.466 124.216 210.392 124.216C207.317 124.216 204.825 126.709 204.825 129.785C204.825 132.861 207.317 135.355 210.392 135.355Z" fill="white"/>
<path d="M221.525 43.1027C224.599 43.1027 227.092 40.6092 227.092 37.5332C227.092 34.4572 224.599 31.9636 221.525 31.9636C218.451 31.9636 215.958 34.4572 215.958 37.5332C215.958 40.6092 218.451 43.1027 221.525 43.1027Z" fill="#BDE0FB"/>
</svg>
