<svg width="82" height="70" viewBox="0 0 82 70" fill="none" xmlns="http://www.w3.org/2000/svg">
<g clip-path="url(#clip0_125_2007)">
<path d="M62.1406 17.7033H19.8594C19.5196 17.7033 19.1937 17.8383 18.9534 18.0786C18.7131 18.3189 18.5781 18.6447 18.5781 18.9846C18.5781 19.3244 18.7131 19.6503 18.9534 19.8905C19.1937 20.1308 19.5196 20.2658 19.8594 20.2658H62.1406C62.4804 20.2658 62.8063 20.1308 63.0466 19.8905C63.2869 19.6503 63.4219 19.3244 63.4219 18.9846C63.4219 18.6447 63.2869 18.3189 63.0466 18.0786C62.8063 17.8383 62.4804 17.7033 62.1406 17.7033ZM63.4219 25.3909C63.4219 25.0511 63.2869 24.7252 63.0466 24.4849C62.8063 24.2446 62.4804 24.1096 62.1406 24.1096H19.8594C19.5196 24.1096 19.1937 24.2446 18.9534 24.4849C18.7131 24.7252 18.5781 25.0511 18.5781 25.3909C18.5781 25.7307 18.7131 26.0566 18.9534 26.2969C19.1937 26.5371 19.5196 26.6721 19.8594 26.6721H62.1406C62.4804 26.6721 62.8063 26.5371 63.0466 26.2968C63.2869 26.0566 63.4219 25.7307 63.4219 25.3909ZM39.0781 31.7972C39.0781 31.4574 38.9431 31.1315 38.7028 30.8912C38.4626 30.6509 38.1367 30.516 37.7969 30.5159H19.8594C19.5196 30.5159 19.1937 30.6509 18.9534 30.8912C18.7131 31.1315 18.5781 31.4574 18.5781 31.7972C18.5781 32.137 18.7131 32.4629 18.9534 32.7032C19.1937 32.9434 19.5196 33.0784 19.8594 33.0784H37.7969C38.1367 33.0784 38.4626 32.9434 38.7028 32.7031C38.9431 32.4629 39.0781 32.137 39.0781 31.7972ZM18.5781 43.9692C18.5781 44.9828 18.8787 45.9737 19.4419 46.8165C20.005 47.6593 20.8054 48.3161 21.7419 48.704C22.6784 49.0919 23.7088 49.1934 24.703 48.9956C25.6971 48.7979 26.6103 48.3098 27.3271 47.593C28.0438 46.8763 28.5319 45.9631 28.7297 44.9689C28.9274 43.9748 28.8259 42.9443 28.438 42.0079C28.0501 41.0714 27.3932 40.271 26.5504 39.7078C25.7076 39.1447 24.7168 38.8441 23.7031 38.8441C22.3444 38.8457 21.0417 39.3861 20.0809 40.3469C19.1201 41.3077 18.5797 42.6104 18.5781 43.9692ZM26.2656 43.9692C26.2656 44.476 26.1153 44.9714 25.8338 45.3928C25.5522 45.8142 25.152 46.1427 24.6838 46.3366C24.2155 46.5306 23.7003 46.5813 23.2032 46.4824C22.7061 46.3836 22.2495 46.1395 21.8912 45.7811C21.5328 45.4228 21.2887 44.9662 21.1899 44.4691C21.091 43.972 21.1417 43.4568 21.3357 42.9885C21.5296 42.5203 21.8581 42.1201 22.2795 41.8385C22.7009 41.557 23.1963 41.4067 23.7031 41.4067C24.3827 41.4067 25.0345 41.6766 25.5151 42.1572C25.9956 42.6378 26.2656 43.2896 26.2656 43.9692Z" fill="black"/>
<path d="M78.1562 0.40625H3.84375C2.82466 0.407367 1.84763 0.812696 1.12703 1.5333C0.406429 2.25391 0.00110898 3.23094 0 4.25003L0 56.7818C0.00110898 57.8008 0.406429 58.7779 1.12703 59.4985C1.84763 60.2191 2.82466 60.6244 3.84375 60.6255H42.6643L44.4936 58.063H3.84375C3.50408 58.0626 3.17844 57.9275 2.93826 57.6873C2.69807 57.4471 2.56294 57.1215 2.5625 56.7818V4.25003C2.56294 3.91036 2.69807 3.58473 2.93826 3.34454C3.17844 3.10436 3.50408 2.96922 3.84375 2.96878H78.1562C78.4959 2.96922 78.8216 3.10436 79.0617 3.34454C79.3019 3.58473 79.4371 3.91036 79.4375 4.25003V56.7818C79.4371 57.1214 79.3019 57.4471 79.0617 57.6873C78.8216 57.9274 78.4959 58.0626 78.1562 58.063H69.5381L71.3675 60.6255H78.1562C79.1753 60.6244 80.1524 60.2191 80.873 59.4985C81.5936 58.7778 81.9989 57.8008 82 56.7817V4.25003C81.9989 3.23094 81.5936 2.25391 80.873 1.5333C80.1524 0.812696 79.1753 0.407367 78.1562 0.40625Z" fill="black"/>
<path d="M53.1129 62.7638L50.8752 65.8589L50.6212 64.6057C50.5659 64.1728 50.347 63.7774 50.0093 63.5009C49.8237 63.3492 49.609 63.2371 49.3784 63.1713C49.1479 63.1056 48.9064 63.0877 48.6686 63.1186L47.0658 63.2801L49.5059 59.8617C48.641 59.6872 47.8245 59.326 47.1136 58.8033L43.8909 63.3176C43.6928 63.5869 43.5794 63.9091 43.565 64.2431C43.5507 64.5771 43.636 64.9078 43.8102 65.1932C43.9869 65.4814 44.2436 65.7121 44.5491 65.8571C44.8545 66.0022 45.1955 66.0554 45.5306 66.0102L48.2357 65.7375L48.7124 68.0891C48.752 68.4199 48.888 68.7316 49.1034 68.9856C49.3189 69.2396 49.6044 69.4245 49.9242 69.5174C50.091 69.568 50.2643 69.5937 50.4385 69.5938C50.7141 69.5939 50.9858 69.5292 51.2318 69.4048C51.4777 69.2805 51.691 69.1001 51.8543 68.8781L56.4645 62.501C55.7923 62.7737 55.0752 62.9191 54.3498 62.9297C53.932 62.9285 53.5162 62.8727 53.1129 62.7638ZM66.9176 58.8032C66.2065 59.3258 65.39 59.687 64.525 59.8616L66.9653 63.2801L65.3624 63.1186C65.1247 63.0876 64.8831 63.1055 64.6526 63.1712C64.422 63.237 64.2073 63.3491 64.0217 63.5009C63.6841 63.7774 63.4651 64.1728 63.4099 64.6057L63.1559 65.8582L60.9139 62.7574C59.7985 63.0336 58.6236 62.9425 57.5641 62.4976L62.1831 68.8868C62.3461 69.1068 62.5586 69.2854 62.8033 69.4082C63.048 69.531 63.3182 69.5945 63.592 69.5938C63.7664 69.5937 63.9399 69.568 64.1068 69.5175C64.4267 69.4246 64.7122 69.2396 64.9277 68.9856C65.1431 68.7317 65.2791 68.4199 65.3187 68.0892L65.7954 65.7375L68.5005 66.0103C68.8356 66.0557 69.1767 66.0026 69.4822 65.8575C69.7877 65.7125 70.0444 65.4816 70.2209 65.1932C70.3944 64.9102 70.4802 64.5821 70.4674 64.2504C70.4546 63.9187 70.3438 63.5983 70.149 63.3295L66.9176 58.8032ZM60.382 60.2552C61.2226 59.8892 61.8864 59.2085 62.2313 58.359C62.349 58.114 62.4938 57.8829 62.6629 57.6702C62.9229 57.5702 63.1935 57.5005 63.4693 57.4625C63.9258 57.4741 64.3783 57.3748 64.788 57.1731C65.1977 56.9714 65.5523 56.6734 65.8214 56.3045C66.0906 55.9356 66.2662 55.507 66.3333 55.0553C66.4003 54.6036 66.3568 54.1424 66.2064 53.7113C66.1568 53.4337 66.1396 53.1513 66.1551 52.8698C66.3023 52.6485 66.4735 52.4442 66.6656 52.2605C67.3735 51.6653 67.8191 50.8157 67.9062 49.895C67.8191 48.9743 67.3735 48.1247 66.6656 47.5296C66.4749 47.3469 66.3044 47.1443 66.157 46.9252C66.1396 46.6421 66.1562 46.3579 66.2064 46.0787C66.4263 45.2003 66.2895 44.2704 65.826 43.4924C65.2252 42.808 64.378 42.3892 63.4693 42.3275C63.1949 42.2895 62.9257 42.2206 62.6667 42.1223C62.4956 41.909 62.3493 41.6768 62.2306 41.4304C61.8861 40.5808 61.2222 39.9002 60.3813 39.5348C59.5061 39.3382 58.5886 39.4949 57.8282 39.9709C57.5716 40.1095 57.2986 40.2152 57.0155 40.2855C56.7325 40.2152 56.4595 40.1095 56.2029 39.9709C55.4421 39.4953 54.5246 39.3386 53.6491 39.5348C52.8085 39.9008 52.1447 40.5815 51.7998 41.4311C51.6821 41.676 51.5373 41.9071 51.3682 42.1199C51.1082 42.2199 50.8376 42.2895 50.5618 42.3276C49.6532 42.389 48.8059 42.8075 48.2051 43.4918C47.7416 44.2701 47.6049 45.2001 47.8247 46.0788C47.8743 46.3563 47.8915 46.6387 47.876 46.9202C47.7288 47.1415 47.5576 47.3459 47.3655 47.5296C46.6576 48.1247 46.212 48.9743 46.1249 49.895C46.212 50.8157 46.6576 51.6653 47.3655 52.2605C47.5562 52.4431 47.7267 52.6458 47.8741 52.8648C47.8915 53.1479 47.8749 53.4321 47.8247 53.7113C47.6744 54.1424 47.631 54.6036 47.6981 55.0552C47.7652 55.5068 47.9409 55.9355 48.21 56.3043C48.4791 56.6731 48.8337 56.9712 49.2433 57.1729C49.6529 57.3746 50.1053 57.474 50.5618 57.4625C50.8362 57.5005 51.1054 57.5694 51.3644 57.6677C51.5355 57.8811 51.6818 58.1132 51.8005 58.3596C52.145 59.2092 52.8089 59.8898 53.6498 60.2552C53.8777 60.3292 54.1158 60.3665 54.3554 60.3659C55.0041 60.3226 55.6351 60.1358 56.2029 59.8192C56.4595 59.6805 56.7325 59.5748 57.0155 59.5045C57.2986 59.5748 57.5716 59.6805 57.8282 59.8192C58.589 60.2947 59.5065 60.4514 60.382 60.2552ZM55.1093 57.5019C54.8936 57.6103 54.671 57.7045 54.4431 57.784C54.2974 57.577 54.1665 57.36 54.0514 57.1346C53.8141 56.5172 53.4029 55.9817 52.8676 55.593C52.3324 55.2043 51.696 54.979 51.0354 54.9443C50.7879 54.9041 50.5436 54.8468 50.304 54.7729C50.308 54.5257 50.3289 54.279 50.3666 54.0347C50.4954 53.3851 50.4766 52.7148 50.3115 52.0734C50.0728 51.4725 49.7011 50.9335 49.2242 50.4968C49.0365 50.3106 48.8643 50.1093 48.7093 49.895C48.8643 49.6807 49.0365 49.4794 49.2242 49.2931C49.7011 48.8565 50.0728 48.3174 50.3115 47.7166C50.4766 47.075 50.4954 46.4045 50.3666 45.7546C50.3291 45.5102 50.3082 45.2636 50.304 45.0164C50.5437 44.943 50.788 44.886 51.0354 44.8456C51.6961 44.8115 52.3328 44.5864 52.8682 44.1976C53.4035 43.8089 53.8146 43.2731 54.0514 42.6553C54.1665 42.4299 54.2973 42.2128 54.4431 42.0059C54.671 42.0854 54.8936 42.1797 55.1093 42.2881C55.6779 42.6536 56.3396 42.848 57.0155 42.848C57.6915 42.848 58.3532 42.6536 58.9218 42.2881C59.1375 42.1797 59.3601 42.0854 59.588 42.0059C59.7337 42.2129 59.8645 42.4299 59.9797 42.6553C60.217 43.2728 60.6282 43.8082 61.1635 44.1969C61.6987 44.5856 62.3351 44.811 62.9957 44.8456C63.2432 44.8859 63.4875 44.9431 63.7271 45.017C63.7231 45.2642 63.7022 45.5109 63.6645 45.7552C63.5356 46.4049 63.5545 47.0752 63.7196 47.7166C63.9583 48.3174 64.33 48.8565 64.8069 49.2931C64.9946 49.4794 65.1668 49.6807 65.3217 49.895C65.1668 50.1093 64.9946 50.3106 64.8069 50.4968C64.33 50.9335 63.9583 51.4725 63.7196 52.0734C63.5545 52.715 63.5357 53.3855 63.6645 54.0353C63.702 54.2797 63.7229 54.5263 63.7271 54.7735C63.4874 54.8469 63.2431 54.904 62.9957 54.9443C62.335 54.9784 61.6983 55.2035 61.1629 55.5923C60.6276 55.9811 60.2165 56.5169 59.9797 57.1346C59.8646 57.3601 59.7338 57.5771 59.588 57.784C59.3601 57.7045 59.1375 57.6103 58.9218 57.5019C58.3532 57.1363 57.6915 56.9419 57.0155 56.9419C56.3396 56.9419 55.6779 57.1363 55.1093 57.5019Z" fill="black"/>
<path d="M61.5 49.895C61.5 49.0081 61.237 48.1411 60.7442 47.4036C60.2515 46.6662 59.5511 46.0914 58.7317 45.752C57.9123 45.4126 57.0106 45.3238 56.1407 45.4968C55.2709 45.6699 54.4718 46.097 53.8447 46.7241C53.2175 47.3513 52.7904 48.1503 52.6174 49.0202C52.4444 49.8901 52.5332 50.7917 52.8726 51.6111C53.212 52.4305 53.7868 53.1309 54.5242 53.6236C55.2617 54.1164 56.1287 54.3794 57.0156 54.3794C58.2045 54.378 59.3443 53.905 60.185 53.0643C61.0257 52.2237 61.4986 51.0839 61.5 49.895ZM57.0156 51.8169C56.6355 51.8169 56.2639 51.7041 55.9479 51.493C55.6318 51.2818 55.3855 50.9816 55.24 50.6305C55.0946 50.2793 55.0565 49.8929 55.1307 49.52C55.2048 49.1472 55.3879 48.8048 55.6567 48.536C55.9254 48.2672 56.2679 48.0842 56.6407 48.01C57.0135 47.9359 57.3999 47.9739 57.7511 48.1194C58.1023 48.2649 58.4024 48.5112 58.6136 48.8272C58.8248 49.1433 58.9375 49.5149 58.9375 49.895C58.9369 50.4045 58.7343 50.893 58.374 51.2534C58.0137 51.6137 57.5252 51.8163 57.0156 51.8169Z" fill="black"/>
<path d="M74.3125 55.5005C74.9919 55.4998 75.6433 55.2296 76.1237 54.7492C76.6041 54.2688 76.8743 53.6174 76.875 52.938V8.09381C76.8743 7.4144 76.6041 6.76301 76.1237 6.2826C75.6433 5.80218 74.9919 5.53199 74.3125 5.53131H7.6875C7.00809 5.53199 6.3567 5.80218 5.87629 6.2826C5.39587 6.76301 5.12568 7.4144 5.125 8.09381V52.938C5.12568 53.6174 5.39587 54.2688 5.87629 54.7492C6.3567 55.2296 7.00809 55.4998 7.6875 55.5005H45.2328C45.1647 54.9153 45.1671 54.324 45.2398 53.7394C45.0066 53.4856 44.789 53.218 44.5881 52.938H7.6875V18.0736L17.5621 8.19891C17.5926 8.16545 17.6213 8.13037 17.648 8.09381H64.352C64.3787 8.13037 64.4074 8.16545 64.4378 8.19891L74.3129 18.074L74.3144 52.9379H69.4429C69.242 53.2179 69.0245 53.4855 68.7915 53.7394C68.8642 54.324 68.8665 54.9152 68.7984 55.5004L74.3125 55.5005ZM7.6875 14.4501V8.09379H14.0437L7.6875 14.4501ZM67.9563 8.09379H74.3125L74.3128 14.4503L67.9563 8.09379Z" fill="black"/>
</g>
<defs>
<clipPath id="clip0_125_2007">
<rect width="82" height="70" fill="white"/>
</clipPath>
</defs>
</svg>
