<svg width="442" height="390" viewBox="0 0 442 390" fill="none" xmlns="http://www.w3.org/2000/svg">
<path d="M357.13 388.76C367.999 388.76 376.81 373.493 376.81 354.66C376.81 335.827 367.999 320.56 357.13 320.56C346.261 320.56 337.45 335.827 337.45 354.66C337.45 373.493 346.261 388.76 357.13 388.76Z" stroke="#FF5061" stroke-linecap="round" stroke-linejoin="round"/>
<path d="M340.25 369.65C337.44 363.19 339.56 359.23 339.56 354.65C339.56 345.02 342.78 334.11 348.56 327.27C350.112 332.166 350.938 337.264 351.01 342.4C350.97 352.04 346.03 362.81 340.25 369.65Z" fill="#FF5061"/>
<path d="M326.85 376.58C337.719 376.58 346.53 361.313 346.53 342.48C346.53 323.647 337.719 308.38 326.85 308.38C315.981 308.38 307.17 323.647 307.17 342.48C307.17 361.313 315.981 376.58 326.85 376.58Z" fill="white"/>
<path d="M375.16 355.72C375.16 359.53 376.71 362.57 374.6 367.72C365.6 360.51 358.77 348.4 358.77 335.94C358.886 331.547 359.524 327.183 360.67 322.94C369.71 330.08 375.16 343.26 375.16 355.72Z" fill="#FF5061"/>
<path d="M381.96 368.08C392.829 368.08 401.64 352.813 401.64 333.98C401.64 315.147 392.829 299.88 381.96 299.88C371.091 299.88 362.28 315.147 362.28 333.98C362.28 352.813 371.091 368.08 381.96 368.08Z" fill="white"/>
<path d="M357.13 388.75V337.62M357.13 357.65L365.1 348.53M357.13 368.53L368.61 355.39M357.13 379.74L368.99 366.18M357.13 357.67L347.46 346.62M357.13 368.55L345.27 354.99M357.13 379.76L345.27 366.2" stroke="#FF5061" stroke-linecap="round" stroke-linejoin="round"/>
<path d="M381.96 368.08C392.829 368.08 401.64 352.813 401.64 333.98C401.64 315.147 392.829 299.88 381.96 299.88C371.091 299.88 362.28 315.147 362.28 333.98C362.28 352.813 371.091 368.08 381.96 368.08Z" stroke="#008EF8" stroke-miterlimit="10"/>
<path d="M381.96 316.94V388.89M381.96 336.97L391.61 325.94M381.96 347.85L393.82 334.28M381.96 359.06L393.82 345.5M381.96 336.99L372.3 325.94M381.96 347.87L370.1 334.31M381.96 359.08L370.1 345.52" stroke="#008EF8" stroke-linecap="round" stroke-linejoin="round"/>
<path d="M326.85 376.58C337.719 376.58 346.53 361.313 346.53 342.48C346.53 323.647 337.719 308.38 326.85 308.38C315.981 308.38 307.17 323.647 307.17 342.48C307.17 361.313 315.981 376.58 326.85 376.58Z" stroke="#FFCD52" stroke-linecap="round" stroke-linejoin="round"/>
<path d="M326.85 325.44V388.89M326.85 345.47L336.49 334.44M326.85 356.35L338.71 342.79M326.85 367.56L338.71 354M326.85 345.49L317.18 334.44M326.85 356.37L314.99 342.81M326.85 367.58L314.99 354.02" stroke="#FFCD52" stroke-linecap="round" stroke-linejoin="round"/>
<path d="M193.793 310.777L166.108 245.332C163.311 238.719 155.683 235.626 149.07 238.424L82.6674 266.514C76.0551 269.312 72.9623 276.94 75.7596 283.552L103.445 348.997C106.242 355.609 113.87 358.702 120.483 355.905L186.885 327.814C193.498 325.017 196.591 317.389 193.793 310.777Z" fill="#C1E3F7"/>
<path d="M204.625 315.565L170.215 234.224C167.418 227.611 159.79 224.519 153.177 227.316L71.836 261.726C65.2237 264.523 62.1309 272.151 64.9282 278.764L99.3382 360.105C102.135 366.717 109.763 369.81 116.376 367.013L197.717 332.603C204.329 329.805 207.422 322.177 204.625 315.565Z" stroke="#008EF8" stroke-linecap="round" stroke-linejoin="round"/>
<path d="M195.03 211.25L193.83 240.53L205.44 266.44L185.5 254.85L193.83 240.53" fill="#0850EC"/>
<path d="M175.57 98.5L175.64 73.62C175.646 72.2814 175.92 70.9575 176.445 69.7261C176.969 68.4946 177.735 67.3804 178.696 66.4489C179.658 65.5174 180.795 64.7873 182.043 64.3015C183.29 63.8157 184.622 63.584 185.96 63.62L189.96 63.73C192.343 63.7917 194.67 63.0052 196.528 61.5108C198.385 60.0163 199.651 57.911 200.1 55.57L201.63 47.57C202.102 45.0033 203.558 42.7227 205.688 41.2149C207.818 39.7071 210.453 39.0917 213.03 39.5C215.353 39.8587 217.476 41.0191 219.033 42.78C220.589 44.5409 221.48 46.791 221.55 49.14L222.18 71.5L175.57 98.5ZM146.44 173.93L132.03 173.62C130.853 173.577 129.69 173.88 128.684 174.493C127.679 175.107 126.876 176.002 126.376 177.068C125.876 178.134 125.701 179.324 125.872 180.489C126.044 181.654 126.554 182.743 127.34 183.62L128.05 184.44C129.033 185.58 129.557 187.045 129.52 188.55L129.25 198.55C129.197 199.89 129.595 201.209 130.38 202.297C131.165 203.384 132.292 204.178 133.58 204.55L137.11 205.55C138.218 205.873 139.21 206.51 139.965 207.382C140.721 208.255 141.209 209.327 141.37 210.47L142.58 218.76C142.71 219.702 143.062 220.599 143.607 221.378C144.151 222.157 144.873 222.796 145.713 223.241C146.553 223.686 147.487 223.926 148.437 223.939C149.388 223.953 150.328 223.741 151.18 223.32C152.031 222.911 152.774 222.306 153.347 221.555C153.921 220.804 154.309 219.929 154.48 219L158.33 198.55L146.44 173.93Z" fill="#0234C1"/>
<path d="M226.73 210.17L255.77 214.16L282.66 205.07L269.23 223.8L255.77 214.16" fill="#0850EC"/>
<path d="M263.917 182.722C289.652 143.078 287.592 96.0599 259.316 77.7043C231.04 59.3486 187.256 76.6061 161.521 116.25C135.785 155.894 137.845 202.912 166.121 221.267C194.397 239.623 238.182 222.366 263.917 182.722Z" fill="#FFCD52"/>
<path d="M211.03 147.27C208.03 150.54 204.87 153.7 201.75 156.87L197.02 161.59L194.65 163.93L193.45 165.09L193.16 165.38L192.98 165.59C192.884 165.717 192.809 165.859 192.76 166.01C192.663 166.307 192.658 166.626 192.745 166.926C192.833 167.226 193.009 167.492 193.25 167.69C193.472 167.873 193.744 167.985 194.03 168.01C194.183 168.024 194.337 168.024 194.49 168.01L195.31 167.84L198.57 167.18L200.21 166.85L201.03 166.68C201.399 166.604 201.774 166.564 202.15 166.56C203.005 166.577 203.834 166.859 204.523 167.365C205.212 167.872 205.728 168.579 206 169.39C206.159 170.027 206.263 170.676 206.31 171.33L206.5 172.98L207.28 179.61L207.63 182.92L207.81 184.58V184.95C207.804 185.013 207.804 185.077 207.81 185.14C207.843 185.265 207.897 185.384 207.97 185.49C208.114 185.708 208.323 185.875 208.567 185.968C208.81 186.062 209.077 186.076 209.33 186.01L212.49 185.12L215.71 184.24L216.51 184.02C216.897 183.909 217.297 183.852 217.7 183.85C218.531 183.85 219.342 184.108 220.02 184.59C220.193 184.703 220.354 184.833 220.5 184.98C220.64 185.11 220.81 185.31 220.83 185.32C220.924 185.435 221.039 185.53 221.17 185.6C221.369 185.711 221.59 185.776 221.817 185.789C222.044 185.802 222.272 185.764 222.482 185.676C222.692 185.588 222.879 185.454 223.03 185.283C223.18 185.112 223.29 184.909 223.35 184.69C225.16 176.09 227.07 167.32 229.28 158.69C228.28 167.57 227.05 176.3 225.63 185.2C225.5 185.793 225.235 186.348 224.855 186.822C224.475 187.296 223.99 187.675 223.44 187.931C222.889 188.186 222.286 188.311 221.679 188.295C221.072 188.28 220.477 188.124 219.94 187.84C219.568 187.654 219.231 187.407 218.94 187.11L218.69 186.86C218.634 186.811 218.574 186.768 218.51 186.73C218.269 186.574 217.986 186.497 217.7 186.51C217.546 186.516 217.394 186.546 217.25 186.6L216.45 186.85L213.27 187.85L210.03 188.85C209.198 189.065 208.32 189.019 207.515 188.719C206.71 188.418 206.017 187.878 205.53 187.17C205.28 186.821 205.091 186.432 204.97 186.02C204.91 185.81 204.87 185.6 204.83 185.39C204.79 185.18 204.83 185.09 204.83 184.94L204.63 183.28L204.25 179.97L203.54 173.34L203.37 171.68C203.31 171.16 203.25 170.45 203.2 170.33C203.116 170.079 202.958 169.858 202.748 169.696C202.538 169.534 202.285 169.438 202.02 169.42C201.566 169.454 201.115 169.517 200.67 169.61L199.02 169.89L195.74 170.45L194.91 170.59C194.512 170.645 194.108 170.645 193.71 170.59C192.888 170.502 192.117 170.151 191.51 169.59C190.918 169.042 190.506 168.327 190.327 167.54C190.149 166.753 190.212 165.93 190.51 165.18C190.658 164.813 190.867 164.475 191.13 164.18L191.52 163.77L191.84 163.5L193.09 162.4L195.6 160.2L200.66 155.85C204.1 152.93 207.5 150.05 211.03 147.27Z" fill="#0234C1"/>
<path d="M274.25 88.87C278.25 84.1 281.7 79.21 280.99 77.26C280.99 77.26 290.53 93.71 285.79 102.66C285.79 102.66 307.5 108.97 291.93 116.48L291.64 116.56C275.5 120.74 263.55 101.65 274.25 88.87Z" fill="#F44552"/>
<path d="M235.08 84.56C235.9 87.6367 236.033 90.8561 235.47 93.99C234.949 97.2204 233.59 100.258 231.53 102.8C229.4 105.301 226.611 107.155 223.48 108.15C220.453 109.115 217.262 109.455 214.1 109.15C217.128 108.66 220.088 107.818 222.92 106.64C223.62 106.37 224.26 105.97 224.92 105.64C225.56 105.273 226.177 104.869 226.77 104.43C227.976 103.586 229.057 102.576 229.98 101.43C231.868 99.1314 233.233 96.4493 233.98 93.57C234.74 90.6278 235.109 87.5985 235.08 84.56Z" fill="#475259"/>
<path d="M385.38 75.99L296.51 56.84C294.842 56.4828 293.347 55.564 292.275 54.2372C291.203 52.9103 290.619 51.2558 290.62 49.55V8.5C290.615 7.51698 290.804 6.54261 291.177 5.6329C291.549 4.72319 292.098 3.89607 292.791 3.19911C293.484 2.50214 294.308 1.94906 295.216 1.57166C296.124 1.19426 297.097 0.999986 298.08 1H386.95C387.932 1.0013 388.905 1.19655 389.811 1.57454C390.718 1.95253 391.541 2.50581 392.233 3.20265C392.925 3.89948 393.473 4.72615 393.845 5.63521C394.217 6.54427 394.405 7.51782 394.4 8.5V68.71C394.4 69.8214 394.151 70.9186 393.671 71.9213C393.192 72.924 392.494 73.8066 391.629 74.5047C390.764 75.2027 389.754 75.6984 388.673 75.9554C387.592 76.2124 386.467 76.2242 385.38 75.99Z" stroke="#008EF8" stroke-linecap="round" stroke-linejoin="round"/>
<path d="M298.94 57.37L302.43 67.12L318.14 61.5L298.94 57.37Z" stroke="#008EF8" stroke-linecap="round" stroke-linejoin="round"/>
<path d="M317.49 61.73L318.14 61.5L298.94 57.37L300.18 60.82L317.49 61.73Z" fill="#008EF8"/>
<path d="M122.41 7.89C122.946 10.4979 123.35 13.1312 123.62 15.78C123.92 18.41 124.1 21.05 124.26 23.69C124.42 26.33 124.49 28.98 124.47 31.69C124.488 34.3609 124.372 37.031 124.12 39.69C123.583 37.0821 123.179 34.4488 122.91 31.8C122.61 29.16 122.43 26.52 122.27 23.88C122.11 21.24 122.03 18.5 122.03 15.86C122.03 13.22 122.14 10.55 122.41 7.89Z" fill="#0234C1"/>
<path d="M139.13 22.89C136.522 23.425 133.888 23.8288 131.24 24.1C128.6 24.4 125.96 24.58 123.32 24.75C120.68 24.92 118.03 24.97 115.38 24.95C112.709 24.974 110.039 24.8572 107.38 24.6C109.984 24.0627 112.614 23.6622 115.26 23.4C117.9 23.09 120.54 22.91 123.18 22.75C125.82 22.59 128.47 22.53 131.12 22.54C133.77 22.55 136.46 22.62 139.13 22.89ZM143.34 27.33C143.823 29.0688 144.181 30.84 144.41 32.63C144.65 34.4 144.82 36.17 144.92 37.95C145.02 39.73 145.03 41.5 145.03 43.3C144.992 45.1063 144.824 46.9075 144.53 48.69C144.046 46.9519 143.692 45.1804 143.47 43.39C143.23 41.62 143.05 39.84 142.96 38.06C142.87 36.28 142.84 34.5 142.89 32.71C142.916 30.9085 143.067 29.1109 143.34 27.33Z" fill="#0234C1"/>
<path d="M154.6 37.43C152.861 37.9121 151.09 38.2696 149.3 38.5C147.53 38.74 145.75 38.91 143.97 39.01C142.19 39.11 140.41 39.12 138.62 39.07C136.817 39.0403 135.019 38.8766 133.24 38.58C134.978 38.0964 136.75 37.7421 138.54 37.52C140.31 37.27 142.08 37.1 143.86 37.01C145.64 36.92 147.43 36.89 149.22 36.94C151.023 36.9701 152.821 37.1339 154.6 37.43ZM409.19 223.84C409.74 226.46 410.1 229.09 410.39 231.73C410.68 234.37 410.88 237.01 411.04 239.65C411.2 242.29 411.27 244.94 411.25 247.59C411.23 250.24 411.17 252.89 410.9 255.59C410.364 252.982 409.96 250.349 409.69 247.7C409.39 245.07 409.2 242.43 409.04 239.78C408.88 237.13 408.82 234.49 408.84 231.84C408.822 229.169 408.938 226.499 409.19 223.84Z" fill="#0234C1"/>
<path d="M425.9 238.85C423.28 239.4 420.65 239.76 418.01 240.05C415.37 240.34 412.74 240.54 410.1 240.7C407.46 240.86 404.81 240.92 402.15 240.91C399.479 240.925 396.809 240.805 394.15 240.55C396.77 240 399.41 239.64 402.04 239.35C404.67 239.06 407.32 238.86 409.96 238.7C412.6 238.54 415.25 238.48 417.9 238.5C420.571 238.481 423.241 238.598 425.9 238.85ZM430.12 243.28C430.604 245.018 430.958 246.79 431.18 248.58C431.43 250.35 431.6 252.13 431.69 253.91C431.78 255.69 431.81 257.47 431.76 259.26C431.73 261.063 431.566 262.861 431.27 264.64C430.788 262.901 430.43 261.13 430.2 259.34C429.96 257.57 429.79 255.79 429.7 254.01C429.61 252.23 429.58 250.45 429.63 248.66C429.66 246.857 429.824 245.059 430.12 243.28Z" fill="#0234C1"/>
<path d="M441.37 253.39C439.634 253.87 437.866 254.224 436.08 254.45C434.3 254.69 432.53 254.86 430.75 254.96C428.97 255.06 427.19 255.08 425.4 255.03C423.599 254.987 421.804 254.809 420.03 254.5C421.763 254.007 423.532 253.65 425.32 253.43C427.1 253.19 428.87 253.01 430.65 252.92C432.43 252.83 434.21 252.81 436 252.86C437.801 252.903 439.596 253.081 441.37 253.39ZM15.03 276.62C15.58 279.24 15.94 281.87 16.23 284.51C16.52 287.15 16.72 289.78 16.88 292.42C17.04 295.06 17.1 297.71 17.09 300.36C17.1053 303.031 16.9851 305.701 16.73 308.36C16.18 305.74 15.82 303.1 15.53 300.47C15.24 297.84 15.04 295.19 14.88 292.55C14.72 289.91 14.66 287.26 14.68 284.61C14.6563 281.942 14.7732 279.275 15.03 276.62Z" fill="#0234C1"/>
<path d="M31.75 291.62C29.1421 292.156 26.5088 292.56 23.86 292.83C21.23 293.13 18.59 293.31 15.94 293.47C13.29 293.63 10.65 293.7 8 293.68C5.32913 293.699 2.65904 293.582 0 293.33C2.60785 292.794 5.24123 292.39 7.89 292.12C10.52 291.82 13.16 291.64 15.81 291.48C18.46 291.32 21.1 291.26 23.75 291.27C26.4 291.28 29.08 291.35 31.75 291.62ZM35.97 296.06C36.4546 297.798 36.8089 299.569 37.03 301.36C37.27 303.13 37.45 304.9 37.54 306.68C37.63 308.46 37.66 310.25 37.61 312.03C37.5803 313.833 37.4165 315.631 37.12 317.41C36.6254 315.676 36.2611 313.908 36.03 312.12C35.79 310.35 35.61 308.57 35.52 306.79C35.43 305.01 35.41 303.23 35.46 301.44C35.4963 299.636 35.6667 297.838 35.97 296.06Z" fill="#0234C1"/>
<path d="M47.2199 306.16C45.4811 306.643 43.7099 307.001 41.9199 307.23C40.1499 307.47 38.3799 307.64 36.5999 307.73C34.8199 307.82 33.0299 307.85 31.2399 307.8C29.4369 307.769 27.6387 307.606 25.8599 307.31C27.5989 306.828 29.37 306.47 31.1599 306.24C32.9299 306 34.7099 305.83 36.4899 305.74C38.2699 305.65 40.0499 305.62 41.8399 305.67C43.6429 305.7 45.4412 305.863 47.2199 306.16Z" fill="#0234C1"/>
<path d="M304.48 148.17L293.64 144.09L282.12 137.37L270.36 153.21L255.62 150.09L235.88 166.66L214.52 159.05L201.96 202.41L175.56 195.82L157.32 207.21L141.55 193.57L125.2 209.5C124.041 218.825 123.463 228.213 123.47 237.61C123.47 321.18 168.12 388.93 223.19 388.93C278.26 388.93 322.91 321.18 322.91 237.61C322.91 204 315.69 172.94 303.47 147.83" fill="#F7F7F7"/>
<path d="M285.03 209.5C286.41 210.11 287.74 210.8 289.03 211.5C290.32 212.2 291.63 212.96 292.92 213.72L292.21 213.61C294.21 212.96 296.21 212.37 298.21 211.8L301.21 210.99L304.21 210.26H304.29C304.451 210.215 304.622 210.233 304.77 210.31C307.361 211.55 309.881 212.932 312.32 214.45C309.54 213.735 306.799 212.874 304.11 211.87H304.67L301.67 212.82L298.67 213.7C296.67 214.25 294.67 214.78 292.61 215.24H292.53C292.423 215.265 292.313 215.266 292.206 215.244C292.098 215.221 291.998 215.176 291.91 215.11C290.71 214.22 289.52 213.33 288.36 212.39C287.2 211.45 286.1 210.5 285.03 209.5ZM237.48 179.01C238.61 180.01 239.71 180.95 240.79 181.95C241.87 182.95 242.94 183.95 244 185.01L243.14 184.86C244.14 184.28 245.09 183.69 246.08 183.12L249.03 181.41L248.89 181.5L251.99 179.01C252.99 178.17 254.07 177.38 255.12 176.56C255.312 176.414 255.551 176.343 255.792 176.36C256.033 176.376 256.259 176.479 256.43 176.65C257.343 177.623 258.243 178.603 259.13 179.59C260.03 180.59 260.92 181.59 261.79 182.59L261.56 182.42C264.45 183.92 267.33 185.42 270.12 187.19C267 186.19 263.95 185.02 260.93 183.79C260.862 183.769 260.8 183.731 260.75 183.68H260.7C259.7 182.77 258.77 181.84 257.83 180.9C256.89 179.96 255.94 179.03 255.02 178.07L256.32 178.16C255.32 178.99 254.27 179.83 253.21 180.64L250.03 182.99C249.997 183.019 249.96 183.043 249.92 183.06L246.92 184.6C245.92 185.11 244.87 185.6 243.85 186.09H243.79C243.657 186.156 243.506 186.175 243.36 186.144C243.215 186.113 243.085 186.034 242.99 185.92C242.05 184.79 241.11 183.65 240.2 182.49C239.29 181.33 238.35 180.22 237.48 179.01ZM209.4 350.37C210.53 351.32 211.63 352.31 212.71 353.31C213.79 354.31 214.86 355.31 215.92 356.37L215.06 356.22C216.06 355.64 217.01 355.05 218 354.48L220.95 352.77L220.81 352.86L223.91 350.37C224.91 349.53 225.99 348.74 227.04 347.92C227.232 347.774 227.471 347.703 227.712 347.72C227.953 347.736 228.179 347.839 228.35 348.01C229.263 348.983 230.163 349.963 231.05 350.95C231.95 351.95 232.84 352.95 233.71 353.95L233.48 353.78C236.37 355.28 239.25 356.83 242.04 358.55C238.92 357.55 235.87 356.38 232.85 355.15C232.782 355.129 232.72 355.091 232.67 355.04C231.67 354.13 230.74 353.2 229.8 352.26C228.86 351.32 227.91 350.39 226.99 349.43L228.29 349.52C227.29 350.35 226.24 351.19 225.18 352L222.03 354.35C221.997 354.379 221.96 354.403 221.92 354.42L218.92 355.96C217.92 356.47 216.87 356.96 215.85 357.45H215.79C215.657 357.516 215.506 357.535 215.36 357.504C215.215 357.473 215.085 357.394 214.99 357.28C214.05 356.15 213.11 355.01 212.2 353.85C211.29 352.69 210.27 351.58 209.4 350.37ZM182.28 218.57C183.66 219.18 184.99 219.87 186.28 220.57C187.57 221.27 188.88 222.03 190.17 222.79L189.46 222.68C191.46 222.02 193.46 221.43 195.46 220.86L198.46 220.06L201.46 219.33H201.54C201.702 219.289 201.873 219.31 202.02 219.39C204.611 220.627 207.131 222.005 209.57 223.52C206.788 222.81 204.048 221.949 201.36 220.94H201.92L198.92 221.89L195.92 222.77C193.92 223.31 191.92 223.84 189.86 224.31H189.78C189.673 224.332 189.563 224.332 189.456 224.31C189.35 224.287 189.249 224.243 189.16 224.18C187.96 223.29 186.77 222.39 185.61 221.45C184.45 220.51 183.38 219.61 182.28 218.57ZM142.92 295.77C144.92 293.89 146.92 292.06 148.92 290.22C150.92 288.38 152.92 286.55 154.99 284.74C155.108 284.64 155.26 284.589 155.415 284.598C155.57 284.607 155.715 284.676 155.82 284.79L162.46 292.09L161.51 291.88L168.43 288.67L175.36 285.5C175.483 285.448 175.616 285.421 175.75 285.421C175.884 285.421 176.017 285.448 176.14 285.5L183.23 288.6L190.3 291.75L190.05 291.67L196.76 292.67L203.47 293.67H203.16C206.37 292.93 209.59 292.19 212.81 291.48C212.908 291.457 213.01 291.461 213.106 291.493C213.201 291.525 213.286 291.583 213.35 291.66C215.01 293.58 216.64 295.52 218.26 297.47C219.88 299.42 221.53 301.35 223.12 303.33C221.32 301.54 219.55 299.72 217.78 297.91C216.01 296.1 214.23 294.28 212.49 292.44L213.06 292.61C209.89 293.51 206.7 294.37 203.52 295.23C203.427 295.245 203.333 295.245 203.24 295.23L196.5 294.37L189.78 293.47C189.697 293.462 189.617 293.442 189.54 293.41L182.45 290.32L175.38 287.18H176.17L169.17 290.25L162.17 293.25C162.012 293.317 161.836 293.331 161.669 293.292C161.502 293.252 161.352 293.161 161.24 293.03L154.92 285.45L155.78 285.51C153.65 287.22 151.52 288.92 149.37 290.59C147.22 292.26 145.1 294.12 142.92 295.77ZM231.24 270.57C234.05 270.67 236.86 270.82 239.67 270.97C242.48 271.12 245.29 271.25 248.09 271.44H247.95L256.8 269.82C256.895 269.801 256.993 269.802 257.088 269.822C257.182 269.843 257.272 269.883 257.35 269.94C260.92 272.51 264.46 275.12 268.01 277.72L266.78 277.82L272.87 271.43L278.98 265.06C279.166 264.88 279.416 264.779 279.675 264.779C279.934 264.779 280.183 264.88 280.37 265.06C280.402 265.085 280.429 265.115 280.45 265.15L285.71 271.52L284.4 271.36L292.26 265.73L300.15 260.16C300.269 260.079 300.41 260.035 300.555 260.035C300.699 260.035 300.84 260.079 300.96 260.16C304.15 262.44 307.34 264.72 310.5 267.04C313.66 269.36 316.84 271.66 319.96 274.04C316.61 271.99 313.33 269.86 309.96 267.76C306.59 265.66 303.37 263.51 300.1 261.36H301.03L293.32 267.18L285.57 272.95C285.376 273.099 285.132 273.166 284.89 273.138C284.647 273.11 284.425 272.989 284.27 272.8L278.97 266.46L280.45 266.52L274.32 272.87L268.16 279.19C268.003 279.352 267.792 279.451 267.567 279.467C267.342 279.484 267.119 279.417 266.94 279.28C263.45 276.61 259.94 273.94 256.49 271.22L257.06 271.37L248.15 272.62H248.03C245.24 272.32 242.45 271.98 239.65 271.62C236.85 271.26 234.03 270.95 231.24 270.57Z" fill="#D3D3D3"/>
<path d="M327.57 29.63C330.138 29.63 332.22 27.5481 332.22 24.98C332.22 22.4119 330.138 20.33 327.57 20.33C325.002 20.33 322.92 22.4119 322.92 24.98C322.92 27.5481 325.002 29.63 327.57 29.63Z" fill="#008EF8"/>
<path d="M350.75 29.63C353.318 29.63 355.4 27.5481 355.4 24.98C355.4 22.4119 353.318 20.33 350.75 20.33C348.182 20.33 346.1 22.4119 346.1 24.98C346.1 27.5481 348.182 29.63 350.75 29.63Z" fill="#008EF8"/>
<path d="M322.92 34.22C323.975 35.4948 325.121 36.6913 326.35 37.8C327.551 38.9134 328.85 39.9173 330.23 40.8C332.887 42.6469 336 43.7295 339.23 43.93C340.835 43.9831 342.436 43.7355 343.95 43.2C345.487 42.6909 346.939 41.9562 348.26 41.02C350.946 39.1001 353.337 36.7993 355.36 34.19C354.9 34.8567 354.43 35.5467 353.95 36.26L352.39 38.26C351.277 39.5194 350.044 40.6681 348.71 41.69C346.009 43.8396 342.652 44.9974 339.2 44.97C335.789 44.7691 332.515 43.5615 329.79 41.5C327.074 39.5134 324.746 37.046 322.92 34.22Z" fill="#008EF8"/>
<path d="M236.78 144.2C242.325 144.2 246.82 139.705 246.82 134.16C246.82 128.615 242.325 124.12 236.78 124.12C231.235 124.12 226.74 128.615 226.74 134.16C226.74 139.705 231.235 144.2 236.78 144.2Z" fill="#F44552"/>
<path d="M31.8198 388.89H421.64" stroke="#545454" stroke-linecap="round" stroke-linejoin="round"/>
</svg>
