<svg width="19" height="18" viewBox="0 0 19 18" fill="none" xmlns="http://www.w3.org/2000/svg">
<path d="M10.0863 18H1.04835C0.472971 18 0.00683594 17.5551 0.00683594 17.0065V0.993454C0.00683594 0.444694 0.473044 0 1.04835 0H17.8361C18.4113 0 18.8775 0.444694 18.8775 0.993454V17.0065C18.8775 17.5552 18.4112 18 17.8361 18H13.0273V11.0294H15.4802L15.8475 8.31284H13.0273V6.57849C13.0273 5.79198 13.2563 5.256 14.4387 5.256L15.9468 5.25537V2.82566C15.686 2.79255 14.7908 2.71859 13.7492 2.71859C11.5749 2.71859 10.0863 3.98457 10.0863 6.30945V8.31284H7.62711V11.0294H10.0863V18Z" fill="#0081FE"/>
</svg>
