<svg width="589" height="554" viewBox="0 0 589 554" fill="none" xmlns="http://www.w3.org/2000/svg">
<g clip-path="url(#clip0_629_1270)">
<path opacity="0.18" d="M345.15 547.077C351.129 549.546 357.738 549.908 364.19 550.214C418.641 552.843 473.128 554.102 527.653 553.991C533.103 553.991 538.674 553.935 543.782 552.042C548.89 550.149 553.515 545.992 554.415 540.609C520.274 537.955 485.893 538.215 451.873 536.953C434.038 536.294 415.517 538.531 397.774 540.229C388.783 541.095 379.806 542.109 370.846 543.273C365.21 544.015 350.165 549.147 345.15 547.077Z" fill="#1D2741"/>
<path d="M451.78 530.29L455.979 540.619L439.015 548.655L423.35 549.796C423.35 549.796 420.671 539.468 427.984 538.549C432.26 538.06 436.339 536.482 439.831 533.965L451.78 530.29ZM465.249 534.958C463.123 535.837 461.274 537.276 459.9 539.122C458.526 540.969 457.677 543.153 457.444 545.444L456.989 549.796H476.252V534.949L465.249 534.958Z" fill="#68E1FD"/>
<path opacity="0.22" d="M587.61 61.6731V319.538C587.611 323.291 586.873 327.007 585.439 330.474C584.006 333.941 581.903 337.091 579.253 339.745C576.602 342.398 573.455 344.503 569.992 345.938C566.528 347.374 562.816 348.112 559.068 348.111H28.5416C20.9719 348.111 13.7122 345.1 8.35963 339.742C3.00705 334.384 0 327.116 0 319.538V61.6731C0.00981095 54.0983 3.02001 46.8365 8.37047 41.4803C13.7209 36.1241 20.9749 33.1107 28.5416 33.1008H559.086C566.65 33.1156 573.899 36.1312 579.246 41.4869C584.592 46.8425 587.6 54.1015 587.61 61.6731Z" fill="url(#paint0_linear_629_1270)"/>
<path d="M589 60.7173V318.573C589.002 325.112 586.763 331.453 582.659 336.54C578.555 341.626 572.833 345.15 566.447 346.524C564.481 346.939 562.477 347.147 560.468 347.146H29.9228C26.1735 347.148 22.4605 346.411 18.9961 344.976C15.5316 343.541 12.3837 341.436 9.73211 338.783C7.08055 336.129 4.97742 332.979 3.54292 329.511C2.10842 326.043 1.3707 322.326 1.37192 318.573V60.7173C1.37928 53.1393 4.38967 45.8737 9.7424 40.5152C15.0951 35.1567 22.3529 32.1431 29.9228 32.1357H560.468C567.4 32.137 574.094 34.6646 579.301 39.2465C584.507 43.8284 587.869 50.151 588.759 57.0333C588.924 58.2543 589.004 59.4852 589 60.7173Z" fill="#68E1FD"/>
<path d="M589 60.7173V318.573C589.002 325.112 586.763 331.453 582.659 336.54C578.555 341.626 572.833 345.15 566.447 346.524C564.481 346.939 562.477 347.147 560.468 347.146H29.9227C26.1735 347.148 22.4605 346.411 18.9961 344.976C15.5316 343.541 12.3837 341.436 9.73211 338.783C7.08055 336.129 4.97741 332.979 3.54292 329.511C2.10842 326.043 1.3707 322.327 1.37192 318.573V60.7173C1.37928 53.1393 4.38967 45.8737 9.7424 40.5152C15.0951 35.1567 22.3529 32.1431 29.9227 32.1357H560.468C567.4 32.137 574.095 34.6646 579.301 39.2465C584.507 43.8284 587.869 50.151 588.759 57.0333C588.924 58.2543 589.004 59.4852 589 60.7173Z" fill="url(#paint1_linear_629_1270)"/>
<path d="M587.387 57.9984H0.241028C1.13273 51.1153 4.49667 44.7925 9.70461 40.2108C14.9125 35.6291 21.6084 33.1018 28.5416 33.1008H559.087C566.02 33.0998 572.717 35.6265 577.926 40.2085C583.134 44.7906 586.497 51.1145 587.387 57.9984Z" fill="url(#paint2_linear_629_1270)"/>
<path d="M383.49 258.914H184.876C180.821 258.914 177.534 262.204 177.534 266.263V278.355C177.534 282.414 180.821 285.704 184.876 285.704H383.49C387.544 285.704 390.831 282.414 390.831 278.355V266.263C390.831 262.204 387.544 258.914 383.49 258.914Z" fill="white" stroke="#68E1FD" stroke-width="0.88" stroke-miterlimit="10"/>
<path d="M194.924 278.503C198.144 278.503 200.755 275.89 200.755 272.666C200.755 269.443 198.144 266.829 194.924 266.829C191.704 266.829 189.094 269.443 189.094 272.666C189.094 275.89 191.704 278.503 194.924 278.503Z" fill="#68E1FD"/>
<path d="M213.065 278.503C216.285 278.503 218.896 275.89 218.896 272.666C218.896 269.443 216.285 266.829 213.065 266.829C209.845 266.829 207.235 269.443 207.235 272.666C207.235 275.89 209.845 278.503 213.065 278.503Z" fill="#68E1FD"/>
<path d="M231.215 278.503C234.436 278.503 237.046 275.89 237.046 272.666C237.046 269.443 234.436 266.829 231.215 266.829C227.995 266.829 225.385 269.443 225.385 272.666C225.385 275.89 227.995 278.503 231.215 278.503Z" fill="#68E1FD"/>
<path d="M249.356 278.503C252.577 278.503 255.187 275.89 255.187 272.666C255.187 269.443 252.577 266.829 249.356 266.829C246.136 266.829 243.526 269.443 243.526 272.666C243.526 275.89 246.136 278.503 249.356 278.503Z" fill="#68E1FD"/>
<path d="M405.227 271.07V267.989H407.656V266.004H405.227V264.519H407.656V262.533H402.789V271.07C401.311 271.373 399.997 272.214 399.102 273.431C398.208 274.648 397.797 276.154 397.949 277.657C398.101 279.16 398.805 280.553 399.924 281.566C401.044 282.58 402.499 283.141 404.008 283.141C405.517 283.141 406.973 282.58 408.092 281.566C409.212 280.553 409.916 279.16 410.068 277.657C410.219 276.154 409.808 274.648 408.914 273.431C408.02 272.214 406.706 271.373 405.227 271.07ZM404.013 281.278C403.175 281.28 402.355 281.033 401.657 280.568C400.959 280.103 400.414 279.441 400.092 278.667C399.77 277.892 399.685 277.039 399.848 276.216C400.01 275.392 400.413 274.636 401.005 274.042C401.597 273.448 402.352 273.043 403.174 272.879C403.996 272.714 404.848 272.798 405.623 273.118C406.397 273.439 407.059 273.983 407.525 274.68C407.991 275.378 408.24 276.198 408.24 277.037C408.24 278.161 407.795 279.239 407.003 280.036C406.211 280.832 405.136 281.282 404.013 281.287V281.278Z" fill="#68E1FD"/>
<path d="M320.4 116.767H259.572C253.551 116.767 248.67 121.653 248.67 127.68V188.573C248.67 194.6 253.551 199.486 259.572 199.486H320.4C326.42 199.486 331.301 194.6 331.301 188.573V127.68C331.301 121.653 326.42 116.767 320.4 116.767Z" fill="url(#paint3_linear_629_1270)"/>
<path d="M320.733 116.767H264.29C258.459 116.767 253.732 121.499 253.732 127.336V188.917C253.732 194.754 258.459 199.486 264.29 199.486H320.733C326.565 199.486 331.292 194.754 331.292 188.917V127.336C331.292 121.499 326.565 116.767 320.733 116.767Z" fill="#68E1FD"/>
<path d="M334.49 158.396L330.226 162.451L328.372 164.196C326.91 162.45 325.056 161.076 322.961 160.187C320.866 159.298 318.59 158.919 316.321 159.082C315.329 159.203 314.322 159.039 313.42 158.609C310.351 156.865 315.162 150.916 315.162 150.916C316.221 150.893 317.28 150.94 318.333 151.055C318.425 151.046 318.518 151.046 318.611 151.055L319.454 151.158C323.477 151.733 330.031 153.654 334.49 158.396Z" fill="white"/>
<path opacity="0.39" d="M330.059 162.07L330.226 162.451L328.372 164.196C326.91 162.449 325.056 161.076 322.961 160.187C320.866 159.298 318.591 158.919 316.321 159.082C315.329 159.203 314.323 159.038 313.42 158.609L315.162 150.916C315.162 150.916 316.877 150.916 318.333 151.055C318.425 151.046 318.518 151.046 318.611 151.055C318.894 151.072 319.175 151.106 319.454 151.158C319.454 151.158 320.465 155.482 319.714 157.301C319.714 157.329 326.824 158.516 330.059 162.07Z" fill="url(#paint4_linear_629_1270)"/>
<path d="M291.422 134.203H288.549C286.24 134.203 284.368 136.077 284.368 138.389V177.865C284.368 180.176 286.24 182.05 288.549 182.05H291.422C293.731 182.05 295.603 180.176 295.603 177.865V138.389C295.603 136.077 293.731 134.203 291.422 134.203Z" fill="url(#paint5_linear_629_1270)"/>
<path d="M316.302 157.477C316.256 162.486 314.237 167.274 310.684 170.802C307.131 174.329 302.331 176.31 297.327 176.315H293.239C292.622 176.314 292.018 176.14 291.495 175.812C290.972 175.484 290.552 175.015 290.282 174.459C290.033 173.956 289.915 173.397 289.942 172.836C289.969 172.275 290.138 171.73 290.435 171.253C290.731 170.776 291.144 170.383 291.635 170.111C292.126 169.839 292.678 169.697 293.239 169.698H294.76C296.408 169.699 298.039 169.37 299.558 168.73C301.077 168.091 302.454 167.154 303.606 165.975C304.759 164.796 305.665 163.399 306.271 161.864C306.877 160.33 307.17 158.69 307.135 157.041C307.024 153.771 305.642 150.674 303.284 148.408C300.926 146.143 297.777 144.889 294.509 144.912H292.655C291.937 144.912 291.249 144.627 290.741 144.119C290.234 143.61 289.949 142.921 289.949 142.203V141.052C289.949 140.333 290.234 139.644 290.741 139.136C291.249 138.628 291.937 138.342 292.655 138.342H297.003C307.505 138.333 316.377 146.945 316.302 157.477Z" fill="white"/>
<path opacity="0.39" d="M311.241 158.238C311.204 162.594 309.451 166.759 306.363 169.828C303.275 172.897 299.102 174.621 294.75 174.626H291.191C290.876 174.626 290.563 174.576 290.264 174.478C290.014 173.974 289.897 173.416 289.924 172.855C289.95 172.294 290.12 171.749 290.416 171.272C290.712 170.795 291.126 170.401 291.616 170.129C292.107 169.857 292.66 169.715 293.221 169.717H294.741C296.389 169.717 298.02 169.388 299.54 168.749C301.059 168.11 302.435 167.173 303.588 165.994C304.741 164.815 305.647 163.417 306.252 161.883C306.858 160.349 307.152 158.709 307.116 157.059C307.005 153.79 305.623 150.692 303.265 148.427C300.907 146.162 297.759 144.907 294.491 144.931H292.637C291.919 144.931 291.23 144.645 290.723 144.137C290.215 143.629 289.93 142.94 289.93 142.221V141.711C290.169 141.632 290.42 141.592 290.672 141.59H294.444C298.873 141.58 303.126 143.326 306.274 146.445C309.421 149.565 311.207 153.804 311.241 158.238Z" fill="url(#paint6_linear_629_1270)"/>
<path d="M306.541 153.552C306.541 153.552 307.784 156.883 306.236 161.968C306.236 161.968 300.368 168.01 305.373 177.614L309.508 182.041L304.697 186.782C301.706 184.464 299.386 181.391 297.974 177.878C296.561 174.365 296.108 170.54 296.66 166.794C297.726 158.609 306.541 153.552 306.541 153.552Z" fill="white"/>
<path d="M300.59 190.606L338.689 154.415L370.651 182.041L331.292 219.837L300.59 190.606ZM300.59 190.606L303.121 204.952L331.292 232.012V219.837L300.59 190.606Z" fill="#68E1FD"/>
<path d="M370.651 182.041V195.208L331.292 232.012V219.837L370.651 182.041Z" fill="#68E1FD"/>
<path d="M300.59 190.606L303.121 204.952L331.292 232.012V219.837L300.59 190.606Z" fill="url(#paint7_linear_629_1270)"/>
<path d="M370.651 182.041V195.208L331.292 232.012V219.837L370.651 182.041Z" fill="url(#paint8_linear_629_1270)"/>
<path d="M307.617 197.296L346.077 160.799L349.627 163.871L311.241 200.748L307.617 197.296Z" fill="url(#paint9_linear_629_1270)"/>
<path d="M318.972 207.866L358.35 171.369L361.9 174.431L322.597 211.309L318.972 207.866Z" fill="url(#paint10_linear_629_1270)"/>
<path opacity="0.21" d="M428.819 243.797C428.432 249.53 428.743 255.289 429.746 260.946C430.376 264.444 431.22 268.296 429.421 271.376C428.494 273.047 426.826 274.216 425.333 275.45C415.86 283.245 410.381 294.817 402.289 304.041C401.753 304.8 400.975 305.353 400.082 305.609C399.165 305.669 398.255 305.41 397.505 304.876C392.577 302.029 388.436 297.998 385.455 293.147C383.999 290.771 382.674 288.061 380.171 286.846C375.536 284.563 369.919 289.416 369.409 294.585C368.899 299.754 371.671 304.616 374.35 309.061L386.743 329.644C390.516 335.917 394.493 342.403 400.648 346.347C404.908 348.947 409.692 350.563 414.654 351.08C421.681 352.008 428.809 351.544 435.882 350.997C448.817 349.994 461.717 348.708 474.583 347.136C478.996 346.598 484.011 345.633 486.245 341.8C487.746 339.221 487.543 336.038 487.283 333.068C486.375 322.31 485.448 311.555 484.502 300.802C483.992 294.706 483.232 288.08 478.94 283.737C476.372 281.157 472.776 279.691 470.495 276.842C468.866 274.558 467.816 271.912 467.436 269.131C465.239 257.531 467.344 245.068 462.802 234.146C461.875 231.938 460.632 229.748 458.584 228.513C456.703 227.537 454.587 227.11 452.475 227.279C442.325 227.567 429.56 232.411 428.819 243.797Z" fill="url(#paint11_linear_629_1270)"/>
<path opacity="0.18" d="M566.725 407.584C561.228 470.993 386.966 450.679 261.648 424.975C136.33 399.27 32.9354 450.679 9.09363 407.584C-1.46461 388.505 5.58967 364.675 16.7412 344.037C20.9915 346.408 25.7799 347.645 30.6458 347.628H556.463C563.703 364.693 568.681 385.109 566.725 407.584Z" fill="#68E1FD"/>
<path d="M429.829 381.239L418.418 464.441C417.939 467.944 418.305 471.511 419.484 474.844L439.878 534.958L451.798 531.246L442.807 471.438C442.615 470.198 442.697 468.931 443.048 467.726L458.519 414.238L465.249 534.875H476.252L485.716 415.825C488.924 395.929 483.047 381.239 483.047 381.239H429.829Z" fill="#3F3D56"/>
<path d="M488.312 359.209L477.021 286.4L475.446 277.529C475.446 277.529 496.525 289.593 502.569 310.695C510.476 338.395 488.312 359.209 488.312 359.209Z" fill="#68E1FD"/>
<path d="M488.312 359.209L477.021 286.4L475.446 277.529C475.446 277.529 496.525 289.593 502.569 310.695C510.476 338.395 488.312 359.209 488.312 359.209Z" fill="url(#paint12_linear_629_1270)"/>
<path d="M499.899 342.264C508.455 325.329 491.556 295.866 491.556 295.866L477.003 286.41L478.644 275.896C478.644 275.896 502.115 278.299 504.404 311.474C505.164 322.155 504.367 335.351 499.899 342.264Z" fill="#68E1FD"/>
<path d="M378.975 285.417C378.187 282.744 376.815 279.561 374.034 279.32C374.788 281.757 374.677 284.38 373.719 286.744C367.657 284.498 366.248 275.608 360.195 273.307C359.268 274.29 359.787 275.896 360.362 277.121C361.418 279.403 362.481 281.686 363.55 283.969C362.129 281.73 360.618 279.564 359.017 277.473C358.545 276.833 357.729 276.137 357.062 276.545C356.394 276.954 356.635 277.817 356.876 278.485C357.933 281.454 359.138 284.377 360.464 287.236C358.976 284.735 357.273 282.369 355.374 280.164C354.132 280.471 354.392 282.308 354.93 283.468L358.906 291.95L355.717 287.31C354.688 287.412 354.846 288.989 355.347 289.899C359.623 297.542 366.304 303.555 374.35 307.001C375.981 307.697 377.872 308.273 379.476 307.521C386.373 304.375 380.31 290.001 378.975 285.417Z" fill="url(#paint13_linear_629_1270)"/>
<path d="M488.312 307.939V365.028C488.312 372.024 487.172 377.713 480.173 377.713H431.303C424.332 377.713 424.063 372.08 424.017 365.111L423.655 326.313C423.655 326.313 413.106 345.123 404.69 343.294C396.273 341.466 371.318 307.029 371.318 307.029L383.74 296.58L404.671 317.59C404.671 317.59 408.036 309.934 412.93 292.794C417.825 275.654 433.732 275.608 433.732 275.608H476.224C491.566 275.608 488.312 307.939 488.312 307.939Z" fill="#68E1FD"/>
<path d="M488.312 314.37C488.312 314.37 495.654 324.698 488.312 335.026V314.37Z" fill="#3F3D56"/>
<path d="M429.829 377.351H483.047V381.239H429.829V377.351Z" fill="url(#paint14_linear_629_1270)"/>
<path d="M447.951 236.782H463.311V275.877H447.951V236.782Z" fill="url(#paint15_linear_629_1270)"/>
<path d="M463.321 232.494V275.886H455.219V273.242C455.219 272.472 455.067 271.71 454.773 270.999C454.478 270.288 454.047 269.642 453.502 269.098C452.958 268.554 452.312 268.123 451.602 267.829C450.891 267.536 450.129 267.385 449.36 267.386H448.897C445.037 267.386 441.335 265.851 438.606 263.119C435.877 260.387 434.343 256.681 434.343 252.817V232.494H463.321Z" fill="url(#paint16_linear_629_1270)"/>
<path d="M434.344 236.782C434.344 236.782 420.902 229.441 425.713 221.405C430.524 213.369 438.367 218.426 438.367 218.426H464.276C464.276 218.426 467.251 217.962 468.401 223.011C469.55 228.059 463.358 259.396 463.358 259.396H450.482L448.832 251.249C448.832 251.249 451.4 248.465 451.168 245.505C451.19 244.951 451.02 244.406 450.687 243.963C450.355 243.519 449.88 243.204 449.342 243.07C448.805 242.936 448.237 242.991 447.736 243.227C447.235 243.462 446.829 243.864 446.589 244.363C445.43 246.423 445.894 237.7 441.769 236.782C439.325 236.227 436.787 236.227 434.344 236.782Z" fill="#3F3D56"/>
<path d="M459.882 275.803C459.882 275.803 453.921 283.616 445.662 283.616C437.402 283.616 413.338 307.252 411.725 314.369C410.112 321.487 404.689 317.59 404.689 317.59C404.689 317.59 408.054 309.934 412.949 292.794C417.843 275.654 433.732 275.608 433.732 275.608H455.33L459.882 275.803Z" fill="url(#paint17_linear_629_1270)"/>
<path d="M451.78 530.29L455.979 540.619L439.015 548.655L423.35 549.796C423.35 549.796 420.671 539.468 427.984 538.549C432.26 538.06 436.339 536.482 439.831 533.965L451.78 530.29Z" fill="url(#paint18_linear_629_1270)"/>
<path d="M465.249 534.958C463.123 535.837 461.274 537.276 459.9 539.122C458.526 540.969 457.677 543.153 457.444 545.444L456.99 549.796H476.252V534.949L465.249 534.958Z" fill="url(#paint19_linear_629_1270)"/>
<path opacity="0.18" d="M111.358 33.5833C111.358 33.5833 230.344 -41.9815 382.72 33.5833H111.358Z" fill="#68E1FD"/>
</g>
<defs>
<linearGradient id="paint0_linear_629_1270" x1="0" y1="190.606" x2="587.628" y2="190.606" gradientUnits="userSpaceOnUse">
<stop stop-color="#68E1FD"/>
<stop offset="1" stop-color="#69B9EB"/>
</linearGradient>
<linearGradient id="paint1_linear_629_1270" x1="-83.7893" y1="112.211" x2="810.448" y2="294.533" gradientUnits="userSpaceOnUse">
<stop stop-color="white" stop-opacity="0"/>
<stop offset="1" stop-color="white"/>
</linearGradient>
<linearGradient id="paint2_linear_629_1270" x1="-50.1864" y1="52.8017" x2="999.929" y2="31.5875" gradientUnits="userSpaceOnUse">
<stop offset="0.02" stop-opacity="0"/>
<stop offset="0.99" stop-color="#3F3D56"/>
</linearGradient>
<linearGradient id="paint3_linear_629_1270" x1="290.977" y1="157.746" x2="108.648" y2="226.472" gradientUnits="userSpaceOnUse">
<stop stop-color="#68E1FD"/>
<stop offset="0.01" stop-color="#67DDF9"/>
<stop offset="0.12" stop-color="#5CB3CE"/>
<stop offset="0.24" stop-color="#538EA9"/>
<stop offset="0.37" stop-color="#4C718B"/>
<stop offset="0.5" stop-color="#465A73"/>
<stop offset="0.63" stop-color="#424A63"/>
<stop offset="0.79" stop-color="#404059"/>
<stop offset="0.99" stop-color="#3F3D56"/>
</linearGradient>
<linearGradient id="paint4_linear_629_1270" x1="313.401" y1="157.561" x2="330.226" y2="157.561" gradientUnits="userSpaceOnUse">
<stop stop-color="#68E1FD"/>
<stop offset="1" stop-color="#69B9EB"/>
</linearGradient>
<linearGradient id="paint5_linear_629_1270" x1="278.037" y1="158.08" x2="373.117" y2="158.386" gradientUnits="userSpaceOnUse">
<stop stop-opacity="0"/>
<stop offset="0.02" stop-color="#030304" stop-opacity="0.04"/>
<stop offset="0.18" stop-color="#181821" stop-opacity="0.39"/>
<stop offset="0.35" stop-color="#292839" stop-opacity="0.66"/>
<stop offset="0.53" stop-color="#363449" stop-opacity="0.85"/>
<stop offset="0.73" stop-color="#3D3B53" stop-opacity="0.96"/>
<stop offset="0.99" stop-color="#3F3D56"/>
</linearGradient>
<linearGradient id="paint6_linear_629_1270" x1="326.332" y1="157.004" x2="297.392" y2="157.958" gradientUnits="userSpaceOnUse">
<stop stop-color="#68E1FD"/>
<stop offset="1" stop-color="#69B9EB"/>
</linearGradient>
<linearGradient id="paint7_linear_629_1270" x1="308.664" y1="230.796" x2="339.804" y2="147.579" gradientUnits="userSpaceOnUse">
<stop stop-opacity="0"/>
<stop offset="0.02" stop-color="#030304" stop-opacity="0.04"/>
<stop offset="0.18" stop-color="#181821" stop-opacity="0.39"/>
<stop offset="0.35" stop-color="#292839" stop-opacity="0.66"/>
<stop offset="0.53" stop-color="#363449" stop-opacity="0.85"/>
<stop offset="0.73" stop-color="#3D3B53" stop-opacity="0.96"/>
<stop offset="0.99" stop-color="#3F3D56"/>
</linearGradient>
<linearGradient id="paint8_linear_629_1270" x1="355.606" y1="223.187" x2="331.958" y2="140.824" gradientUnits="userSpaceOnUse">
<stop stop-opacity="0"/>
<stop offset="0.02" stop-color="#030304" stop-opacity="0.04"/>
<stop offset="0.18" stop-color="#181821" stop-opacity="0.39"/>
<stop offset="0.35" stop-color="#292839" stop-opacity="0.66"/>
<stop offset="0.53" stop-color="#363449" stop-opacity="0.85"/>
<stop offset="0.73" stop-color="#3D3B53" stop-opacity="0.96"/>
<stop offset="0.99" stop-color="#3F3D56"/>
</linearGradient>
<linearGradient id="paint9_linear_629_1270" x1="344.492" y1="157.969" x2="226.466" y2="325.868" gradientUnits="userSpaceOnUse">
<stop stop-opacity="0"/>
<stop offset="0.02" stop-color="#030304" stop-opacity="0.04"/>
<stop offset="0.18" stop-color="#181821" stop-opacity="0.39"/>
<stop offset="0.35" stop-color="#292839" stop-opacity="0.66"/>
<stop offset="0.53" stop-color="#363449" stop-opacity="0.85"/>
<stop offset="0.73" stop-color="#3D3B53" stop-opacity="0.96"/>
<stop offset="0.99" stop-color="#3F3D56"/>
</linearGradient>
<linearGradient id="paint10_linear_629_1270" x1="357.367" y1="167.017" x2="239.342" y2="334.925" gradientUnits="userSpaceOnUse">
<stop stop-opacity="0"/>
<stop offset="0.02" stop-color="#030304" stop-opacity="0.04"/>
<stop offset="0.18" stop-color="#181821" stop-opacity="0.39"/>
<stop offset="0.35" stop-color="#292839" stop-opacity="0.66"/>
<stop offset="0.53" stop-color="#363449" stop-opacity="0.85"/>
<stop offset="0.73" stop-color="#3D3B53" stop-opacity="0.96"/>
<stop offset="0.99" stop-color="#3F3D56"/>
</linearGradient>
<linearGradient id="paint11_linear_629_1270" x1="394.113" y1="254.172" x2="626.694" y2="472.914" gradientUnits="userSpaceOnUse">
<stop stop-opacity="0"/>
<stop offset="0.02" stop-color="#030304" stop-opacity="0.04"/>
<stop offset="0.18" stop-color="#181821" stop-opacity="0.39"/>
<stop offset="0.35" stop-color="#292839" stop-opacity="0.66"/>
<stop offset="0.53" stop-color="#363449" stop-opacity="0.85"/>
<stop offset="0.73" stop-color="#3D3B53" stop-opacity="0.96"/>
<stop offset="0.99" stop-color="#3F3D56"/>
</linearGradient>
<linearGradient id="paint12_linear_629_1270" x1="508.223" y1="310.574" x2="310.067" y2="369.023" gradientUnits="userSpaceOnUse">
<stop stop-opacity="0"/>
<stop offset="0.02" stop-color="#030304" stop-opacity="0.04"/>
<stop offset="0.18" stop-color="#181821" stop-opacity="0.39"/>
<stop offset="0.35" stop-color="#292839" stop-opacity="0.66"/>
<stop offset="0.53" stop-color="#363449" stop-opacity="0.85"/>
<stop offset="0.73" stop-color="#3D3B53" stop-opacity="0.96"/>
<stop offset="0.99" stop-color="#3F3D56"/>
</linearGradient>
<linearGradient id="paint13_linear_629_1270" x1="354.485" y1="290.613" x2="382.72" y2="290.613" gradientUnits="userSpaceOnUse">
<stop stop-color="#ECC4D7"/>
<stop offset="0.42" stop-color="#EFD4D1"/>
<stop offset="1" stop-color="#F2EAC9"/>
</linearGradient>
<linearGradient id="paint14_linear_629_1270" x1="429.829" y1="379.3" x2="483.047" y2="379.3" gradientUnits="userSpaceOnUse">
<stop stop-color="#68E1FD"/>
<stop offset="1" stop-color="#69B9EB"/>
</linearGradient>
<linearGradient id="paint15_linear_629_1270" x1="450.89" y1="256.418" x2="476.113" y2="255.964" gradientUnits="userSpaceOnUse">
<stop stop-color="#ECC4D7"/>
<stop offset="0.42" stop-color="#EFD4D1"/>
<stop offset="1" stop-color="#F2EAC9"/>
</linearGradient>
<linearGradient id="paint16_linear_629_1270" x1="452.364" y1="252.325" x2="447.161" y2="255.067" gradientUnits="userSpaceOnUse">
<stop stop-color="#ECC4D7"/>
<stop offset="0.42" stop-color="#EFD4D1"/>
<stop offset="1" stop-color="#F2EAC9"/>
</linearGradient>
<linearGradient id="paint17_linear_629_1270" x1="464.09" y1="309.247" x2="398.488" y2="283.59" gradientUnits="userSpaceOnUse">
<stop stop-color="white" stop-opacity="0"/>
<stop offset="1" stop-color="white"/>
</linearGradient>
<linearGradient id="paint18_linear_629_1270" x1="422.868" y1="540.043" x2="455.979" y2="540.043" gradientUnits="userSpaceOnUse">
<stop stop-opacity="0"/>
<stop offset="0.02" stop-color="#030304" stop-opacity="0.04"/>
<stop offset="0.18" stop-color="#181821" stop-opacity="0.39"/>
<stop offset="0.35" stop-color="#292839" stop-opacity="0.66"/>
<stop offset="0.53" stop-color="#363449" stop-opacity="0.85"/>
<stop offset="0.73" stop-color="#3D3B53" stop-opacity="0.96"/>
<stop offset="0.99" stop-color="#3F3D56"/>
</linearGradient>
<linearGradient id="paint19_linear_629_1270" x1="456.971" y1="542.382" x2="476.233" y2="542.382" gradientUnits="userSpaceOnUse">
<stop stop-opacity="0"/>
<stop offset="0.02" stop-color="#030304" stop-opacity="0.04"/>
<stop offset="0.18" stop-color="#181821" stop-opacity="0.39"/>
<stop offset="0.35" stop-color="#292839" stop-opacity="0.66"/>
<stop offset="0.53" stop-color="#363449" stop-opacity="0.85"/>
<stop offset="0.73" stop-color="#3D3B53" stop-opacity="0.96"/>
<stop offset="0.99" stop-color="#3F3D56"/>
</linearGradient>
<clipPath id="clip0_629_1270">
<rect width="589" height="554" fill="white"/>
</clipPath>
</defs>
</svg>
