<svg width="20" height="18" viewBox="0 0 20 18" fill="none" xmlns="http://www.w3.org/2000/svg">
<path fill-rule="evenodd" clip-rule="evenodd" d="M9.58088 0C7.01837 0 6.69705 0.0103605 5.69067 0.0541601C4.68639 0.0978521 4.0005 0.250008 3.40034 0.472506C2.77989 0.702472 2.2537 1.01021 1.72912 1.51055C1.20459 2.01092 0.88196 2.51283 0.64087 3.10466C0.407609 3.67712 0.248093 4.33137 0.202288 5.28931C0.156369 6.24926 0.145508 6.55575 0.145508 9.00002C0.145508 11.4443 0.156369 11.7507 0.202288 12.7107C0.248093 13.6686 0.407609 14.3229 0.64087 14.8953C0.88196 15.4872 1.20459 15.9891 1.72912 16.4895C2.2537 16.9898 2.77989 17.2975 3.40034 17.5275C4.0005 17.75 4.68639 17.9021 5.69067 17.9458C6.69705 17.9896 7.01837 18 9.58088 18C12.1433 18 12.4647 17.9896 13.471 17.9458C14.4753 17.9021 15.1612 17.75 15.7614 17.5275C16.3818 17.2975 16.908 16.9898 17.4326 16.4895C17.9571 15.9891 18.2798 15.4872 18.5209 14.8953C18.7541 14.3229 18.9136 13.6686 18.9594 12.7107C19.0053 11.7507 19.0162 11.4443 19.0162 9.00002C19.0162 6.55575 19.0053 6.24926 18.9594 5.28931C18.9136 4.33137 18.7541 3.67712 18.5209 3.10466C18.2798 2.51283 17.9571 2.01092 17.4326 1.51055C16.908 1.01021 16.3818 0.702472 15.7614 0.472506C15.1612 0.250008 14.4753 0.0978521 13.471 0.0541601C12.4647 0.0103605 12.1433 0 9.58088 0ZM9.58084 1.62158C12.1002 1.62158 12.3986 1.63076 13.3935 1.67406C14.3135 1.71408 14.813 1.86069 15.1455 1.98395C15.5859 2.14721 15.9003 2.34224 16.2304 2.65719C16.5606 2.97211 16.7651 3.27192 16.9362 3.69202C17.0654 4.00916 17.2191 4.4857 17.2611 5.36319C17.3065 6.3122 17.3161 6.59687 17.3161 8.99998C17.3161 11.4031 17.3065 11.6877 17.2611 12.6367C17.2191 13.5142 17.0654 13.9908 16.9362 14.3079C16.7651 14.728 16.5606 15.0278 16.2304 15.3427C15.9003 15.6577 15.5859 15.8527 15.1455 16.016C14.813 16.1392 14.3135 16.2859 13.3935 16.3259C12.3987 16.3692 12.1004 16.3783 9.58084 16.3783C7.0613 16.3783 6.76294 16.3692 5.76814 16.3259C4.8482 16.2859 4.3486 16.1392 4.01613 16.016C3.57571 15.8527 3.2614 15.6577 2.93124 15.3427C2.60109 15.0278 2.39659 14.728 2.22543 14.3079C2.09621 13.9908 1.9425 13.5142 1.90056 12.6367C1.85516 11.6877 1.84554 11.4031 1.84554 8.99998C1.84554 6.59687 1.85516 6.3122 1.90056 5.36319C1.9425 4.4857 2.09621 4.00916 2.22543 3.69202C2.39659 3.27192 2.60105 2.97211 2.93124 2.65719C3.2614 2.34224 3.57571 2.14721 4.01613 1.98395C4.3486 1.86069 4.8482 1.71408 5.76814 1.67406C6.76306 1.63076 7.06149 1.62158 9.58084 1.62158ZM4.73573 9.00006C4.73573 6.44757 6.90497 4.37842 9.58092 4.37842C12.2568 4.37842 14.4261 6.44757 14.4261 9.00006C14.4261 11.5525 12.2568 13.6217 9.58092 13.6217C6.90497 13.6217 4.73573 11.5525 4.73573 9.00006ZM9.58088 12C7.84386 12 6.43575 10.6569 6.43575 9.00002C6.43575 7.34314 7.84386 6 9.58088 6C11.3179 6 12.726 7.34314 12.726 9.00002C12.726 10.6569 11.3179 12 9.58088 12ZM14.6175 5.27573C15.2428 5.27573 15.7497 4.79222 15.7497 4.19574C15.7497 3.59927 15.2428 3.11572 14.6175 3.11572C13.9922 3.11572 13.4853 3.59927 13.4853 4.19574C13.4853 4.79222 13.9922 5.27573 14.6175 5.27573Z" fill="#0081FE"/>
</svg>
