<svg width="73" height="74" viewBox="0 0 73 74" fill="none" xmlns="http://www.w3.org/2000/svg">
<g clip-path="url(#clip0_125_2026)">
<path d="M71.6562 0.984375H27.125C26.8142 0.984375 26.5161 1.10784 26.2964 1.32761C26.0766 1.54738 25.9531 1.84545 25.9531 2.15625V18.082C24.4459 17.1325 22.7111 16.6056 20.9304 16.5564C19.1497 16.5072 17.3885 16.9376 15.8312 17.8025C14.2738 18.6674 12.9776 19.9351 12.0782 21.4728C11.1788 23.0104 10.7093 24.7616 10.7188 26.543V33.9844C10.7117 35.4426 11.0786 36.8783 11.7843 38.1543C12.4901 39.4304 13.5111 40.5043 14.75 41.2734L16.9648 42.6562C18.0797 43.35 19.3666 43.7177 20.6797 43.7177C21.9928 43.7177 23.2797 43.35 24.3945 42.6562L26.5977 41.2734C27.8379 40.5049 28.8607 39.4314 29.5684 38.1554C30.2762 36.8795 30.6453 35.4435 30.6406 33.9844V33.3281H38.1758V39.8438C38.1739 40.0939 38.252 40.3381 38.3989 40.5406C38.5457 40.7431 38.7535 40.8933 38.9918 40.9693C39.2301 41.0452 39.4865 41.0429 39.7235 40.9627C39.9604 40.8825 40.1654 40.7286 40.3086 40.5234L45.4414 33.2695H71.6562C71.967 33.2695 72.2651 33.1461 72.4849 32.9263C72.7047 32.7065 72.8281 32.4085 72.8281 32.0977V2.15625C72.8281 1.84545 72.7047 1.54738 72.4849 1.32761C72.2651 1.10784 71.967 0.984375 71.6562 0.984375ZM27.0312 22.2656C27.8718 23.5326 28.3127 25.0226 28.2969 26.543V28.793C26.3871 27.9315 24.7292 26.5963 23.4805 24.9141C24.7283 24.1208 25.9152 23.2356 27.0312 22.2656ZM20.7148 18.8906C22.45 18.8961 24.1318 19.4911 25.4844 20.5781C21.7022 23.5357 17.52 25.9424 13.0625 27.7266V26.5547C13.061 25.5499 13.2579 24.5547 13.6421 23.6262C14.0262 22.6977 14.59 21.8543 15.3011 21.1444C16.0121 20.4344 16.8564 19.8719 17.7855 19.4891C18.7145 19.1064 19.71 18.911 20.7148 18.9141V18.8906ZM28.2969 33.9844C28.2983 35.0463 28.0289 36.0911 27.5143 37.0199C26.9996 37.9488 26.2566 38.7311 25.3555 39.293L23.1523 40.6641C22.41 41.125 21.5535 41.3693 20.6797 41.3693C19.8058 41.3693 18.9494 41.125 18.207 40.6641L15.9922 39.293C15.0925 38.7305 14.3512 37.9478 13.8385 37.0188C13.3258 36.0899 13.0587 35.0454 13.0625 33.9844V30.1992C15.9971 29.1356 18.8162 27.7771 21.4766 26.1445C23.1986 28.4996 25.5682 30.3033 28.2969 31.3359V33.9844ZM70.4844 30.9844H44.8672C44.6802 30.9866 44.4965 31.0334 44.3314 31.1211C44.1663 31.2088 44.0245 31.3347 43.918 31.4883L40.5547 36.1758V32.1328C40.5547 31.822 40.4312 31.5239 40.2115 31.3042C39.9917 31.0844 39.6936 30.9609 39.3828 30.9609H30.6406V26.543C30.6487 24.181 29.8181 21.8928 28.2969 20.0859V3.32812H70.4844V30.9844ZM1.34375 73.8281H40.0859C40.3967 73.8281 40.6948 73.7047 40.9146 73.4849C41.1343 73.2651 41.2578 72.967 41.2578 72.6562V53.7656C41.2547 51.6262 40.4027 49.5755 38.8888 48.0639C37.3749 46.5522 35.323 45.7031 33.1836 45.7031H8.23438C6.09702 45.7062 4.04809 46.5567 2.53675 48.068C1.02541 49.5793 0.174975 51.6283 0.171875 53.7656V72.6562C0.171875 72.967 0.29534 73.2651 0.515109 73.4849C0.734878 73.7047 1.03295 73.8281 1.34375 73.8281ZM2.51562 53.7656C2.51872 52.2499 3.12223 50.7971 4.19403 49.7253C5.26583 48.6535 6.71862 48.05 8.23438 48.0469H33.1836C34.7014 48.0469 36.1572 48.649 37.2315 49.7211C38.3058 50.7933 38.911 52.2478 38.9141 53.7656V71.4844H33.5V61.0781C33.5 60.7673 33.3765 60.4692 33.1568 60.2495C32.937 60.0297 32.6389 59.9062 32.3281 59.9062C32.0173 59.9062 31.7193 60.0297 31.4995 60.2495C31.2797 60.4692 31.1562 60.7673 31.1562 61.0781V71.4844H10.2617V61.0781C10.2617 60.7673 10.1383 60.4692 9.91848 60.2495C9.69872 60.0297 9.40064 59.9062 9.08984 59.9062C8.77904 59.9062 8.48097 60.0297 8.2612 60.2495C8.04143 60.4692 7.91797 60.7673 7.91797 61.0781V71.4844H2.51562V53.7656Z" fill="black"/>
<path d="M35.3281 10.043H56.0586C56.3694 10.043 56.6675 9.9195 56.8872 9.69973C57.107 9.47997 57.2305 9.18189 57.2305 8.87109C57.2305 8.56029 57.107 8.26222 56.8872 8.04245C56.6675 7.82268 56.3694 7.69922 56.0586 7.69922H35.3281C35.0173 7.69922 34.7193 7.82268 34.4995 8.04245C34.2797 8.26222 34.1562 8.56029 34.1562 8.87109C34.1562 9.18189 34.2797 9.47997 34.4995 9.69973C34.7193 9.9195 35.0173 10.043 35.3281 10.043ZM56.0586 12.9609H48.3477C48.0369 12.9609 47.7388 13.0844 47.519 13.3042C47.2992 13.5239 47.1758 13.822 47.1758 14.1328C47.1758 14.4436 47.2992 14.7417 47.519 14.9615C47.7388 15.1812 48.0369 15.3047 48.3477 15.3047H56.0586C56.3694 15.3047 56.6675 15.1812 56.8872 14.9615C57.107 14.7417 57.2305 14.4436 57.2305 14.1328C57.2305 13.822 57.107 13.5239 56.8872 13.3042C56.6675 13.0844 56.3694 12.9609 56.0586 12.9609ZM35.3281 15.3047H43.8477C44.1585 15.3047 44.4565 15.1812 44.6763 14.9615C44.8961 14.7417 45.0195 14.4436 45.0195 14.1328C45.0195 13.822 44.8961 13.5239 44.6763 13.3042C44.4565 13.0844 44.1585 12.9609 43.8477 12.9609H35.3281C35.0173 12.9609 34.7193 13.0844 34.4995 13.3042C34.2797 13.5239 34.1562 13.822 34.1562 14.1328C34.1562 14.4436 34.2797 14.7417 34.4995 14.9615C34.7193 15.1812 35.0173 15.3047 35.3281 15.3047ZM56.0586 18.2344H48.3477C48.0369 18.2344 47.7388 18.3578 47.519 18.5776C47.2992 18.7974 47.1758 19.0954 47.1758 19.4062C47.1758 19.7171 47.2992 20.0151 47.519 20.2349C47.7388 20.4547 48.0369 20.5781 48.3477 20.5781H56.0586C56.3694 20.5781 56.6675 20.4547 56.8872 20.2349C57.107 20.0151 57.2305 19.7171 57.2305 19.4062C57.2305 19.0954 57.107 18.7974 56.8872 18.5776C56.6675 18.3578 56.3694 18.2344 56.0586 18.2344ZM35.3281 20.5781H43.8477C44.1585 20.5781 44.4565 20.4547 44.6763 20.2349C44.8961 20.0151 45.0195 19.7171 45.0195 19.4062C45.0195 19.0954 44.8961 18.7974 44.6763 18.5776C44.4565 18.3578 44.1585 18.2344 43.8477 18.2344H35.3281C35.0173 18.2344 34.7193 18.3578 34.4995 18.5776C34.2797 18.7974 34.1562 19.0954 34.1562 19.4062C34.1562 19.7171 34.2797 20.0151 34.4995 20.2349C34.7193 20.4547 35.0173 20.5781 35.3281 20.5781ZM56.0586 23.4961H48.3477C48.0369 23.4961 47.7388 23.6196 47.519 23.8393C47.2992 24.0591 47.1758 24.3572 47.1758 24.668C47.1758 24.9788 47.2992 25.2768 47.519 25.4966C47.7388 25.7164 48.0369 25.8398 48.3477 25.8398H56.0586C56.3694 25.8398 56.6675 25.7164 56.8872 25.4966C57.107 25.2768 57.2305 24.9788 57.2305 24.668C57.2305 24.3572 57.107 24.0591 56.8872 23.8393C56.6675 23.6196 56.3694 23.4961 56.0586 23.4961ZM35.3281 25.8398H43.8477C44.1585 25.8398 44.4565 25.7164 44.6763 25.4966C44.8961 25.2768 45.0195 24.9788 45.0195 24.668C45.0195 24.3572 44.8961 24.0591 44.6763 23.8393C44.4565 23.6196 44.1585 23.4961 43.8477 23.4961H35.3281C35.0173 23.4961 34.7193 23.6196 34.4995 23.8393C34.2797 24.0591 34.1562 24.3572 34.1562 24.668C34.1562 24.9788 34.2797 25.2768 34.4995 25.4966C34.7193 25.7164 35.0173 25.8398 35.3281 25.8398ZM60.9336 10.043H64.2617C64.5725 10.043 64.8706 9.9195 65.0904 9.69973C65.3101 9.47997 65.4336 9.18189 65.4336 8.87109C65.4336 8.56029 65.3101 8.26222 65.0904 8.04245C64.8706 7.82268 64.5725 7.69922 64.2617 7.69922H60.9336C60.6228 7.69922 60.3247 7.82268 60.105 8.04245C59.8852 8.26222 59.7617 8.56029 59.7617 8.87109C59.7617 9.18189 59.8852 9.47997 60.105 9.69973C60.3247 9.9195 60.6228 10.043 60.9336 10.043ZM60.9336 15.3047H64.2617C64.5725 15.3047 64.8706 15.1812 65.0904 14.9615C65.3101 14.7417 65.4336 14.4436 65.4336 14.1328C65.4336 13.822 65.3101 13.5239 65.0904 13.3042C64.8706 13.0844 64.5725 12.9609 64.2617 12.9609H60.9336C60.6228 12.9609 60.3247 13.0844 60.105 13.3042C59.8852 13.5239 59.7617 13.822 59.7617 14.1328C59.7617 14.4436 59.8852 14.7417 60.105 14.9615C60.3247 15.1812 60.6228 15.3047 60.9336 15.3047ZM60.9336 20.5781H64.2617C64.5725 20.5781 64.8706 20.4547 65.0904 20.2349C65.3101 20.0151 65.4336 19.7171 65.4336 19.4062C65.4336 19.0954 65.3101 18.7974 65.0904 18.5776C64.8706 18.3578 64.5725 18.2344 64.2617 18.2344H60.9336C60.6228 18.2344 60.3247 18.3578 60.105 18.5776C59.8852 18.7974 59.7617 19.0954 59.7617 19.4062C59.7617 19.7171 59.8852 20.0151 60.105 20.2349C60.3247 20.4547 60.6228 20.5781 60.9336 20.5781ZM60.9336 25.8398H64.2617C64.5725 25.8398 64.8706 25.7164 65.0904 25.4966C65.3101 25.2768 65.4336 24.9788 65.4336 24.668C65.4336 24.3572 65.3101 24.0591 65.0904 23.8393C64.8706 23.6196 64.5725 23.4961 64.2617 23.4961H60.9336C60.6228 23.4961 60.3247 23.6196 60.105 23.8393C59.8852 24.0591 59.7617 24.3572 59.7617 24.668C59.7617 24.9788 59.8852 25.2768 60.105 25.4966C60.3247 25.7164 60.6228 25.8398 60.9336 25.8398Z" fill="black"/>
</g>
<defs>
<clipPath id="clip0_125_2026">
<rect width="73" height="74" fill="white"/>
</clipPath>
</defs>
</svg>
