<svg width="144" height="117" viewBox="0 0 144 117" fill="none" xmlns="http://www.w3.org/2000/svg">
<g clip-path="url(#clip0_633_996)">
<path d="M31.5352 25.1091C23.0902 29.6133 14.3889 34.3304 8.50261 41.8739C4.96771 46.4093 2.61242 51.8081 1.37217 57.4257C-0.752285 67.0142 0.820519 78.1302 8.12897 84.7244C10.6721 87.0293 13.7825 88.6563 16.9907 89.9064C23.6409 92.4929 30.789 93.551 37.9047 93.0023C43.7479 92.5472 49.5814 91.01 55.3953 91.7425C62.4866 92.6331 68.678 96.774 75.2842 99.5008C83.493 102.876 92.4312 104.093 101.245 103.036C103.468 102.767 105.717 102.335 107.671 101.245C109.992 99.95 111.711 97.8347 113.54 95.9009C117.664 91.5246 122.529 87.9085 127.911 85.2186C130.733 83.8083 133.724 82.6383 136.176 80.6538C142.631 75.4386 143.736 66.106 143.361 57.83C142.985 49.5541 141.117 40.4187 134.483 35.393C133.003 34.2718 131.336 33.4026 129.9 32.2209C125.111 28.2792 123.679 21.6811 120.612 16.2882C113.734 4.2288 98.3872 -1.05085 84.5704 0.441433C64.7714 2.58025 48.5563 16.0323 31.5352 25.1091Z" fill="#E7E8FF"/>
<path d="M135.269 57.914C135.089 59.5743 133.036 62.3616 130.198 65.4946C125.546 70.62 118.787 76.6653 114.722 80.187C112.625 82.0055 111.246 83.152 111.246 83.152V51.5992C111.246 51.5992 116.168 45.3058 119.744 44.9014C123.32 44.4971 130.536 48.6732 130.536 48.6732C130.536 48.6732 135.871 52.1402 135.269 57.914Z" fill="#68E1FD"/>
<path d="M130.198 65.4946C125.546 70.62 118.787 76.6653 114.722 80.187C114.419 79.7045 114.358 79.0483 114.331 78.4545C114.223 75.4875 114.248 72.5166 114.276 69.5476C114.301 66.6646 114.327 63.7836 114.509 60.9064C114.681 58.2265 115.009 55.4861 116.238 53.0934C116.515 53.3408 116.744 53.6375 116.913 53.9684C118.46 56.6229 119.438 59.5509 120.416 62.4573C120.9 63.8897 121.384 65.3279 121.868 66.772C122.953 66.1772 123.922 65.3933 124.73 64.4574C125.473 63.6351 126.136 62.7464 126.819 61.8752C127.296 61.2658 128.228 59.5313 128.971 60.1837C130.176 61.2326 130.274 63.6332 130.198 65.4946Z" fill="url(#paint0_linear_633_996)"/>
<path d="M114.859 10.0554H34.7344V102.712H114.859V10.0554Z" fill="#68E1FD"/>
<path d="M114.859 10.0554H34.7344V102.712H114.859V10.0554Z" fill="url(#paint1_linear_633_996)"/>
<path d="M103.848 14.5342L34.7344 20.7201C35.0454 20.7201 34.7344 12.1258 34.7344 10.0554H107.604V10.782C107.604 11.7768 107.208 12.7309 106.504 13.4345C105.799 14.1381 104.844 14.5337 103.848 14.5342Z" fill="url(#paint2_linear_633_996)"/>
<path d="M114.859 20.7201H34.7344V113.377H114.859V20.7201Z" fill="#68E1FD"/>
<path d="M46.1255 20.7201H34.7344V113.377H46.1255V20.7201Z" fill="url(#paint3_linear_633_996)"/>
<path d="M53.0463 38.0377H39.2061V51.857H53.0463V38.0377Z" fill="white"/>
<path d="M67.6547 38.0377H53.8145V51.857H67.6547V38.0377Z" fill="white"/>
<path d="M82.2661 38.0377H68.4258V51.857H82.2661V38.0377Z" fill="white"/>
<path d="M96.8754 38.0377H83.0352V51.857H96.8754V38.0377Z" fill="white"/>
<path d="M53.0463 52.4644H39.2061V66.2837H53.0463V52.4644Z" fill="white"/>
<path d="M67.6547 52.4644H53.8145V66.2837H67.6547V52.4644Z" fill="white"/>
<path d="M82.2661 52.4644H68.4258V66.2837H82.2661V52.4644Z" fill="white"/>
<path d="M96.8754 52.4644H83.0352V66.2837H96.8754V52.4644Z" fill="white"/>
<path d="M53.0463 66.8912H39.2061V80.7105H53.0463V66.8912Z" fill="white"/>
<path d="M67.6547 66.8912H53.8145V80.7105H67.6547V66.8912Z" fill="white"/>
<path d="M82.2661 66.8912H68.4258V80.7105H82.2661V66.8912Z" fill="white"/>
<path d="M96.8754 66.8912H83.0352V80.7105H96.8754V66.8912Z" fill="white"/>
<path d="M53.0463 81.3179H39.2061V95.1372H53.0463V81.3179Z" fill="white"/>
<path d="M67.6547 81.3179H53.8145V95.1372H67.6547V81.3179Z" fill="white"/>
<path d="M82.2661 81.3179H68.4258V95.1372H82.2661V81.3179Z" fill="white"/>
<path d="M96.8754 81.3179H83.0352V95.1372H96.8754V81.3179Z" fill="white"/>
<path d="M53.0463 95.7447H39.2061V109.564H53.0463V95.7447Z" fill="white"/>
<path d="M67.6547 95.7447H53.8145V109.564H67.6547V95.7447Z" fill="white"/>
<path d="M82.2661 95.7447H68.4258V109.564H82.2661V95.7447Z" fill="white"/>
<path d="M111.24 38.0377H97.3994V51.857H111.24V38.0377Z" fill="white"/>
<path d="M111.24 23.6109H97.3994V37.4302H111.24V23.6109Z" fill="white"/>
<path d="M96.8754 23.6109H83.0352V37.4302H96.8754V23.6109Z" fill="white"/>
<path d="M111.24 52.4644H97.3994V66.2837H111.24V52.4644Z" fill="white"/>
<path d="M111.24 66.8912H97.3994V80.7105H111.24V66.8912Z" fill="white"/>
<path d="M111.24 81.3179H97.3994V95.1372H111.24V81.3179Z" fill="white"/>
<path d="M40.9414 6.30901V13.8017C40.9414 14.206 41.4559 14.5342 42.0878 14.5342C42.7216 14.5342 43.2341 14.206 43.2341 13.8017V6.30901C43.2341 5.90468 42.7216 5.57654 42.0878 5.57654C41.4559 5.57654 40.9414 5.90468 40.9414 6.30901Z" fill="#68E1FD"/>
<path d="M51.8994 6.30901V13.8017C51.8994 14.206 52.4119 14.5342 53.0458 14.5342C53.6796 14.5342 54.1921 14.206 54.1921 13.8017V6.30901C54.1921 5.90468 53.6796 5.57654 53.0458 5.57654C52.4119 5.57654 51.8994 5.90468 51.8994 6.30901Z" fill="#68E1FD"/>
<path d="M62.8584 6.30901V13.8017C62.8584 14.206 63.3709 14.5342 64.0047 14.5342C64.6386 14.5342 65.1511 14.206 65.1511 13.8017V6.30901C65.1511 5.90468 64.6386 5.57654 64.0047 5.57654C63.3709 5.57654 62.8584 5.90468 62.8584 6.30901Z" fill="#68E1FD"/>
<path d="M73.8174 6.30901V13.8017C73.8174 14.206 74.3299 14.5342 74.9637 14.5342C75.5956 14.5342 76.1101 14.206 76.1101 13.8017V6.30901C76.1101 5.90468 75.5956 5.57654 74.9637 5.57654C74.3299 5.57654 73.8174 5.90468 73.8174 6.30901Z" fill="#68E1FD"/>
<path d="M84.7744 6.30901V13.8017C84.7744 14.206 85.2889 14.5342 85.9227 14.5342C86.5546 14.5342 87.0691 14.206 87.0691 13.8017V6.30901C87.0691 5.90468 86.5546 5.57654 85.9227 5.57654C85.2889 5.57654 84.7744 5.90468 84.7744 6.30901Z" fill="#68E1FD"/>
<path d="M95.7334 6.30901V13.8017C95.7334 14.206 96.2479 14.5342 96.8797 14.5342C97.5136 14.5342 98.028 14.206 98.028 13.8017V6.30901C98.028 5.90468 97.5136 5.57654 96.8797 5.57654C96.2479 5.57654 95.7334 5.90468 95.7334 6.30901Z" fill="#68E1FD"/>
<path d="M106.457 6.30901V13.8017C106.457 14.206 106.972 14.5342 107.603 14.5342C108.237 14.5342 108.75 14.206 108.75 13.8017V6.30901C108.75 5.90468 108.237 5.57654 107.603 5.57654C106.972 5.57654 106.457 5.90468 106.457 6.30901Z" fill="#68E1FD"/>
<path d="M116.685 10.0554H114.861V113.377H116.685V10.0554Z" fill="url(#paint4_linear_633_996)"/>
<path d="M86.232 25.6365C86.2324 25.8541 86.1681 26.067 86.0472 26.2482C85.9263 26.4293 85.7544 26.5706 85.553 26.654C85.3517 26.7375 85.1301 26.7594 84.9163 26.7171C84.7024 26.6747 84.506 26.5699 84.3519 26.416C84.1977 26.2621 84.0928 26.066 84.0504 25.8525C84.0079 25.639 84.0299 25.4177 84.1135 25.2167C84.1971 25.0157 84.3386 24.8439 84.52 24.7233C84.7014 24.6026 84.9146 24.5384 85.1326 24.5387C85.424 24.5393 85.7034 24.6551 85.9094 24.8608C86.1155 25.0666 86.2315 25.3455 86.232 25.6365Z" fill="url(#paint5_linear_633_996)"/>
<path d="M86.232 40.0652C86.2324 40.2828 86.1681 40.4957 86.0472 40.6769C85.9263 40.858 85.7544 40.9992 85.553 41.0827C85.3517 41.1662 85.1301 41.1881 84.9163 41.1458C84.7024 41.1034 84.506 40.9986 84.3519 40.8447C84.1977 40.6908 84.0928 40.4947 84.0504 40.2812C84.0079 40.0677 84.0299 39.8464 84.1135 39.6454C84.1971 39.4444 84.3386 39.2726 84.52 39.152C84.7014 39.0313 84.9146 38.9671 85.1326 38.9674C85.424 38.968 85.7034 39.0838 85.9094 39.2895C86.1155 39.4953 86.2315 39.7742 86.232 40.0652Z" fill="url(#paint6_linear_633_996)"/>
<path d="M88.9215 40.0652C88.9218 40.2828 88.8575 40.4957 88.7367 40.6769C88.6158 40.858 88.4438 40.9992 88.2425 41.0827C88.0412 41.1662 87.8195 41.1881 87.6057 41.1458C87.3919 41.1034 87.1955 40.9986 87.0413 40.8447C86.8872 40.6908 86.7823 40.4947 86.7398 40.2812C86.6974 40.0677 86.7194 39.8464 86.803 39.6454C86.8866 39.4444 87.028 39.2726 87.2094 39.152C87.3909 39.0313 87.6041 38.9671 87.8221 38.9674C88.1135 38.968 88.3928 39.0838 88.5989 39.2895C88.8049 39.4953 88.9209 39.7742 88.9215 40.0652Z" fill="url(#paint7_linear_633_996)"/>
<path d="M91.6265 40.0652C91.6269 40.2828 91.5626 40.4957 91.4417 40.6769C91.3209 40.858 91.1489 40.9992 90.9476 41.0827C90.7462 41.1662 90.5246 41.1881 90.3108 41.1458C90.097 41.1034 89.9006 40.9986 89.7464 40.8447C89.5923 40.6908 89.4873 40.4947 89.4449 40.2812C89.4025 40.0677 89.4244 39.8464 89.508 39.6454C89.5916 39.4444 89.7331 39.2726 89.9145 39.152C90.0959 39.0313 90.3091 38.9671 90.5271 38.9674C90.8186 38.968 91.0979 39.0838 91.304 39.2895C91.51 39.4953 91.626 39.7742 91.6265 40.0652Z" fill="url(#paint8_linear_633_996)"/>
<path d="M86.232 69.1257C86.232 69.3433 86.1674 69.556 86.0463 69.7369C85.9252 69.9177 85.753 70.0587 85.5517 70.1419C85.3503 70.225 85.1288 70.2467 84.9151 70.2041C84.7014 70.1615 84.5051 70.0566 84.3512 69.9026C84.1972 69.7486 84.0925 69.5525 84.0502 69.339C84.0079 69.1256 84.03 68.9044 84.1137 68.7035C84.1974 68.5026 84.3388 68.331 84.5202 68.2104C84.7016 68.0898 84.9147 68.0256 85.1326 68.026C85.2771 68.026 85.4203 68.0545 85.5538 68.1098C85.6873 68.1651 85.8086 68.2461 85.9107 68.3482C86.0128 68.4504 86.0937 68.5716 86.1489 68.705C86.204 68.8384 86.2323 68.9814 86.232 69.1257Z" fill="url(#paint9_linear_633_996)"/>
<path d="M41.5301 70.2234C42.1372 70.2234 42.6295 69.732 42.6295 69.1257C42.6295 68.5194 42.1372 68.028 41.5301 68.028C40.9229 68.028 40.4307 68.5194 40.4307 69.1257C40.4307 69.732 40.9229 70.2234 41.5301 70.2234Z" fill="#FF2235"/>
<path d="M88.9215 69.1257C88.9215 69.3433 88.8568 69.556 88.7357 69.7369C88.6146 69.9177 88.4425 70.0587 88.2411 70.1419C88.0398 70.225 87.8182 70.2467 87.6045 70.2041C87.3908 70.1615 87.1946 70.0566 87.0406 69.9026C86.8867 69.7486 86.7819 69.5525 86.7397 69.339C86.6974 69.1256 86.7195 68.9044 86.8032 68.7035C86.8868 68.5026 87.0283 68.331 87.2096 68.2104C87.391 68.0898 87.6042 68.0256 87.8221 68.026C87.9666 68.026 88.1097 68.0545 88.2432 68.1098C88.3767 68.1651 88.498 68.2461 88.6001 68.3482C88.7023 68.4504 88.7832 68.5716 88.8383 68.705C88.8935 68.8384 88.9217 68.9814 88.9215 69.1257Z" fill="url(#paint10_linear_633_996)"/>
<path d="M91.6265 69.1257C91.6265 69.3433 91.5619 69.556 91.4408 69.7369C91.3197 69.9177 91.1476 70.0587 90.9462 70.1419C90.7448 70.225 90.5233 70.2467 90.3096 70.2041C90.0959 70.1615 89.8997 70.0566 89.7457 69.9026C89.5918 69.7486 89.487 69.5525 89.4448 69.339C89.4025 69.1256 89.4246 68.9044 89.5082 68.7035C89.5919 68.5026 89.7333 68.331 89.9147 68.2104C90.0961 68.0898 90.3092 68.0256 90.5271 68.026C90.6717 68.026 90.8148 68.0545 90.9483 68.1098C91.0818 68.1651 91.2031 68.2461 91.3052 68.3482C91.4073 68.4504 91.4883 68.5716 91.5434 68.705C91.5985 68.8384 91.6268 68.9814 91.6265 69.1257Z" fill="url(#paint11_linear_633_996)"/>
<path d="M135.137 39.5925C134.83 40.8465 135.241 42.5849 134.658 43.7353C133.68 45.6691 130.82 46.9524 130.397 49.0755C130.372 49.1986 127.189 50.73 125.548 50.2065C124.689 49.935 124.253 49.099 124.914 47.2082C125.122 46.6223 126.284 46.4035 126.597 45.8585L126.532 45.8097C124.944 44.6124 124.771 42.0751 125.1 40.3816C125.429 38.6881 126.182 37.0611 126.99 35.5141C127.612 34.3226 129.016 33.6761 130.362 33.6976C132.054 33.7269 133.84 34.4027 134.721 35.8461C135.394 36.9458 135.443 38.3385 135.137 39.5925Z" fill="url(#paint12_linear_633_996)"/>
<path d="M127.32 30.4708C126.453 30.9278 125.532 31.4669 124.562 31.3205C124.537 31.5531 124.575 31.7881 124.672 32.001C124.769 32.214 124.921 32.3971 125.113 32.5315L124.511 32.6662C124.486 32.6677 124.462 32.6748 124.44 32.687C124.418 32.6992 124.4 32.7161 124.385 32.7366C124.378 32.7584 124.375 32.7815 124.378 32.8045C124.38 32.8274 124.387 32.8495 124.399 32.8694C124.547 33.2147 124.791 33.5107 125.101 33.723C124.994 33.9534 124.605 33.9027 124.472 34.1136C124.442 34.1762 124.427 34.2446 124.427 34.3138C124.427 34.383 124.442 34.4514 124.472 34.514C124.606 34.8785 124.835 35.2002 125.137 35.4457C124.777 35.8364 125.002 36.5591 125.499 36.7368C125.995 36.9146 126.592 36.5767 126.762 36.0747C126.785 36.3006 126.732 36.5276 126.614 36.7212C128.255 36.979 130.01 37.2212 131.52 36.5259C131.449 36.6821 131.411 36.8507 131.406 37.022C131.771 37.136 132.157 37.1601 132.533 37.0923C132.611 37.8968 132.539 38.7089 132.32 39.487C132.185 39.9714 131.991 40.4402 131.905 40.9344C131.797 41.432 131.886 41.9523 132.154 42.3856C132.414 42.3622 132.598 42.118 132.697 41.8778C132.769 41.6274 132.878 41.389 133.02 41.1707C133.411 40.7137 134.225 40.8816 134.54 41.3875C134.855 41.8934 134.736 42.5732 134.435 43.083C134.248 43.3836 134.002 43.6428 133.712 43.8444C133.421 44.0461 133.092 44.1858 132.744 44.2549C132.801 44.7999 132.86 45.3448 132.917 45.8878C133.948 44.9112 135.102 44.0733 136.029 43.0048C136.956 41.9364 137.658 40.5691 137.539 39.1589C137.467 38.2897 137.087 37.4634 137.058 36.5903C137.044 36.1997 137.103 35.7993 137.087 35.4047C137.051 34.7761 136.83 34.172 136.453 33.6675C136.075 33.163 135.558 32.7802 134.965 32.5666C134.466 32.3967 133.916 32.3479 133.474 32.0607C132.924 31.7052 132.639 31.0431 132.093 30.6798C131.506 30.2891 130.595 30.129 129.912 29.9356C129.024 29.6895 128.1 30.0626 127.32 30.4708Z" fill="#3F3D56"/>
<path d="M115.013 48.9525C114.943 48.9952 114.883 49.052 114.837 49.1193C114.79 49.1866 114.758 49.2628 114.743 49.3431C114.751 49.4273 114.786 49.5067 114.843 49.5694C114.899 49.6321 114.975 49.6747 115.058 49.6908C115.225 49.7201 115.397 49.7121 115.561 49.6674L116.555 49.472C116.018 49.771 115.572 50.2098 115.265 50.7417C115.229 50.8029 115.212 50.8734 115.215 50.9445C115.218 51.0156 115.242 51.0842 115.283 51.1421C115.416 51.3101 115.641 51.2436 115.821 51.1733L116.684 50.8296L116.097 51.398C115.914 51.5603 115.755 51.7469 115.623 51.9527C115.567 52.0496 115.525 52.1542 115.498 52.2633C115.488 52.3094 115.49 52.3576 115.503 52.4028C115.517 52.4481 115.543 52.489 115.578 52.5213C115.612 52.5537 115.655 52.5765 115.701 52.5874C115.747 52.5983 115.795 52.597 115.841 52.5836C116.2 52.4828 116.533 52.3071 116.819 52.0679C116.607 52.3648 116.37 52.6438 116.113 52.902C115.854 53.162 115.708 53.5125 115.706 53.8786C115.707 53.918 115.72 53.9561 115.743 53.988C115.772 54.0166 115.81 54.0345 115.85 54.0388C116.169 54.0915 116.459 53.8591 116.699 53.6481L117.586 52.8453C117.728 52.7286 117.854 52.5925 117.959 52.441C118.018 52.3537 118.052 52.2515 118.055 52.1461C118.049 52.0791 118.026 52.0149 117.988 51.9594C117.95 51.904 117.898 51.8593 117.838 51.8297C117.778 51.8 117.711 51.7864 117.643 51.7902C117.576 51.7939 117.511 51.8149 117.454 51.8511C117.48 51.6812 117.546 51.523 117.588 51.3569C117.638 51.1933 117.627 51.0168 117.556 50.8608C117.518 50.7846 117.453 50.7256 117.373 50.6955C117.293 50.6655 117.205 50.6666 117.126 50.6987C117.23 50.4955 117.296 50.2751 117.321 50.0483C117.332 49.9336 117.311 49.8183 117.26 49.715C117.209 49.6116 117.131 49.5242 117.034 49.4623C116.98 49.4413 116.931 49.4101 116.889 49.3705C116.811 49.2748 116.873 49.138 116.907 49.0189C116.939 48.9289 116.949 48.8322 116.934 48.7376C116.919 48.6431 116.881 48.5538 116.822 48.478C116.764 48.4022 116.687 48.3424 116.599 48.3042C116.511 48.2659 116.415 48.2504 116.32 48.2591C115.807 48.3196 115.387 48.6361 115.013 48.9525Z" fill="url(#paint13_linear_633_996)"/>
<path d="M131.064 56.2909C133.313 54.3064 136.099 55.8104 135.121 58.6445C133.006 64.7758 128.579 78.8236 124.375 78.8236C118.898 78.8236 116.684 69.1257 116.684 69.1257L119.213 64.014C119.213 64.014 122.791 71.8525 124.593 69.7312C126.394 67.61 127.458 59.5743 130.96 56.3827L131.064 56.2909Z" fill="#68E1FD"/>
<path d="M118.384 63.6761C118.351 63.2212 118.343 62.7647 118.361 62.3088C118.349 60.3193 117.761 58.3757 116.667 56.7128C116.552 56.8778 116.502 57.0797 116.528 57.2792L116.557 62.4671C116.575 62.8973 116.546 63.3282 116.471 63.7523C116.405 64.0609 116.291 64.3559 116.203 64.6606C116.018 65.294 115.951 65.9563 116.008 66.6138C116.024 66.967 116.12 67.3121 116.287 67.6237C116.373 67.7784 116.495 67.9107 116.642 68.0098C116.788 68.1089 116.957 68.172 117.132 68.194C117.248 68.194 117.719 67.2174 117.788 67.0846C117.996 66.6939 118.192 66.3 118.375 65.9028C118.51 65.602 118.797 65.1586 118.746 64.8207C118.69 64.4418 118.431 64.0922 118.384 63.6761Z" fill="url(#paint14_linear_633_996)"/>
<path d="M128.838 47.1828C128.365 47.7141 127.895 48.2474 127.422 48.7806C127.06 49.2349 126.63 49.6302 126.147 49.9526C125.959 50.0635 125.758 50.1501 125.548 50.2104C124.689 49.9389 124.253 49.1029 124.914 47.2121C125.122 46.6262 126.284 46.4074 126.597 45.8624L126.532 45.8136C126.757 45.9198 126.994 45.9972 127.238 46.0441C127.747 46.1203 128.999 45.7257 129.153 46.4777C129.208 46.7375 129.024 46.9817 128.838 47.1828Z" fill="url(#paint15_linear_633_996)"/>
<path d="M71.9571 88.0918L73.9289 91.1506C73.9805 91.2305 74.05 91.2973 74.1319 91.3456C74.2138 91.394 74.3059 91.4227 74.4009 91.4293C74.4958 91.4359 74.591 91.4204 74.6788 91.3839C74.7667 91.3474 74.8448 91.2909 74.907 91.219L80.3375 84.9686C80.4145 84.8804 80.4644 84.772 80.4814 84.6563C80.4983 84.5406 80.4815 84.4224 80.4331 84.316C80.3846 84.2095 80.3065 84.1192 80.208 84.0559C80.1096 83.9925 79.9949 83.9588 79.8778 83.9587H79.8328C79.7433 83.9587 79.6549 83.9783 79.5738 84.0161C79.4926 84.0539 79.4208 84.109 79.3633 84.1775L75.1144 89.2638C75.0535 89.337 74.9762 89.395 74.8888 89.4329C74.8014 89.4709 74.7062 89.4878 74.611 89.4823C74.5158 89.4768 74.4233 89.449 74.3408 89.4012C74.2584 89.3534 74.1883 89.2869 74.1363 89.2071L72.9802 87.4492C72.916 87.3517 72.825 87.2746 72.7182 87.2272C72.6114 87.1797 72.4932 87.1639 72.3777 87.1816C72.2802 87.1981 72.1882 87.2381 72.1097 87.2981C72.0312 87.3582 71.9685 87.4364 71.9271 87.526C71.8856 87.6157 71.8667 87.714 71.8719 87.8126C71.8772 87.9112 71.9064 88.007 71.9571 88.0918Z" fill="#68E1FD"/>
<path d="M48.2138 103.56L50.6963 105.999C50.7836 106.085 50.8433 106.195 50.8679 106.315C50.8924 106.435 50.8807 106.56 50.8341 106.673C50.7876 106.786 50.7083 106.883 50.6064 106.951C50.5045 107.02 50.3846 107.056 50.262 107.056H50.1564C49.9923 107.056 49.8349 106.991 49.7182 106.876L47.3022 104.462C47.186 104.347 47.0288 104.282 46.865 104.282C46.7012 104.282 46.544 104.347 46.4278 104.462L44.0119 106.876C43.896 106.991 43.7391 107.056 43.5756 107.056H43.468C43.3454 107.056 43.2255 107.02 43.1236 106.951C43.0217 106.883 42.9425 106.786 42.8959 106.673C42.8493 106.56 42.8376 106.435 42.8621 106.315C42.8867 106.195 42.9464 106.085 43.0337 105.999L45.5181 103.56C45.5761 103.502 45.6221 103.434 45.6535 103.359C45.6849 103.284 45.7011 103.204 45.7011 103.122C45.7011 103.041 45.6849 102.96 45.6535 102.885C45.6221 102.81 45.5761 102.742 45.5181 102.685L43.0103 100.181C42.9242 100.094 42.8656 99.9844 42.8419 99.8649C42.8182 99.7454 42.8304 99.6215 42.877 99.509C42.9237 99.3964 43.0026 99.3001 43.104 99.2323C43.2053 99.1644 43.3245 99.1281 43.4465 99.1277C43.6082 99.1272 43.7635 99.1904 43.8788 99.3035L46.4219 101.808C46.5375 101.921 46.6931 101.985 46.8552 101.985C47.0173 101.985 47.1729 101.921 47.2885 101.808L49.8316 99.3035C49.9469 99.1904 50.1023 99.1272 50.2639 99.1277C50.3861 99.1277 50.5056 99.1638 50.6072 99.2315C50.7088 99.2992 50.7881 99.3954 50.835 99.5081C50.8819 99.6207 50.8943 99.7447 50.8706 99.8644C50.847 99.9841 50.7884 100.094 50.7021 100.181L48.1943 102.685C48.1376 102.743 48.093 102.812 48.0633 102.888C48.0336 102.964 48.0192 103.045 48.021 103.126C48.0228 103.208 48.0408 103.288 48.0739 103.362C48.107 103.437 48.1546 103.504 48.2138 103.56Z" fill="#68E1FD"/>
<path d="M26.0752 95.8892H26.6816L26.9848 109.574L26.6816 107.32H26.0752V95.8892Z" fill="#68E1FD"/>
<path d="M27.2881 95.8892H26.6816V107.32H27.2881V95.8892Z" fill="#68E1FD"/>
<path d="M21.7501 97.4967C21.4077 98.5535 22.4895 100.645 23.5381 101.727C24.5866 102.81 25.2987 102.562 26.3668 102.253C26.7091 101.196 27.0006 100.475 25.9501 99.3934C24.8996 98.3113 22.8182 97.1881 21.7501 97.4967Z" fill="#68E1FD"/>
<path d="M31.7096 97.5495C30.6513 97.2057 28.5562 98.2878 27.4724 99.3348C26.3887 100.382 26.6371 101.093 26.9462 102.159C28.0045 102.501 28.7264 102.792 29.8101 101.743C30.8939 100.694 32.0206 98.616 31.7096 97.5495Z" fill="#68E1FD"/>
<path d="M26.682 93.1293H23.9746C23.9746 95.0493 25.1855 96.6061 26.6801 96.6061L27.3178 94.9009L26.682 93.1293Z" fill="#68E1FD"/>
<path d="M26.6816 93.1293H29.3871C29.3871 95.0493 28.1762 96.6061 26.6816 96.6061V93.1293Z" fill="#68E1FD"/>
<path d="M21.5567 89.213C21.2144 90.2697 22.2962 92.3636 23.3466 93.4437C24.3971 94.5239 25.1072 94.2797 26.1734 93.9692C26.5157 92.9125 26.8072 92.1917 25.7567 91.1096C24.7062 90.0275 22.6248 88.9044 21.5567 89.213Z" fill="#68E1FD"/>
<path d="M31.5177 89.2638C30.4574 88.922 28.3623 90.0021 27.2805 91.051C26.1987 92.0999 26.4433 92.8089 26.7523 93.8735C27.8107 94.2153 28.5345 94.5063 29.6163 93.4574C30.6981 92.4085 31.8268 90.3322 31.5177 89.2638Z" fill="#68E1FD"/>
<path d="M26.6334 85.8905C25.6318 86.3749 24.8728 88.6016 24.8102 90.1076C24.7476 91.6135 25.5261 93.3851 26.4886 93.9418C27.4902 93.4574 28.1103 91.7385 28.167 90.2306C28.2238 88.7227 27.5958 86.4472 26.6334 85.8905Z" fill="#68E1FD"/>
<path d="M21.332 105.575L22.2867 113.279H26.7019L28.5055 108.896L26.7019 105.361L21.332 105.575Z" fill="#68E1FD"/>
<path d="M32.0739 105.575L31.1193 113.279H26.7021V105.361L32.0739 105.575Z" fill="#68E1FD"/>
<path d="M28.6699 105.413L28.621 105.437L27.1225 106.179L26.7137 106.386H20.7491C20.5691 106.386 20.3964 106.315 20.2691 106.187C20.1418 106.06 20.0703 105.888 20.0703 105.708V103.985C20.0703 103.806 20.1418 103.633 20.2691 103.506C20.3964 103.379 20.5691 103.308 20.7491 103.308H26.7137L28.6699 105.413Z" fill="#68E1FD"/>
<path d="M32.6562 106.386H26.7014V103.308H32.6562C32.8362 103.308 33.0088 103.379 33.1361 103.506C33.2634 103.633 33.335 103.806 33.335 103.985V105.708C33.335 105.888 33.2634 106.06 33.1361 106.187C33.0088 106.315 32.8362 106.386 32.6562 106.386Z" fill="#68E1FD"/>
<path d="M21.7501 97.4967C21.4077 98.5535 22.4895 100.645 23.5381 101.727C24.5866 102.81 25.2987 102.562 26.3668 102.253C26.7091 101.196 27.0006 100.475 25.9501 99.3934C24.8996 98.3113 22.8182 97.1881 21.7501 97.4967Z" fill="url(#paint16_linear_633_996)"/>
<path d="M31.7096 97.5495C30.6513 97.2057 28.5562 98.2878 27.4724 99.3348C26.3887 100.382 26.6371 101.093 26.9462 102.159C28.0045 102.501 28.7264 102.792 29.8101 101.743C30.8939 100.694 32.0206 98.616 31.7096 97.5495Z" fill="url(#paint17_linear_633_996)"/>
<path d="M29.3499 93.6957C29.1406 95.3462 28.0256 96.6061 26.6816 96.6061V93.6312C26.7032 93.7113 26.7286 93.7914 26.7521 93.8754C27.7204 94.1879 28.409 94.4594 29.3499 93.6957Z" fill="url(#paint18_linear_633_996)"/>
<path d="M21.5567 89.213C21.2144 90.2697 22.2962 92.3636 23.3466 93.4437C24.3971 94.5239 25.1072 94.2797 26.1734 93.9692C26.5157 92.9125 26.8072 92.1917 25.7567 91.1096C24.7062 90.0275 22.6248 88.9044 21.5567 89.213Z" fill="url(#paint19_linear_633_996)"/>
<path d="M26.7037 106.386V113.279H22.2865L21.4316 106.386H26.7037Z" fill="url(#paint20_linear_633_996)"/>
<path d="M31.9742 106.386L31.1193 113.279H26.7041V106.386H31.9742Z" fill="url(#paint21_linear_633_996)"/>
<path d="M33.3357 104.064V105.786C33.3357 105.966 33.2642 106.139 33.1369 106.266C33.0096 106.393 32.8369 106.464 32.6569 106.464H26.7139V103.386H32.6667C32.845 103.388 33.0151 103.461 33.1403 103.588C33.2655 103.715 33.3357 103.886 33.3357 104.064Z" fill="url(#paint22_linear_633_996)"/>
<path opacity="0.18" d="M22.8008 113.289L11.5799 115.437C11.3983 115.456 11.2317 115.546 11.1167 115.688C11.0016 115.83 10.9477 116.011 10.9666 116.192C10.9855 116.374 11.0758 116.54 11.2176 116.655C11.3594 116.77 11.5411 116.824 11.7227 116.805H138.459C138.637 116.812 138.812 116.75 138.945 116.631C139.078 116.512 139.159 116.346 139.172 116.168C139.184 115.99 139.127 115.814 139.012 115.677C138.896 115.541 138.732 115.455 138.554 115.437L122.199 113.383H122.105L22.9436 113.285C22.896 113.281 22.8481 113.283 22.8008 113.289Z" fill="#1D2741"/>
<path d="M29.6164 93.4594C29.5245 93.5473 29.4365 93.6273 29.3504 93.6957C28.4094 94.4594 27.7208 94.1879 26.7525 93.8754C26.729 93.7914 26.7036 93.7113 26.6821 93.6313C26.4121 92.6956 26.2811 92.0179 27.2807 91.053C28.3625 90.0041 30.4576 88.9239 31.5179 89.2657C31.827 90.3322 30.7002 92.4124 29.6164 93.4594Z" fill="url(#paint23_linear_633_996)"/>
</g>
<defs>
<linearGradient id="paint0_linear_633_996" x1="125.203" y1="55.5604" x2="91.8349" y2="118.444" gradientUnits="userSpaceOnUse">
<stop offset="0.02" stop-opacity="0"/>
<stop offset="0.32" stop-color="#17161F" stop-opacity="0.36"/>
<stop offset="0.76" stop-color="#343247" stop-opacity="0.82"/>
<stop offset="0.99" stop-color="#3F3D56"/>
</linearGradient>
<linearGradient id="paint1_linear_633_996" x1="79.886" y1="-13.3622" x2="76.1726" y2="37.7045" gradientUnits="userSpaceOnUse">
<stop offset="0.01"/>
<stop offset="0.1" stop-opacity="0.77"/>
<stop offset="0.99" stop-opacity="0"/>
</linearGradient>
<linearGradient id="paint2_linear_633_996" x1="78.4051" y1="53.9118" x2="65.093" y2="-17.1921" gradientUnits="userSpaceOnUse">
<stop offset="0.01"/>
<stop offset="0.1" stop-opacity="0.77"/>
<stop offset="0.99" stop-opacity="0"/>
</linearGradient>
<linearGradient id="paint3_linear_633_996" x1="60.5702" y1="66.9889" x2="-51.1458" y2="67.318" gradientUnits="userSpaceOnUse">
<stop offset="0.03" stop-opacity="0"/>
<stop offset="0.62" stop-color="#292838" stop-opacity="0.66"/>
<stop offset="0.99" stop-color="#3F3D56"/>
</linearGradient>
<linearGradient id="paint4_linear_633_996" x1="124.721" y1="61.5959" x2="94.3699" y2="62.0015" gradientUnits="userSpaceOnUse">
<stop stop-color="#68E1FD"/>
<stop offset="0.01" stop-color="#67DDF9"/>
<stop offset="0.12" stop-color="#5CB3CE"/>
<stop offset="0.24" stop-color="#538EA9"/>
<stop offset="0.37" stop-color="#4C718B"/>
<stop offset="0.5" stop-color="#465A73"/>
<stop offset="0.63" stop-color="#424A63"/>
<stop offset="0.79" stop-color="#404059"/>
<stop offset="0.99" stop-color="#3F3D56"/>
</linearGradient>
<linearGradient id="paint5_linear_633_996" x1="85.07" y1="24.7145" x2="85.4367" y2="30.2872" gradientUnits="userSpaceOnUse">
<stop stop-color="#183866"/>
<stop offset="1" stop-color="#1A7FC1"/>
</linearGradient>
<linearGradient id="paint6_linear_633_996" x1="85.07" y1="39.1432" x2="85.4367" y2="44.7179" gradientUnits="userSpaceOnUse">
<stop stop-color="#183866"/>
<stop offset="1" stop-color="#1A7FC1"/>
</linearGradient>
<linearGradient id="paint7_linear_633_996" x1="87.7692" y1="39.1432" x2="88.134" y2="44.7179" gradientUnits="userSpaceOnUse">
<stop stop-color="#183866"/>
<stop offset="1" stop-color="#1A7FC1"/>
</linearGradient>
<linearGradient id="paint8_linear_633_996" x1="90.4665" y1="39.1432" x2="90.8312" y2="44.7179" gradientUnits="userSpaceOnUse">
<stop stop-color="#183866"/>
<stop offset="1" stop-color="#1A7FC1"/>
</linearGradient>
<linearGradient id="paint9_linear_633_996" x1="85.07" y1="68.2018" x2="85.4367" y2="73.7765" gradientUnits="userSpaceOnUse">
<stop stop-color="#183866"/>
<stop offset="1" stop-color="#1A7FC1"/>
</linearGradient>
<linearGradient id="paint10_linear_633_996" x1="87.7692" y1="68.2018" x2="88.134" y2="73.7765" gradientUnits="userSpaceOnUse">
<stop stop-color="#183866"/>
<stop offset="1" stop-color="#1A7FC1"/>
</linearGradient>
<linearGradient id="paint11_linear_633_996" x1="90.4665" y1="68.2018" x2="90.8312" y2="73.7765" gradientUnits="userSpaceOnUse">
<stop stop-color="#183866"/>
<stop offset="1" stop-color="#1A7FC1"/>
</linearGradient>
<linearGradient id="paint12_linear_633_996" x1="138.054" y1="45.6691" x2="119.902" y2="38.5796" gradientUnits="userSpaceOnUse">
<stop stop-color="#ECC4D7"/>
<stop offset="0.16" stop-color="#EDCBD5"/>
<stop offset="0.42" stop-color="#EFD4D1"/>
<stop offset="0.7" stop-color="#F2EAC9"/>
</linearGradient>
<linearGradient id="paint13_linear_633_996" x1="114.743" y1="51.1636" x2="118.055" y2="51.1636" gradientUnits="userSpaceOnUse">
<stop stop-color="#ECC4D7"/>
<stop offset="0.42" stop-color="#EFD4D1"/>
<stop offset="1" stop-color="#F2EAC9"/>
</linearGradient>
<linearGradient id="paint14_linear_633_996" x1="115.99" y1="62.4612" x2="118.754" y2="62.4612" gradientUnits="userSpaceOnUse">
<stop stop-color="#ECC4D7"/>
<stop offset="0.42" stop-color="#EFD4D1"/>
<stop offset="1" stop-color="#F2EAC9"/>
</linearGradient>
<linearGradient id="paint15_linear_633_996" x1="125.491" y1="48.7865" x2="117.967" y2="57.6362" gradientUnits="userSpaceOnUse">
<stop stop-color="#ECC4D7"/>
<stop offset="0.42" stop-color="#EFD4D1"/>
<stop offset="1" stop-color="#F2EAC9"/>
</linearGradient>
<linearGradient id="paint16_linear_633_996" x1="25.9129" y1="95.8052" x2="22.904" y2="102.424" gradientUnits="userSpaceOnUse">
<stop offset="0.01"/>
<stop offset="0.1" stop-opacity="0.77"/>
<stop offset="0.99" stop-opacity="0"/>
</linearGradient>
<linearGradient id="paint17_linear_633_996" x1="33.1083" y1="100.405" x2="23.8813" y2="99.2199" gradientUnits="userSpaceOnUse">
<stop offset="0.01"/>
<stop offset="0.1" stop-opacity="0.77"/>
<stop offset="0.99" stop-opacity="0"/>
</linearGradient>
<linearGradient id="paint18_linear_633_996" x1="33.3758" y1="91.1311" x2="21.8498" y2="98.3543" gradientUnits="userSpaceOnUse">
<stop offset="0.01"/>
<stop offset="0.1" stop-opacity="0.77"/>
<stop offset="0.99" stop-opacity="0"/>
</linearGradient>
<linearGradient id="paint19_linear_633_996" x1="31.3554" y1="82.902" x2="18.9531" y2="97.3337" gradientUnits="userSpaceOnUse">
<stop offset="0.01"/>
<stop offset="0.1" stop-opacity="0.77"/>
<stop offset="0.99" stop-opacity="0"/>
</linearGradient>
<linearGradient id="paint20_linear_633_996" x1="18.9179" y1="108.283" x2="31.8066" y2="111.875" gradientUnits="userSpaceOnUse">
<stop offset="0.01"/>
<stop offset="0.1" stop-opacity="0.77"/>
<stop offset="0.99" stop-opacity="0"/>
</linearGradient>
<linearGradient id="paint21_linear_633_996" x1="28.3317" y1="105.011" x2="32.2016" y2="123.589" gradientUnits="userSpaceOnUse">
<stop offset="0.01"/>
<stop offset="0.1" stop-opacity="0.77"/>
<stop offset="0.99" stop-opacity="0"/>
</linearGradient>
<linearGradient id="paint22_linear_633_996" x1="30.0668" y1="100.975" x2="29.9479" y2="110.252" gradientUnits="userSpaceOnUse">
<stop offset="0.01"/>
<stop offset="0.1" stop-opacity="0.77"/>
<stop offset="0.99" stop-opacity="0"/>
</linearGradient>
<linearGradient id="paint23_linear_633_996" x1="25.0349" y1="87.0429" x2="34.5419" y2="97.5717" gradientUnits="userSpaceOnUse">
<stop offset="0.01"/>
<stop offset="0.1" stop-opacity="0.77"/>
<stop offset="0.99" stop-opacity="0"/>
</linearGradient>
<clipPath id="clip0_633_996">
<rect width="143" height="117" fill="white" transform="translate(0.5)"/>
</clipPath>
</defs>
</svg>
