<svg width="628" height="425" viewBox="0 0 628 425" fill="none" xmlns="http://www.w3.org/2000/svg">
<g clip-path="url(#clip0_125_1737)">
<path d="M562.096 412.186C562.096 412.186 564.178 331.026 547.793 282.817C531.408 234.598 582.725 183.553 554.904 113.564C534.384 61.9442 416.972 -31.4646 294.247 11.2908C201.079 43.7495 243.816 88.5113 225.368 136.648C206.921 184.793 180.03 237.964 170.309 248.552C160.587 259.141 179.363 207.685 179.409 184.784C179.455 161.883 110.01 183.206 86.8613 218.109C63.7038 253.012 93.9811 363.275 106.112 385.035C118.243 406.796 147.799 412.186 147.799 412.186H562.096Z" fill="#C2D8F2"/>
<path d="M515.097 197.479C508.927 197.479 503.906 192.463 503.906 186.298C503.906 180.133 508.927 175.116 515.097 175.116C521.268 175.116 526.288 180.133 526.288 186.298C526.279 192.463 521.258 197.479 515.097 197.479ZM515.097 177.825C510.424 177.825 506.617 181.628 506.617 186.298C506.617 190.967 510.424 194.77 515.097 194.77C519.771 194.77 523.577 190.967 523.577 186.298C523.568 181.628 519.771 177.825 515.097 177.825Z" fill="#99BBDD"/>
<path d="M168.602 64.9265C162.431 64.9265 157.411 59.9104 157.411 53.7452C157.411 47.5799 162.431 42.5639 168.602 42.5639C174.772 42.5639 179.793 47.5799 179.793 53.7452C179.793 59.9104 174.772 64.9265 168.602 64.9265ZM168.602 45.2817C163.928 45.2817 160.122 49.0848 160.122 53.7543C160.122 58.4238 163.928 62.2269 168.602 62.2269C173.275 62.2269 177.082 58.4238 177.082 53.7543C177.082 49.0848 173.275 45.2817 168.602 45.2817Z" fill="#99BBDD"/>
<path d="M65.7484 240.709C59.578 240.709 54.5576 235.693 54.5576 229.527C54.5576 223.362 59.578 218.346 65.7484 218.346C71.9189 218.346 76.9392 223.362 76.9392 229.527C76.9301 235.693 71.9098 240.709 65.7484 240.709ZM65.7484 221.064C61.0749 221.064 57.2686 224.867 57.2686 229.536C57.2686 234.206 61.0749 238.009 65.7484 238.009C70.4219 238.009 74.2283 234.206 74.2283 229.536C74.2191 224.858 70.4219 221.064 65.7484 221.064Z" fill="#99BBDD"/>
<path d="M335.077 64.9265C328.906 64.9265 323.886 59.9104 323.886 53.7452C323.886 47.5799 328.906 42.5639 335.077 42.5639C341.247 42.5639 346.267 47.5799 346.267 53.7452C346.267 59.9104 341.247 64.9265 335.077 64.9265ZM335.077 45.2817C330.403 45.2817 326.597 49.0848 326.597 53.7543C326.597 58.4238 330.403 62.2269 335.077 62.2269C339.75 62.2269 343.556 58.4238 343.556 53.7543C343.556 49.0848 339.75 45.2817 335.077 45.2817Z" fill="#99BBDD"/>
<path d="M78.0251 209.217C77.8242 209.217 77.6234 209.198 77.4135 209.162L66.4144 207.073C65.1547 206.836 64.1507 205.879 63.8494 204.638L62.8545 200.571L83.1184 204.429L80.6995 207.849C80.0788 208.706 79.0748 209.217 78.0251 209.217ZM66.4874 204.009C66.5422 204.21 66.7156 204.365 66.9164 204.401L77.9155 206.49C78.1255 206.526 78.3354 206.444 78.4632 206.28L66.4874 204.009Z" fill="#99BBDD"/>
<path d="M81.5674 206.736C81.1019 206.736 80.6272 206.69 80.1526 206.599L64.8177 203.681C62.6635 203.27 60.7923 201.948 59.6969 200.042L56.1097 193.813C55.2151 192.253 54.9048 190.42 55.2425 188.651L58.4373 171.888L97.7785 179.376L94.5838 196.138C94.2461 197.908 93.2876 199.495 91.8728 200.616L86.25 205.085C84.9082 206.171 83.2561 206.736 81.5674 206.736ZM60.5915 175.071L57.9079 189.171C57.6888 190.302 57.8896 191.478 58.4647 192.472L62.0519 198.701C62.7548 199.914 63.9506 200.762 65.3289 201.027L80.6637 203.945C82.042 204.21 83.466 203.854 84.5613 202.979L90.1841 198.51C91.0878 197.789 91.6994 196.777 91.9185 195.646L94.6021 181.546L60.5915 175.071Z" fill="#99BBDD"/>
<path d="M96.0161 181.729C95.7605 181.729 95.4958 181.71 95.2311 181.665C83.2279 181.054 71.316 178.792 59.8148 174.925C57.4416 174.423 55.8077 172.171 56.0633 169.754C57.2043 159.147 54.9314 155.079 51.4902 148.914C49.8015 145.886 47.8847 142.448 45.9313 137.587L45.8218 137.322C45.7214 137.067 45.6209 136.803 45.5205 136.547L45.4384 136.328C45.3471 136.091 45.265 135.854 45.1828 135.617C45.1463 135.517 45.1098 135.416 45.0733 135.307C44.982 135.051 44.8998 134.796 44.8177 134.541L44.7629 134.367C44.6625 134.067 44.5712 133.756 44.48 133.446L44.3978 133.155C44.3339 132.917 44.2609 132.68 44.197 132.443L44.124 132.17C44.0418 131.859 43.9597 131.549 43.8866 131.23L43.8319 131.011C43.768 130.756 43.7132 130.501 43.6584 130.245L43.5945 129.944C43.5307 129.662 43.4759 129.379 43.4211 129.087L43.3937 128.959C43.3298 128.64 43.2751 128.312 43.2203 127.992L43.1747 127.71C43.1382 127.454 43.0925 127.199 43.056 126.944L43.0195 126.688C42.9739 126.36 42.9373 126.032 42.8917 125.703L42.8734 125.494C42.8461 125.22 42.8187 124.955 42.7913 124.682L42.7639 124.39C42.7365 124.08 42.7091 123.77 42.6909 123.46L42.6818 123.378C42.6635 123.04 42.6452 122.703 42.627 122.365L42.6179 122.083C42.6087 121.818 42.5996 121.545 42.5996 121.28V121.034C42.5996 120.696 42.5996 120.359 42.5996 120.021V119.812C42.5996 119.529 42.6087 119.255 42.6179 118.973L42.627 118.69C42.6361 118.352 42.6544 118.024 42.6726 117.687V117.65C42.6909 117.304 42.7183 116.957 42.7457 116.611L42.773 116.328C42.8004 116.054 42.8278 115.771 42.8552 115.498L42.8826 115.27C42.9191 114.923 42.9647 114.577 43.0104 114.239L43.0377 114.02C43.0743 113.738 43.1199 113.455 43.1655 113.172L43.2112 112.889C43.2659 112.543 43.3298 112.196 43.3937 111.841C43.4668 111.458 43.5398 111.075 43.6219 110.701C43.6402 110.628 43.6585 110.555 43.6767 110.482L43.7223 110.29C43.7771 110.053 43.8319 109.807 43.8866 109.57C43.914 109.479 43.9323 109.378 43.9597 109.287L44.0236 109.05C44.0783 108.849 44.124 108.649 44.1787 108.448C44.2061 108.339 44.2335 108.238 44.27 108.138L44.343 107.873C44.3887 107.7 44.4435 107.518 44.4891 107.344C44.5256 107.226 44.5621 107.116 44.5986 106.998L44.6625 106.797C44.7173 106.615 44.7721 106.432 44.8268 106.259C44.8633 106.141 44.909 106.013 44.9455 105.894L45.0094 105.703C45.0641 105.53 45.128 105.356 45.1828 105.183C45.2284 105.055 45.2741 104.928 45.3197 104.8L45.3745 104.654C45.4384 104.472 45.5023 104.298 45.5753 104.116C45.6301 103.979 45.6848 103.842 45.7396 103.705L45.767 103.633C45.84 103.441 45.913 103.259 45.9952 103.067C46.0591 102.921 46.1139 102.775 46.1777 102.62L46.196 102.584C46.269 102.401 46.3512 102.219 46.4333 102.027C46.5063 101.863 46.5703 101.708 46.6433 101.553C46.7254 101.371 46.8076 101.188 46.8897 101.006C46.9627 100.851 47.0358 100.687 47.1088 100.532C47.1909 100.349 47.2822 100.176 47.3644 99.9936C47.4374 99.8385 47.5195 99.6835 47.6017 99.5284C47.693 99.3552 47.7843 99.1819 47.8755 98.9995C47.9577 98.8444 48.0398 98.6894 48.122 98.5435C48.2133 98.3702 48.3137 98.1969 48.405 98.0236C48.4871 97.8686 48.5784 97.7227 48.6605 97.5676C48.7609 97.3943 48.8522 97.2302 48.9526 97.0569C49.0439 96.911 49.1261 96.7559 49.2173 96.61C49.3177 96.4458 49.4181 96.2817 49.5277 96.1084C49.619 95.9625 49.7102 95.8165 49.8015 95.6706C49.9111 95.5064 50.0115 95.3423 50.121 95.1781C50.2123 95.0322 50.3127 94.8863 50.404 94.7495C50.5135 94.5853 50.623 94.4303 50.7326 94.2661L50.7691 94.2114C50.8512 94.0928 50.9425 93.9651 51.0247 93.8466C51.1342 93.6915 51.2437 93.5456 51.3533 93.3997L51.4263 93.3085C51.5084 93.199 51.5906 93.0805 51.6727 92.971C51.7823 92.8251 51.8827 92.6883 51.9922 92.5515L52.1109 92.3965C52.1839 92.2961 52.2661 92.1958 52.3391 92.1046C52.4486 91.9678 52.5582 91.831 52.6677 91.6942L52.7955 91.5392C52.8685 91.448 52.9506 91.3476 53.0237 91.2564C53.1332 91.1288 53.2427 91.0011 53.3432 90.8734L53.4983 90.691C53.5714 90.5998 53.6444 90.5177 53.7174 90.4265C53.8361 90.2897 53.9547 90.1529 54.0734 90.0252L54.2194 89.8611C54.2924 89.779 54.3655 89.6969 54.4385 89.6148C54.5572 89.4871 54.6758 89.3594 54.7945 89.2318L54.977 89.0311C55.0409 88.9582 55.1048 88.8852 55.1779 88.8214C55.333 88.6572 55.4882 88.5021 55.6434 88.338L55.7712 88.2012C55.8259 88.1465 55.8807 88.0917 55.9264 88.037C56.1819 87.7817 56.4375 87.5263 56.7022 87.2801C56.7387 87.2436 56.7844 87.2071 56.8209 87.1706L56.8939 87.1068C57.0947 86.9153 57.2955 86.7329 57.4964 86.5413C57.5602 86.4775 57.6333 86.4136 57.7063 86.3589L57.9071 86.1765C58.044 86.0579 58.1718 85.9394 58.3087 85.8208C58.3909 85.7479 58.4639 85.684 58.5461 85.6111L58.7469 85.4378C58.8747 85.3283 59.0025 85.2189 59.1302 85.1186C59.2215 85.0456 59.3128 84.9726 59.395 84.8997L59.5958 84.7355C59.7144 84.6352 59.8422 84.5349 59.97 84.4345C60.0613 84.3616 60.1617 84.2886 60.253 84.2157L60.4447 84.0697C60.5725 83.9694 60.7002 83.8691 60.828 83.7688C60.9376 83.6867 61.038 83.6137 61.1475 83.5317L61.2844 83.4314C61.4213 83.331 61.5583 83.2307 61.6952 83.1304C61.8047 83.0483 61.9143 82.9753 62.0238 82.8933L62.1607 82.7929C62.2976 82.6926 62.4345 82.6014 62.5806 82.5011C62.7084 82.419 62.827 82.3369 62.9548 82.2457L63.0096 82.2093C63.1739 82.0998 63.3291 81.9995 63.4843 81.8991C63.6212 81.8079 63.7581 81.7259 63.895 81.6347L63.9224 81.6164C64.0776 81.5161 64.2419 81.4158 64.397 81.3155C64.5431 81.2243 64.6983 81.133 64.8443 81.0418C65.0086 80.9415 65.1638 80.8503 65.3281 80.75C65.4741 80.6588 65.6293 80.5767 65.7845 80.4855C65.9488 80.3943 66.1131 80.3031 66.2683 80.2119C66.4234 80.1298 66.5786 80.0478 66.7247 79.9566C66.889 79.8654 67.0533 79.7833 67.2176 79.6921C67.3727 79.61 67.5279 79.5279 67.6831 79.4549C67.8474 79.3729 68.0117 79.2908 68.1851 79.1996C68.3403 79.1175 68.4955 79.0445 68.6598 78.9716C68.8241 78.8895 68.9975 78.8074 69.1618 78.7344C69.317 78.6615 69.4813 78.5885 69.6365 78.5156C69.8099 78.4426 69.9742 78.3605 70.1476 78.2876C70.3119 78.2146 70.4671 78.1507 70.6314 78.0778C70.8048 78.0048 70.9783 77.9319 71.1517 77.8589L71.1791 77.8498C71.3342 77.7859 71.4894 77.7221 71.6446 77.6583C71.818 77.5853 71.9915 77.5215 72.1649 77.4576L72.2014 77.4394C72.3566 77.3847 72.5026 77.3208 72.6578 77.2661C72.8312 77.2023 73.0047 77.1384 73.1781 77.0837L73.2602 77.0563C73.3972 77.0016 73.5432 76.956 73.6801 76.9104C73.8353 76.8557 73.9905 76.8101 74.1365 76.7554L74.3191 76.6915C74.4469 76.6459 74.5838 76.6003 74.7116 76.5639C74.8576 76.5183 75.0128 76.4726 75.168 76.427L75.387 76.3632C75.5148 76.3267 75.6335 76.2902 75.7613 76.2538C75.9073 76.2082 76.0625 76.1717 76.2086 76.1261L76.455 76.0531C76.5737 76.0167 76.6923 75.9893 76.811 75.9528C76.957 75.9163 77.094 75.8798 77.24 75.8434L77.5321 75.7704C77.6416 75.743 77.7603 75.7157 77.8698 75.6883C78.0159 75.6518 78.1711 75.6154 78.3171 75.588L78.6183 75.515C78.7279 75.4877 78.8283 75.4694 78.9378 75.4421C79.1112 75.4056 79.2938 75.3691 79.4672 75.3326L79.7502 75.2779C79.8414 75.2597 79.9236 75.2414 80.0149 75.2232C80.3709 75.1594 80.7269 75.0955 81.092 75.0317C81.1833 75.0134 81.2837 75.0043 81.3749 74.9861L81.6579 74.9405C81.8313 74.9131 82.0048 74.8857 82.1782 74.8584C82.2877 74.8401 82.4064 74.831 82.5159 74.8128L82.8171 74.7763C82.9723 74.758 83.1275 74.7398 83.2827 74.7216C83.4013 74.7033 83.5291 74.6942 83.6478 74.6851L83.949 74.6577C84.0951 74.6395 84.2411 74.6304 84.3871 74.6121C84.5149 74.603 84.6427 74.5939 84.7705 74.5848L85.0535 74.5665C85.1995 74.5574 85.3547 74.5392 85.5008 74.5301C85.6377 74.5209 85.7746 74.5118 85.9206 74.5027L86.1488 74.4936C86.304 74.4844 86.4683 74.4753 86.6235 74.4662C86.7695 74.4571 86.9064 74.4571 87.0525 74.448L87.2351 74.4388C87.4085 74.4297 87.5728 74.4297 87.7462 74.4297C87.9014 74.4297 88.0657 74.4297 88.2209 74.4297H88.3487C88.5221 74.4297 88.6955 74.4297 88.869 74.4297C89.0424 74.4297 89.2067 74.4388 89.3801 74.4388H89.4258C89.6174 74.4388 89.8091 74.448 90.0008 74.4571C90.1834 74.4662 90.3751 74.4753 90.5576 74.4753C90.7493 74.4845 90.941 74.4936 91.1327 74.5027C91.3244 74.5118 91.5069 74.5301 91.6986 74.5392C91.8903 74.5483 92.082 74.5665 92.2737 74.5848C92.4653 74.603 92.6479 74.6213 92.8396 74.6395C93.0313 74.6577 93.223 74.676 93.4146 74.6942C93.6063 74.7125 93.7889 74.7398 93.9806 74.7581L94.0992 74.7672C94.1631 74.7763 94.2179 74.7763 94.2818 74.7854C94.3366 74.7945 94.3822 74.8036 94.437 74.8036L94.5282 74.8128C94.7747 74.8493 95.012 74.8766 95.2585 74.9131C95.4319 74.9405 95.6054 74.9678 95.7697 74.9952C96.007 75.0317 96.2443 75.0681 96.4725 75.1137L96.5546 75.132C96.7007 75.1593 96.8467 75.1867 96.9928 75.2141L97.1753 75.2506C97.3031 75.2779 97.4218 75.2961 97.5496 75.3235L97.8599 75.3874C97.9695 75.4056 98.079 75.433 98.1885 75.4512C98.508 75.515 98.8275 75.588 99.1378 75.6701L99.3478 75.7157C122.031 81.1604 137.028 102.721 134.235 125.858L134.207 126.077C134.171 126.387 134.125 126.697 134.079 127.008C134.061 127.144 134.034 127.281 134.016 127.427C133.979 127.682 133.933 127.929 133.897 128.175C133.87 128.348 133.833 128.521 133.806 128.695L133.787 128.813C133.778 128.877 133.769 128.932 133.751 128.996C133.733 129.078 133.714 129.16 133.705 129.233L133.678 129.379C133.641 129.561 133.605 129.734 133.568 129.917C133.523 130.154 133.468 130.382 133.413 130.619L133.395 130.71C133.367 130.847 133.331 130.984 133.304 131.112C133.24 131.376 133.176 131.631 133.112 131.896L133.085 132.024C133.066 132.087 133.048 132.16 133.03 132.224L132.929 132.598C132.847 132.89 132.765 133.182 132.683 133.474L132.646 133.601C132.555 133.921 132.455 134.231 132.354 134.55L132.272 134.805C132.172 135.115 132.071 135.416 131.962 135.726L131.889 135.927C131.797 136.192 131.697 136.465 131.597 136.73L131.515 136.939C131.396 137.24 131.277 137.532 131.159 137.833L131.058 138.079C130.939 138.371 130.812 138.672 130.684 138.964L130.629 139.083C130.51 139.356 130.383 139.621 130.255 139.894L130.145 140.131C130.008 140.414 129.871 140.697 129.735 140.98L129.625 141.199C129.497 141.445 129.369 141.691 129.242 141.937L129.15 142.101C129.004 142.384 128.849 142.658 128.694 142.931L128.557 143.168C128.402 143.442 128.247 143.707 128.082 143.98L127.982 144.153C127.845 144.381 127.699 144.619 127.553 144.847L127.416 145.065C127.252 145.321 127.087 145.576 126.914 145.832L126.759 146.06C126.604 146.288 126.449 146.525 126.284 146.753L126.175 146.908C126.001 147.145 125.828 147.391 125.654 147.628L125.481 147.856C125.298 148.102 125.116 148.34 124.933 148.577L124.778 148.777C124.623 148.978 124.459 149.179 124.303 149.379L124.148 149.571C123.957 149.799 123.765 150.027 123.573 150.255L123.382 150.483C123.19 150.711 122.989 150.93 122.797 151.149L122.651 151.304C122.542 151.422 122.432 151.55 122.323 151.668L121.985 152.033C118.37 155.873 115.276 158.381 112.547 160.597C107.043 165.057 103.401 168.012 100.58 178.226C100.051 180.315 98.1246 181.719 96.0161 181.729ZM88.732 77.1749C88.6225 77.1749 88.5221 77.1749 88.4126 77.1749H88.2848C88.1387 77.1749 87.9927 77.1749 87.8466 77.1749C87.6915 77.1749 87.5271 77.184 87.372 77.184L87.1894 77.1932C87.0616 77.1932 86.9247 77.2023 86.7969 77.2023C86.6509 77.2114 86.5048 77.2205 86.3588 77.2205L86.1306 77.2296C86.0028 77.2387 85.875 77.2388 85.7472 77.2479C85.6103 77.257 85.4734 77.2661 85.3365 77.2752L85.0444 77.2935C84.9257 77.3026 84.8162 77.3117 84.6975 77.3208C84.5606 77.3299 84.4328 77.3482 84.2959 77.3573L83.9855 77.3847C83.876 77.3938 83.7664 77.4029 83.6569 77.4212C83.52 77.4394 83.374 77.4576 83.237 77.4759L82.9267 77.5123C82.8263 77.5215 82.7259 77.5397 82.6255 77.5488C82.4612 77.5671 82.306 77.5944 82.1417 77.6218L81.8405 77.6674C81.7583 77.6765 81.6762 77.6948 81.594 77.7039C81.2563 77.7586 80.9185 77.8224 80.5808 77.8863C80.5078 77.9045 80.4348 77.9136 80.3617 77.9319L80.0605 77.9957C79.8962 78.0322 79.7319 78.0596 79.5676 78.096C79.4763 78.1143 79.3851 78.1417 79.2938 78.1599L78.9743 78.2328C78.8374 78.2602 78.7005 78.2967 78.5636 78.324C78.4632 78.3514 78.3627 78.3696 78.2623 78.397L77.9611 78.47C77.8333 78.5065 77.6964 78.5338 77.5686 78.5703C77.4591 78.5976 77.3587 78.625 77.2491 78.6615L76.9936 78.7344C76.8566 78.7709 76.7197 78.8074 76.5828 78.853C76.4733 78.8895 76.3546 78.9169 76.2451 78.9533L76.0169 79.0263C75.8799 79.0719 75.7339 79.1084 75.597 79.154C75.4783 79.1905 75.3505 79.2361 75.2319 79.2726L75.0493 79.3364C74.9033 79.382 74.7663 79.4276 74.6203 79.4823C74.4925 79.5279 74.3556 79.5735 74.2278 79.6191L74.1548 79.6465C73.9813 79.7103 73.817 79.765 73.6527 79.8289C73.5067 79.8836 73.3698 79.9383 73.2328 79.993L73.1963 80.0113C73.032 80.0751 72.8677 80.139 72.7034 80.2028C72.5574 80.2575 72.4113 80.3214 72.2653 80.3852L72.247 80.3943C72.0827 80.4582 71.9184 80.5311 71.7633 80.595C71.6081 80.6588 71.462 80.7226 71.3069 80.7956C71.1426 80.8686 70.9874 80.9415 70.8231 81.0054C70.677 81.0692 70.5219 81.1422 70.3758 81.2151C70.2207 81.2881 70.0563 81.3611 69.9012 81.4431C69.7551 81.5161 69.5999 81.5891 69.4539 81.662C69.2987 81.7441 69.1436 81.8171 68.9793 81.8991C68.8332 81.9721 68.6872 82.0542 68.5411 82.1271C68.3859 82.2092 68.2308 82.2913 68.0756 82.3734C67.9295 82.4555 67.7835 82.5284 67.6375 82.6105C67.4823 82.6926 67.3271 82.7838 67.1811 82.8659C67.035 82.948 66.8981 83.0301 66.752 83.1121C66.5969 83.2033 66.4508 83.2945 66.2957 83.3857C66.1587 83.4678 66.0127 83.559 65.8758 83.6411C65.7297 83.7323 65.5745 83.8326 65.4285 83.9238L65.4011 83.9421C65.2733 84.0242 65.1455 84.1062 65.0177 84.1883C64.8717 84.2795 64.7256 84.3798 64.5887 84.471L64.5248 84.5167C64.4062 84.5896 64.2966 84.6717 64.178 84.7538C64.0502 84.845 63.9133 84.9362 63.7855 85.0274L63.6486 85.1277C63.5481 85.2007 63.4386 85.2736 63.3382 85.3466C63.2104 85.4378 63.0826 85.5381 62.9548 85.6293L62.8088 85.7388C62.7084 85.8117 62.6171 85.8847 62.5167 85.9576C62.398 86.0488 62.2794 86.14 62.1607 86.2312L61.969 86.3771C61.8869 86.441 61.7956 86.5048 61.7134 86.5778C61.5948 86.669 61.4852 86.7602 61.3757 86.8514L61.1658 87.0247C61.0836 87.0885 61.0015 87.1524 60.9284 87.2253C60.8098 87.3257 60.6911 87.426 60.5816 87.5263L60.3716 87.7087C60.2986 87.7726 60.2347 87.8273 60.1617 87.8911C60.0339 88.0005 59.9152 88.11 59.7875 88.2194L59.5775 88.411C59.5227 88.4657 59.4588 88.5113 59.4041 88.566C59.2124 88.7393 59.0298 88.9217 58.8382 89.095L58.6556 89.2591C58.4091 89.4963 58.1718 89.7334 57.9254 89.9705C57.8797 90.0161 57.8341 90.0617 57.7976 90.1073L57.6515 90.2532C57.5055 90.3991 57.3594 90.5542 57.2134 90.7001C57.1586 90.764 57.1039 90.8187 57.04 90.8825L56.8391 91.0923C56.7296 91.2109 56.6201 91.3294 56.5105 91.448C56.4466 91.5209 56.3827 91.5939 56.3188 91.6669L56.1637 91.8402C56.0541 91.9678 55.9446 92.0864 55.8351 92.2141C55.7712 92.287 55.7073 92.3691 55.6343 92.4512L55.47 92.6427C55.3696 92.7613 55.2691 92.8798 55.1687 92.9984C55.0957 93.0805 55.0318 93.1717 54.9588 93.2538L54.831 93.4088C54.7306 93.5365 54.6211 93.6642 54.5206 93.7919C54.4476 93.8831 54.3837 93.9743 54.3107 94.0655L54.192 94.2205C54.0916 94.3482 53.9912 94.485 53.8908 94.6127C53.8178 94.713 53.7356 94.8224 53.6626 94.9319L53.5896 95.0322C53.4892 95.169 53.3888 95.3149 53.2884 95.4517C53.2062 95.5612 53.1332 95.6797 53.0511 95.7892L53.0146 95.8439C52.9141 95.9898 52.8046 96.1449 52.7042 96.2999C52.6129 96.4367 52.5216 96.5735 52.4395 96.7012C52.3391 96.8562 52.2387 97.0113 52.1383 97.1663C52.047 97.3031 51.9648 97.4399 51.8827 97.5767C51.7823 97.7318 51.691 97.8868 51.5906 98.0419C51.5084 98.1787 51.4263 98.3246 51.3441 98.4614C51.2529 98.6164 51.1616 98.7806 51.0703 98.9356C50.9882 99.0724 50.906 99.2184 50.833 99.3643C50.7417 99.5285 50.6504 99.6835 50.5683 99.8477C50.4952 99.9936 50.4131 100.14 50.3401 100.276C50.2579 100.44 50.1666 100.605 50.0845 100.769C50.0115 100.915 49.9384 101.061 49.8654 101.207C49.7833 101.371 49.7011 101.544 49.619 101.708C49.5459 101.854 49.4821 102 49.409 102.155C49.3269 102.328 49.2538 102.493 49.1717 102.666C49.1078 102.812 49.0348 102.967 48.9709 103.113C48.8979 103.286 48.8248 103.459 48.7518 103.633L48.7336 103.669C48.6788 103.806 48.6149 103.943 48.5601 104.079C48.4871 104.253 48.4232 104.435 48.3502 104.608L48.3228 104.681C48.2772 104.809 48.2224 104.937 48.1768 105.064C48.1129 105.229 48.049 105.402 47.9942 105.566L47.9394 105.721C47.8938 105.84 47.8573 105.949 47.8116 106.068C47.7569 106.232 47.7021 106.396 47.6473 106.551L47.5835 106.743C47.5469 106.852 47.5104 106.961 47.4739 107.071C47.4191 107.235 47.3644 107.408 47.3187 107.572L47.2548 107.782C47.2183 107.883 47.1909 107.992 47.1636 108.092C47.1179 108.256 47.0723 108.421 47.0266 108.576L46.9536 108.849C46.9262 108.94 46.8989 109.032 46.8715 109.123C46.8258 109.305 46.7711 109.497 46.7254 109.679L46.6615 109.925C46.6433 110.008 46.6159 110.09 46.5976 110.172C46.5429 110.391 46.4972 110.619 46.4425 110.847L46.3968 111.056C46.3786 111.12 46.3694 111.175 46.3512 111.239C46.2782 111.594 46.2051 111.95 46.1321 112.315C46.0682 112.643 46.0135 112.972 45.9587 113.3L45.913 113.564C45.8674 113.829 45.8309 114.093 45.7944 114.358L45.767 114.568C45.7214 114.896 45.6848 115.215 45.6483 115.543L45.6209 115.762C45.5936 116.027 45.5662 116.282 45.5388 116.547L45.5114 116.811C45.484 117.139 45.4566 117.459 45.4384 117.787V117.824C45.4201 118.134 45.4019 118.453 45.3927 118.763L45.3836 119.027C45.3745 119.292 45.3654 119.556 45.3654 119.812V120.012C45.3654 120.332 45.3654 120.651 45.3654 120.97V121.198C45.3654 121.453 45.3745 121.709 45.3836 121.955L45.3927 122.219C45.4019 122.539 45.4201 122.858 45.4384 123.168L45.4475 123.241C45.4658 123.542 45.4932 123.834 45.5114 124.126L45.5388 124.399C45.5662 124.655 45.5844 124.91 45.6118 125.165L45.6301 125.366C45.6666 125.676 45.7031 125.986 45.7487 126.287L45.7853 126.533C45.8218 126.77 45.8583 127.017 45.8948 127.254L45.9404 127.527C45.9952 127.828 46.0408 128.138 46.1047 128.439L46.1321 128.558C46.1869 128.832 46.2416 129.096 46.2964 129.361L46.3603 129.643C46.4151 129.88 46.4698 130.127 46.5246 130.364L46.5703 130.574C46.6433 130.865 46.7163 131.166 46.7985 131.458L46.8715 131.714C46.9354 131.932 46.9901 132.16 47.054 132.379L47.1362 132.653C47.2183 132.945 47.3096 133.227 47.4009 133.519L47.4557 133.683C47.5378 133.921 47.6108 134.167 47.693 134.404C47.7295 134.504 47.7569 134.595 47.7934 134.687C47.8755 134.915 47.9577 135.134 48.0398 135.362L48.1129 135.571C48.2041 135.818 48.2954 136.064 48.3958 136.301L48.4962 136.556C50.3766 141.262 52.2478 144.609 53.9 147.574C57.4598 153.949 60.0339 158.563 58.8016 170.027C58.6921 171.085 59.4132 172.07 60.4629 172.271L60.5542 172.289L60.6455 172.317C71.9641 176.129 83.6934 178.354 95.4958 178.947L95.5871 178.956L95.6784 178.974C96.7281 179.175 97.7595 178.527 98.0425 177.506C101.091 166.452 105.217 163.105 110.913 158.49C113.578 156.329 116.59 153.885 120.086 150.173L120.406 149.826C120.515 149.717 120.616 149.598 120.716 149.489L120.853 149.343C121.045 149.133 121.227 148.923 121.41 148.714L121.592 148.504C121.775 148.294 121.958 148.075 122.131 147.856L122.277 147.674C122.432 147.491 122.578 147.3 122.724 147.108L122.87 146.917C123.044 146.689 123.217 146.47 123.382 146.242L123.546 146.023C123.71 145.804 123.874 145.576 124.03 145.348L124.13 145.202C124.276 144.983 124.431 144.774 124.577 144.555L124.723 144.336C124.879 144.099 125.043 143.852 125.198 143.615L125.326 143.415C125.463 143.196 125.6 142.977 125.727 142.758L125.828 142.594C125.974 142.348 126.12 142.092 126.266 141.837L126.394 141.609C126.54 141.354 126.686 141.089 126.823 140.834L126.905 140.679C127.024 140.451 127.151 140.214 127.261 139.986L127.361 139.785C127.498 139.52 127.626 139.256 127.754 138.982L127.854 138.763C127.973 138.508 128.092 138.253 128.201 137.997L128.247 137.888C128.365 137.614 128.484 137.332 128.603 137.058L128.694 136.83C128.813 136.547 128.922 136.274 129.032 135.991L129.105 135.799C129.196 135.553 129.296 135.298 129.379 135.042L129.442 134.86C129.543 134.577 129.643 134.285 129.735 133.994L129.808 133.756C129.899 133.465 129.999 133.164 130.081 132.863L130.118 132.744C130.2 132.47 130.273 132.197 130.355 131.923L130.456 131.568C130.465 131.513 130.483 131.467 130.492 131.422L130.529 131.267C130.593 131.02 130.657 130.774 130.711 130.528C130.739 130.4 130.766 130.282 130.793 130.154L130.812 130.063C130.866 129.844 130.912 129.625 130.958 129.397C130.994 129.224 131.031 129.06 131.058 128.895L131.095 128.731C131.104 128.667 131.122 128.604 131.131 128.54C131.14 128.494 131.149 128.449 131.159 128.403L131.186 128.257C131.213 128.093 131.241 127.938 131.268 127.774C131.305 127.536 131.35 127.299 131.387 127.062C131.405 126.935 131.423 126.798 131.451 126.67C131.496 126.378 131.533 126.086 131.569 125.795L131.597 125.585C134.226 103.806 120.114 83.5225 98.7636 78.397L98.5628 78.3514C98.2616 78.2784 97.9695 78.2146 97.6683 78.1508C97.5678 78.1325 97.4766 78.1143 97.3762 78.0869L97.0384 78.014C96.9289 77.9957 96.8194 77.9684 96.7098 77.9501L96.5364 77.9228C96.3995 77.8954 96.2626 77.8771 96.1256 77.8498L96.0435 77.8316C95.8244 77.7951 95.5962 77.7586 95.3771 77.7221C95.2128 77.6948 95.0577 77.6765 94.8934 77.6492C94.6652 77.6127 94.437 77.5853 94.1997 77.5488L93.6885 77.485C93.5151 77.4667 93.3325 77.4394 93.1499 77.4212C92.9674 77.4029 92.7939 77.3847 92.6114 77.3664C92.438 77.3482 92.2554 77.3299 92.082 77.3208C91.8994 77.3026 91.726 77.2935 91.5434 77.2843C91.37 77.2752 91.1874 77.257 91.014 77.2479C90.8315 77.2388 90.658 77.2296 90.4755 77.2205C90.302 77.2114 90.1195 77.2023 89.946 77.2023C89.7635 77.1931 89.5901 77.1932 89.4075 77.1932H89.3619C89.2067 77.1932 89.0424 77.184 88.8872 77.184C88.8416 77.1749 88.7868 77.1749 88.732 77.1749Z" fill="#99BBDD"/>
<path d="M85.0808 179.567L82.4154 179.056C82.4337 178.947 84.5057 168.212 87.5088 156.986C89.2796 150.373 91.023 144.874 92.7026 140.651C92.7847 140.442 92.8669 140.232 92.9582 140.022C89.9277 139.794 86.2127 139.101 81.6578 137.705C80.4803 137.341 79.3758 136.967 78.3627 136.593C78.4265 138.462 78.3444 140.505 78.0979 142.703C74.9214 171.55 73.7257 177.241 73.68 177.469L71.0238 176.895C71.0329 176.84 72.247 170.967 75.3961 142.402C75.6973 139.703 75.7247 137.395 75.5604 135.435C68.6049 132.261 66.5329 128.74 67.1445 126.187C67.5735 124.399 69.3443 123.35 71.3615 123.706C73.5614 124.089 75.5421 125.94 76.7927 128.795C77.4042 130.19 77.8332 131.777 78.0979 133.565C79.3667 134.085 80.8181 134.605 82.4519 135.106C87.1711 136.556 91.0322 137.231 94.1083 137.368C95.7969 133.738 97.4308 131.44 99.0465 130.391C101.776 128.622 104.03 129.215 105.235 130.355C106.677 131.723 106.878 133.939 105.755 135.863C105.043 137.076 102.643 139.922 95.8608 140.095C94.2543 143.862 92.3375 149.434 90.1285 157.679C87.1437 168.814 85.099 179.458 85.0808 179.567ZM102.424 131.987C101.876 131.987 101.219 132.215 100.525 132.671C99.7767 133.164 98.6357 134.377 97.1388 137.332C100.58 137.031 102.606 135.881 103.41 134.504C103.966 133.565 103.784 132.735 103.355 132.325C103.127 132.097 102.798 131.987 102.424 131.987ZM70.5857 126.36C70.2206 126.36 69.8646 126.479 69.7824 126.834C69.5542 127.764 70.7865 129.89 75.0492 132.17C74.1364 128.421 72.3747 126.652 70.896 126.396C70.7956 126.369 70.6952 126.36 70.5857 126.36Z" fill="#99BBDD"/>
<path d="M59.1742 176.171L58.3408 178.749L94.1442 190.305L94.9775 187.728L59.1742 176.171Z" fill="#99BBDD"/>
<path d="M58.4476 179.945L57.6143 182.523L93.4176 194.079L94.251 191.502L58.4476 179.945Z" fill="#99BBDD"/>
<path d="M57.7299 183.722L56.8965 186.299L92.6998 197.856L93.5332 195.278L57.7299 183.722Z" fill="#99BBDD"/>
<path d="M57.0111 187.495L56.1777 190.072L90.3047 201.088L91.1381 198.51L57.0111 187.495Z" fill="#99BBDD"/>
<path d="M140.356 128.851L139.849 131.512L153.989 134.202L154.496 131.541L140.356 128.851Z" fill="#99BBDD"/>
<path d="M151.262 97.1785L137.67 101.913L138.562 104.471L152.155 99.7362L151.262 97.1785Z" fill="#99BBDD"/>
<path d="M131.223 69.0238L121.821 79.9149L123.874 81.684L133.276 70.7929L131.223 69.0238Z" fill="#99BBDD"/>
<path d="M99.7861 54.6341L97.0928 68.7626L99.7559 69.2694L102.449 55.1409L99.7861 54.6341Z" fill="#99BBDD"/>
<path d="M67.9193 56.961L65.3594 57.8527L70.0978 71.4336L72.6577 70.542L67.9193 56.961Z" fill="#99BBDD"/>
<path d="M38.9329 75.831L37.1621 77.882L48.0616 87.2766L49.8324 85.2256L38.9329 75.831Z" fill="#99BBDD"/>
<path d="M23.2572 106.66L22.75 109.32L36.8905 112.011L37.3977 109.351L23.2572 106.66Z" fill="#99BBDD"/>
<path d="M400.77 163.078L355.176 154.085L333.205 77.558L398.013 85.7205L400.77 163.078ZM357.33 151.751L397.94 159.758L395.393 88.1282L336.957 80.7682L357.33 151.751Z" fill="#99BBDD"/>
<path d="M406.31 162.859L402.924 85.5381L466.883 72.2774L451.046 150.3L406.31 162.859ZM405.735 87.7269L408.866 159.329L448.709 148.139L463.405 75.7704L405.735 87.7269Z" fill="#99BBDD"/>
<path d="M398.351 162.813L395.293 85.6293L405.635 85.2189L408.693 162.403L398.351 162.813ZM398.114 88.2285L400.961 159.995L405.881 159.804L403.033 88.037L398.114 88.2285Z" fill="#99BBDD"/>
<path d="M399.163 86.8332L398.944 81.1878L399.529 80.7591C399.72 80.6132 404.403 77.257 413.467 74.1379C421.773 71.2833 435.511 68.1186 453.785 69.2404L454.15 69.2586L459.882 73.1165L458.367 75.36L453.246 71.9126C435.666 70.8911 422.467 73.919 414.471 76.646C407.525 79.0172 403.198 81.58 401.701 82.5467L401.865 86.7055L399.163 86.8332Z" fill="#99BBDD"/>
<path d="M399.163 86.8332L398.999 82.6744C397.438 81.8353 392.92 79.6191 385.8 77.8042C377.612 75.7157 364.213 73.7366 346.769 76.1443L341.941 79.9839L340.252 77.8589L345.665 73.5542L346.03 73.4995C364.158 70.9458 378.105 73.0161 386.613 75.1958C395.896 77.5853 400.825 80.5676 401.035 80.6862L401.655 81.0601L401.874 86.7055L399.163 86.8332Z" fill="#99BBDD"/>
<path d="M401.628 82.2366L399.018 81.507C399.164 80.978 402.888 68.4925 427.707 65.7108C451.047 63.0933 457.737 58.7795 457.801 58.743L461.735 56.1164L459.8 60.4211L454.944 71.1647L452.471 70.052L455.82 62.6465C451.667 64.2516 443.324 66.6867 428.017 68.4013C416.032 69.7511 409.487 73.463 406.101 76.345C402.486 79.4093 401.637 82.2092 401.628 82.2366Z" fill="#99BBDD"/>
<path d="M404.599 93.3392L396.864 93.6485L396.973 96.355L404.707 96.0457L404.599 93.3392Z" fill="#99BBDD"/>
<path d="M404.826 99.6865L397.092 99.9958L397.2 102.702L404.935 102.393L404.826 99.6865Z" fill="#99BBDD"/>
<path d="M406.792 150.501L399.056 150.753L399.144 153.46L406.88 153.208L406.792 150.501Z" fill="#99BBDD"/>
<path d="M406.583 144.171L398.847 144.423L398.935 147.13L406.671 146.878L406.583 144.171Z" fill="#99BBDD"/>
<path d="M403.298 83.8326C404.092 83.2307 404.95 82.72 405.808 82.2183C406.675 81.7259 407.561 81.279 408.464 80.8503C410.272 80.0021 412.125 79.2725 414.005 78.6341L415.429 78.1781C415.903 78.0231 416.378 77.8954 416.862 77.7586C417.82 77.4941 418.779 77.2387 419.755 77.0199C420.723 76.7827 421.7 76.6186 422.676 76.427C423.662 76.272 424.639 76.1261 425.634 76.0257C424.694 76.3541 423.735 76.6186 422.795 76.9104L421.38 77.3482C420.906 77.4941 420.431 77.6218 419.965 77.7768C419.5 77.9319 419.025 78.0778 418.551 78.2146C418.076 78.3514 417.61 78.5156 417.145 78.6706C416.205 78.9625 415.274 79.2816 414.343 79.5917C412.48 80.2301 410.628 80.8777 408.784 81.58C406.94 82.3004 405.105 83.0209 403.298 83.8326Z" fill="#99BBDD"/>
<path d="M419.92 80.2575C422.357 79.0719 424.922 78.1599 427.505 77.3664C430.098 76.573 432.726 75.9163 435.383 75.3782C436.049 75.2505 436.715 75.132 437.382 75.0043L438.386 74.831L439.39 74.676L441.398 74.3841C442.073 74.302 442.74 74.2291 443.415 74.1561C444.757 73.992 446.117 73.919 447.459 73.8278C447.797 73.8096 448.134 73.7913 448.472 73.7822L449.485 73.7548C450.161 73.7366 450.836 73.7275 451.512 73.7275C450.179 73.9555 448.837 74.1196 447.504 74.3294L445.505 74.6304C445.177 74.6851 444.839 74.7216 444.51 74.7763L443.516 74.9405C442.849 75.0499 442.192 75.1593 441.526 75.2597L439.545 75.6154L438.55 75.7886L437.564 75.9802C436.907 76.1078 436.241 76.2264 435.583 76.3632C432.945 76.8922 430.326 77.4759 427.715 78.1143C425.114 78.7709 422.512 79.4549 419.92 80.2575Z" fill="#99BBDD"/>
<path d="M399.51 83.3493C397.438 82.8568 395.394 82.3187 393.34 81.7806L387.215 80.1481L381.081 78.5338L374.92 76.9834C377.047 77.0928 379.164 77.3847 381.255 77.7677C383.345 78.1599 385.426 78.625 387.48 79.1722C389.534 79.7194 391.569 80.3396 393.577 81.0327C395.585 81.7076 397.575 82.4555 399.51 83.3493Z" fill="#99BBDD"/>
<path d="M388.41 83.0939C385.471 82.6287 382.541 82.1271 379.62 81.6164L375.239 80.8503L373.048 80.4673L370.857 80.0934C369.397 79.838 367.936 79.5826 366.467 79.3546C365.737 79.2361 365.006 79.0992 364.276 78.9898C363.546 78.8804 362.816 78.7618 362.076 78.6341C359.146 78.1781 356.216 77.7495 353.259 77.3482C356.234 77.3299 359.219 77.5397 362.177 77.8498C363.655 78.0048 365.134 78.1964 366.613 78.4061C367.352 78.5064 368.082 78.625 368.822 78.7436L371.022 79.0993C372.482 79.3637 373.952 79.6282 375.412 79.9201C376.142 80.066 376.873 80.221 377.594 80.3761C378.324 80.522 379.045 80.6862 379.775 80.8595C382.669 81.4979 385.562 82.2183 388.41 83.0939Z" fill="#99BBDD"/>
<path d="M600.096 137.541C597.75 124.399 585.135 115.616 571.991 117.969L571.517 115.297C586.14 112.689 600.16 122.457 602.771 137.067L600.096 137.541Z" fill="#99BBDD"/>
<path d="M591.936 139.748C591.16 135.398 588.732 131.613 585.108 129.087C581.484 126.561 577.085 125.594 572.731 126.369L572.256 123.697C577.322 122.794 582.433 123.916 586.66 126.852C590.877 129.789 593.706 134.203 594.61 139.256L591.936 139.748Z" fill="#99BBDD"/>
<path d="M583.785 141.955C583.365 139.621 582.069 137.596 580.124 136.237C578.18 134.878 575.825 134.367 573.488 134.778L573.014 132.106C576.062 131.558 579.138 132.233 581.676 134.003C584.214 135.772 585.911 138.426 586.459 141.463L583.785 141.955Z" fill="#99BBDD"/>
<path d="M578.837 143.971C577.77 145.494 575.67 145.868 574.146 144.81C572.621 143.743 572.247 141.645 573.306 140.122C574.374 138.599 576.473 138.225 577.998 139.283C579.522 140.35 579.896 142.448 578.837 143.971Z" fill="#99BBDD"/>
<path d="M100.818 415.278L99.0106 413.253C99.111 413.162 109.362 403.914 117.905 388.693C125.609 374.967 133.45 353.47 127.563 328.426C123.756 329.74 112.42 334.254 101.694 344.551C89.6545 356.115 75.917 377.566 78.8654 414.156L76.1635 414.375C74.8217 397.749 76.7112 382.728 81.7772 369.723C85.8391 359.289 91.9456 350.132 99.9143 342.508C113.487 329.521 127.59 325.545 128.183 325.39L129.516 325.025L129.854 326.365C132.839 338.094 133.158 350.078 130.821 361.971C128.95 371.474 125.39 380.94 120.233 390.106C111.461 405.693 101.247 414.895 100.818 415.278Z" fill="#99BBDD"/>
<path d="M90.8593 414.603L88.2305 413.928C88.2579 413.81 91.3157 402.054 96.7742 386.96C101.813 373.006 110.001 353.242 120.37 338.349L122.597 339.9C103.063 367.962 90.978 414.138 90.8593 414.603Z" fill="#99BBDD"/>
<path d="M86.9943 389.419L84.5225 390.532L91.1089 405.142L93.5807 404.03L86.9943 389.419Z" fill="#99BBDD"/>
<path d="M111.253 383.198L95.7822 390.888L96.9897 393.313L112.46 385.623L111.253 383.198Z" fill="#99BBDD"/>
<path d="M97.7054 362.814L95.1367 363.68L100.224 378.742L102.793 377.876L97.7054 362.814Z" fill="#99BBDD"/>
<path d="M120.801 354.339L107.257 362.11L108.607 364.459L122.151 356.689L120.801 354.339Z" fill="#99BBDD"/>
<path d="M109.204 343.251L106.637 344.121L110.567 355.703L113.135 354.834L109.204 343.251Z" fill="#99BBDD"/>
<path d="M17.7223 387.141L16.2031 389.384L54.6985 415.409L56.2177 413.166L17.7223 387.141Z" fill="#99BBDD"/>
<path d="M54.2833 414.904C54.2103 414.767 46.835 400.904 41.6412 379.773C38.5925 367.36 36.8764 354.893 36.5387 342.709C36.1188 327.46 37.8622 312.621 41.7325 298.594L42.1889 296.944L43.695 297.764C44.051 297.956 52.5034 302.635 62.3433 312.712C68.1121 318.622 73.1598 325.18 77.3313 332.193C82.5433 340.958 86.4044 350.47 88.8051 360.447L86.1671 361.077C80.8912 339.106 69.2805 323.721 60.4721 314.673C53.2793 307.286 46.7346 302.817 43.8867 301.03C35.8997 331.536 39.6513 360.21 44.2609 379.034C49.3634 399.865 56.6018 413.481 56.6748 413.609L54.2833 414.904Z" fill="#99BBDD"/>
<path d="M74.1185 414.348C74.1093 414.22 73.3243 401.315 69.7827 382.473C66.5149 365.09 60.171 338.951 48.4873 313.123L50.961 312.01C62.7634 338.103 69.1711 364.488 72.4663 382.026C76.0353 401.032 76.8294 414.065 76.8294 414.202L74.1185 414.348Z" fill="#99BBDD"/>
<path d="M48.3387 321.545L46.5752 323.602L56.2671 331.896L58.0306 329.839L48.3387 321.545Z" fill="#99BBDD"/>
<path d="M61.2687 324.47L58.7256 338.867L61.3953 339.338L63.9384 324.941L61.2687 324.47Z" fill="#99BBDD"/>
<path d="M50.3665 343.153L49.0449 345.518L63.4304 353.543L64.752 351.178L50.3665 343.153Z" fill="#99BBDD"/>
<path d="M70.8476 341.589L65.1504 360.524L67.7466 361.304L73.4439 342.368L70.8476 341.589Z" fill="#99BBDD"/>
<path d="M52.9281 364.64L51.7021 367.056L68.9862 375.812L70.2121 373.396L52.9281 364.64Z" fill="#99BBDD"/>
<path d="M78.3258 362.917L69.9268 382.121L72.4109 383.206L80.8099 364.001L78.3258 362.917Z" fill="#99BBDD"/>
<path d="M57.5684 388.764L56.3174 391.167L73.2095 399.946L74.4606 397.543L57.5684 388.764Z" fill="#99BBDD"/>
<path d="M75.9828 398.237L73.3057 404.064L75.7694 405.194L78.4466 399.367L75.9828 398.237Z" fill="#99BBDD"/>
<path d="M34.184 415.515C17.2791 408.319 8.90883 398.223 4.8743 391.027C0.456392 383.157 0.0912807 377.028 0.0730249 376.763L0 375.359L1.40569 375.332C17.7903 375.04 29.6566 379.974 36.7215 384.16C44.4164 388.72 48.1953 393.326 48.3505 393.526L46.242 395.232L47.3008 394.384L46.2511 395.241C46.2146 395.195 42.5543 390.754 35.2337 386.44C28.7073 382.591 17.8816 378.086 2.97569 378.049C3.33168 380.211 4.38139 384.643 7.3297 389.851C11.1726 396.636 19.1412 406.167 35.2611 413.034L34.184 415.515Z" fill="#99BBDD"/>
<path d="M23.1845 383.766L20.7754 385.008L26.4974 396.087L28.9065 394.845L23.1845 383.766Z" fill="#99BBDD"/>
<path d="M22.0713 398.262L21.9111 400.966L34.923 401.735L35.0832 399.032L22.0713 398.262Z" fill="#99BBDD"/>
<path d="M39.3775 393.904L36.8477 394.878L41.0923 405.891L43.6221 404.918L39.3775 393.904Z" fill="#99BBDD"/>
<path d="M47.154 407.512L37.7959 409.895L38.4655 412.52L47.8236 410.137L47.154 407.512Z" fill="#99BBDD"/>
<path d="M581.66 381.096L569.803 393.717L571.779 395.571L583.636 382.95L581.66 381.096Z" fill="#99BBDD"/>
<path d="M558.822 394.582L556.847 396.437L569.179 409.551L571.154 407.696L558.822 394.582Z" fill="#99BBDD"/>
<path d="M579.888 407.654L571.559 414.817L573.327 416.87L581.657 409.707L579.888 407.654Z" fill="#99BBDD"/>
<path d="M523.464 383.476L522.811 386.105L536.763 389.568L537.417 386.939L523.464 383.476Z" fill="#99BBDD"/>
<path d="M542.163 381.723L540.141 396.829L542.828 397.188L544.85 382.083L542.163 381.723Z" fill="#99BBDD"/>
<path d="M533.854 400.809L533.056 403.397L544.911 407.045L545.709 404.456L533.854 400.809Z" fill="#99BBDD"/>
<path d="M548.956 403.999L546.575 411.807L549.168 412.596L551.55 404.788L548.956 403.999Z" fill="#99BBDD"/>
<path d="M613.051 379.169L597.803 383.475L598.54 386.082L613.789 381.775L613.051 379.169Z" fill="#99BBDD"/>
<path d="M551.152 416.199C550.978 415.606 546.989 401.443 547.738 380.667C548.176 368.473 550.184 356.544 553.698 345.217C558.098 331.053 564.871 317.802 573.844 305.836L574.93 304.386L576.016 305.836C576.299 306.219 583.081 315.403 587.746 333.671C590.475 344.35 591.908 355.942 591.99 368.117C592.1 383.312 590.11 399.473 586.075 416.144L583.437 415.506C592.446 378.259 589.316 350.807 585.108 334.336C581.639 320.766 576.92 312.284 574.866 309.01C555.935 335.057 551.115 362.271 550.44 380.667C549.691 401.041 553.708 415.314 553.744 415.46L551.152 416.199Z" fill="#99BBDD"/>
<path d="M572.149 334.107L568.446 415.703L571.155 415.826L574.857 334.23L572.149 334.107Z" fill="#99BBDD"/>
<path d="M565.492 346.291L563.306 347.893L571.376 358.888L573.562 357.286L565.492 346.291Z" fill="#99BBDD"/>
<path d="M581.593 355.325L571.389 367.498L573.467 369.237L583.671 357.065L581.593 355.325Z" fill="#99BBDD"/>
<path d="M560.906 372.448L558.939 374.313L570.227 386.192L572.193 384.327L560.906 372.448Z" fill="#99BBDD"/>
<path d="M539.185 416.892C538.866 416.637 531.262 410.627 524.024 399.819C519.77 393.472 516.539 386.777 514.43 379.937C511.783 371.364 510.889 362.536 511.765 353.689L511.911 352.23L513.353 352.495C513.591 352.54 519.25 353.58 526.662 357.319C533.489 360.767 543.128 367.251 550.303 378.597L548.012 380.047C541.193 369.267 532.02 363.083 525.53 359.791C520.61 357.301 516.438 356.042 514.339 355.504C512.952 373.982 519.989 388.893 526.233 398.251C533.225 408.72 540.792 414.712 540.865 414.767L539.185 416.892Z" fill="#99BBDD"/>
<path d="M547.866 416.254C547.757 415.935 536.986 383.895 520.537 366.713L522.5 364.843C531.335 374.073 538.464 387.334 542.891 396.837C547.674 407.097 550.413 415.323 550.44 415.406L547.866 416.254Z" fill="#99BBDD"/>
<path d="M518.888 368.956L518.035 371.527L527.411 374.63L528.263 372.059L518.888 368.956Z" fill="#99BBDD"/>
<path d="M532.342 367.335L529.639 367.543L530.552 379.391L533.255 379.183L532.342 367.335Z" fill="#99BBDD"/>
<path d="M600.89 417.002L599.548 414.649C599.621 414.612 606.686 410.453 613.331 398.871C619.383 388.328 626.283 369.358 625.161 338.523C622.842 339.17 618.178 340.739 612.957 344.004C606.165 348.254 597.001 356.334 591.926 370.726L589.37 369.823C594.728 354.647 604.431 346.12 611.624 341.642C619.437 336.781 625.927 335.531 626.201 335.476L627.735 335.194L627.808 336.753C628.456 351.127 627.461 364.269 624.859 375.824C622.769 385.099 619.638 393.38 615.558 400.439C608.548 412.551 601.2 416.828 600.89 417.002Z" fill="#99BBDD"/>
<path d="M591.999 415.98L589.307 415.67C589.316 415.561 590.585 404.926 594.61 391.41C598.325 378.898 605.235 361.259 617.028 348.272L619.036 350.096C607.599 362.691 600.863 379.91 597.23 392.131C593.259 405.428 592.009 415.871 591.999 415.98Z" fill="#99BBDD"/>
<path d="M607.333 351.542L607.106 362.301L609.817 362.358L610.043 351.599L607.333 351.542Z" fill="#99BBDD"/>
<path d="M617.608 362.879L604.666 367.087L605.505 369.663L618.447 365.455L617.608 362.879Z" fill="#99BBDD"/>
<path d="M600.688 364.042L597.992 364.329L599.444 377.932L602.139 377.645L600.688 364.042Z" fill="#99BBDD"/>
<path d="M592.883 378.91L590.32 379.793L594.618 392.234L597.181 391.35L592.883 378.91Z" fill="#99BBDD"/>
<path d="M609.963 393.356L593.319 398.754L594.156 401.33L610.8 395.933L609.963 393.356Z" fill="#99BBDD"/>
<path d="M588.953 400.668L586.615 402.04L590.706 409L593.044 407.628L588.953 400.668Z" fill="#99BBDD"/>
<path d="M624.76 424.608H1.65234C1.65234 417.604 7.32991 411.931 14.3401 411.931H612.072C619.082 411.931 624.76 417.613 624.76 424.608Z" fill="#576C89"/>
<path d="M518.866 120.021H507.62C523.777 120.021 536.884 133.109 536.884 149.27V346.621C536.884 362.764 523.786 375.87 507.62 375.87H518.866C535.022 375.87 548.13 362.764 548.13 346.621V149.27C548.13 133.109 535.022 120.021 518.866 120.021Z" fill="#466EB6"/>
<path d="M281.148 397.794C277.196 397.794 273.974 401.023 273.974 404.963C273.974 406.924 274.768 408.72 276.073 410.016C277.369 411.311 279.167 412.122 281.148 412.122H420.54C424.493 412.122 427.715 408.894 427.715 404.954C427.715 402.993 426.903 401.196 425.606 399.901C424.31 398.606 422.521 397.794 420.549 397.794H416.816H407.268H332.456H281.148Z" fill="#86B1F2"/>
<path d="M432.343 397.794H420.54C422.521 397.794 424.301 398.606 425.597 399.901C426.893 401.196 427.706 402.993 427.706 404.954C427.706 408.894 424.493 412.122 420.531 412.122H432.334C434.314 412.122 436.094 411.311 437.39 410.016C438.687 408.72 439.499 406.924 439.499 404.963C439.517 401.023 436.295 397.794 432.343 397.794Z" fill="#466EB6"/>
<path d="M395.795 375.87L407.26 397.795H416.807L405.324 375.87H395.795Z" fill="#355389"/>
<path d="M320.982 375.87L332.447 397.795H407.259L395.795 375.87H320.982Z" fill="#466EB6"/>
<path d="M190.581 120.021H507.63C523.786 120.021 536.894 133.109 536.894 149.27V346.621C536.894 362.764 523.796 375.87 507.63 375.87H405.324H395.795H320.983H190.581C174.425 375.87 161.317 362.764 161.317 346.621V149.27C161.317 133.109 174.425 120.021 190.581 120.021ZM190.591 342.444H507.621C518.876 342.444 528.031 333.288 528.031 322.042V149.27C528.031 138.025 518.885 128.868 507.621 128.868H190.591C179.336 128.868 170.171 138.025 170.171 149.27V322.042C170.171 333.288 179.336 342.444 190.591 342.444Z" fill="#86B1F2"/>
<path d="M528.031 149.27V322.033C528.031 330.187 523.239 337.237 516.301 340.493C513.663 341.742 510.724 342.444 507.621 342.444H190.59C179.336 342.444 170.162 333.288 170.162 322.033V149.27C170.162 139.146 177.592 130.71 187.286 129.133C188.363 128.959 189.458 128.868 190.581 128.868H507.612C508.734 128.868 509.839 128.959 510.907 129.133C520.61 130.71 528.031 139.137 528.031 149.27Z" fill="#EFEFEF"/>
<mask id="mask0_125_1737" style="mask-type:luminance" maskUnits="userSpaceOnUse" x="170" y="128" width="359" height="215">
<path d="M528.03 149.27V322.042C528.03 330.196 523.238 337.246 516.301 340.502C513.663 341.751 510.724 342.444 507.629 342.444H190.59C179.335 342.444 170.171 333.288 170.171 322.042V149.27C170.171 138.025 179.335 128.868 190.59 128.868H507.62C518.884 128.868 528.03 138.016 528.03 149.27Z" fill="white"/>
</mask>
<g mask="url(#mask0_125_1737)">
<path d="M251.171 326.438H230.798V335.239H251.171V326.438Z" fill="#FEC65E"/>
<path d="M246.964 335.257H234.988V344.058H246.964V335.257Z" fill="#FE875E"/>
<path d="M222.309 310.952L219.151 309.566C218.211 309.156 217.115 309.575 216.704 310.514L211.2 323.009C210.79 323.948 211.209 325.043 212.15 325.453L215.308 326.84C216.248 327.25 217.343 326.83 217.754 325.891L223.258 313.396C223.678 312.457 223.249 311.363 222.309 310.952Z" fill="#FAE0B2"/>
<path d="M273.188 195.445L270.03 194.059C269.089 193.649 268.669 192.554 269.08 191.615L274.584 179.12C274.995 178.181 276.09 177.761 277.031 178.172L280.189 179.558C281.129 179.968 281.549 181.063 281.138 182.002L275.634 194.497C275.223 195.436 274.128 195.865 273.188 195.445Z" fill="#FAE0B2"/>
<path d="M239.388 327.806C228.672 327.806 217.974 325.581 207.869 321.139C206.664 320.611 206.117 319.206 206.646 318.002C207.176 316.798 208.581 316.251 209.786 316.78C227.759 324.687 247.74 325.125 266.051 318.011C284.361 310.898 298.792 297.09 306.706 279.132C323.036 242.049 306.131 198.61 269.026 182.294C267.821 181.765 267.274 180.361 267.803 179.157C268.333 177.953 269.738 177.406 270.943 177.935C310.458 195.308 328.458 241.575 311.069 281.056C302.644 300.181 287.273 314.883 267.776 322.462C258.575 326.028 248.972 327.806 239.388 327.806Z" fill="#FEC65E"/>
<path d="M188.308 286.775C188.509 290.705 188.308 297.655 188.308 297.655L188.29 297.673C175.255 285.133 167.149 267.54 167.149 248.05C167.149 246.163 167.222 244.284 167.378 242.442H167.396C167.396 242.843 167.487 245.615 170.034 248.05C172.772 250.668 173.959 251.644 175.921 252.729C177.893 253.814 183.78 257.344 183.78 257.344C183.78 257.344 184.976 257.727 188.308 262.05C191.64 266.373 194.789 267.951 195.574 270.304C196.359 272.657 197.929 274.809 197.929 274.809C197.929 274.809 192.041 282.862 190.864 283.646C189.686 284.413 188.116 282.853 188.308 286.775Z" fill="#466EB6"/>
<path d="M260.783 307.578C261.541 311.645 263.321 311.217 263.558 311.135V311.153C255.124 314.819 245.813 316.862 236.037 316.862C236.037 316.862 238.392 313.46 240.3 309.539C242.19 305.608 239.972 306.784 239.187 298.932C238.392 291.079 239.187 298.932 239.679 297.755C240.191 296.579 240.747 293.049 239.679 289.903C238.703 287.021 239.506 287.44 239.661 287.532C239.214 287.13 232.039 280.746 229.739 277.007C228.872 275.566 228.425 274.855 228.224 274.563C228.315 273.806 228.562 271.462 228.562 269.884C228.562 268.325 224.253 269.109 223.076 269.109C221.88 269.109 217.17 270.285 213.994 270.668C210.799 271.052 208.928 278.904 208.928 276.551C208.928 274.198 206.956 274.991 206.171 274.782C205.395 274.599 204.218 272.228 203.433 270.276C202.638 268.306 201.461 269.1 199.9 267.13C198.321 265.16 197.143 264.376 195.573 260.053C193.994 255.748 192.817 257.317 189.686 251.024C186.537 244.749 189.686 251.024 190.462 248.023C191.256 245.023 192.433 246.318 195.217 243.965C197.992 241.612 199.106 243.171 199.106 243.171C199.106 243.171 201.844 245.141 203.433 248.014C204.993 250.896 210.114 250.239 210.114 250.239C210.114 250.239 210.114 250.239 208.937 246.71C208.654 245.889 208.517 245.442 208.444 245.223L208.38 245.022C208.334 244.886 208.252 244.685 208.152 244.338C207.358 241.985 202.648 236.103 206.591 231.78C210.516 227.457 210.516 229.044 213.272 224.721C216.011 220.398 218.777 221.575 221.907 221.967C225.057 222.368 224.281 222.368 229.374 221.967C234.486 221.584 235.262 221.584 236.841 216.084C238.402 210.585 236.841 216.084 236.047 210.977C235.252 205.879 236.047 206.672 236.047 202.304C236.047 197.935 234.075 201.948 231.337 202.304C228.58 202.641 227.804 202.741 226.225 203.918C224.664 205.094 222.3 208.241 219.16 209.025C216.011 209.8 217.188 209.025 212.871 207.429C208.544 205.833 212.871 203.526 213.665 199.996C214.459 196.448 217.48 199.996 217.48 199.996C217.48 199.996 218.786 198.418 221.141 196.85C223.496 195.272 225.066 196.056 229 193.658C232.925 191.259 230.561 194.88 236.065 193.658C241.569 192.436 239.214 191.086 239.214 191.086V188.532C239.214 188.532 235.28 188.997 231.747 188.596C228.215 188.213 221.926 189.389 216.44 191.952C210.936 194.524 212.889 193.703 211.328 192.572C209.767 191.442 200.712 192.135 195.263 192.572C206.682 184.145 220.803 179.184 236.083 179.184C254.868 179.184 271.892 186.681 284.306 198.865C283.411 198.108 274.977 201.191 274.183 203.526C273.407 205.879 274.585 206.672 271.828 209.408C269.09 212.163 269.09 212.163 262.791 214.516C256.502 216.869 257.287 213.339 253.755 218.839C250.222 224.32 249.428 225.496 250.222 228.251C251.016 230.987 249.821 235.711 255.325 234.133C260.829 232.573 258.875 227.457 264.763 229.427C270.65 231.397 276.063 231.78 276.063 231.78C276.063 231.78 274.019 225.898 276.063 224.721C278.126 223.545 281.878 225.496 284.324 227.457C286.77 229.427 286.77 229.035 288.34 231.388C289.901 233.741 291.489 234.762 292.667 234.434C293.844 234.124 298.171 227.849 298.171 227.849L300.709 224.101C302.927 230.093 304.332 236.486 304.798 243.126H304.78C300.517 240.399 299.732 240.791 293.05 240.791C286.369 240.791 285.584 242.323 279.696 240.773C273.809 239.222 274.192 238.046 267.127 238.438C260.062 238.821 261.24 237.553 256.913 240.745C252.586 243.937 250.231 240.672 249.054 247.996C247.876 255.319 245.905 254.143 249.054 260.426C252.203 266.701 252.203 265.525 255.334 271.808C258.483 278.092 260.838 272.985 259.66 282.014C258.483 291.043 258.483 292.621 258.483 294.18C258.483 295.758 257.689 300.464 257.689 302.434C257.634 304.44 259.971 303.2 260.783 307.578ZM260.391 209.837V203.562C258.036 203.562 261.568 200.808 258.036 203.562C254.503 206.298 253.326 209.445 252.532 210.621C251.737 211.798 249.894 212.591 249.894 212.591L260.391 209.837Z" fill="#466EB6"/>
<path d="M239.67 297.764C239.177 298.941 238.383 291.089 239.177 298.941C239.972 306.793 242.18 305.617 240.291 309.548C238.383 313.469 236.028 316.871 236.028 316.871C217.48 316.871 200.667 309.566 188.28 297.673L188.298 297.655C188.298 297.655 188.499 290.705 188.298 286.775C188.116 282.853 189.677 284.422 190.854 283.646C192.032 282.853 197.919 274.809 197.919 274.809C197.919 274.809 196.358 272.657 195.564 270.304C194.77 267.951 191.63 266.373 188.298 262.05C184.967 257.727 183.771 257.344 183.771 257.344C183.771 257.344 177.884 253.814 175.912 252.729C173.94 251.644 172.763 250.668 170.024 248.05C167.487 245.615 167.386 242.852 167.386 242.442H167.368C169.011 222.003 179.59 204.091 195.199 192.618C200.658 192.18 209.703 191.487 211.264 192.618C212.825 193.749 210.881 194.57 216.376 191.998C221.862 189.426 228.151 188.249 231.683 188.642C235.216 189.043 239.15 188.578 239.15 188.578V191.131C239.15 191.131 241.505 192.481 236.001 193.703C230.497 194.925 232.852 191.305 228.936 193.703C225.002 196.102 223.432 195.318 221.077 196.895C218.722 198.455 217.416 200.042 217.416 200.042C217.416 200.042 214.395 196.494 213.601 200.042C212.807 203.571 208.489 205.879 212.807 207.475C217.134 209.071 215.956 209.846 219.096 209.071C222.245 208.277 224.6 205.14 226.161 203.964C227.74 202.787 228.516 202.696 231.273 202.349C234.011 201.994 235.983 197.981 235.983 202.349C235.983 206.718 235.188 205.924 235.983 211.023C236.777 216.13 238.338 210.639 236.777 216.13C235.198 221.629 234.422 221.629 229.31 222.012C224.208 222.414 224.984 222.414 221.844 222.012C218.713 221.629 215.956 220.453 213.208 224.767C210.452 229.09 210.452 227.503 206.527 231.826C202.593 236.149 207.303 242.031 208.088 244.384C208.197 244.722 208.27 244.922 208.316 245.068L208.38 245.269C208.453 245.488 208.599 245.935 208.873 246.755C210.05 250.285 210.05 250.285 210.05 250.285C210.05 250.285 204.939 250.932 203.369 248.06C201.789 245.178 199.042 243.217 199.042 243.217C199.042 243.217 197.928 241.657 195.154 244.01C192.36 246.363 191.183 245.059 190.398 248.069C189.622 251.069 186.473 244.804 189.622 251.069C192.753 257.353 193.93 255.793 195.51 260.098C197.07 264.421 198.248 265.205 199.836 267.175C201.397 269.145 202.574 268.352 203.369 270.322C204.163 272.274 205.34 274.645 206.107 274.827C206.901 275.028 208.864 274.234 208.864 276.597C208.864 278.95 210.735 271.097 213.93 270.714C217.106 270.331 221.816 269.154 223.012 269.154C224.189 269.154 228.498 268.361 228.498 269.93C228.498 271.507 228.251 273.851 228.16 274.608C228.05 274.453 228.005 274.408 227.987 274.426C227.987 274.49 228.114 274.763 228.114 274.845C228.133 274.827 228.142 274.736 228.16 274.617C228.361 274.909 228.808 275.621 229.675 277.062C231.966 280.81 239.141 287.185 239.597 287.586C239.442 287.495 238.639 287.076 239.616 289.958C240.738 293.058 240.181 296.588 239.67 297.764Z" fill="#50BFA5"/>
<path d="M263.55 311.144C263.321 311.217 261.532 311.655 260.775 307.587C259.971 303.209 257.626 304.44 257.626 302.489C257.626 300.519 258.42 295.813 258.42 294.235C258.42 292.675 258.42 291.089 259.597 282.069C260.775 273.049 258.42 278.147 255.271 271.863C252.14 265.579 252.14 266.756 248.991 260.481C245.841 254.197 247.813 255.374 248.991 248.05C250.168 240.727 252.523 243.992 256.85 240.8C261.176 237.608 259.999 238.876 267.064 238.493C274.129 238.109 273.745 239.286 279.633 240.827C285.52 242.378 286.315 240.846 292.987 240.846C299.66 240.846 300.454 240.462 304.716 243.18H304.735C304.844 244.795 304.908 246.4 304.908 248.041C304.908 276.286 287.894 300.546 263.55 311.153V311.144Z" fill="#50BFA5"/>
<path d="M258.036 203.562C261.569 200.808 258.036 203.562 260.391 203.562V209.837L249.903 212.591C249.903 212.591 251.747 211.798 252.541 210.621C253.326 209.445 254.504 206.307 258.036 203.562Z" fill="#50BFA5"/>
<path d="M300.654 224.137V224.156L298.117 227.904C298.117 227.904 293.79 234.179 292.612 234.489C291.435 234.817 289.856 233.796 288.286 231.443C286.725 229.09 286.725 229.473 284.269 227.512C281.823 225.542 278.072 223.59 276.009 224.776C273.964 225.952 276.009 231.835 276.009 231.835C276.009 231.835 270.605 231.452 264.708 229.482C258.821 227.512 260.774 232.628 255.27 234.188C249.766 235.766 250.962 231.041 250.168 228.305C249.374 225.551 250.168 224.374 253.7 218.893C257.233 213.394 256.439 216.923 262.737 214.57C269.026 212.217 269.026 212.217 271.773 209.463C274.53 206.727 273.353 205.933 274.128 203.58C274.923 201.246 283.348 198.163 284.251 198.92C284.251 198.938 284.269 198.938 284.269 198.938C291.444 205.961 297.085 214.543 300.654 224.137Z" fill="#50BFA5"/>
</g>
<mask id="mask1_125_1737" style="mask-type:luminance" maskUnits="userSpaceOnUse" x="170" y="128" width="359" height="215">
<path d="M528.03 149.27V322.042C528.03 330.196 523.238 337.246 516.301 340.502C513.663 341.751 510.724 342.444 507.629 342.444H190.59C179.335 342.444 170.171 333.288 170.171 322.042V149.27C170.171 138.025 179.335 128.868 190.59 128.868H507.62C518.884 128.868 528.03 138.016 528.03 149.27Z" fill="white"/>
</mask>
<g mask="url(#mask1_125_1737)">
<path d="M304.095 272.383L307.491 275.438C311.927 279.433 318.828 279.077 322.826 274.645C326.824 270.212 326.468 263.318 322.031 259.323L318.636 256.268C314.2 252.273 307.299 252.629 303.301 257.061C299.303 261.494 299.659 268.388 304.095 272.383Z" fill="#FAE0B2"/>
<path d="M322.552 264.011C324.588 263.673 326.395 267.577 326.057 265.543L324.314 251.753C323.976 249.719 322.032 248.333 319.996 248.671C317.961 249.008 316.573 250.951 316.911 252.984L318.235 260.928C318.572 262.962 320.517 264.348 322.552 264.011Z" fill="#FAE0B2"/>
<path d="M317.623 260.408C319.002 258.876 318.883 256.496 317.35 255.109L311.362 249.71C309.828 248.324 307.446 248.452 306.058 249.984C304.671 251.516 304.799 253.896 306.332 255.283L312.32 260.682C313.854 262.059 316.245 261.94 317.623 260.408Z" fill="#FAE0B2"/>
<path d="M310.713 260.463C312.101 258.931 311.973 256.55 310.44 255.164L304.452 249.765C302.918 248.379 300.536 248.506 299.148 250.039C297.77 251.571 297.889 253.951 299.422 255.337L305.41 260.737C306.944 262.123 309.335 261.995 310.713 260.463Z" fill="#FAE0B2"/>
<path d="M309.006 265.233C310.394 263.701 310.266 261.32 308.732 259.934L302.744 254.535C301.211 253.149 298.829 253.276 297.441 254.808C296.054 256.341 296.182 258.721 297.715 260.107L303.703 265.506C305.236 266.893 307.619 266.765 309.006 265.233Z" fill="#FAE0B2"/>
<path d="M309.289 271.79C310.676 270.258 310.548 267.878 309.015 266.491L303.027 261.092C301.493 259.706 299.111 259.834 297.724 261.366C296.345 262.898 296.464 265.278 297.997 266.665L303.985 272.064C305.528 273.441 307.91 273.322 309.289 271.79Z" fill="#FAE0B2"/>
<path d="M376.498 263.026C392.791 240.462 417.327 236.158 420.33 235.702C398.98 239.414 382.605 257.599 381.728 279.77C381.701 280.4 381.683 281.038 381.683 281.676V309.575C345.792 329.694 312.548 281.166 312.548 281.166L329.133 265.789C342.542 280.381 359.118 287.085 376.498 263.026Z" fill="#3C8F7C"/>
<path d="M512.412 318.878C512.412 347.916 505.156 371.565 482.537 393.344C481.761 393.116 479.452 392.605 473.619 386.978C469.949 383.458 467.43 375.45 467.43 375.45C467.43 375.45 468.617 373.508 470.296 370.179L462.099 370.188L411.293 370.233L382.358 370.261C379.93 370.27 378.004 368.227 378.159 365.801L381.673 309.557V281.658C381.673 281.02 381.692 280.381 381.719 279.752C382.595 257.59 398.971 239.395 420.321 235.683C420.421 235.665 420.522 235.656 420.622 235.638C423.141 235.218 425.725 234.999 428.363 234.999H444.902C447.522 234.999 450.114 235.218 452.615 235.638C456.057 236.203 459.37 237.152 462.51 238.438C489.52 248.023 512.412 281.594 512.412 318.878Z" fill="#50BFA5"/>
<path d="M454.998 370.279H404.183V370.243L412.617 244.576C412.617 244.576 418.623 235.018 421.261 235.018H437.801C440.42 235.018 443.013 235.237 445.514 235.656L446.162 244.84L454.989 370.197L454.998 370.279Z" fill="#F7CC7F"/>
<path d="M413.083 237.261L404.183 385.874L376.261 379.919L386.676 306.492C386.676 306.492 390.528 283.017 394.042 269.994C397.556 256.961 413.083 237.261 413.083 237.261Z" fill="#50BFA5"/>
<path d="M445.514 235.656L454.998 385.792L488.351 382.044C488.351 382.044 493.298 357.766 497.935 334.975C502.572 312.183 498.346 272.392 486.772 261.256C475.207 250.121 445.514 235.656 445.514 235.656Z" fill="#50BFA5"/>
<path d="M459.954 280.901C459.954 280.901 465.23 292.584 469.182 310.733C473.135 328.883 467.43 375.459 467.43 375.459L470.296 369.896C470.296 369.896 483.276 343.283 481.359 326.913C479.451 310.533 473.034 296.032 459.954 280.901Z" fill="#3C8F7C"/>
<path d="M305.803 250.476L305.254 251.024L313.89 259.652L314.439 259.104L305.803 250.476Z" fill="#FE875E"/>
<path d="M298.753 253.741L298.204 254.289L306.666 262.743L307.215 262.195L298.753 253.741Z" fill="#FE875E"/>
<path d="M298.891 260.672L298.343 261.22L305.609 268.483L306.158 267.935L298.891 260.672Z" fill="#FE875E"/>
<path d="M446.217 246.682C442.164 248.634 436.058 249.592 429.486 249.592C422.631 249.592 416.506 248.251 412.453 246.153L413.01 237.963L413.056 237.279C413.065 237.27 413.083 237.27 413.083 237.27H413.056C413.056 237.27 413.457 237.124 413.959 236.787C414.781 236.231 415.84 235.145 415.739 233.34C415.703 232.473 414.881 229.983 414.881 229.983L413.968 226.499L413.95 226.463L410.664 213.804L443.625 210.922C443.625 210.922 440.804 226.062 441.252 231.671C441.544 235.392 445.633 235.036 445.633 235.036L446.217 246.682Z" fill="#FAE0B2"/>
<path d="M438.887 220.708C438.887 220.708 436.395 233.996 417.956 237.252C416.788 237.462 414.515 237.79 413 237.954L413.046 237.27C413.055 237.261 413.073 237.261 413.073 237.261H413.046C413.046 237.261 413.447 237.115 413.949 236.778C414.771 236.222 415.83 235.136 415.729 233.33C415.693 232.464 414.807 229.719 414.807 229.719C414.807 229.719 432.552 231.424 438.887 220.708Z" fill="#FE875E"/>
<path d="M449.959 200.607C449.412 215.92 439.782 230.075 424.456 229.527C409.13 228.98 395.639 229.518 394.462 198.619C393.64 177.168 407.88 171.341 423.205 171.888C438.531 172.435 450.507 185.295 449.959 200.607Z" fill="#FAE0B2"/>
<path d="M398.396 188.724C399.61 189.617 401.481 190.347 404.338 190.657C414.306 191.706 432.425 183.571 432.425 183.571C432.425 183.571 430.645 188.961 431.247 198.701C431.247 198.701 434.46 192.518 439.033 198.437C443.122 203.754 437.299 210.038 433.794 208.67C433.794 208.67 432.178 220.717 426.154 221.803C420.12 222.888 418.97 217.261 409.952 214.981C400.942 212.701 397.894 217.37 397.894 217.37C405.698 235.756 431.804 229.026 431.804 229.026C431.804 229.026 435.044 232.282 442.009 231.57C448.973 230.859 450.352 215.865 450.352 215.865C455.062 217.543 460.392 208.305 461.205 194.205C462.026 180.114 448.955 179.686 448.955 179.686C448.955 179.686 450.516 169.818 435.218 164.3C420.312 158.928 415.018 164.719 414.744 165.02C414.881 164.564 417.765 154.933 409.952 154.788C401.947 154.642 402.951 162.841 402.951 162.841C394.014 154.76 381.254 165.768 383.554 175.016C385.845 184.273 396.47 183.297 396.47 183.297C396.47 183.297 395.384 186.498 398.396 188.724Z" fill="#13375B"/>
<path d="M431.357 189.827C431.357 189.827 430.946 199.44 431.448 205.496C431.95 211.561 432.352 217.735 428.454 220.717C428.454 220.717 435.921 218.519 433.885 207.758C431.85 196.996 432.452 196.257 433.73 192.8C435.008 189.353 431.357 189.827 431.357 189.827Z" fill="#13375B"/>
<path d="M333.798 270.067C333.807 270.039 333.807 270.021 333.816 269.994C333.816 269.966 333.807 269.948 333.807 269.921C333.807 269.893 333.798 269.875 333.789 269.848C333.78 269.82 333.761 269.802 333.752 269.784C333.743 269.766 333.734 269.747 333.716 269.729C333.716 269.729 333.707 269.729 333.707 269.72C333.707 269.72 333.707 269.711 333.697 269.711L329.599 265.661C329.581 265.643 329.563 265.643 329.544 265.625C329.526 265.607 329.499 265.589 329.48 265.579C329.462 265.57 329.435 265.57 329.407 265.561C329.38 265.552 329.362 265.543 329.334 265.543C329.307 265.543 329.289 265.552 329.261 265.552C329.234 265.552 329.216 265.561 329.188 265.57C329.161 265.579 329.143 265.598 329.115 265.616C329.097 265.625 329.079 265.634 329.06 265.652L326.003 268.425L324.478 269.802L321.439 272.565L319.914 273.943L312.274 280.874C312.256 280.892 312.247 280.91 312.238 280.92C312.22 280.938 312.201 280.956 312.192 280.983C312.183 281.011 312.174 281.029 312.165 281.056C312.156 281.084 312.146 281.102 312.146 281.129C312.146 281.157 312.146 281.184 312.146 281.202C312.146 281.23 312.146 281.248 312.156 281.275C312.165 281.303 312.174 281.321 312.192 281.348C312.201 281.366 312.201 281.385 312.219 281.403L315.688 286.045L315.697 286.054C315.706 286.063 315.706 286.063 315.706 286.072C315.734 286.1 315.761 286.109 315.789 286.127C315.807 286.136 315.816 286.155 315.834 286.164C315.889 286.191 315.944 286.2 315.998 286.2C316.071 286.2 316.145 286.173 316.208 286.127C316.218 286.127 316.227 286.127 316.227 286.118C316.236 286.118 316.236 286.109 316.236 286.109C316.245 286.109 316.245 286.1 316.254 286.1L324.168 278.913L325.756 277.472L328.933 274.59L330.521 273.149L333.679 270.276C333.679 270.276 333.679 270.267 333.688 270.267C333.688 270.267 333.697 270.267 333.697 270.258C333.716 270.24 333.725 270.222 333.734 270.203C333.752 270.185 333.77 270.167 333.78 270.139C333.789 270.112 333.789 270.085 333.798 270.067ZM331.854 270.878L328.358 267.33L329.307 266.464L332.858 269.966L331.854 270.878ZM330.275 272.319L326.824 268.717L327.773 267.85L331.269 271.398L330.275 272.319ZM328.695 273.751L325.3 270.103L326.249 269.237L329.699 272.839L328.695 273.751ZM327.116 275.192L323.766 271.498L324.716 270.632L328.111 274.28L327.116 275.192ZM325.537 276.624L322.242 272.885L323.191 272.018L326.541 275.712L325.537 276.624ZM323.958 278.056L320.708 274.271L321.658 273.405L324.953 277.144L323.958 278.056ZM322.379 279.497L319.175 275.666L320.124 274.8L323.374 278.585L322.379 279.497ZM320.8 280.929L317.651 277.053L318.6 276.186L321.804 280.017L320.8 280.929ZM319.221 282.36L316.117 278.439L317.066 277.572L320.216 281.448L319.221 282.36ZM317.641 283.801L314.593 279.834L315.542 278.968L318.646 282.889L317.641 283.801ZM316.062 285.233L313.059 281.22L314.009 280.354L317.057 284.321L316.062 285.233Z" fill="#1D135B"/>
</g>
<mask id="mask2_125_1737" style="mask-type:luminance" maskUnits="userSpaceOnUse" x="170" y="128" width="359" height="215">
<path d="M528.03 149.27V322.042C528.03 330.196 523.238 337.246 516.301 340.502C513.663 341.751 510.724 342.444 507.629 342.444H190.59C179.335 342.444 170.171 333.288 170.171 322.042V149.27C170.171 138.025 179.335 128.868 190.59 128.868H507.62C518.884 128.868 528.03 138.016 528.03 149.27Z" fill="white"/>
</mask>
<g mask="url(#mask2_125_1737)">
<path d="M269.218 172.59L277.186 207.037H374.015L392.107 221.72L371.706 172.59H269.218Z" fill="#9BC1F9"/>
<path d="M363.162 184.264H295.26C294.292 184.264 293.517 183.48 293.517 182.522C293.517 181.555 294.302 180.78 295.26 180.78H363.162C364.13 180.78 364.906 181.564 364.906 182.522C364.906 183.489 364.13 184.264 363.162 184.264Z" fill="#466EB6"/>
<path d="M361.127 190.794H284.9C283.932 190.794 283.156 190.01 283.156 189.052C283.156 188.085 283.941 187.31 284.9 187.31H361.127C362.094 187.31 362.87 188.094 362.87 189.052C362.87 190.01 362.085 190.794 361.127 190.794Z" fill="#466EB6"/>
<path d="M359.21 196.923H282.983C282.015 196.923 281.239 196.138 281.239 195.181C281.239 194.214 282.024 193.439 282.983 193.439H359.21C360.177 193.439 360.953 194.223 360.953 195.181C360.953 196.138 360.168 196.923 359.21 196.923Z" fill="#466EB6"/>
</g>
<path d="M528.031 149.27V153.356H170.162V149.27C170.162 138.8 178.45 128.859 189.951 128.859H508.442C517.105 128.859 528.031 136.62 528.031 149.27Z" fill="#466EB6"/>
<path d="M190.955 145.895C193.526 145.895 195.61 143.813 195.61 141.244C195.61 138.675 193.526 136.593 190.955 136.593C188.384 136.593 186.3 138.675 186.3 141.244C186.3 143.813 188.384 145.895 190.955 145.895Z" fill="#171C51"/>
<path d="M219.626 141.244C219.626 143.807 217.545 145.895 214.971 145.895C212.406 145.895 210.315 143.816 210.315 141.244C210.315 138.672 212.397 136.593 214.971 136.593C217.545 136.593 219.626 138.681 219.626 141.244Z" fill="#171C51"/>
<path d="M237.781 145.895C240.352 145.895 242.436 143.813 242.436 141.244C242.436 138.675 240.352 136.593 237.781 136.593C235.21 136.593 233.126 138.675 233.126 141.244C233.126 143.813 235.21 145.895 237.781 145.895Z" fill="#171C51"/>
<path d="M159.774 397.986C159.774 397.986 157.693 404.771 159.856 413.098L167.104 412.496L187.696 410.928V410.918C187.696 410.918 187.076 407.635 187.076 403.786C187.076 400.248 187.696 396.645 187.696 396.645L167.405 397.603L159.774 397.986Z" fill="#FAE0B2"/>
<path d="M157.602 394.803C157.602 394.803 153.576 404.17 157.602 416.29L188.235 414.275C188.892 414.229 189.412 413.445 189.385 412.524C189.358 411.612 188.819 410.891 188.171 410.891C188.153 410.891 188.134 410.891 188.116 410.891L187.678 410.928L167.085 412.496L159.838 413.098C157.675 404.771 159.756 397.986 159.756 397.986L167.378 397.603L187.669 396.645L188.162 396.618C188.81 396.582 189.33 395.843 189.33 394.922C189.33 393.991 188.792 393.234 188.125 393.234C188.107 393.234 188.089 393.234 188.071 393.234L157.602 394.803Z" fill="#F79C8D"/>
<path d="M66.2412 391.876H69.1713L157.602 394.803L188.099 393.225L99.1017 391.465L66.2412 391.876Z" fill="#F47458"/>
<path d="M66.2407 391.876C66.2407 391.876 61.978 404.434 65.766 413.764H69.1616L157.602 416.299C153.576 404.179 157.602 394.812 157.602 394.812L69.1616 391.876H66.2407Z" fill="#F47458"/>
<path d="M159.309 402.291C162.494 402.437 165.671 402.336 168.847 402.172C172.015 401.981 175.182 401.734 178.34 401.233C175.155 401.087 171.978 401.187 168.802 401.351C165.625 401.534 162.458 401.789 159.309 402.291Z" fill="#E5BD83"/>
<path d="M175.575 407.38C177.355 407.535 179.108 407.444 180.851 407.298C182.595 407.124 184.338 406.878 186.054 406.395C184.274 406.231 182.522 406.331 180.778 406.477C179.035 406.65 177.291 406.887 175.575 407.38Z" fill="#E5BD83"/>
<path d="M173.229 410.025C174.543 407.982 174.297 403.34 172.782 401.452C170.107 401.589 167.423 401.734 164.749 401.871C166.273 403.759 166.52 408.401 165.196 410.444C166.848 409.806 168.446 409.003 169.934 408.1C171.129 408.866 172.207 409.532 173.229 410.025Z" fill="#F8C558"/>
<path d="M150.136 416.053C146.348 406.723 150.601 394.557 150.601 394.557H142.331C142.331 394.557 138.078 406.723 141.866 416.053H150.136Z" fill="#F8C558"/>
<path d="M80.6718 414.165C76.8837 404.835 81.1373 392.669 81.1373 392.669H72.8674C72.8674 392.669 68.6138 404.835 72.4019 414.165H80.6718Z" fill="#F8C558"/>
<path d="M102.323 376.317C102.323 376.317 105.244 383.102 102.214 391.429L90.7032 390.799L61.8408 389.231V389.222C61.8408 389.222 62.7171 385.938 62.7171 382.09C62.7171 378.551 61.8408 374.948 61.8408 374.948V374.939L90.2925 375.906L102.323 376.317Z" fill="#FAE0B2"/>
<path d="M61.2387 389.194L61.8411 389.231L90.7036 390.799L102.214 391.429C105.244 383.102 102.323 376.317 102.323 376.317L90.2928 375.906L61.8411 374.939L61.1566 374.921C60.2438 374.885 59.5227 374.146 59.5227 373.225C59.5227 372.295 60.2803 371.538 61.2022 371.538C61.2296 371.538 61.2478 371.538 61.2752 371.538L104.012 373.115C104.012 373.115 109.653 382.482 104.012 394.602L61.0744 392.587C60.1525 392.541 59.4314 391.757 59.4588 390.836C59.4953 389.924 60.2529 389.203 61.1657 389.203C61.1931 389.194 61.2113 389.194 61.2387 389.194Z" fill="#50BFA5"/>
<path d="M61.2842 371.528L178.386 370.06L177.738 370.078L104.012 373.115L61.2842 371.528Z" fill="#3C8F7C"/>
<path d="M105.445 373.051L177.738 370.078C181.343 369.932 184.346 372.805 184.365 376.417L184.41 385.418C184.429 388.857 181.718 391.693 178.276 391.821L104.012 394.602C109.653 382.482 104.012 373.115 104.012 373.115L105.445 373.051Z" fill="#3C8F7C"/>
<path d="M102.113 382.126C99.8858 382.281 97.6586 382.308 95.4314 382.281C93.2133 382.263 90.9952 382.172 88.7771 382.062C86.5591 381.925 84.3501 381.779 82.1412 381.542C79.9322 381.323 77.7233 381.05 75.5234 380.649C77.7506 380.494 79.9778 380.466 82.2051 380.494C84.4231 380.512 86.6412 380.603 88.8593 380.712C91.0774 380.849 93.2863 381.004 95.4953 381.232C97.7042 381.451 99.9132 381.725 102.113 382.126Z" fill="#E5BD83"/>
<path d="M78.527 385.683C76.0533 385.838 73.607 385.747 71.1516 385.601C68.7054 385.428 66.2591 385.181 63.8311 384.689C66.3047 384.525 68.751 384.616 71.2064 384.771C73.6618 384.953 76.1081 385.19 78.527 385.683Z" fill="#E5BD83"/>
<path d="M82.488 395.405C80.2334 392.085 80.4616 384.215 82.9079 381.032C87.3349 381.159 91.6068 381.707 96.0338 381.834C93.5875 385.017 93.5236 392.477 95.7782 395.788C93.0216 394.803 90.3471 393.535 87.8552 392.104C85.9201 393.399 84.1584 394.548 82.488 395.405Z" fill="#F47458"/>
<path d="M145.106 351.245L143.016 351.437C148.228 351.811 152.144 356.316 151.769 361.524L151.568 364.406C151.258 368.747 148.054 372.194 143.965 372.988L177.601 370.288C183.206 369.741 187.295 364.743 186.72 359.143L186.556 357.593C185.99 352.075 181.088 348.035 175.557 348.527H175.547L145.106 351.245Z" fill="#355389"/>
<path d="M64.1055 349.64L143.016 351.437L145.106 351.245L175.548 348.536H175.557L175.922 348.509L64.1055 349.64Z" fill="#355389"/>
<path d="M66.378 352.823L142.842 354.82C144.568 354.966 146.129 355.814 147.187 357.219C148.1 358.441 148.484 359.973 148.365 361.505L148.173 364.168C147.954 367.269 145.344 369.741 142.24 369.796C142.067 369.796 141.884 369.786 141.701 369.777L141.619 369.768L66.2685 368.063L64.3973 368.017C63.5119 367.999 62.7908 368.719 62.809 369.604V369.878C62.8182 370.708 63.4936 371.383 64.3243 371.41L141.455 373.161C142.313 373.225 143.153 373.17 143.956 373.006C148.036 372.212 151.249 368.765 151.56 364.424L151.76 361.542C152.135 356.334 148.21 351.829 143.007 351.455L64.1052 349.658C63.2198 349.64 62.4987 350.351 62.5169 351.245C62.5261 352.075 63.1924 352.75 64.023 352.777L66.378 352.823Z" fill="#466EB6"/>
<path d="M66.2686 368.054L141.619 369.759L141.702 369.768C141.875 369.777 142.058 369.786 142.24 369.786C145.344 369.741 147.954 367.26 148.173 364.159L148.365 361.496C148.474 359.973 148.1 358.432 147.187 357.21C146.129 355.814 144.568 354.957 142.843 354.811L66.3781 352.814C66.4055 352.951 67.373 357.492 67.4187 360.411C67.4643 363.329 66.2686 368.054 66.2686 368.054Z" fill="#FAE0B2"/>
<path d="M141.747 359.234C139.538 358.87 137.329 358.632 135.111 358.441C132.902 358.249 130.684 358.131 128.466 358.031C126.248 357.958 124.03 357.894 121.802 357.912C119.584 357.921 117.357 357.985 115.13 358.176C117.339 358.55 119.548 358.778 121.766 358.97C123.975 359.161 126.193 359.28 128.411 359.38C130.629 359.453 132.847 359.517 135.074 359.49C137.292 359.49 139.511 359.426 141.747 359.234Z" fill="#E5BD83"/>
<path d="M123.501 365.427C121.292 365.062 119.083 364.825 116.865 364.634C114.656 364.442 112.438 364.323 110.22 364.223C108.002 364.15 105.783 364.086 103.556 364.105C101.338 364.114 99.111 364.178 96.8838 364.369C99.0927 364.734 101.302 364.971 103.52 365.163C105.729 365.354 107.947 365.473 110.165 365.573C112.383 365.646 114.601 365.71 116.828 365.682C119.046 365.682 121.274 365.628 123.501 365.427Z" fill="#E5BD83"/>
<path d="M120.498 376.937C117.431 372.842 117.239 362.691 120.169 358.496C125.819 358.404 130.849 359.006 136.499 358.915C133.569 363.11 134.39 372.568 137.457 376.663C133.888 375.569 130.41 374.1 127.152 372.413C124.751 374.192 122.579 375.742 120.498 376.937Z" fill="#50BFA5"/>
<path d="M103.967 361.469C100.927 361.104 97.8876 360.867 94.848 360.685C91.8084 360.493 88.7597 360.374 85.7201 360.274C82.6713 360.201 79.6317 360.137 76.583 360.165C73.5343 360.174 70.4856 360.238 67.4277 360.429C70.4673 360.794 73.5069 361.031 76.5465 361.223C79.5861 361.414 82.6348 361.533 85.6744 361.633C88.7231 361.706 91.7627 361.77 94.8114 361.743C97.8602 361.715 100.909 361.66 103.967 361.469Z" fill="#E5BD83"/>
<path d="M173.165 284.942H74.1182C74.1182 284.942 75.8433 292.101 75.8433 299.889C75.8433 307.45 74.1182 314.837 74.1182 314.837H173.165C176.679 314.837 179.527 311.992 179.527 308.481V291.307C179.518 287.787 176.67 284.942 173.165 284.942Z" fill="#FAE0B2"/>
<path d="M72.7855 280.874C71.6628 280.874 70.75 281.786 70.75 282.908C70.75 283.473 70.9782 283.975 71.3433 284.349C71.7084 284.723 72.2196 284.942 72.7855 284.942H74.1182H173.165C176.679 284.942 179.527 287.787 179.527 291.307V308.481C179.527 311.992 176.679 314.837 173.165 314.837H74.1182H72.7855C71.6628 314.837 70.75 315.749 70.75 316.871C70.75 317.437 70.9782 317.938 71.3433 318.312C71.7084 318.677 72.2196 318.905 72.7855 318.905H173.165C178.934 318.905 183.598 314.235 183.598 308.481V291.298C183.598 285.543 178.934 280.874 173.165 280.874H72.7855Z" fill="#184655"/>
<path d="M166.63 290.724C160.76 290.459 154.9 290.286 149.031 290.195C143.162 290.085 137.302 290.058 131.433 290.049C125.563 290.058 119.703 290.085 113.834 290.195C107.965 290.286 102.105 290.459 96.2354 290.724C102.105 290.988 107.965 291.161 113.834 291.253C119.703 291.362 125.563 291.389 131.433 291.399C137.302 291.389 143.162 291.353 149.031 291.253C154.9 291.161 160.76 290.988 166.63 290.724Z" fill="#E5BD83"/>
<path d="M170.299 299.889C168.081 299.607 165.863 299.461 163.654 299.36C161.436 299.251 159.218 299.224 157.009 299.205C154.791 299.215 152.573 299.242 150.364 299.351C148.146 299.452 145.928 299.598 143.719 299.88C145.937 300.163 148.155 300.309 150.364 300.409C152.582 300.519 154.8 300.546 157.009 300.555C159.227 300.546 161.445 300.51 163.654 300.409C165.863 300.318 168.081 300.172 170.299 299.889Z" fill="#E5BD83"/>
<path d="M153.33 309.283C151.112 309.001 148.894 308.855 146.685 308.754C144.467 308.645 142.249 308.617 140.04 308.608C137.822 308.617 135.604 308.645 133.395 308.754C131.177 308.855 128.959 309.001 126.75 309.283C128.968 309.566 131.186 309.712 133.395 309.812C135.613 309.922 137.831 309.949 140.04 309.958C142.258 309.949 144.476 309.913 146.685 309.812C148.903 309.712 151.112 309.566 153.33 309.283Z" fill="#E5BD83"/>
<path d="M139.337 303.784C134.216 303.519 129.095 303.346 123.974 303.255C118.854 303.145 113.733 303.118 108.612 303.109C103.491 303.118 98.3707 303.145 93.25 303.255C88.1292 303.346 83.0084 303.519 77.8877 303.784C83.0084 304.048 88.1292 304.222 93.25 304.313C98.3707 304.422 103.491 304.45 108.612 304.459C113.733 304.45 118.854 304.413 123.974 304.313C129.095 304.222 134.216 304.048 139.337 303.784Z" fill="#E5BD83"/>
<path d="M149.661 317.984C152.664 312.32 152.664 305.544 149.661 299.889C155.311 299.889 160.971 299.889 166.63 299.889C169.633 305.553 169.633 312.329 166.63 317.984C164.622 316.443 162.385 314.819 159.93 313.159C156.726 314.819 153.303 316.443 149.661 317.984Z" fill="#355389"/>
<path d="M96.3259 318.923H90.0186V348.828H96.3259V318.923Z" fill="#FE875E"/>
<path d="M90.0186 318.923H79.5215V348.828H90.0186V318.923Z" fill="#F7CC7F"/>
<path d="M169.176 318.923H96.3262V348.828H169.176V318.923Z" fill="#F7CC7F"/>
<path d="M175.483 318.923H169.176V348.828H175.483V318.923Z" fill="#FE875E"/>
<path d="M185.971 318.923H175.474V348.828H185.971V318.923Z" fill="#F7CC7F"/>
<path d="M186.044 327.496C186.044 327.496 194.104 331.381 195.391 341.87L191.941 338.997L190.717 341.87C190.717 341.87 189.923 332.959 186.044 329.512V327.496Z" fill="#355389"/>
<path d="M103.976 333.871C103.976 337.601 116.773 340.629 132.555 340.629C148.337 340.629 161.135 337.601 161.135 333.871C161.135 330.141 148.337 327.113 132.555 327.113C116.773 327.113 103.976 330.141 103.976 333.871Z" fill="#FE875E"/>
<path d="M157.547 173.821C162.357 175.746 164.931 183.79 165.287 194.096C165.634 204.401 171.503 217.945 165.068 221.429C158.633 224.922 147.835 216.568 139.501 223.9C131.167 231.233 119.027 231.908 119.027 231.908C119.027 231.908 111.451 225.907 114.436 208.761C117.411 191.615 128.757 197.598 133.832 190.493C138.889 183.379 141.29 167.319 157.547 173.821Z" fill="#13375B"/>
<path d="M154.809 206.864C154.809 206.864 137.986 203.334 138.524 208.834C138.753 211.178 146.028 221.693 146.201 222.569C146.31 223.207 146.457 223.855 146.593 224.502C146.73 225.15 146.867 225.788 147.041 226.445C147.205 227.101 147.351 227.74 147.534 228.396L148.109 230.366C148.2 230.695 148.309 231.023 148.428 231.36L148.766 232.364L149.113 233.358L149.514 234.379L149.925 235.401C149.998 235.574 150.062 235.738 150.135 235.911L150.382 236.44L150.884 237.489L151.139 238.009L151.267 238.274L151.477 238.666C151.787 239.204 152.088 239.751 152.435 240.262C152.8 240.763 153.175 241.247 153.558 241.721C153.96 242.159 154.38 242.587 154.799 242.998C155.228 243.381 155.667 243.737 156.114 244.083C157.903 245.396 159.701 246.245 161.408 246.819C161.828 246.947 162.266 247.111 162.677 247.202L163.909 247.512C164.712 247.677 165.516 247.813 166.282 247.905C167.825 248.096 169.313 248.169 170.737 248.142C173.603 248.105 173.959 234.762 172.051 234.279C171.093 234.042 170.207 233.75 169.404 233.449C169.212 233.367 169.002 233.303 168.829 233.212C168.646 233.121 168.473 233.039 168.29 232.966L167.816 232.71C167.652 232.628 167.542 232.528 167.405 232.446C166.903 232.099 166.638 230.904 166.638 230.904L166.465 230.293L166.374 229.992C166.346 229.883 166.328 229.764 166.301 229.655L166.155 228.971L165.99 228.296L165.853 227.567C165.771 227.074 165.662 226.609 165.589 226.089C165.415 225.077 165.068 221.575 164.63 216.932C164.165 211.935 160.541 208.104 154.809 206.864Z" fill="#F47458"/>
<path d="M122.952 246.81C122.66 243.062 120.342 235.766 120.15 229.974C119.748 217.908 120.05 206.28 139.428 206.171C139.456 206.161 139.483 206.161 139.501 206.152C140.788 205.933 141.728 205.842 142.176 205.797C142.367 205.778 142.468 205.778 142.468 205.778C151.523 205.523 158.013 206.462 158.798 213.038C159.272 217.051 162.586 218.802 163.188 223.116C163.973 228.725 162.385 229.664 160.943 234.343C159.802 238.046 169.824 263.062 169.824 263.062L121.684 263.983C121.684 263.983 123.637 255.739 122.952 246.81Z" fill="#F8C558"/>
<path d="M142.175 205.806C141.728 205.842 140.779 205.943 139.501 206.161C140.368 205.988 141.263 205.87 142.175 205.806Z" fill="#587CF8"/>
<path d="M139.912 195.29L152.399 197.433L150.747 202.158L150.738 202.176L150.281 203.48L149.843 204.73L149.752 204.985L148.246 205.158L149.241 206.125C149.241 206.125 148.757 208.077 144.823 208.077C140.889 208.077 139.492 206.152 139.492 206.152L139.912 195.29Z" fill="#FAE0B2"/>
<path d="M139.51 191.469C139.236 197.333 142.459 202.167 148.091 203.845C152.399 205.131 155.731 203.325 160.76 192.463C163.225 187.137 156.506 181.628 150.637 181.355C144.768 181.081 139.784 185.605 139.51 191.469Z" fill="#FAE0B2"/>
<path d="M148.811 206.818C148.811 206.818 149.085 206.59 149.24 206.125C149.404 205.623 150.126 204.192 150.126 204.192C150.126 204.192 143.38 203.398 141.81 198.893C141.81 198.902 140.614 204.447 148.811 206.818Z" fill="#FE875E"/>
<path d="M130.309 208.25C116.087 208.077 120.542 241.986 131.012 246.491C143.909 252.045 151.695 250.157 151.695 250.157L151.796 242.396C151.723 242.359 136.507 239.961 136.141 235.155C135.338 224.612 143.152 209.153 130.309 208.25Z" fill="#F47458"/>
<path d="M167.314 253.331L148.446 253.322C148.839 253.322 149.204 253.459 149.469 253.678C149.733 253.896 149.888 254.197 149.888 254.535C149.888 255.201 149.24 255.748 148.446 255.748L187.249 255.775C188.043 255.775 188.691 255.228 188.691 254.562C188.691 254.225 188.527 253.924 188.271 253.705C188.007 253.486 187.651 253.349 187.249 253.349L167.314 253.331Z" fill="#D1D1D1"/>
<path d="M127.288 253.304C126.622 253.304 126.074 253.842 126.074 254.517C126.074 254.854 126.211 255.155 126.43 255.374C126.649 255.593 126.96 255.73 127.288 255.73L148.684 255.748C149.35 255.748 149.898 255.201 149.898 254.535C149.898 254.197 149.761 253.896 149.542 253.678C149.323 253.459 149.013 253.322 148.684 253.322L127.736 253.304H127.288Z" fill="#9E9E9E"/>
<path d="M147.406 252.683C147.734 253.085 148.218 253.313 148.729 253.322H150.263C149.743 253.322 149.259 253.085 148.939 252.683C148.611 252.282 148.483 251.762 148.592 251.252L153.677 227.047C153.841 226.262 154.553 225.688 155.356 225.688H153.823C153.019 225.688 152.307 226.262 152.143 227.047L147.059 251.252C146.959 251.762 147.086 252.273 147.406 252.683Z" fill="#D1D1D1"/>
<path d="M148.939 252.683C149.268 253.085 149.751 253.313 150.262 253.322L187.084 253.349C187.888 253.349 188.6 252.775 188.764 251.99L193.848 227.785C193.949 227.275 193.83 226.764 193.501 226.354C193.182 225.952 192.689 225.724 192.178 225.715L155.356 225.688C154.553 225.688 153.841 226.262 153.676 227.047L148.592 251.252C148.483 251.762 148.61 252.273 148.939 252.683Z" fill="#F4F4F4"/>
<path d="M169.23 239.514C169.23 240.617 170.125 241.511 171.229 241.511C172.334 241.511 173.228 240.617 173.228 239.514C173.228 238.41 172.334 237.517 171.229 237.517C170.125 237.517 169.23 238.41 169.23 239.514Z" fill="white"/>
<path d="M139.337 188.97C139.337 188.97 152.591 193.375 159.692 186.27C159.692 186.27 155.174 191.396 152.043 190.849C152.043 190.849 156.479 192.226 159.692 187.182C159.692 187.182 160.587 191.815 162.887 192.764C162.887 192.764 164.995 179.85 153.859 178.245C142.732 176.658 139.875 183.881 139.337 188.97Z" fill="#13375B"/>
<path d="M216.696 297.053C216.696 297.053 219.964 300.583 221.251 299.871L207.878 308.663L205.03 304.723L216.696 297.053Z" fill="#FAE0B2"/>
<path d="M225.987 298.23L222.227 299.534C221.442 299.807 220.575 299.771 219.817 299.424L218.028 298.348L214.295 304.367L206.253 306.447L207.047 307.541L211.273 306.356L207.777 308.654C207.193 309.037 207.029 309.821 207.412 310.405L208.471 312.01C208.882 312.63 209.712 312.804 210.333 312.393L214.331 309.767V307.642L217.197 307.879L229.766 299.616C230.013 299.452 230.031 299.096 229.803 298.914C228.753 298.029 227.302 297.774 225.987 298.23Z" fill="#13375B"/>
<path d="M189.969 318.905C189.969 318.905 190.763 323.648 192.224 323.757H176.213L175.994 318.905H189.969Z" fill="#FAE0B2"/>
<path d="M197.098 324.988L193.246 324.012C192.433 323.812 191.739 323.301 191.292 322.599L190.388 320.711L183.962 323.693L176.103 321.021L176.167 322.371L180.357 323.702H176.167C175.464 323.702 174.898 324.268 174.898 324.97V326.894C174.898 327.633 175.501 328.244 176.249 328.244H181.032L182.201 326.466L184.464 328.244H199.516C199.808 328.244 200.028 327.952 199.936 327.679C199.516 326.338 198.439 325.326 197.098 324.988Z" fill="#13375B"/>
<path d="M183.278 282.224L191.074 318.905H175.255L162.439 280.144C162.439 280.144 167.031 278.047 173.521 275.302C180.002 272.556 181.635 278.156 183.278 282.224Z" fill="#355389"/>
<path d="M122.003 272.392C123.892 283.3 129.341 285.972 143.754 284.303C161.819 282.215 171.85 275.94 171.85 275.94L203.223 304.86L216.641 295.366C216.641 295.366 208.535 285.06 197.938 272.337C186.729 258.867 184.328 251.352 163.179 256.414C150.126 259.542 140.094 259.715 130.638 261.867C125.188 263.108 121.692 263.974 121.692 263.974C121.428 266.774 121.528 269.629 122.003 272.392Z" fill="#466EB6"/>
<path d="M122.003 272.392C133.194 273.104 130.629 261.877 130.629 261.877C125.18 263.117 121.684 263.983 121.684 263.983C121.428 266.774 121.528 269.629 122.003 272.392Z" fill="#11442F"/>
<path d="M215.582 293.898L201.689 303.884C201.032 304.358 200.886 305.279 201.352 305.927C201.826 306.584 202.748 306.73 203.396 306.264L217.289 296.278C217.946 295.804 218.092 294.882 217.627 294.235C217.161 293.578 216.239 293.432 215.582 293.898Z" fill="#11442F"/>
<path d="M191.466 315.968H174.342C173.538 315.968 172.872 316.625 172.872 317.437C172.872 318.239 173.529 318.905 174.342 318.905H191.456C192.26 318.905 192.926 318.248 192.926 317.437C192.926 316.625 192.269 315.968 191.466 315.968Z" fill="#11442F"/>
</g>
<defs>
<clipPath id="clip0_125_1737">
<rect width="628" height="425" fill="white"/>
</clipPath>
</defs>
</svg>
