<svg width="118" height="117" viewBox="0 0 118 117" fill="none" xmlns="http://www.w3.org/2000/svg">
<path d="M10.0474 72.1219C5.22013 79.3919 3.85094 85.9985 4.21054 91.4616C4.86024 101.332 15.6021 105.422 25.502 105.422H91.6762C97.2418 105.422 102.136 101.216 104.242 96.0687C108.924 84.628 117.226 70.0456 111.828 56.0882C104.808 37.9404 94.4549 41.2881 81.2936 25.6069C68.1322 9.92577 52.1633 9.5734 32.6848 22.2592C13.2062 34.9451 23.3841 52.0357 10.0474 72.1219Z" fill="#E7E8FF"/>
<path d="M84.612 78.0378C84.1729 88.445 90.6563 99.8388 94.3363 104.752C94.5286 105.009 94.83 105.154 95.1506 105.154H97.8865C98.5073 105.154 98.9878 104.602 98.9063 103.987C96.4684 85.6284 89.7125 78.7691 85.7559 77.2282C85.1943 77.0094 84.6374 77.4357 84.612 78.0378Z" fill="white"/>
<path fill-rule="evenodd" clip-rule="evenodd" d="M85.6314 77.5499C85.3264 77.431 84.9746 77.6467 84.9575 78.0523C84.741 83.1847 86.2324 88.5811 88.2479 93.32C90.2623 98.0561 92.7887 102.109 94.6135 104.545C94.7379 104.711 94.9356 104.809 95.1513 104.809H97.8872C98.2978 104.809 98.6192 104.442 98.5646 104.032C96.1333 85.7216 89.4128 79.0226 85.6314 77.5499ZM84.2676 78.023C84.3015 77.2243 85.064 76.5878 85.8822 76.9064C90.0134 78.5156 96.8053 85.5352 99.249 103.941C99.3582 104.762 98.7179 105.499 97.8872 105.499H95.1513C94.7258 105.499 94.3206 105.305 94.0609 104.959C92.2056 102.482 89.6503 98.3814 87.6126 93.5903C85.576 88.8022 84.0453 83.2982 84.2676 78.023Z" fill="#032068"/>
<path d="M105.327 71.8318C96.8111 79.4438 95.1056 97.2832 95.1301 104.288C95.1325 104.846 95.5907 105.28 96.1496 105.28H98.683C99.0664 105.28 99.4225 105.061 99.5999 104.721C108.123 88.381 107.247 78.2348 106.938 72.5778C106.892 71.7467 105.948 71.2772 105.327 71.8318Z" fill="#032068"/>
<path d="M112.051 87.7574C105.337 90.9659 100.046 98.8966 97.6011 103.714C97.2614 104.384 97.7586 105.154 98.5094 105.154H101.521C101.72 105.154 101.918 105.096 102.084 104.985C109.4 100.131 112.431 92.9175 113.3 88.734C113.454 87.9934 112.734 87.431 112.051 87.7574Z" fill="white"/>
<path fill-rule="evenodd" clip-rule="evenodd" d="M112.962 88.6638C113.057 88.204 112.626 87.865 112.2 88.0686C108.905 89.6431 105.942 92.3863 103.491 95.3523C101.042 98.3155 99.1215 101.48 97.9086 103.87C97.6917 104.298 98.0022 104.809 98.5092 104.809H101.52C101.654 104.809 101.784 104.77 101.893 104.698C109.114 99.9063 112.106 92.7837 112.962 88.6638ZM111.902 87.4458C112.841 86.9969 113.85 87.7824 113.638 88.8046C112.755 93.0513 109.685 100.356 102.275 105.273C102.051 105.422 101.787 105.499 101.52 105.499H98.5092C97.5151 105.499 96.8306 104.469 97.2932 103.558C98.5248 101.131 100.472 97.9212 102.959 94.9123C105.443 91.9066 108.482 89.0803 111.902 87.4458Z" fill="#032068"/>
<path fill-rule="evenodd" clip-rule="evenodd" d="M88.2417 81.2557C89.6539 83.1726 90.9842 85.7969 92.1772 88.6365C92.9853 90.56 93.7333 92.5891 94.4033 94.577L95.0698 92.4479L95.7289 92.6543L94.7754 95.6998C95.3877 97.5819 95.9259 99.4016 96.374 101.03C96.7881 102.533 97.1259 103.874 97.3739 104.95L96.7012 105.106C96.4641 104.077 96.1439 102.801 95.7515 101.37L93.3678 100.302L93.6502 99.6719L95.5113 100.505C95.0991 99.0432 94.6198 97.4489 94.0847 95.809C93.3542 93.5715 92.5204 91.2518 91.6097 89.0682L88.3926 88.351L88.5428 87.6771L91.2778 88.287C90.164 85.7107 88.9503 83.3812 87.6855 81.6652L88.2417 81.2557Z" fill="#032068"/>
<path fill-rule="evenodd" clip-rule="evenodd" d="M102.645 83.6144C103.144 81.8243 103.619 80.2043 104.046 78.867C104.543 77.314 104.967 76.1674 105.282 75.573L104.673 75.2493C104.324 75.9057 103.883 77.1088 103.389 78.6568C102.891 80.2136 102.332 82.1441 101.746 84.2728C101.337 85.7579 100.916 87.3405 100.495 88.9613L99.4979 86.6186L98.8626 86.8889L100.211 90.058C99.7022 92.0361 99.1968 94.0508 98.7175 95.9973C97.8872 99.3673 97.1348 102.533 96.5752 104.95L97.2479 105.106C97.7986 102.728 98.5365 99.6228 99.3512 96.3117L102.746 94.4939L102.42 93.8851L99.5739 95.4092C100.006 93.6636 100.456 91.8746 100.909 90.1165C101.402 88.2051 101.897 86.3304 102.376 84.5879L105.158 82.8894L104.798 82.3001L102.645 83.6144Z" fill="white"/>
<path fill-rule="evenodd" clip-rule="evenodd" d="M108.057 93.4479C108.896 92.5759 109.716 91.8021 110.487 91.1816L110.054 90.6438C109.04 91.4605 107.957 92.5217 106.869 93.7037C106.164 94.4697 105.456 95.2883 104.761 96.128L104.94 94.9997L104.259 94.8917L103.893 97.1958C102.977 98.3405 102.098 99.4992 101.296 100.594C100.044 102.303 98.9799 103.859 98.2607 104.966L98.8395 105.342C99.5314 104.277 100.55 102.787 101.75 101.143H104.22V100.453H102.258C102.959 99.5073 103.712 98.5257 104.489 97.5562C105.405 96.4135 106.354 95.2887 107.295 94.2607L109.692 93.9007L109.589 93.2178L108.057 93.4479Z" fill="#032068"/>
<path d="M49.0088 17.2766C49.0088 14.2761 51.4428 11.8436 54.4454 11.8436H95.06C98.0626 11.8436 100.497 14.2761 100.497 17.2766V99.6696C100.497 102.67 98.0626 105.103 95.06 105.103H54.4454C51.4428 105.103 49.0088 102.67 49.0088 99.6696V17.2766Z" fill="white"/>
<path fill-rule="evenodd" clip-rule="evenodd" d="M48.6885 17.2766C48.6885 14.0996 51.2656 11.5241 54.4449 11.5241H95.0595C98.2388 11.5241 100.816 14.0996 100.816 17.2766V99.6696C100.816 102.847 98.2388 105.422 95.0595 105.422H54.4449C51.2656 105.422 48.6885 102.847 48.6885 99.6696V17.2766ZM54.4449 12.1632C51.6189 12.1632 49.3281 14.4526 49.3281 17.2766V99.6696C49.3281 102.494 51.6189 104.783 54.4449 104.783H95.0595C97.8854 104.783 100.176 102.494 100.176 99.6696V17.2766C100.176 14.4526 97.8854 12.1632 95.0595 12.1632H54.4449Z" fill="#032068"/>
<path d="M64.208 89.3845C64.208 88.5019 64.924 87.7867 65.807 87.7867H84.1717C85.0551 87.7867 85.7707 88.5019 85.7707 89.3845V90.7811C85.7707 91.6637 85.0551 92.3789 84.1717 92.3789H65.807C64.924 92.3789 64.208 91.6637 64.208 90.7811V89.3845Z" fill="#E7E8FF"/>
<path d="M64.1557 14.2986L62.8457 11.8436H86.6587L85.0667 14.4951C84.2575 15.8427 82.8001 16.6673 81.2276 16.6673H68.1064C66.4528 16.6673 64.9338 15.7566 64.1557 14.2986Z" fill="#032068"/>
<path d="M99.2093 13.7731H50.2959C51.969 12.1008 53.5676 11.79 54.1573 11.8436H95.3475C97.4071 11.8436 98.7799 13.1299 99.2093 13.7731Z" fill="#032068"/>
<path d="M99.2093 103.173H50.2959C51.969 104.845 53.5676 105.156 54.1573 105.103H95.3475C97.4071 105.103 98.7799 103.816 99.2093 103.173Z" fill="#032068"/>
<path fill-rule="evenodd" clip-rule="evenodd" d="M80.6457 36.8851H58.1992V36.2459H80.6457V36.8851Z" fill="#E7E8FF"/>
<path fill-rule="evenodd" clip-rule="evenodd" d="M91.4268 31.2331H58.1992V30.5939H91.4268V31.2331Z" fill="#E7E8FF"/>
<path d="M69.5107 77.7274C69.5107 76.8448 70.2268 76.1296 71.1097 76.1296H72.5071C73.3901 76.1296 74.1061 76.8448 74.1061 77.7274V79.1236C74.1061 80.0062 73.3901 80.7218 72.5071 80.7218H71.1097C70.2268 80.7218 69.5107 80.0062 69.5107 79.124V77.7274Z" fill="#032068"/>
<path fill-rule="evenodd" clip-rule="evenodd" d="M77.6748 77.7274C77.6748 76.6685 78.534 75.8098 79.5936 75.8098H80.991C82.0506 75.8098 82.9098 76.6685 82.9098 77.7274V79.1236C82.9098 80.1828 82.0506 81.0412 80.991 81.0412H79.5936C78.534 81.0412 77.6748 80.1828 77.6748 79.1236V77.7274ZM79.5936 76.449C78.8869 76.449 78.3144 77.0215 78.3144 77.7274V79.1236C78.3144 79.8299 78.8869 80.402 79.5936 80.402H80.991C81.6973 80.402 82.2702 79.8299 82.2702 79.1236V77.7274C82.2702 77.0215 81.6973 76.449 80.991 76.449H79.5936Z" fill="#E7E8FF"/>
<path d="M85.4182 68.0008V45.2283C85.4182 44.3457 84.7021 43.6305 83.8192 43.6305H68.4801C68.0562 43.6305 67.6494 43.799 67.3495 44.0985L64.3239 47.1221C64.0239 47.4217 63.8555 47.8284 63.8555 48.252V68.0008C63.8555 68.8834 64.5715 69.599 65.4545 69.599H83.8192C84.7021 69.599 85.4182 68.8834 85.4182 68.0008Z" fill="white"/>
<path fill-rule="evenodd" clip-rule="evenodd" d="M67.1228 43.8727C67.4827 43.5131 67.9706 43.3111 68.4796 43.3111H83.8187C84.8783 43.3111 85.7375 44.1695 85.7375 45.2283V68.0008C85.7375 69.06 84.8783 69.9184 83.8187 69.9184H65.454C64.3943 69.9184 63.5352 69.06 63.5352 68.0008V48.252C63.5352 47.7434 63.7372 47.2559 64.0971 46.8963L67.1228 43.8727ZM68.4796 43.9503C68.1403 43.9503 67.815 44.0848 67.5752 44.3247L64.5495 47.3483C64.3093 47.5878 64.1748 47.9131 64.1748 48.252V68.0008C64.1748 68.7071 64.7473 69.2792 65.454 69.2792H83.8187C84.525 69.2792 85.0979 68.7071 85.0979 68.0008V45.2283C85.0979 44.5224 84.525 43.9503 83.8187 43.9503H68.4796Z" fill="#032068"/>
<path d="M63.9473 47.5901L67.9097 43.6305V46.6315C67.9097 47.1611 67.4803 47.5901 66.9503 47.5901H63.9473Z" fill="#032068"/>
<path fill-rule="evenodd" clip-rule="evenodd" d="M73.1617 49.0148H68.3701V48.3756H73.1617V49.0148ZM80.5334 53.4351H68.3701V52.7959H80.5334V53.4351ZM80.5334 57.2107H68.3701V56.5714H80.5334V57.2107ZM80.5334 61.0783H68.3701V60.4391H80.5334V61.0783ZM78.3221 64.6694H68.3701V64.0302H78.3221V64.6694Z" fill="#032068"/>
<path d="M52.2526 93.9405L53.5724 105.422H17.6016L18.7566 93.9405H52.2526Z" fill="#032068"/>
<path d="M31.7923 43.944L31.2973 48.2344L31.4623 51.5342L37.5675 52.1945L40.2074 48.8943L39.7125 43.944C40.7187 43.3692 41.4741 41.7928 41.6524 39.3241C41.9959 39.2141 42.6827 38.697 42.6827 37.5089C42.6827 36.3209 41.93 35.9139 41.5537 35.8589C41.0178 31.8536 38.9401 30.4138 35.4224 30.4138C32.0498 30.4138 30.2214 32.6195 29.6664 35.8589C29.275 35.8039 28.4922 36.0569 28.4922 37.5089C28.4922 38.961 29.1954 39.3241 29.547 39.3241C29.8696 42.1216 31.3053 43.5544 31.7923 43.944Z" fill="white"/>
<path fill-rule="evenodd" clip-rule="evenodd" d="M31.7325 32.1646C30.8493 33.0556 30.2759 34.3432 30.0062 35.9172L29.9497 36.2474L29.618 36.2008C29.5157 36.1864 29.3325 36.2109 29.1727 36.3663C29.0158 36.5189 28.8369 36.8424 28.8369 37.5089C28.8369 38.1812 28.9995 38.5504 29.1559 38.7442C29.3137 38.9397 29.4807 38.9788 29.5466 38.9788H29.8543L29.8895 39.2843C30.1994 41.9722 31.5749 43.3286 32.0074 43.6745L32.1566 43.7939L31.643 48.2453L31.7919 51.223L37.4157 51.8306L39.8497 48.7886L39.3462 43.7557L39.5408 43.6445C39.9585 43.4058 40.3575 42.9386 40.6757 42.2066C40.9932 41.4769 41.2205 40.5062 41.3075 39.2991L41.3243 39.0663L41.5466 38.9952C41.7494 38.9303 42.3367 38.5445 42.3367 37.5089C42.3367 36.5091 41.7271 36.2332 41.5033 36.2005L41.2455 36.1628L41.2108 35.9047C40.9499 33.9517 40.3208 32.6847 39.3839 31.8988C38.4446 31.111 37.1389 30.759 35.4219 30.759C33.8175 30.759 32.6089 31.2806 31.7325 32.1646ZM31.2422 31.6785C32.262 30.6498 33.6538 30.0685 35.4219 30.0685C37.2226 30.0685 38.7147 30.4364 39.8275 31.3698C40.9011 32.2702 41.5692 33.6525 41.8629 35.5849C42.3812 35.7758 43.0274 36.3401 43.0274 37.5089C43.0274 38.6581 42.4498 39.2983 41.9799 39.5557C41.8785 40.7257 41.646 41.7078 41.3091 42.4819C40.9932 43.2077 40.5778 43.7689 40.0767 44.1211L40.5646 49L37.7182 52.558L31.1317 51.8458L30.9506 48.2231L31.4277 44.0879C30.8213 43.5462 29.594 42.1313 29.2363 39.6178C29.0256 39.5491 28.8049 39.4087 28.6187 39.1778C28.3356 38.8271 28.1465 38.2887 28.1465 37.5089C28.1465 36.7234 28.3591 36.1944 28.6914 35.8713C28.9058 35.6628 29.1517 35.5585 29.377 35.5222C29.6817 33.9754 30.2862 32.6429 31.2422 31.6785Z" fill="#032068"/>
<path d="M28.6564 33.0539C28.3924 34.6379 28.6565 36.849 29.3165 37.674L30.6365 34.8689C31.0325 35.1329 32.8915 35.1989 33.6066 35.1989C36.3787 35.0669 38.3917 33.4939 39.0518 32.7238C39.1837 33.9119 40.9768 37.069 41.6917 38.499C42.5719 37.1789 43.1437 33.7139 42.352 30.4138C41.5599 27.1137 39.3817 26.9487 38.0617 27.2787C34.4316 24.4736 30.3065 24.8036 28.3264 27.6087C26.7424 29.8527 27.6664 32.1738 28.6564 33.0539Z" fill="#032068"/>
<path d="M21.0902 97.4298C20.2318 96.619 19.8284 95.8998 19.734 95.6417C18.674 96.2984 16.2168 96.7512 15.4562 97.9005C14.5055 99.3373 16.4648 103.618 17.207 104.014C17.9491 104.41 20.7477 103.704 21.46 103.057C22.0299 102.54 21.5265 101.123 21.1798 100.559C21.5543 100.27 22.6187 100.132 22.5567 99.4235C22.4792 98.5386 22.1632 98.443 21.0902 97.4298Z" fill="white"/>
<path fill-rule="evenodd" clip-rule="evenodd" d="M19.9132 95.1249L20.0588 95.5231C20.1302 95.7189 20.4974 96.3947 21.3277 97.1786C21.5274 97.3674 21.6992 97.5226 21.851 97.6595C21.9007 97.7044 21.9482 97.7473 21.9939 97.789C22.175 97.9536 22.3326 98.1014 22.4599 98.2508C22.7383 98.5772 22.8574 98.8946 22.901 99.3935C22.9521 99.9761 22.5149 100.286 22.1921 100.455C22.0544 100.526 21.9051 100.59 21.778 100.643C21.7501 100.655 21.7232 100.666 21.6977 100.677C21.6798 100.685 21.6626 100.692 21.6463 100.699C21.7893 101 21.9269 101.38 22.0026 101.758C22.0559 102.024 22.0822 102.307 22.0483 102.572C22.0143 102.836 21.9154 103.11 21.6926 103.313C21.4677 103.517 21.1122 103.701 20.729 103.855C20.3364 104.013 19.8796 104.155 19.4244 104.263C18.97 104.37 18.5074 104.445 18.1037 104.467C17.7203 104.488 17.3211 104.466 17.0448 104.318C16.8845 104.233 16.7357 104.073 16.6077 103.908C16.4717 103.733 16.329 103.513 16.1872 103.264C15.9032 102.766 15.6102 102.13 15.3722 101.463C15.1346 100.798 14.9467 100.087 14.8814 99.441C14.8175 98.8088 14.8637 98.1712 15.1689 97.7102C15.3985 97.3631 15.7425 97.0874 16.1181 96.86C16.4957 96.6311 16.9274 96.438 17.3544 96.266C17.6016 96.1666 17.862 96.0687 18.1107 95.9747C18.2822 95.9104 18.448 95.848 18.6003 95.7883C18.9906 95.6362 19.3169 95.4942 19.5527 95.348L19.9132 95.1249ZM16.4758 97.4505C16.1436 97.6517 15.8952 97.8635 15.7446 98.0912C15.5744 98.3483 15.509 98.7847 15.5683 99.3716C15.6262 99.9441 15.7962 100.598 16.0224 101.231C16.2481 101.863 16.5247 102.462 16.7871 102.923C16.9184 103.153 17.0431 103.343 17.1526 103.484C17.2701 103.635 17.3449 103.696 17.3701 103.709C17.4649 103.76 17.6938 103.798 18.0661 103.778C18.4182 103.758 18.8389 103.691 19.2659 103.591C19.6922 103.49 20.115 103.358 20.4706 103.215C20.8357 103.068 21.0972 102.921 21.2284 102.801C21.2905 102.745 21.3424 102.648 21.3635 102.484C21.3846 102.32 21.3703 102.116 21.3256 101.893C21.2359 101.445 21.0387 100.988 20.8861 100.74L20.7237 100.476L20.9693 100.286C21.1032 100.182 21.2808 100.104 21.4265 100.042C21.4584 100.028 21.4898 100.015 21.5206 100.002C21.6461 99.9492 21.7626 99.9001 21.8727 99.8423C22.1602 99.6926 22.2243 99.5795 22.2133 99.4539C22.1794 99.0674 22.1017 98.8946 21.9346 98.6989C21.8391 98.5869 21.7116 98.4656 21.5293 98.2999C21.4863 98.2605 21.4405 98.2192 21.3919 98.1755C21.2393 98.0374 21.0595 97.8752 20.8537 97.6806C20.211 97.0737 19.8032 96.5063 19.5828 96.1175C19.358 96.2282 19.1077 96.3316 18.8514 96.4314C18.6799 96.4985 18.5091 96.5628 18.3372 96.6276C18.099 96.7169 17.8588 96.8074 17.6123 96.9068C17.1974 97.0737 16.8059 97.2504 16.4758 97.4505Z" fill="#032068"/>
<path fill-rule="evenodd" clip-rule="evenodd" d="M19.7409 50.7133C19.6334 50.7597 19.5251 50.8135 19.4161 50.8743C10.8359 56.1545 5.7207 73.6449 5.88571 77.6049C6.05072 81.5654 12.4859 98.7258 14.136 98.8907C15.5152 99.0288 19.6613 97.6677 20.9851 96.3503C25.1578 97.4056 31.6722 97.4056 36.4116 97.4056C44.497 97.4056 52.4172 96.7457 53.7373 94.6007C54.18 93.8808 53.6819 91.3556 53.242 89.8154C54.2322 91.6855 57.4333 94.7326 62.3173 91.9604C68.4224 88.4953 65.6175 77.9353 60.5022 62.2596C56.41 49.7192 45.8168 46.8043 41.0319 46.9143C41.0319 48.0145 40.0085 50.2145 35.9166 50.2145C31.8245 50.2145 30.9114 48.0145 30.8014 46.9143C28.8214 46.9693 23.8382 47.8054 19.7461 50.7094C19.7444 50.7105 19.7426 50.7121 19.7409 50.7133Z" fill="white"/>
<path fill-rule="evenodd" clip-rule="evenodd" d="M31.1134 46.5602L31.1454 46.88C31.1938 47.3639 31.4209 48.1034 32.0988 48.7219C32.7734 49.3373 33.9338 49.8693 35.917 49.8693C37.901 49.8693 39.0901 49.337 39.7789 48.7196C40.4719 48.0987 40.6868 47.3678 40.6868 46.9143V46.5769L41.0241 46.5691C45.9194 46.4564 56.6795 49.4309 60.8311 62.1527C63.3864 69.9839 65.3785 76.5761 65.9608 81.6496C66.5415 86.7087 65.7349 90.418 62.4882 92.2607C59.9602 93.6955 57.8265 93.641 56.1854 92.9468C55.2888 92.5677 54.5513 92.0026 53.9823 91.4063C54.0537 91.7623 54.1161 92.1223 54.1632 92.469C54.2264 92.9354 54.2635 93.3867 54.2541 93.7739C54.2452 94.1456 54.1933 94.5185 54.0314 94.7817C53.6344 95.4268 52.7893 95.9026 51.723 96.2703C50.638 96.6443 49.2469 96.9314 47.6588 97.1494C44.4803 97.5858 40.461 97.7508 36.412 97.7508H36.3797C31.728 97.7508 25.3035 97.7508 21.0844 96.7301C20.7261 97.0468 20.2434 97.351 19.7103 97.6287C19.0969 97.9481 18.3962 98.2437 17.6972 98.4918C16.9981 98.7398 16.2946 98.9426 15.6743 99.0748C15.0634 99.2051 14.5024 99.2741 14.1021 99.2343C13.874 99.2113 13.6791 99.0592 13.5314 98.9138C13.3706 98.7554 13.2023 98.5401 13.0292 98.2851C12.682 97.773 12.2866 97.0574 11.865 96.2052C11.0204 94.4978 10.0518 92.2026 9.1319 89.7944C8.21166 87.385 7.33739 84.8554 6.68227 82.6781C6.0314 80.5143 5.58458 78.6591 5.54125 77.6194C5.49772 76.5746 5.79857 74.6963 6.38993 72.4136C6.98444 70.1185 7.88183 67.3803 9.05382 64.6008C11.3893 59.0616 14.8479 53.2806 19.2356 50.5803L19.2417 50.5768L19.2479 50.5733C19.3551 50.5132 19.4625 50.459 19.5699 50.4114C23.7284 47.4704 28.7689 46.6253 30.7923 46.5691L31.1134 46.5602ZM41.3517 47.2567C41.264 47.8612 40.9415 48.6049 40.2395 49.234C39.3937 49.9918 38.0252 50.5596 35.917 50.5596C33.8082 50.5596 32.466 49.9914 31.6335 49.2317C30.9401 48.5991 30.6277 47.8585 30.508 47.2727C28.4023 47.3983 23.7741 48.2758 19.9494 50.9886L19.9482 50.9894L19.9156 51.014L19.8782 51.0303C19.7841 51.0709 19.6885 51.1181 19.5914 51.1723C15.4016 53.7537 12.0147 59.3553 9.68999 64.8687C8.5313 67.617 7.64456 70.3236 7.05827 72.5868C6.46879 74.8624 6.19212 76.6557 6.23108 77.5909C6.27028 78.5308 6.68976 80.3061 7.34344 82.4792C7.99291 84.6378 8.86147 87.1514 9.77688 89.5479C10.6927 91.9452 11.6526 94.2185 12.4838 95.8991C12.9002 96.7407 13.2794 97.424 13.6006 97.8974C13.7618 98.1349 13.9011 98.3089 14.0159 98.422C14.1247 98.5292 14.1762 98.546 14.1758 98.5475C14.1758 98.5475 14.1755 98.5475 14.1751 98.5475C14.4648 98.5756 14.9374 98.5261 15.5302 98.3997C16.1166 98.2745 16.791 98.0807 17.4663 97.8409C18.1417 97.6014 18.8119 97.3183 19.3913 97.0164C19.9756 96.7118 20.4473 96.3986 20.742 96.1054L20.8806 95.9677L21.0702 96.0157C25.1916 97.0581 31.6554 97.0605 36.412 97.0605C40.4485 97.0605 44.432 96.8955 47.5648 96.4653C49.1323 96.2504 50.4739 95.9704 51.498 95.6175C52.5409 95.2579 53.1808 94.8468 53.4437 94.4198C53.5034 94.3227 53.5552 94.1101 53.5638 93.7576C53.572 93.421 53.54 93.0095 53.4792 92.5622C53.3575 91.6683 53.1274 90.6684 52.9106 89.9102L53.5474 89.654C54.0135 90.5338 55.0072 91.6987 56.4545 92.3107C57.8823 92.9148 59.791 92.9975 62.1473 91.6601C65.0056 90.0381 65.8492 86.7344 65.2747 81.7284C64.7022 76.7364 62.7343 70.2109 60.1747 62.3669C56.2291 50.2753 46.1636 47.2801 41.3517 47.2567Z" fill="#032068"/>
<path d="M26.9011 53.8902C26.9028 53.3181 27.3678 52.8559 27.9397 52.8575L42.3073 52.8988C42.8794 52.9004 43.3416 53.3653 43.34 53.9374L43.2839 73.5021C43.2819 74.0739 42.817 74.5364 42.2449 74.5348L27.8774 74.4931C27.3054 74.4916 26.8431 74.0267 26.8447 73.4545L26.9011 53.8902Z" fill="white"/>
<path fill-rule="evenodd" clip-rule="evenodd" d="M26.5554 53.889C26.5576 53.1266 27.1776 52.51 27.9402 52.5123L42.308 52.5537C43.0704 52.5556 43.687 53.1757 43.6847 53.9386L43.6285 73.5029C43.6262 74.2657 43.0061 74.882 42.2436 74.88L27.8759 74.8387C27.1133 74.8363 26.4968 74.2162 26.499 73.4538L26.5554 53.889ZM27.9382 53.2026C27.5569 53.2015 27.2469 53.5096 27.2458 53.891L27.1894 73.4557C27.1884 73.8371 27.4966 74.1468 27.8779 74.148L42.2456 74.1893C42.627 74.1905 42.937 73.8824 42.9378 73.501L42.9944 53.9362C42.9955 53.5552 42.687 53.2451 42.306 53.244L27.9382 53.2026Z" fill="#032068"/>
<path d="M53.242 89.9804L44.4971 74.6351C45.157 80.2452 50.4372 89.6505 53.9023 93.4456C53.9023 92.6535 53.407 90.5303 53.242 89.9804Z" fill="#032068"/>
<path d="M58.5226 75.7899C56.0866 73.5162 50.9328 69.0047 49.5124 68.8631C49.4906 68.8627 49.4691 68.8615 49.4473 68.86C49.4679 68.86 49.4898 68.8611 49.5124 68.8631C50.1606 68.8767 50.9324 68.2785 50.9324 65.7248C52.5825 70.1797 57.3678 72.3251 58.5226 75.7899Z" fill="#032068"/>
<path d="M44.6623 72.82L48.9523 69.4723C48.4266 69.0113 47.2176 67.5359 46.5866 65.3223C45.956 63.109 44.3265 62.2483 43.5902 62.0946V64.2467C43.0122 63.7342 41.6348 62.8325 40.7518 63.3243C39.6477 63.9389 40.1208 68.8576 40.2787 69.4723C40.4363 70.0873 42.4865 71.0093 43.2751 71.1633C43.9057 71.2862 44.167 71.9948 44.6623 72.82Z" fill="white"/>
<path fill-rule="evenodd" clip-rule="evenodd" d="M43.2455 61.6699L43.6612 61.7569C44.5091 61.934 46.2497 62.8781 46.9193 65.2279C47.5316 67.3764 48.7039 68.7948 49.1805 69.2129L49.4941 69.4879L44.5672 73.3321L44.3667 72.9975C44.2673 72.8321 44.1764 72.6703 44.0933 72.5213C44.0699 72.4796 44.0473 72.439 44.0251 72.4C43.9214 72.2159 43.8293 72.0587 43.7369 71.9258C43.5512 71.6594 43.3952 71.5381 43.2092 71.5018C42.7697 71.4164 42.0271 71.1313 41.3821 70.7971C41.0564 70.6286 40.7409 70.4402 40.4917 70.2476C40.3673 70.1512 40.2518 70.0483 40.159 69.9406C40.0693 69.8361 39.9827 69.7074 39.9445 69.5581C39.8973 69.3736 39.8365 68.9239 39.7874 68.3693C39.7374 67.8042 39.6973 67.1022 39.6973 66.3983C39.6973 65.6975 39.737 64.9806 39.8513 64.3917C39.9086 64.0977 39.987 63.8219 40.0966 63.5915C40.2043 63.3653 40.3579 63.1488 40.5841 63.0228C41.1726 62.6948 41.8719 62.8536 42.423 63.0919C42.7178 63.2198 42.9994 63.3824 43.2455 63.5478V61.6699ZM43.9362 62.5708V65.0138L43.3617 64.5048C43.093 64.2665 42.6344 63.9358 42.1488 63.7256C41.6461 63.508 41.2148 63.462 40.9203 63.6258C40.8704 63.6535 40.7975 63.7252 40.7202 63.8879C40.645 64.0466 40.5802 64.2607 40.5291 64.5239C40.427 65.0493 40.3876 65.7158 40.3876 66.3983C40.3876 67.0781 40.4266 67.759 40.4749 68.3085C40.5245 68.8682 40.5818 69.264 40.6134 69.3865C40.6134 69.3865 40.6142 69.3892 40.6161 69.3943C40.6184 69.3993 40.622 69.4067 40.6274 69.4161C40.6387 69.4348 40.6563 69.4598 40.6824 69.4898C40.7351 69.551 40.8119 69.6224 40.9141 69.7012C41.118 69.8591 41.3942 70.0261 41.6995 70.184C42.3161 70.5034 42.9928 70.7561 43.3414 70.8244C43.7864 70.911 44.0766 71.2058 44.3032 71.5311C44.4167 71.6933 44.5223 71.8758 44.6265 72.0607C44.6503 72.1032 44.6744 72.1461 44.6982 72.189C44.7197 72.2268 44.7411 72.2654 44.763 72.3037L48.4305 69.4418C47.7952 68.7586 46.8085 67.3585 46.2551 65.417C45.7703 63.7159 44.6635 62.8867 43.9362 62.5708Z" fill="#032068"/>
<path d="M7.3716 83.8753C10.0117 78.727 8.69164 71.6099 7.70162 68.695C7.20659 70.565 6.15059 74.7669 5.88656 76.6151C5.62257 78.4629 6.7666 82.2253 7.3716 83.8753Z" fill="#032068"/>
<path d="M53.0771 89.4855C57.0372 86.5812 63.0877 86.8452 65.6176 87.3405C65.3426 88.5503 64.6274 91.3259 60.8323 92.7857C56.5423 94.4358 54.0124 91.1906 53.0771 89.4855Z" fill="#032068"/>
<path d="M19.4167 79.585C19.5487 77.0773 21.1217 71.06 21.8917 68.3647C20.7367 71.3349 17.7666 76.2852 17.7666 79.585C17.7666 82.2253 20.1867 91.2456 21.3967 95.4256C20.6817 91.1906 19.2846 82.0931 19.4167 79.585Z" fill="#032068"/>
<path d="M35.548 45.4631C33.4359 45.4631 32.1379 44.4183 31.7529 43.978L31.5879 45.6281C35.284 47.7403 38.6281 46.5083 39.8381 45.6281L39.6731 43.978C39.1781 44.4183 37.6601 45.4631 35.548 45.4631Z" fill="#032068"/>
</svg>
