<svg width="65" height="59" viewBox="0 0 65 59" fill="none" xmlns="http://www.w3.org/2000/svg">
<path opacity="0.4" d="M64.9997 42.415C64.9997 51.5597 57.7197 58.9672 48.6523 59H48.6198H16.4124C7.37746 59 0 51.6252 0 42.4805V42.4478C0 42.4478 0.0194999 27.9408 0.0454998 20.6447C0.0487498 19.2747 1.60874 18.5077 2.67149 19.3599C10.3934 25.5383 24.2026 36.8036 24.3749 36.9511C26.6824 38.8161 29.6074 39.8682 32.5973 39.8682C35.5873 39.8682 38.5123 38.8161 40.8198 36.9151C40.992 36.8003 54.4925 25.8726 62.3314 19.5926C63.3974 18.7371 64.9639 19.5041 64.9672 20.8709C64.9997 28.1113 64.9997 42.415 64.9997 42.415Z" fill="#A6ABC8"/>
<path d="M63.2971 8.76449C60.4826 3.41533 54.9446 0 48.8476 0H16.4128C10.3158 0 4.77784 3.41533 1.96335 8.76449C1.33286 9.96083 1.63185 11.4522 2.6816 12.2978L26.8127 31.7639C28.5027 33.1405 30.5502 33.8255 32.5977 33.8255C32.6107 33.8255 32.6204 33.8255 32.6302 33.8255C32.6399 33.8255 32.653 33.8255 32.6627 33.8255C34.7102 33.8255 36.7577 33.1405 38.4477 31.7639L62.5788 12.2978C63.6285 11.4522 63.9275 9.96083 63.2971 8.76449Z" fill="#707FDD"/>
</svg>
