<svg width="67" height="67" viewBox="0 0 67 67" fill="none" xmlns="http://www.w3.org/2000/svg">
<path d="M3.14062 41.875C2.56275 41.875 2.09375 41.406 2.09375 40.8281V7.32812C2.09375 5.59659 3.50284 4.1875 5.23438 4.1875H61.7656C63.4972 4.1875 64.9062 5.59659 64.9062 7.32812V10.4688C64.9062 11.0466 64.4372 11.5156 63.8594 11.5156C63.2815 11.5156 62.8125 11.0466 62.8125 10.4688V7.32812C62.8125 6.75234 62.3414 6.28125 61.7656 6.28125H5.23438C4.65859 6.28125 4.1875 6.75234 4.1875 7.32812V40.8281C4.1875 41.406 3.7185 41.875 3.14062 41.875ZM33.5 64.9062H21.9844C21.4065 64.9062 20.9375 64.4372 20.9375 63.8594C20.9375 63.2815 21.4065 62.8125 21.9844 62.8125H24.0781C25.8097 62.8125 27.2188 61.4034 27.2188 59.6719V54.4375C27.2188 53.8596 27.6877 53.3906 28.2656 53.3906C28.8435 53.3906 29.3125 53.8596 29.3125 54.4375V59.6719C29.3125 60.8507 28.921 61.9373 28.2635 62.8125H33.5C34.0779 62.8125 34.5469 63.2815 34.5469 63.8594C34.5469 64.4372 34.0779 64.9062 33.5 64.9062Z" fill="#263238"/>
<path d="M32.4531 54.4375H5.23438C3.50284 54.4375 2.09375 53.0284 2.09375 51.2969V45.0156C2.09375 44.4378 2.56275 43.9688 3.14062 43.9688H32.4531C33.031 43.9688 33.5 44.4378 33.5 45.0156C33.5 45.5935 33.031 46.0625 32.4531 46.0625H4.1875V51.2969C4.1875 51.8727 4.65859 52.3438 5.23438 52.3438H32.4531C33.031 52.3438 33.5 52.8127 33.5 53.3906C33.5 53.9685 33.031 54.4375 32.4531 54.4375Z" fill="#263238"/>
<path d="M45.0156 18.8438H55.4844C56.0623 18.8438 56.5312 18.3748 56.5312 17.7969C56.5312 17.219 56.0623 16.75 55.4844 16.75H45.0156C44.4378 16.75 43.9688 17.219 43.9688 17.7969C43.9688 18.3748 44.4378 18.8438 45.0156 18.8438ZM49.2031 60.7188H51.2969C51.8748 60.7188 52.3438 60.2497 52.3438 59.6719C52.3438 59.094 51.8748 58.625 51.2969 58.625H49.2031C48.6252 58.625 48.1562 59.094 48.1562 59.6719C48.1562 60.2497 48.6252 60.7188 49.2031 60.7188Z" fill="#263238"/>
<path d="M59.6719 64.9062H40.8281C37.9408 64.9062 35.5938 62.5592 35.5938 59.6719V17.7969C35.5938 14.9096 37.9408 12.5625 40.8281 12.5625H59.6719C62.5592 12.5625 64.9062 14.9096 64.9062 17.7969V59.6719C64.9062 62.5592 62.5592 64.9062 59.6719 64.9062ZM40.8281 14.6562C39.0966 14.6562 37.6875 16.0653 37.6875 17.7969V59.6719C37.6875 61.4034 39.0966 62.8125 40.8281 62.8125H59.6719C61.4034 62.8125 62.8125 61.4034 62.8125 59.6719V17.7969C62.8125 16.0653 61.4034 14.6562 59.6719 14.6562H40.8281Z" fill="#263238"/>
</svg>
