<svg width="67" height="67" viewBox="0 0 67 67" fill="none" xmlns="http://www.w3.org/2000/svg">
<path d="M47.7686 0.580688C58.9207 0.580688 66.4159 8.40827 66.4159 20.0575V46.9405C66.4159 58.5897 58.9207 66.414 47.7653 66.414H19.2331C8.07764 66.414 0.58252 58.5897 0.58252 46.9405V20.0575C0.58252 8.40827 8.07764 0.580688 19.2331 0.580688H47.7686ZM23.1008 24.9357C18.3806 24.9357 14.5392 28.7771 14.5392 33.4974C14.5392 38.2209 18.3806 42.0623 23.1008 42.0623C26.9586 42.0623 30.1911 39.4816 31.2576 35.9661H38.2096V39.5935C38.2096 40.9563 39.3156 42.0623 40.6783 42.0623C42.0411 42.0623 43.1471 40.9563 43.1471 39.5935V35.9661H47.525V39.5935C47.525 40.9563 48.631 42.0623 49.9937 42.0623C51.3565 42.0623 52.4625 40.9563 52.4625 39.5935V33.4974C52.4625 32.1346 51.3565 31.0286 49.9937 31.0286H31.2576C30.1911 27.5164 26.9586 24.9357 23.1008 24.9357ZM23.1011 29.8729C25.0992 29.8729 26.7286 31.499 26.7286 33.5003C26.7286 35.4984 25.0992 37.1244 23.1011 37.1244C21.1031 37.1244 19.4737 35.4984 19.4737 33.5003C19.4737 31.499 21.1031 29.8729 23.1011 29.8729Z" fill="#707FDD"/>
</svg>
