<svg width="550" height="550" viewBox="0 0 550 550" fill="none" xmlns="http://www.w3.org/2000/svg">
<g clip-path="url(#clip0_14_14)">
<path d="M389.484 38.9484C314.217 38.9484 253.242 106.276 253.242 189.297C253.242 272.319 314.217 339.646 389.484 339.646C464.812 339.646 525.789 272.319 525.789 189.297C525.789 106.276 464.812 38.9484 389.484 38.9484ZM389.484 294.023C337.093 294.023 294.602 247.086 294.602 189.297C294.602 131.441 337.091 84.5722 389.484 84.5722C441.936 84.5722 484.427 131.438 484.427 189.297C484.427 247.086 441.938 294.023 389.484 294.023Z" fill="#E4E5F4"/>
<path d="M220.491 39.2954C224.831 36.1505 228.567 36.6795 231.328 37.6647C230.771 38.0894 230.217 38.5189 229.665 38.946C229.83 39.4604 229.992 39.9725 230.155 40.4869C230.162 40.4796 225.441 38.9241 223.082 40.3826C222.988 40.0113 222.891 39.6376 222.794 39.2663C222.796 39.2687 221.863 38.8926 220.491 39.2954Z" fill="#797DFF"/>
<path d="M273.662 28.1668C273.658 28.1619 277.044 26.337 277.345 25.5314C277.526 25.7813 277.704 26.0313 277.882 26.2788C278.117 26.3565 278.353 26.4365 278.586 26.5142C278.586 26.5142 276.764 28.4094 274.943 29.448C274.835 29.1908 274.725 28.936 274.617 28.6788C274.298 28.5089 273.981 28.339 273.662 28.1668ZM242.931 27.9289C242.931 27.9289 240.935 27.3247 239.461 25.7158C239.767 25.5217 240.075 25.33 240.383 25.1383C240.431 24.8058 240.478 24.4709 240.526 24.1385C240.528 24.1361 243.448 25.7644 244.552 25.9245C244.479 26.3443 244.409 26.7641 244.336 27.184C243.866 27.4315 243.397 27.679 242.931 27.9289Z" fill="#B8BDF4"/>
<path d="M220.535 21.0008C220.535 21.0008 221.646 22.3185 223.313 23.078L223.452 22.2699C223.661 22.2311 223.868 22.1923 224.077 22.1559C224.077 22.1559 222.651 21.6487 221.863 20.7508C221.775 20.8892 221.687 21.0251 221.599 21.1634C221.245 21.1076 220.891 21.0542 220.535 21.0008Z" fill="#797DFF"/>
<path d="M254.294 52.8921C254.307 52.8848 250.312 48.444 249.638 47.9781C250.085 48.0533 250.529 48.1285 250.976 48.2062C250.985 47.813 250.994 47.4199 251 47.0268C251.016 47.0171 255.539 51.2516 256.073 51.6545C255.702 51.7394 255.332 51.8243 254.962 51.9117C254.739 52.2379 254.516 52.5647 254.294 52.8921Z" fill="#B8BDF4"/>
<path d="M431.358 139.91C431.378 139.725 431.499 139.565 431.673 139.517C431.895 139.459 432.117 139.609 432.172 139.854C432.201 139.988 435.417 153.358 458.443 150.806C466.66 149.896 473.433 147.797 479.409 145.947C490.457 142.526 497.759 140.267 502.577 149.905C502.687 150.126 502.616 150.405 502.414 150.527C502.212 150.648 501.963 150.568 501.851 150.347C497.347 141.339 490.679 143.404 479.631 146.826C473.92 148.595 466.811 150.793 458.524 151.713C434.731 154.351 431.398 140.208 431.365 140.065C431.356 140.014 431.354 139.961 431.358 139.91Z" fill="#EFF0F9"/>
<path d="M79.4024 481.798C79.4024 481.798 77.3542 466.209 58.113 470.458C58.113 470.458 64.2378 490.192 79.4024 481.798Z" fill="#E4E5F4"/>
<g opacity="0.52">
<path d="M58.9776 471.128L64.0266 474.324C65.7118 475.38 67.3992 476.43 69.1064 477.433C69.9578 477.94 70.8136 478.435 71.6804 478.91C72.5428 479.393 73.414 479.852 74.294 480.289C75.1762 480.718 76.0672 481.131 76.9802 481.471C77.8888 481.815 78.8282 482.092 79.8028 482.097C79.321 482.157 78.8238 482.157 78.342 482.072C77.8558 482.007 77.3762 481.89 76.901 481.762C75.955 481.488 75.031 481.131 74.1246 480.735C72.3096 479.942 70.5606 478.986 68.8424 477.979C67.1308 476.959 65.4478 475.88 63.8044 474.737C62.1544 473.601 60.5418 472.4 58.9776 471.128Z" fill="#B8BDF4"/>
</g>
<path d="M449.777 148.243C449.777 148.243 454.425 144.178 451.79 136.428C449.154 128.677 447.858 130.045 451.277 120.732C454.696 111.421 439.294 97.5888 430.705 100.712C430.705 100.712 421.318 93.9755 413.213 103.245C400.402 117.895 416.539 134.258 412.504 141.339C408.47 148.42 407.796 142.846 403.225 146.993C398.653 151.141 401.073 166.254 418.737 162.932C436.401 159.61 426.848 159.981 439.52 162.657C452.19 165.334 449.777 148.243 449.777 148.243Z" fill="#21267F"/>
<path opacity="0.5" d="M447.256 152.448C444.503 151.645 441.36 150.624 440.447 147.263C440.209 146.387 440.108 145.384 440.145 144.472C440.18 143.611 440.559 142.819 440.592 141.963C440.636 140.805 439.685 139.789 439.08 138.944C438.552 138.206 438.097 137.454 437.721 136.61C436.447 133.756 436.124 130.696 435.884 127.609C435.358 128.728 434.687 129.769 433.871 130.696C428.894 136.365 419.175 138.192 412.513 134.477C413.257 137.228 413.505 139.575 412.5 141.344C408.465 148.425 407.792 142.851 403.223 146.998C398.651 151.145 401.071 166.259 418.735 162.937C436.399 159.614 426.846 159.986 439.518 162.662C447.713 164.392 449.596 157.857 449.904 153.024C449.007 152.871 448.116 152.698 447.256 152.448Z" fill="#21267F"/>
<path d="M265.72 503.325C265.72 505.611 252.322 507.465 235.792 507.465C219.263 507.465 205.865 505.611 205.865 503.325C205.865 501.039 219.263 499.185 235.792 499.185C252.32 499.185 265.72 501.037 265.72 503.325ZM97.075 543.547C91.7092 542.295 131.061 536.898 164.487 539.88C188.03 541.979 202.594 544.261 202.594 544.261C202.594 544.261 163.948 549.539 149.633 549.31C135.318 549.08 129.51 551.113 97.075 543.547ZM356.521 538.835C360.492 537.342 330.766 541.902 305.688 538.221C280.925 534.585 277.273 544.319 277.273 544.319C277.273 544.319 306.57 547.842 317.315 546.966C328.06 546.09 332.523 547.854 356.521 538.835Z" fill="#EFF0F9"/>
<path d="M0.624802 483.232C-1.749 481.949 70.4154 486.732 102.137 476.816C133.859 466.901 236.43 476.234 306.22 476.816C376.011 477.399 362.219 471.572 413.206 472.494C502.449 474.108 520.927 474.108 549.428 479.976C549.428 479.976 466.42 495.273 411.433 484.586C356.446 473.899 364.377 485.564 294.587 490.228C224.796 494.895 250.703 486.729 191.488 490.228C132.275 493.73 26.532 497.229 0.624802 483.232Z" fill="#E4E5F4"/>
<path d="M172.091 409.546C168.553 415.4 134.794 541.543 134.794 541.543H162.888C162.888 541.543 206.439 423.857 206.072 415.4C205.704 406.945 172.091 409.546 172.091 409.546Z" fill="#E5C9C3"/>
<path opacity="0.65" d="M170.645 438.002C174.885 440.28 179.573 441.246 184.237 441.724C187.506 442.059 191.543 442.246 193.382 445.794C195.133 449.169 194.047 453.78 192.135 456.77C190.181 459.825 187.356 462.062 185.504 465.205C183.935 467.867 183.698 470.662 184.037 473.715C184.29 475.994 184.624 478.275 185.002 480.548C195.712 450.414 206.25 419.578 206.067 415.4C205.7 406.943 172.088 409.547 172.088 409.547C171.189 411.034 168.337 420.297 164.586 433.275C166.362 435.175 168.381 436.783 170.645 438.002Z" fill="#E5C9C3"/>
<path opacity="0.65" d="M162.213 469.551C159.76 471.604 171.354 438.979 173.417 436.378C175.481 433.777 166.489 465.974 162.213 469.551ZM168.502 494.431C168.65 493.781 174.841 467.925 179.707 462.885C184.571 457.842 168.502 494.431 168.502 494.431ZM149.587 516.465C149.587 516.465 155.63 493.698 158.58 486.219C158.58 486.219 153.861 510.287 149.587 516.465ZM156.759 534.76C156.759 534.76 167.44 508.254 172.124 498.171C172.124 498.171 161.918 531.183 156.759 534.76Z" fill="#E5C9C3"/>
<path d="M218.638 375.36C217.039 382.171 222.46 505.014 222.46 505.014L249.245 503.369C249.245 503.369 255.341 376.435 252.476 368.58C249.612 360.727 218.638 375.36 218.638 375.36Z" fill="#E5C9C3"/>
<path opacity="0.65" d="M226.057 439.809C227.436 440.586 228.923 441.481 230.472 441.729C231.834 441.947 233.215 441.986 234.579 442.197C236.867 442.552 238.786 443.653 240.174 445.748C241.498 447.745 241.982 450.169 242.128 452.598C242.279 455.131 242.112 457.692 242.416 460.213C242.75 463.001 244.004 465.171 245.832 467.071C247.397 468.697 249.143 470.119 250.65 471.812C252.252 433.67 254.412 373.892 252.476 368.58C249.612 360.724 218.638 375.36 218.638 375.36C217.899 378.512 218.662 406.52 219.696 435.699C221.78 437.14 223.868 438.577 226.057 439.809Z" fill="#E5C9C3"/>
<path opacity="0.65" d="M227.174 435.616C225.469 438.443 226.706 403.429 227.88 400.223C229.055 397.018 230.146 430.688 227.174 435.616ZM240.522 456.837C240.467 456.17 238.616 429.506 241.712 422.981C244.805 416.458 240.522 456.837 240.522 456.837ZM229.216 484.501C229.216 484.501 228.147 460.807 228.705 452.676C228.705 452.676 231.416 477.117 229.216 484.501ZM241.437 499.185C241.437 499.185 243.632 470.279 245.056 459.06C245.056 459.058 245.245 493.936 241.437 499.185Z" fill="#E5C9C3"/>
<path d="M293.394 409.546C296.932 415.4 330.689 541.543 330.689 541.543H302.597C302.597 541.543 259.046 423.857 259.413 415.4C259.78 406.945 293.394 409.546 293.394 409.546Z" fill="#E5C9C3"/>
<path opacity="0.65" d="M294.84 438.002C290.6 440.28 285.912 441.246 281.248 441.724C277.979 442.059 273.942 442.246 272.103 445.794C270.351 449.169 271.438 453.78 273.35 456.77C275.301 459.825 278.128 462.062 279.981 465.205C281.549 467.867 281.787 470.662 281.448 473.715C281.195 475.994 280.861 478.275 280.482 480.548C269.773 450.414 259.235 419.578 259.417 415.4C259.785 406.943 293.396 409.547 293.396 409.547C294.296 411.034 297.147 420.297 300.898 433.275C299.123 435.175 297.103 436.783 294.84 438.002Z" fill="#E5C9C3"/>
<path opacity="0.65" d="M303.272 469.551C305.725 471.604 294.131 438.979 292.068 436.378C290.004 433.777 298.995 465.974 303.272 469.551ZM296.985 494.431C296.837 493.781 290.644 467.925 285.78 462.885C280.914 457.842 296.985 494.431 296.985 494.431ZM315.898 516.465C315.898 516.465 309.852 493.698 306.904 486.219C306.904 486.219 311.623 510.287 315.898 516.465ZM308.726 534.76C308.726 534.76 298.045 508.254 293.361 498.171C293.361 498.171 303.567 531.183 308.726 534.76Z" fill="#E5C9C3"/>
<path d="M381.951 534.566C381.951 534.566 381.093 520.29 382.961 519.475C384.828 518.662 389.275 518.608 390.185 519.637C391.096 520.666 388.276 535.588 386.492 537.396C384.707 539.203 382.631 538.376 381.951 534.566Z" fill="#EFD9D3"/>
<path d="M368.324 542.887C368.324 542.887 367.998 544.935 369.556 546.071C373.424 548.891 387.321 548.189 388.137 546.889C388.953 545.588 388.905 543.799 388.905 543.799L368.324 542.887Z" fill="#21267F"/>
<path d="M383.295 529.693C383.295 529.693 386.806 530.242 388.474 529.802C389.987 529.404 389.739 543.865 388.344 545.418C386.949 546.971 378.424 544.472 378.424 544.472C378.424 544.472 379.916 541.198 381.005 537.311C382.094 533.428 379.951 530.014 383.295 529.693Z" fill="#3339AE"/>
<path d="M379.271 534.782C379.271 534.782 376.974 528.029 379.504 527.793C382.034 527.555 382.699 528.109 383.984 529.21C385.268 530.312 382.444 534.915 382.114 535.622C381.786 536.328 379.271 534.782 379.271 534.782Z" fill="#21267F"/>
<path d="M375.181 538.507C375.181 538.507 378.25 539.177 379.221 541.15C380.189 543.125 383.981 537.629 383.282 535.452C382.584 533.278 378.561 534.217 378.561 534.217C378.561 534.217 378.875 538.313 375.181 538.507Z" fill="#21267F"/>
<path d="M368.526 544.209C370.568 546.512 378.272 547.92 380.083 546.046C381.894 544.171 380.864 536.323 373.633 537.165C370.654 537.512 367.096 542.598 368.526 544.209Z" fill="#606AE8"/>
<path opacity="0.2" d="M374.893 537.73C373.921 537.675 373.12 537.832 372.471 538.138C372.658 538.546 372.863 538.939 373.087 539.32C373.848 538.936 374.849 538.682 376.011 538.983C378.682 539.677 378.743 539.793 378.743 539.793C378.743 539.793 377.183 537.864 374.893 537.73ZM371.49 539.152C371.272 539.463 371.358 539.914 371.677 540.089C371.879 540.201 372.119 540.167 372.288 540.002C372.429 539.866 372.623 539.694 372.865 539.516C372.643 539.137 372.438 538.746 372.251 538.344C371.956 538.58 371.701 538.852 371.49 539.152Z" fill="white"/>
<path d="M424.186 284.25L379.944 285.677C379.944 285.677 385.222 468.032 380.864 526.087L390.135 526.791C390.135 526.793 448.25 303.87 424.186 284.25Z" fill="#21267F"/>
<path opacity="0.25" d="M386.901 308.862C389.842 309.701 392.865 309.019 395.765 310.223C397.657 311.009 399.362 312.271 400.726 313.916C405.799 320.037 405.766 329.794 404.923 337.513C404.384 342.449 402.884 347.451 403.643 352.452C404.485 358.007 408.085 362.355 410.887 366.837C413.149 370.451 414.647 374.34 415.028 378.73C415.316 382.04 415.294 385.372 415.523 388.687C415.743 391.895 416.038 395.389 417.461 398.265C417.806 398.961 418.216 399.524 418.678 399.969C428.848 346.016 435.329 293.333 424.184 284.248L379.942 285.675C379.942 285.675 380.145 292.637 380.435 304.241C382.246 306.379 384.329 308.126 386.901 308.862Z" fill="#21267F"/>
<path d="M462.332 531.986C462.332 531.986 458.207 518.145 459.936 517.016C461.666 515.888 465.879 515.131 466.924 515.99C467.971 516.849 468.723 531.894 467.221 533.991C465.72 536.088 463.551 535.629 462.332 531.986Z" fill="#EFD9D3"/>
<path d="M450.828 543.661C450.828 543.661 450.938 545.738 452.692 546.447C457.043 548.206 470.422 543.989 470.943 542.516C471.464 541.043 471.044 539.312 471.044 539.312L450.828 543.661Z" fill="#21267F"/>
<path d="M462.638 527.017C462.638 527.017 466.169 526.657 467.7 525.806C469.091 525.032 471.871 539.167 470.84 541.033C469.808 542.899 460.99 542.637 460.99 542.637C460.99 542.637 461.758 539.072 462.004 535.012C462.251 530.953 459.45 528.179 462.638 527.017Z" fill="#3339AE"/>
<path d="M459.787 532.991C459.787 532.991 456.141 527.004 458.553 526.131C460.964 525.257 461.727 525.626 463.208 526.371C464.688 527.116 462.902 532.314 462.73 533.086C462.557 533.855 459.787 532.991 459.787 532.991Z" fill="#21267F"/>
<path d="M456.586 537.655C456.586 537.655 459.712 537.527 461.067 539.201C462.422 540.875 464.963 534.564 463.828 532.625C462.693 530.686 458.975 532.622 458.975 532.622C458.975 532.622 460.141 536.527 456.586 537.655Z" fill="#21267F"/>
<path d="M451.304 544.899C453.772 546.619 461.564 546.03 462.933 543.746C464.303 541.46 461.659 534.086 454.799 536.745C451.972 537.837 449.574 543.693 451.304 544.899Z" fill="#606AE8"/>
<path opacity="0.2" d="M456.144 536.973C455.184 537.167 454.441 537.524 453.873 537.985C454.139 538.335 454.423 538.665 454.72 538.978C455.38 538.41 456.302 537.907 457.494 537.905C460.238 537.9 460.321 537.997 460.321 537.997C460.321 537.997 458.399 536.519 456.144 536.973ZM453.13 539.223C452.984 539.582 453.16 539.997 453.508 540.087C453.728 540.142 453.955 540.05 454.084 539.846C454.192 539.679 454.346 539.461 454.544 539.228C454.249 538.914 453.968 538.585 453.702 538.242C453.468 538.537 453.276 538.867 453.13 539.223Z" fill="white"/>
<path d="M451.106 277.788L408.355 290.434C408.355 290.434 450.672 466.153 458.57 523.75L468.615 522.622C468.615 522.619 478.625 290.756 451.106 277.788Z" fill="#21267F"/>
<path d="M431.365 313.929C431.365 313.929 449.183 325.203 453.347 331.058C457.51 336.912 430.775 321.082 431.365 313.929Z" fill="#3339AE"/>
<path opacity="0.1" d="M420.356 331.553C422.077 327.11 424.948 323.861 429.207 322.519C432.652 321.434 436.388 321.33 439.932 321.738C443.711 322.172 447.489 323.257 450.846 325.251C454.012 327.135 456.54 329.884 457.855 333.614C459.47 338.188 458.977 342.84 458.443 347.579C458.192 349.797 457.989 352.049 458.286 354.274C458.634 356.878 459.681 359.217 461.195 361.236C463.375 364.146 466.165 366.636 469.115 368.708C467.049 322.689 462.044 282.94 451.106 277.783L408.355 290.429C408.355 290.429 412.801 308.891 419.076 335.793C419.415 334.349 419.826 332.927 420.356 331.553Z" fill="#21267F"/>
<path d="M82.1568 109.382C151.754 95.7688 359.176 92.7549 368.876 111.858C393.382 160.122 365.402 406.994 365.457 417.212C365.457 417.212 108.368 429.241 101.308 422.767C94.2502 416.29 62.9904 135.37 82.1568 109.382Z" fill="#EFF0F9"/>
<path d="M88.781 309.636C99.9174 306.632 114.695 282.824 98.351 209.732C97.5876 206.313 100.749 203.243 102.916 200.64C105.327 197.742 107.892 194.978 110.218 192.003C112.081 189.618 113.786 187.031 114.585 184.024C116.538 176.664 112.587 168.928 108.849 162.963C104.925 156.702 100.107 150.709 97.944 143.448C96.0542 137.105 96.679 130.208 100.586 124.852C104.322 119.732 109.947 116.434 115.465 113.852C122.386 110.613 129.741 108.346 137.029 106.208C143.526 104.303 150.113 102.619 156.759 101.231C126.641 103.134 99.9152 105.915 82.1612 109.385C70.961 124.568 76.978 226.78 85.3226 310.432C86.4754 310.184 87.6348 309.946 88.781 309.636ZM373.804 127.124C373.344 128.585 372.728 129.978 371.796 131.227C371.694 131.363 371.576 131.441 371.45 131.494C371.382 133.258 371.257 135.018 371.03 136.767C370.187 143.256 367.979 149.427 363.959 154.494C359.361 160.291 353.223 163.715 347.501 168.069C342.368 171.973 338.243 176.494 336.134 182.876C333.353 191.295 332.625 200.513 334.51 209.22C336.464 218.252 340.991 226.425 345.27 234.424C348.984 241.366 355.133 246.37 359.216 253.031C362.991 259.19 363.601 265.978 361.348 272.867C359.515 278.468 355.905 283.124 351.611 286.881C342.619 294.748 331.089 298.883 322.538 307.343C317.918 311.914 314.888 317.789 315.542 324.618C316.261 332.143 320.107 338.986 323.215 345.655C326.341 352.36 329.399 359.586 329.047 367.221C328.779 373.011 326.491 378.391 322.749 382.618C319.251 386.571 314.811 389.422 310.411 392.125C306.222 394.7 301.77 397.137 298.289 400.752C292.717 406.54 293.462 413.538 296.164 420.185C335.705 418.603 365.46 417.21 365.46 417.21C365.407 407.814 389.063 198.276 373.804 127.124Z" fill="#E4E5F4"/>
<path d="M149.477 282.36C148.975 281.826 148.727 281.166 148.727 280.38C148.727 268.625 148.419 258.7 147.803 250.602C145.959 250.377 144.648 250.263 143.88 250.263C140.725 250.263 138.457 250.459 137.073 250.852C137.073 254.005 137.421 258.756 138.114 265.109C138.728 271.857 139.036 276.64 139.036 279.451C139.036 280.011 138.805 280.535 138.345 281.011C137.883 281.491 137.304 281.727 136.613 281.727C135.612 281.727 134.688 280.436 133.844 277.847C132.614 274.025 131.611 266.007 130.843 253.806C130.304 245.538 130.035 236.654 130.035 227.149C129.958 225.409 129.919 222.931 129.919 219.725C129.919 218.713 130.57 218.206 131.879 218.206C132.647 218.206 133.439 218.347 134.244 218.626C135.054 218.908 135.645 219.218 136.033 219.553C135.725 221.354 135.573 223.462 135.573 225.882C135.573 228.243 135.725 231.109 136.033 234.484C136.264 238.367 136.38 241.289 136.38 243.259V244.776C136.303 245.227 136.264 245.761 136.264 246.378C136.264 246.938 136.341 247.673 136.495 248.569C136.957 248.569 137.724 248.54 138.8 248.484C139.876 248.43 140.952 248.346 142.032 248.231C144.569 248.062 146.452 247.977 147.682 247.977C147.682 243.085 147.605 238.559 147.453 234.395L147.222 220.308V218.032C148.221 218.032 149.105 218.158 149.875 218.413C150.643 218.663 151.217 218.988 151.604 219.381C152.297 220.002 152.72 221.067 152.874 222.589V224.528C152.874 229.367 153.259 238.615 154.031 252.282C154.722 264.653 155.069 273.932 155.069 280.118C155.069 280.904 154.739 281.608 154.088 282.229C153.432 282.848 152.647 283.154 151.723 283.154C150.724 283.161 149.974 282.894 149.477 282.36ZM183.909 281.982C182.598 281.7 181.947 280.911 181.947 279.62V230.609C181.947 229.653 181.716 228.219 181.256 226.307C180.717 224.567 180.446 223.13 180.446 222.004V221.754C181.753 220.179 182.714 219.167 183.33 218.716C184.406 218.716 185.83 218.607 187.598 218.381C189.213 218.155 190.634 218.041 191.866 218.041C193.094 218.041 194.289 218.308 195.441 218.842C196.594 219.378 197.171 220.009 197.171 220.74C197.171 222.426 195.402 223.271 191.866 223.271H190.252C189.79 223.215 189.251 223.186 188.637 223.186C187.946 223.186 187.521 223.215 187.367 223.271C187.367 225.183 187.521 227.488 187.829 230.187L188.058 232.55L188.289 237.188C188.289 238.258 188.173 239.889 187.946 242.08L187.715 246.802L189.328 246.552C190.865 246.212 192.135 246.045 193.138 246.045C193.983 246.045 194.751 246.285 195.444 246.761C196.134 247.241 196.482 247.787 196.482 248.406C196.482 249.083 196.194 249.687 195.617 250.221C195.043 250.758 194.328 251.022 193.483 251.022L192.1 250.937H190.604C189.446 250.937 188.641 251.134 188.179 251.529V277.594L194.638 277.342C199.023 277.342 201.214 278.072 201.214 279.533V279.868C200.754 280.545 199.907 281.093 198.678 281.513C197.448 281.935 196.255 282.202 195.103 282.314L191.297 282.399H187.722C186.254 282.401 184.985 282.261 183.909 281.982ZM227.337 282.023C226.53 281.489 226.127 280.856 226.127 280.125C226.127 279.62 226.279 279.002 226.587 278.269C226.818 277.483 226.934 276.893 226.934 276.5C226.934 271.494 226.549 261.877 225.782 247.649C225.012 235.504 224.629 225.916 224.629 218.886C224.629 218.381 224.895 217.971 225.434 217.665C225.971 217.355 226.626 217.199 227.396 217.199C228.318 217.199 229.126 217.44 229.819 217.915C230.509 218.396 230.857 218.971 230.857 219.645C230.857 223.021 231.088 228.08 231.55 234.829C231.933 242.308 232.124 247.37 232.124 250.01L232.241 251.022V253.046C232.472 257.938 232.588 265.25 232.588 274.976V277.172H241.47C243.085 278.016 243.892 278.858 243.892 279.703C243.892 280.322 243.604 280.87 243.027 281.348C242.453 281.826 241.776 282.064 241.008 282.064C240.777 282.064 240.357 282.008 239.738 281.894L239.279 281.809C238.817 281.865 238.084 281.894 237.085 281.894H235.125C234.586 281.838 233.972 281.809 233.277 281.809C232.509 282.484 231.433 282.821 230.05 282.821C229.046 282.824 228.147 282.557 227.337 282.023ZM267.714 282.023C266.908 281.489 266.504 280.856 266.504 280.125C266.504 279.62 266.655 279.002 266.963 278.269C267.194 277.483 267.311 276.893 267.311 276.5C267.311 271.494 266.926 261.877 266.158 247.649C265.388 235.504 265.005 225.916 265.005 218.886C265.005 218.381 265.272 217.971 265.811 217.665C266.347 217.355 267.003 217.199 267.773 217.199C268.695 217.199 269.502 217.44 270.195 217.915C270.886 218.396 271.234 218.971 271.234 219.645C271.234 223.021 271.465 228.08 271.927 234.829C272.309 242.308 272.501 247.37 272.501 250.01L272.617 251.022V253.046C272.848 257.938 272.965 265.25 272.965 274.976V277.172H281.846C283.461 278.016 284.269 278.858 284.269 279.703C284.269 280.322 283.98 280.87 283.404 281.348C282.83 281.826 282.152 282.064 281.384 282.064C281.153 282.064 280.733 282.008 280.115 281.894L279.655 281.809C279.193 281.865 278.461 281.894 277.462 281.894H275.502C274.963 281.838 274.349 281.809 273.654 281.809C272.886 282.484 271.81 282.821 270.426 282.821C269.423 282.824 268.521 282.557 267.714 282.023ZM314.952 282.739C313.26 281.727 311.797 280.348 310.567 278.606C308.334 275.57 306.684 271.409 305.609 266.121C304.839 262.466 304.26 258.249 303.877 253.466L303.761 248.996V244.439C303.684 242.978 303.644 241.206 303.644 239.127C303.644 235.751 303.838 232.769 304.223 230.182C304.528 227.486 305.298 224.812 306.528 222.169C307.758 219.864 309.529 218.233 311.835 217.277C313.218 216.828 314.604 216.602 315.988 216.602C320.06 216.602 323.292 217.782 325.677 220.145C328.291 222.788 330.022 225.741 330.869 229.003C332.099 232.939 332.79 236.707 332.948 240.306C333.254 244.3 333.408 248.066 333.408 251.612V256.419C333.408 257.375 333.214 259.176 332.834 261.816C332.526 263.898 332.372 265.669 332.372 267.13V267.465C331.912 269.043 331.681 270.897 331.681 273.034C331.681 274.609 331.219 276.24 330.297 277.927C329.375 279.613 328.064 281.047 326.374 282.229C324.683 283.578 322.758 284.253 320.606 284.253C318.527 284.258 316.642 283.753 314.952 282.739ZM324.755 276.5C325.677 274.643 326.35 272.382 326.775 269.707C327.195 267.036 327.562 264.015 327.873 260.639C328.024 259.178 328.101 257.293 328.101 254.985L327.989 247.227C327.833 244.191 327.373 240.393 326.605 235.838C325.989 231.956 324.837 228.529 323.143 225.547C322.375 224.142 321.413 223.045 320.258 222.256C319.106 221.47 317.876 221.075 316.567 221.075C314.646 221.075 313.223 222.171 312.301 224.365C311.144 226.673 310.378 229.204 309.991 231.958C309.531 234.941 309.258 237.78 309.186 240.478L309.069 243.264C308.992 244.05 308.953 245.118 308.953 246.47V246.805C308.953 250.573 309.489 255.213 310.567 260.726C311.797 268.205 313.603 273.52 315.99 276.667C317.526 278.638 319.141 279.62 320.835 279.62C322.373 279.62 323.677 278.579 324.755 276.5Z" fill="#B8BDF4"/>
<path d="M79.5058 480.898C79.387 480.575 67.5598 448.609 66.6908 438.727L66.297 438.768C67.1704 448.711 79.0196 480.738 79.1406 481.06L79.5058 480.898Z" fill="#EFF0F9"/>
<path d="M66.6776 439.771C66.6776 439.771 68.6048 429.511 65.4786 429.12C62.3502 428.727 66.6776 439.771 66.6776 439.771ZM67.529 443.267C67.529 443.267 61.9212 436.73 61.5912 438.662C61.2634 440.596 67.529 443.267 67.529 443.267ZM68.9568 449.159C68.9568 449.159 64.3258 442.981 62.832 444.389C61.336 445.794 68.9568 449.159 68.9568 449.159ZM70.7366 456.049C70.7366 456.049 64.9616 448.679 63.3336 450.48C61.7056 452.283 70.7366 456.049 70.7366 456.049ZM72.4988 462.754C72.4988 462.754 64.471 453.377 63.0652 455.719C61.6616 458.063 72.4988 462.754 72.4988 462.754ZM75.5018 470.733C75.5018 470.733 65.0826 460.594 64.152 462.504C63.2192 464.411 75.5018 470.733 75.5018 470.733ZM78.2034 478.272C78.2034 478.272 67.3662 469.131 65.8658 471.39C64.3676 473.649 78.2034 478.272 78.2034 478.272ZM78.3354 477.879C78.3354 477.879 79.1582 465.95 80.9776 467.913C82.7992 469.876 78.3354 477.879 78.3354 477.879ZM75.5018 470.733C75.5018 470.733 76.5666 459.531 78.8238 460.686C81.081 461.841 75.5018 470.733 75.5018 470.733ZM72.9916 462.506C72.9916 462.506 74.349 453.447 76.23 454.268C78.111 455.09 72.9916 462.506 72.9916 462.506ZM70.7366 456.049C70.7366 456.049 73.1742 445.728 74.8066 447.524C76.439 449.322 70.7366 456.049 70.7366 456.049ZM68.9568 449.159C68.9568 449.159 70.9544 440.499 72.4548 441.838C73.9574 443.175 68.9568 449.159 68.9568 449.159ZM67.639 444.391C67.639 444.391 69.7664 436.189 71.5704 437.113C73.3766 438.038 67.639 444.391 67.639 444.391ZM10.3818 402.041C10.3246 401.866 10.3708 401.662 10.5094 401.536C10.6854 401.376 10.945 401.405 11.0924 401.599C11.1716 401.706 19.3644 412.179 39.0588 398.775C46.0878 393.992 51.348 388.837 55.9878 384.292C64.5678 375.886 70.2372 370.332 78.3926 376.675C78.5774 376.82 78.6258 377.104 78.4916 377.311C78.3596 377.517 78.1022 377.566 77.9152 377.42C70.2944 371.492 65.1156 376.566 56.5356 384.972C52.1004 389.315 46.5806 394.724 39.4922 399.549C19.1422 413.4 10.5358 402.288 10.45 402.174C10.4214 402.135 10.3972 402.089 10.3818 402.041ZM84.48 475.076C84.48 475.076 77.3872 452.428 86.3764 447.752C95.3678 443.076 91.6454 467.41 84.48 475.076ZM512.138 466.748C512.138 466.748 505.045 444.1 514.034 439.424C523.026 434.747 519.303 459.08 512.138 466.748Z" fill="#EFF0F9"/>
<path d="M81.312 482.507C81.312 482.507 87.7382 472.647 75.0002 463.649C75.0002 463.649 68.8248 478.214 81.312 482.507Z" fill="#EFF0F9"/>
<g opacity="0.52">
<path d="M75.1542 464.53L76.406 469.284C76.8284 470.864 77.2552 472.443 77.7172 474.006C77.9438 474.79 78.1792 475.571 78.4278 476.345C78.672 477.122 78.9316 477.891 79.2088 478.653C79.4904 479.413 79.783 480.167 80.1262 480.893C80.465 481.621 80.85 482.33 81.389 482.907C81.092 482.657 80.817 482.364 80.5904 482.031C80.3528 481.708 80.1416 481.361 79.9414 481.01C79.5498 480.298 79.2088 479.556 78.8986 478.801C78.276 477.289 77.77 475.727 77.3058 474.154C76.8504 472.577 76.4412 470.987 76.0826 469.381C75.7174 467.777 75.405 466.161 75.1542 464.53Z" fill="#B8BDF4"/>
</g>
<path d="M508.015 474.943C508.015 474.943 513.099 443.964 474.188 438.55C474.188 438.55 474.448 480.24 508.015 474.943Z" fill="#EFF0F9"/>
<g opacity="0.52">
<path d="M475.442 440.426L483.173 450.016C485.76 453.195 488.352 456.367 491.011 459.463C492.334 461.019 493.671 462.56 495.037 464.064C496.393 465.581 497.781 467.063 499.198 468.507C500.621 469.941 502.071 471.344 503.606 472.625C505.133 473.914 506.752 475.098 508.596 475.79C507.648 475.566 506.708 475.222 505.842 474.72C504.959 474.254 504.117 473.7 503.292 473.123C501.655 471.941 500.111 470.618 498.619 469.233C495.636 466.457 492.873 463.426 490.195 460.315C487.536 457.188 484.973 453.962 482.511 450.645C480.04 447.335 477.675 443.932 475.442 440.426Z" fill="#B8BDF4"/>
</g>
<path d="M488.913 350.066H483.34V344.594H478.379V338.448H483.34V332.975H488.913V338.448H493.874V344.594H488.913V350.066ZM483.883 349.47H488.369V343.997H493.33V339.049H488.369V333.577H483.883V339.049H478.922V343.997H483.883V349.47ZM56.3948 341.192L52.4546 336.846L55.9636 332.975L52.4546 329.105L56.3948 324.759L59.9038 328.629L63.4128 324.759L67.353 329.105L63.844 332.975L67.353 336.846L63.4128 341.192L59.9038 337.322L56.3948 341.192ZM53.2224 336.846L56.3948 340.345L59.9038 336.475L63.4128 340.345L66.5852 336.846L63.0762 332.975L66.5852 329.105L63.4128 325.606L59.9038 329.476L56.3948 325.606L53.2224 329.105L56.7314 332.975L53.2224 336.846Z" fill="#E4E5F4"/>
<path d="M457.237 294.797C450.573 302.147 392.025 302.829 381.016 296.542C370.007 290.254 380.972 153.312 428.193 149.102C467.113 145.634 457.237 294.797 457.237 294.797Z" fill="#EFF0F9"/>
<path d="M405.398 174.888C407.167 176.514 417.056 181.26 423.826 178.953C430.595 176.645 435.62 176.81 438.273 177.23C440.926 177.652 439.452 196.189 439.452 196.189C439.452 196.189 427.658 200.579 418.075 196.189C408.492 191.799 400.088 192.45 399.94 191.962C399.797 191.474 405.398 174.888 405.398 174.888ZM391.301 213.307C393.73 214.933 407.304 219.679 416.594 217.372C425.885 215.064 432.782 215.229 436.425 215.649C440.068 216.071 438.044 234.608 438.044 234.608C438.044 234.608 421.857 238.998 408.703 234.608C395.549 230.218 384.017 230.869 383.814 230.381C383.612 229.893 391.301 213.307 391.301 213.307ZM391.512 248.875C394.242 250.5 409.506 255.247 419.951 252.939C430.399 250.631 438.154 250.796 442.248 251.216C446.345 251.639 444.068 270.176 444.068 270.176C444.068 270.176 425.865 274.566 411.077 270.176C396.288 265.786 383.319 266.436 383.09 265.949C382.866 265.461 391.512 248.875 391.512 248.875Z" fill="#21267F"/>
<path d="M373.014 129.4C372.522 131.101 371.521 132.919 370.685 133.271C370.236 133.669 369.024 139.065 368.685 140.691L361.24 140.344L362.604 132.499C362.604 132.499 362.333 130.856 362.127 128.007C361.92 125.158 361.346 114.127 362.551 114.493C363.757 114.859 364.01 120.992 364.01 120.992C364.01 120.992 365.015 111.166 366.324 111.676C367.633 112.188 366.947 120.747 366.947 120.747C366.947 120.747 368.359 110.023 369.824 109.688C371.29 109.353 369.479 120.967 369.479 120.967C369.479 120.967 372.552 111.295 373.872 111.71C375.192 112.127 372.055 121.882 371.807 124.047C371.646 125.449 372.486 126.403 373.439 125.357C374.392 124.311 377.06 124.241 377.417 125.275C377.769 126.311 373.507 127.699 373.014 129.4Z" fill="#EFD9D3"/>
<g opacity="0.5">
<path d="M366.953 133.229C367.891 133.21 368.826 133.064 369.734 132.807C370.225 132.669 370.713 132.487 371.153 132.21C370.091 133.455 368.733 134.346 367.107 134.258C366.197 134.21 365.092 134.045 364.346 133.416C364.067 133.181 363.829 132.851 363.631 132.477C363.803 132.606 363.981 132.72 364.177 132.812C365.017 133.205 366.054 133.249 366.953 133.229Z" fill="#E5C9C3"/>
</g>
<path d="M413.013 155.681L363.066 186.174L370.724 135.928L361.24 134.159C361.24 134.159 336.318 181.915 343.77 210.417C351.221 238.918 391.301 213.307 391.301 213.307L413.013 155.681Z" fill="#B8BDF4"/>
<path opacity="0.3" d="M396.816 165.569C392.539 172.682 389.061 180.384 384.201 187.06C382.188 189.826 380.037 192.309 377.234 194.093C374.906 195.573 372.269 196.662 370.361 198.822C368.126 201.356 367.915 204.923 366.813 208.08C365.658 211.387 363.455 213.724 360.507 215.11C357.243 216.646 353.615 216.942 350.104 216.891C348.825 216.872 347.571 216.728 346.333 216.51C357.731 234.739 391.301 213.309 391.301 213.309L413.013 155.683L396.816 165.569Z" fill="#B8BDF4"/>
<path d="M415.639 153.715C415.639 153.715 418.266 167.787 408.404 188.009C398.541 208.228 395.892 223.831 395.274 239.447C393.085 294.738 378.937 299.619 378.937 299.619C378.937 299.619 370.247 300.825 373.771 284.983C375.421 277.57 371.809 180.967 415.639 153.715ZM437.246 151.458C433.074 151.342 422.946 199.88 433.937 228.932C444.928 257.987 422.459 285.299 430.608 292.516C438.757 299.733 450.743 308.352 465.92 303.118C481.098 297.883 462.284 284.224 460.163 252.134C458.042 220.043 458.357 200.312 458.357 200.312C458.357 200.312 458.957 152.065 437.246 151.458Z" fill="#B8BDF4"/>
<path opacity="0.3" d="M460.163 252.134C458.715 230.25 458.403 214.122 458.35 206.073C456.751 202.858 455.508 199.407 454.476 195.964C453.02 191.1 451.953 186.055 451.438 180.952C449.128 185.689 448.386 191.477 449.154 196.718C449.579 199.62 450.644 202.367 451.44 205.161C452.19 207.791 452.811 210.47 452.912 213.237C453.017 216.139 452.507 218.995 451.473 221.664C450.868 223.227 450.054 224.669 449.385 226.195C448.741 227.661 448.171 229.168 447.647 230.689C445.584 236.685 444.184 242.951 441.439 248.646C440.2 251.216 438.612 253.514 437.107 255.897C436.731 256.492 436.35 257.099 435.981 257.72C435.67 259.491 435.305 261.219 434.907 262.906C437.448 263.131 440.051 262.415 442.589 262.367C445.423 262.313 448.193 263.396 450.635 264.92C455.015 267.652 458.396 272.076 460.084 277.288C461.784 282.54 462.453 288.439 461.316 293.918C460.343 298.602 457.897 302.3 454.098 304.576C457.789 304.923 461.729 304.562 465.923 303.115C481.098 297.884 462.284 284.224 460.163 252.134Z" fill="#B8BDF4"/>
<path d="M417.714 153.293C418.271 149.575 422.27 146.229 426.648 145.814C431.026 145.401 434.126 148.078 433.572 151.796C433.017 155.513 429.015 158.86 424.637 159.275C420.257 159.69 417.157 157.011 417.714 153.293Z" fill="#EFF0F9"/>
<path d="M420.88 141.06L419.901 154.086C419.901 154.086 427.898 156.875 431.275 151.223L429.04 140.548L420.88 141.06Z" fill="#EFD9D3"/>
<path opacity="0.5" d="M429.222 141.417C428.608 145.105 420.849 147.214 421.452 150.517C421.758 152.189 423.284 153.196 424.699 153.703C425.636 154.04 426.626 154.198 427.623 154.232C424.041 155.528 419.901 154.084 419.901 154.084L420.88 141.058L429.222 141.417Z" fill="#E5C9C3"/>
<path d="M437.015 123.253C437.015 123.253 437.402 143.618 422.083 143.336C406.765 143.055 415.488 117.07 415.488 117.07C415.488 117.07 427.83 107.242 437.015 123.253Z" fill="#EFD9D3"/>
<path d="M414.291 116.985C414.291 116.985 418.264 118.965 419.529 118.524C420.794 118.084 421.936 116.449 421.936 116.449V119.623C421.936 119.623 434.254 126.289 438.24 123.176C442.229 120.065 422.391 98.7318 414.291 116.985Z" fill="#21267F"/>
<path d="M435.035 126.284C435.035 126.284 437.228 124.445 438.464 125.799C439.701 127.153 436.784 134.714 434.559 132.521C432.337 130.325 435.035 126.284 435.035 126.284Z" fill="#EFD9D3"/>
<path d="M435.556 127.483C435.635 127.498 435.717 127.461 435.763 127.383C435.769 127.374 436.344 126.432 437.012 126.389C437.303 126.372 437.569 126.524 437.829 126.859C437.846 126.883 437.867 126.903 437.891 126.917C437.916 126.932 437.942 126.941 437.97 126.944C437.997 126.947 438.025 126.944 438.051 126.935C438.077 126.925 438.102 126.911 438.123 126.891C438.144 126.871 438.161 126.847 438.174 126.82C438.186 126.793 438.194 126.763 438.195 126.733C438.197 126.703 438.194 126.672 438.185 126.644C438.176 126.615 438.162 126.588 438.143 126.566C437.798 126.119 437.411 125.906 436.986 125.937C436.113 125.995 435.446 127.087 435.417 127.134C435.402 127.158 435.392 127.186 435.387 127.216C435.381 127.245 435.381 127.275 435.387 127.304C435.392 127.334 435.403 127.362 435.418 127.386C435.433 127.411 435.452 127.432 435.475 127.449C435.501 127.466 435.527 127.478 435.556 127.483ZM430.355 126.621C430.355 126.621 426.639 126.279 426.276 125.862C425.913 125.445 427.104 124.634 428.732 125.151C430.36 125.668 430.782 126.624 430.355 126.621ZM426.921 128.281C426.82 128.937 427.148 129.541 427.649 129.633C428.151 129.725 428.639 129.274 428.738 128.619C428.839 127.963 428.512 127.357 428.01 127.262C427.869 127.235 427.731 127.252 427.599 127.308C427.768 127.4 427.867 127.636 427.83 127.886C427.783 128.182 427.561 128.388 427.335 128.347C427.167 128.315 427.042 128.158 427.007 127.959C426.967 128.063 426.939 128.167 426.921 128.281ZM420.697 124.823C420.697 124.823 416.981 124.481 416.618 124.064C416.255 123.646 417.446 122.836 419.074 123.353C420.702 123.87 421.124 124.826 420.697 124.823ZM417.263 126.483C417.162 127.138 417.49 127.743 417.991 127.835C418.493 127.927 418.981 127.476 419.08 126.82C419.181 126.165 418.854 125.559 418.352 125.464C418.211 125.437 418.073 125.454 417.941 125.51C418.11 125.602 418.209 125.838 418.172 126.088C418.128 126.384 417.903 126.59 417.677 126.549C417.509 126.517 417.384 126.359 417.349 126.16C417.309 126.265 417.281 126.369 417.263 126.483ZM422.182 130.875C422.25 130.888 422.325 130.861 422.374 130.798C422.446 130.703 422.435 130.56 422.349 130.48C421.942 130.104 421.894 129.914 421.901 129.834C421.914 129.672 422.202 129.487 422.51 129.296C422.697 129.179 422.906 129.046 423.111 128.886C424.076 128.124 424.233 125.622 424.239 125.517C424.241 125.488 424.238 125.458 424.229 125.43C424.22 125.402 424.207 125.376 424.189 125.353C424.171 125.331 424.149 125.313 424.125 125.3C424.101 125.287 424.075 125.279 424.048 125.277C423.994 125.274 423.941 125.294 423.9 125.334C423.859 125.373 423.834 125.429 423.83 125.488C423.79 126.153 423.544 127.99 422.873 128.519C422.686 128.667 422.492 128.789 422.308 128.905C421.89 129.169 421.527 129.398 421.494 129.796C421.469 130.104 421.652 130.422 422.088 130.827C422.114 130.851 422.147 130.868 422.182 130.875ZM417.969 134.282C417.899 134.29 417.828 134.319 417.767 134.37C417.597 134.515 417.569 134.782 417.699 134.969C417.734 135.018 418.57 136.18 420.088 136.328C421.384 136.457 422.748 135.819 424.145 134.433C424.182 134.395 424.213 134.35 424.235 134.3C424.257 134.249 424.269 134.194 424.272 134.139C424.275 134.083 424.267 134.027 424.25 133.974C424.233 133.921 424.207 133.873 424.173 133.831C424.139 133.79 424.098 133.756 424.052 133.732C424.007 133.708 423.957 133.694 423.906 133.691C423.856 133.688 423.805 133.696 423.757 133.715C423.709 133.733 423.665 133.762 423.628 133.8C422.396 135.02 421.227 135.586 420.156 135.479C418.968 135.362 418.315 134.455 418.308 134.445C418.227 134.326 418.097 134.27 417.969 134.282Z" fill="#21267F"/>
<path opacity="0.5" d="M426.213 133.215C426.213 134.21 427.277 135.015 428.589 135.015C429.902 135.015 430.965 134.21 430.965 133.215C430.965 132.22 429.9 131.414 428.589 131.414C427.277 131.414 426.213 132.22 426.213 133.215ZM413.895 130.033C413.895 130.829 414.746 131.475 415.796 131.475C416.845 131.475 417.696 130.829 417.696 130.033C417.696 129.237 416.845 128.592 415.796 128.592C414.746 128.594 413.895 129.237 413.895 130.033Z" fill="#E5C9C3"/>
<path d="M238.053 0.619235V49.3807H239.657V0.604675L238.053 0.619235ZM248.789 77.1442C248.789 83.1938 244.341 88.1006 238.856 88.1006C233.367 88.1006 228.923 83.1963 228.923 77.1442C228.923 71.0921 233.367 66.1878 238.856 66.1878C244.341 66.1902 248.789 71.0945 248.789 77.1442Z" fill="#EFF0F9"/>
<path d="M248.981 55.1998L248.985 55.195C249.018 55.1416 249.203 54.7946 249.137 54.7193C247.267 52.6591 246.42 48.0703 246.42 48.0703C245.267 46.8788 239.857 46.8424 238.863 46.8424C237.871 46.8424 232.463 46.8812 231.31 48.0703C231.31 48.0703 230.463 52.6591 228.593 54.7193C228.51 54.8116 228.6 55.0008 228.738 55.1998C218.629 58.9417 211.473 68.1097 211.473 78.8307H266.242C266.24 68.1121 259.09 58.9417 248.981 55.1998Z" fill="#EFD9D3"/>
<path d="M240.493 47.6699C242.073 48.4828 244.539 49.8466 243.694 52.232C243.043 54.0738 240.867 55.0445 239.305 55.724C244.772 56.6777 250.358 57.9978 254.294 62.4289C256.071 64.4333 257.237 67.6049 256.461 70.4029C255.783 72.8417 253.726 73.5891 251.601 73.6012C248.811 73.6158 246.085 72.7034 243.296 72.7373C239.846 72.7762 237.706 75.3727 234.663 76.688C231.403 78.0954 227.9 77.928 224.479 78.4473C223.696 78.5662 222.911 78.6997 222.123 78.8283H266.235C266.235 68.1097 259.085 58.9393 248.976 55.1998L248.981 55.195C249.014 55.1416 249.198 54.7946 249.132 54.7193C247.262 52.6591 246.415 48.0703 246.415 48.0703C245.263 46.8788 239.853 46.8424 238.858 46.8424C238.812 46.8424 238.713 46.8448 238.649 46.8448C239.279 47.0996 239.901 47.3665 240.493 47.6699Z" fill="#E5C9C3"/>
<path d="M400.363 229.733C400.363 229.733 390.331 229.9 384.201 232.968C378.072 236.035 367.627 232.635 367.627 232.635L366.694 236.775C366.694 236.775 389.066 243.88 400.363 229.733Z" fill="#797DFF"/>
<path d="M410.131 238.214C410.131 238.214 411.543 227.961 409.875 226.258C408.208 224.554 405.482 226.183 405.482 226.183L399.947 230.286C399.947 230.286 375.364 238.928 366.694 236.775C366.694 236.775 379.599 247.632 384.259 261.801C388.918 275.971 390.207 282.382 390.207 282.382C390.207 282.382 395.919 279.392 405.174 277.948C414.432 276.502 410.131 238.214 410.131 238.214Z" fill="#606AE8"/>
<path d="M399.947 230.289C399.947 230.289 412.012 220.623 409.409 230.153C406.804 239.682 379.388 244.9 379.388 244.9C379.388 244.9 407.416 276.65 403.643 289.73C403.643 289.73 410.001 290.421 418.719 295.18C427.438 299.939 431.781 289.128 430.265 279.431C430.265 279.431 412.713 227.857 410.115 225.023C407.515 222.191 399.947 230.289 399.947 230.289Z" fill="#797DFF"/>
<path d="M408.542 294.904C408.542 294.904 414.007 293.037 422.959 291.04C426.056 290.358 430.461 288.985 429.937 281.001C429.801 278.972 428.685 274.624 427.04 269.2C425.339 263.587 423.069 256.802 420.726 250.26C416.44 238.323 411.906 227.127 410.131 225.052C410.502 225.649 416.654 235.977 406.045 243.077C395.481 250.144 390.155 248.649 389.814 248.554C390.375 249.275 411.281 276.082 408.542 294.904Z" fill="#B8BDF4"/>
<g opacity="0.35">
<path d="M407.231 248.972C407.213 248.945 407.196 248.918 407.178 248.889C412.368 245.065 414.229 239.908 414.256 239.835C414.284 239.754 414.341 239.688 414.413 239.652C414.485 239.617 414.566 239.613 414.641 239.643C414.795 239.709 414.872 239.898 414.814 240.068C414.788 240.143 412.87 245.475 407.528 249.423C407.427 249.272 407.33 249.12 407.231 248.972ZM399.238 252.434C401.617 251.935 403.636 251.085 405.374 250.073C405.431 250.161 405.489 250.25 405.546 250.338C405.605 250.43 405.665 250.52 405.724 250.612C403.922 251.672 401.823 252.561 399.348 253.082H399.344C399.183 253.114 399.032 252.997 399.001 252.82C398.97 252.641 399.078 252.468 399.238 252.434ZM412.925 249.624C415.107 246.923 415.921 244.514 415.939 244.465C415.994 244.295 416.163 244.206 416.319 244.266C416.473 244.327 416.555 244.514 416.502 244.686C416.484 244.737 415.633 247.285 413.329 250.114C413.187 249.959 413.052 249.795 412.925 249.624ZM400.776 256.72C400.875 256.684 400.935 256.691 401.012 256.676C405.973 255.732 409.407 253.371 411.726 250.976C411.855 251.141 411.99 251.299 412.133 251.454C409.741 253.927 406.208 256.356 401.113 257.327L400.875 257.37C400.712 257.399 400.558 257.278 400.534 257.098C400.508 256.919 400.616 256.749 400.776 256.72ZM402.318 261.001C404.809 260.629 406.903 259.901 408.687 258.996C408.756 259.205 408.826 259.411 408.905 259.615C407.306 260.421 405.458 261.085 403.317 261.493C403.018 261.549 402.71 261.602 402.4 261.648C402.237 261.673 402.087 261.547 402.063 261.367C402.041 261.192 402.158 261.018 402.318 261.001ZM410.208 258.139C415.89 254.553 417.595 249.168 417.617 249.095C417.67 248.923 417.839 248.828 417.993 248.887C418.15 248.942 418.235 249.129 418.183 249.302C418.161 249.379 416.39 255.045 410.421 258.766C410.346 258.557 410.274 258.348 410.208 258.139ZM405.519 265.689C417.116 263.481 419.841 254.014 419.87 253.915C419.916 253.742 419.828 253.558 419.672 253.505C419.516 253.451 419.349 253.548 419.3 253.723C419.272 253.822 416.409 263.735 403.858 265.286C403.691 265.298 403.577 265.47 403.597 265.65C403.614 265.83 403.762 265.961 403.927 265.939C404.474 265.871 405.005 265.786 405.519 265.689ZM405.398 269.569C408.199 269.295 410.491 268.606 412.405 267.71C412.504 267.902 412.595 268.101 412.694 268.293C411.259 268.967 409.625 269.535 407.719 269.899C407 270.035 406.243 270.147 405.451 270.222C405.288 270.239 405.143 270.105 405.128 269.923C405.112 269.744 405.251 269.586 405.398 269.569ZM413.937 266.907C419.562 263.57 420.963 258.426 420.981 258.353C421.025 258.176 421.192 258.076 421.348 258.125C421.507 258.173 421.599 258.355 421.555 258.528C421.535 258.603 420.083 264.007 414.223 267.485C414.124 267.295 414.036 267.099 413.937 266.907ZM418.948 268.955C421.898 266.089 422.651 263.039 422.664 262.986C422.704 262.808 422.866 262.702 423.025 262.748C423.185 262.791 423.28 262.971 423.24 263.146C423.227 263.204 422.424 266.458 419.3 269.482C419.19 269.3 419.071 269.125 418.948 268.955ZM406.936 273.852C411.838 273.488 415.25 271.928 417.617 270.103C417.707 270.227 417.798 270.35 417.881 270.479C417.914 270.53 417.947 270.583 417.98 270.637C416.04 272.139 413.424 273.459 409.913 274.129C408.998 274.304 408.019 274.432 406.978 274.51C406.813 274.522 406.672 274.386 406.661 274.204C406.648 274.022 406.776 273.857 406.936 273.852ZM421.909 272.19C423.841 269.829 424.338 267.659 424.347 267.613C424.382 267.436 424.543 267.327 424.703 267.366C424.864 267.405 424.965 267.582 424.928 267.759C424.917 267.81 424.367 270.246 422.187 272.821C422.09 272.612 421.995 272.403 421.909 272.19ZM420.625 273.561C420.717 273.758 420.809 273.954 420.906 274.148C419.555 275.391 417.78 276.577 415.433 277.444C415.428 277.429 415.422 277.415 415.415 277.4C415.389 277.317 415.358 277.233 415.338 277.148C415.391 277.381 415.334 277.133 415.325 277.097C415.301 277.004 415.279 276.91 415.254 276.818C417.578 275.959 419.318 274.784 420.625 273.561ZM408.474 278.138C410.43 278.036 412.124 277.737 413.637 277.325C413.692 277.541 413.747 277.754 413.811 277.968C413.263 278.118 412.7 278.259 412.1 278.373C410.995 278.584 409.798 278.73 408.503 278.795C408.338 278.805 408.199 278.664 408.19 278.482C408.184 278.3 408.32 278.143 408.474 278.138ZM420.16 279.764C425.119 276.767 426.017 272.309 426.028 272.243C426.059 272.066 426.215 271.952 426.378 271.986C426.538 272.022 426.644 272.195 426.613 272.372C426.6 272.442 425.652 277.223 420.385 280.377C420.31 280.171 420.233 279.97 420.16 279.764ZM410.012 282.421C413.635 282.312 416.442 281.586 418.629 280.576C418.702 280.778 418.779 280.977 418.851 281.178C417.547 281.782 416.049 282.295 414.28 282.629C412.997 282.874 411.585 283.03 410.029 283.078C409.864 283.083 409.728 282.94 409.724 282.758C409.719 282.578 409.851 282.426 410.012 282.421ZM417.571 285.959C426.488 283.695 427.7 276.953 427.711 276.873C427.739 276.694 427.893 276.575 428.056 276.606C428.217 276.638 428.327 276.805 428.3 276.985C428.287 277.07 427.042 284.229 417.747 286.599C417.677 286.391 417.628 286.17 417.571 285.959ZM411.552 286.706C413.164 286.689 414.594 286.541 415.906 286.318C415.963 286.531 416.007 286.75 416.073 286.959C414.715 287.194 413.228 287.347 411.556 287.364C411.391 287.366 411.257 287.218 411.257 287.039C411.255 286.854 411.389 286.704 411.552 286.706Z" fill="#EFF0F9"/>
</g>
<path opacity="0.19" d="M424.514 268.829L427.04 269.203C425.339 263.59 423.069 256.805 420.726 250.263L420.24 251.19C419.225 252.512 420.594 256.142 420.594 256.142C420.594 256.142 416.55 261.833 408.485 260.447C408.485 260.447 408.159 272.207 424.514 268.829Z" fill="#916640"/>
<path d="M412.544 266.973C412.755 265.701 417.925 264.939 417.925 264.939C417.925 264.939 409.526 264.709 409.851 263.318C410.177 261.93 417.479 261.935 417.479 261.935C417.479 261.935 408.287 261.36 407.884 259.877C407.482 258.397 417.461 259.309 417.461 259.309C417.461 259.309 409.022 256.936 409.266 255.543C409.51 254.15 418.024 256.582 419.877 256.662C421.078 256.713 421.817 255.769 420.851 254.873C419.888 253.978 419.61 251.236 420.455 250.784C421.3 250.333 422.825 254.606 424.305 254.975C425.786 255.344 427.407 256.227 427.772 257.057C429.176 258.671 431.858 255.344 431.858 255.344C431.948 255.958 435.992 260.571 432.938 262.852L428.039 265.216C428.039 265.216 426.411 265.856 424.017 266.303C421.623 266.752 412.333 268.244 412.544 266.973Z" fill="#EFD9D3"/>
<path d="M449.88 159.318C449.88 159.318 486.303 187.681 488.173 218.527C489.647 242.827 430.562 265.514 430.562 265.514L429.106 256.795L458.357 221.075C458.357 221.075 442.449 165.155 449.88 159.318Z" fill="#B8BDF4"/>
<g opacity="0.5">
<path d="M420.62 250.872C420.917 250.901 421.192 251.41 421.3 251.622C421.3 251.622 421.078 252.046 420.889 251.845C420.697 251.643 420.323 250.843 420.62 250.872ZM409.394 255.56C409.528 255.254 410.498 255.339 410.575 255.427C410.575 255.427 410.368 256.269 410.274 256.395C410.179 256.521 409.257 255.866 409.394 255.56ZM408.164 259.862C408.219 259.528 409.174 259.324 409.268 259.384C409.268 259.384 409.275 260.256 409.215 260.406C409.156 260.554 408.111 260.197 408.164 259.862ZM410.205 263.393C410.247 263.056 411.191 262.804 411.288 262.859C411.288 262.859 411.33 263.731 411.277 263.881C411.224 264.034 410.164 263.731 410.205 263.393ZM412.784 266.956C412.795 266.672 413.56 266.383 413.646 266.422C413.646 266.422 413.743 267.14 413.708 267.271C413.673 267.402 412.773 267.237 412.784 266.956Z" fill="#EFF0F9"/>
</g>
<path d="M163.097 58.0924C158.561 62.1013 153.729 61.9484 149.802 61.2738C150.319 60.6841 150.839 60.0944 151.36 59.5047C150.931 58.9296 150.498 58.3545 150.064 57.7818C150.071 57.7599 156.768 58.8932 159.291 56.998C159.559 57.4299 159.828 57.8619 160.094 58.2962C160.094 58.2962 161.445 58.6554 163.097 58.0924Z" fill="#797DFF"/>
<path d="M107.204 86.3946C107.195 86.3922 105.074 89.9958 105.323 90.9834C104.993 90.8184 104.663 90.6558 104.331 90.4933C104.058 90.5345 103.783 90.5782 103.51 90.6219C103.51 90.6219 103.998 87.7244 105.118 85.7176L105.937 86.3437L107.204 86.3946Z" fill="#B8BDF4"/>
<path d="M140.226 74.9699C140.224 74.9699 142.809 75.1567 145.198 76.7025C144.929 76.9913 144.661 77.2801 144.395 77.5713C144.485 77.9668 144.577 78.3599 144.668 78.7555C144.672 78.7458 140.642 77.5519 139.317 77.6732C139.203 77.1757 139.088 76.6783 138.972 76.1808C139.388 75.778 139.806 75.3727 140.226 74.9699Z" fill="#797DFF"/>
<path d="M168.971 79.9445C168.973 79.9445 167.281 78.3915 165.059 77.5834C165.088 77.9085 165.119 78.2313 165.147 78.554C164.914 78.6123 164.681 78.6705 164.446 78.7288C164.446 78.7263 166.289 79.2456 167.479 80.2891C167.541 80.1217 167.605 79.9542 167.669 79.7868C168.102 79.8377 168.535 79.8911 168.971 79.9445ZM112.556 51.2225C112.578 51.1885 120.388 54.3044 121.469 54.615C120.87 54.7023 120.272 54.7921 119.673 54.8819C119.907 55.3139 120.138 55.7458 120.369 56.1778C120.388 56.1389 112.141 53.4599 111.184 53.3386C111.582 53.0789 111.98 52.8217 112.378 52.5644L112.556 51.2225Z" fill="#B8BDF4"/>
<path d="M217.813 118.182C213.259 122.164 208.428 121.984 204.503 121.285C205.022 120.698 205.546 120.111 206.07 119.526C205.642 118.947 205.213 118.37 204.78 117.796C204.787 117.774 211.479 118.946 214.012 117.065C214.278 117.5 214.544 117.934 214.808 118.368C214.812 118.366 216.161 118.735 217.813 118.182Z" fill="#797DFF"/>
<path d="M161.788 146.159C161.779 146.156 159.643 149.748 159.885 150.738C159.555 150.573 159.227 150.408 158.895 150.243L158.072 150.366C158.072 150.366 158.574 147.474 159.705 145.472C159.977 145.681 160.248 145.892 160.519 146.103C160.943 146.12 161.366 146.139 161.788 146.159Z" fill="#B8BDF4"/>
<path d="M194.863 134.926C194.861 134.926 197.443 135.127 199.828 136.687C199.558 136.974 199.289 137.262 199.021 137.551C199.111 137.947 199.199 138.342 199.287 138.735C199.291 138.726 195.268 137.51 193.941 137.624C193.829 137.127 193.717 136.629 193.602 136.132C194.022 135.726 194.443 135.326 194.863 134.926Z" fill="#797DFF"/>
<path d="M223.584 140.065C223.584 140.065 221.901 138.502 219.683 137.682C219.712 138.007 219.738 138.33 219.767 138.655C219.534 138.711 219.298 138.769 219.065 138.825C219.065 138.825 220.904 139.352 222.09 140.403L222.281 139.9C222.715 139.954 223.148 140.009 223.584 140.065ZM167.308 111.018C167.33 110.984 175.124 114.146 176.202 114.461C175.604 114.546 175.006 114.631 174.407 114.719C174.638 115.151 174.867 115.585 175.096 116.017C175.116 115.978 166.881 113.251 165.924 113.124C166.322 112.867 166.723 112.612 167.123 112.355C167.185 111.911 167.246 111.465 167.308 111.018Z" fill="#B8BDF4"/>
<path d="M364.173 51.1788C362.628 58.9369 358.006 61.6183 353.907 63.0743C354.002 62.0357 354.097 60.9947 354.193 59.9561C353.411 59.4915 352.626 59.0312 351.839 58.5753C351.831 58.551 358.829 56.003 359.902 52.1131C360.444 52.4892 360.98 52.8678 361.517 53.2463C361.519 53.2463 363.015 52.8823 364.173 51.1788Z" fill="#797DFF"/>
<path d="M329.787 117.854C329.782 117.854 329.934 123.452 330.728 124.573C330.328 124.532 329.927 124.491 329.527 124.452C329.298 124.641 329.069 124.833 328.843 125.022C328.845 125.022 327.609 121.137 327.45 118.06C327.829 118.184 328.205 118.308 328.581 118.434C328.981 118.24 329.384 118.046 329.787 117.854ZM353.665 85.7443C353.661 85.7467 356.191 84.5139 359.359 85.0915L359.135 86.647C359.458 87.0935 359.779 87.5376 360.1 87.9841C360.1 87.9744 355.623 88.763 354.46 89.6609C354.053 89.0979 353.643 88.5374 353.234 87.9768C353.377 87.2318 353.52 86.4868 353.665 85.7443ZM383.484 75.113C383.486 75.113 380.976 74.1788 378.413 74.4991C378.638 74.8922 378.86 75.2829 379.082 75.676C378.899 75.892 378.717 76.1055 378.534 76.3215C378.532 76.3215 380.565 75.8629 382.298 76.4623C382.257 76.2123 382.217 75.9599 382.175 75.71C382.611 75.511 383.046 75.312 383.484 75.113ZM312.165 71.638C312.171 71.5895 321.704 71.1357 322.918 70.9173C322.414 71.3541 321.911 71.7909 321.411 72.2277C321.926 72.6281 322.436 73.0285 322.947 73.4314C322.949 73.3804 313.335 74.584 312.334 74.9432C312.532 74.4142 312.73 73.8876 312.93 73.3586C312.675 72.7859 312.42 72.2132 312.165 71.638Z" fill="#B8BDF4"/>
<path d="M295.944 156.656C290.974 154.555 290.105 151.674 290.096 149.238C290.792 149.469 291.487 149.704 292.18 149.942C292.688 149.617 293.196 149.291 293.707 148.966C293.704 148.969 293.795 153.065 296.237 154.298C295.858 154.509 295.482 154.72 295.104 154.931C295.104 154.933 295.027 155.771 295.944 156.656Z" fill="#797DFF"/>
<path d="M258.159 125.935C258.163 125.927 254.065 125.059 252.985 125.396C253.147 125.144 253.308 124.891 253.471 124.639C253.409 124.459 253.35 124.277 253.288 124.098C253.288 124.095 256.524 123.969 258.795 124.433C258.577 124.646 258.359 124.862 258.141 125.076C258.15 125.362 258.155 125.648 258.159 125.935ZM274.329 145.452C274.331 145.452 274.584 147.088 273.482 148.852C273.134 148.738 272.785 148.626 272.435 148.515C272.05 148.646 271.665 148.775 271.28 148.908C271.278 148.908 271.72 146.168 271.372 145.358C271.865 145.198 272.36 145.037 272.855 144.88C273.348 145.069 273.838 145.261 274.329 145.452ZM276.076 163.992C276.076 163.992 277.077 162.64 277.268 161.143C276.962 161.228 276.654 161.316 276.349 161.403C276.23 161.274 276.109 161.146 275.988 161.019C275.988 161.019 275.983 162.235 275.317 163.179H275.854C275.928 163.451 276.003 163.72 276.076 163.992ZM297.015 126.044C297.004 126.039 293.876 130.878 293.663 131.567C293.533 131.21 293.403 130.856 293.273 130.499C292.818 130.667 292.365 130.832 291.909 131.002C291.898 130.999 294.494 125.862 294.672 125.294C294.963 125.525 295.251 125.755 295.541 125.986C296.032 126.003 296.523 126.022 297.015 126.044Z" fill="#B8BDF4"/>
</g>
<defs>
<clipPath id="clip0_14_14">
<rect width="550" height="550" fill="white"/>
</clipPath>
</defs>
</svg>
