<svg width="652" height="483" viewBox="0 0 652 483" fill="none" xmlns="http://www.w3.org/2000/svg">
<path d="M619.814 401.325C617.363 399.141 614.143 398.327 611.033 397.669C589.333 393.078 567.064 393.064 544.957 393.066C377.767 393.084 210.577 393.104 43.3869 393.121L50.4294 396.121C41.4506 397.346 32.137 398.695 24.5085 403.996C16.88 409.297 11.4716 419.765 14.3815 429.096C15.739 433.454 18.7016 437.02 22.0209 439.868C43.9892 458.72 76.0883 447.495 103.591 453.037C120.682 456.483 135.959 466.539 152.308 472.968C176.072 482.31 202.381 483.828 226.919 477.273C241.222 473.451 254.85 466.987 269.192 463.339C287.353 458.72 306.203 458.724 324.854 458.754L418.696 458.897C435.833 458.922 453.006 458.95 470.048 460.918C498.771 464.231 527.235 473.043 556.045 470.784C584.856 468.527 615.57 451.323 623.128 420.966C624.82 414.163 624.826 405.787 619.814 401.325Z" fill="#D1DEF2"/>
<path d="M622.831 422.803L66.6491 422.305C66.6491 422.305 -30.7981 316.196 39.327 223.971C109.452 131.747 137.324 280.919 154.908 140.984C175.919 -26.2138 423.216 -42.0542 429.913 89.092C447.892 441.071 730.296 89.6012 622.831 422.803Z" fill="#E6EBF4"/>
<path d="M44.335 380.915H45.9273L45.6761 392.606H44.335V380.915Z" fill="#5CA88D"/>
<path d="M59.2808 374.901C59.8814 374.332 76.2612 358.092 74.3322 337.712C72.4032 317.332 56.7732 312.289 61.2116 288.546C65.65 264.803 61.2116 248.414 47.7052 248.206C34.197 247.996 28.0243 262.282 33.0396 287.706C38.0568 313.129 16.5634 323.072 17.6025 341.704C18.8017 363.18 34.3899 398.434 59.2808 374.901Z" fill="#7AC094"/>
<path opacity="0.2" d="M38.3497 251.382C38.5827 252.513 39.1941 253.631 40.195 254.118C41.1176 254.568 42.1786 254.477 43.1485 254.291C44.9446 253.948 46.7589 253.215 48.606 253.478C49.5341 253.611 50.4185 254.055 51.2501 254.503C52.1655 254.996 53.0335 255.591 53.8433 256.268C55.3938 257.566 56.7386 259.187 57.6649 261.07C58.7203 263.216 59.0861 265.582 59.1498 267.993C59.2208 270.777 58.9842 273.565 59.4464 276.322C59.754 278.156 60.2744 280.168 61.4536 281.577C61.6811 281.848 61.934 282.066 62.1979 282.256C64.762 261.955 59.9814 248.394 47.7034 248.204C43.9965 248.146 40.8538 249.196 38.3315 251.255C38.3406 251.299 38.3406 251.338 38.3497 251.382Z" fill="#F2FAFF"/>
<path opacity="0.15" d="M48.2784 333.267C46.4022 329.504 46.3767 324.832 47.4086 320.789C47.9618 318.623 48.808 316.553 49.7797 314.573C50.1728 313.775 50.6569 313.018 51.0135 312.199C51.2719 311.609 51.221 311.092 51.0117 310.489C50.6496 309.447 50.1364 308.454 49.7306 307.43C49.323 306.397 48.9299 305.355 48.5969 304.291C47.8999 302.076 47.6197 299.835 47.4559 297.51C47.2957 295.216 47.3722 292.842 48.0455 290.642C48.646 288.678 49.9453 287.093 50.6004 285.171C49.5268 284.456 48.5932 283.534 47.8216 282.45C46.9318 281.198 46.2403 279.805 45.6961 278.333C45.6907 281.585 45.6907 284.836 45.6834 288.088C45.6525 301.047 45.6033 314.007 45.5742 326.966C45.5487 338.514 45.5506 350.063 45.5506 361.611C45.7708 360.781 46.0055 359.954 46.273 359.14C48.6606 351.82 52.6422 345.321 56.502 338.841C53.0389 338.984 49.9235 336.566 48.2784 333.267Z" fill="#202234"/>
<path opacity="0.15" d="M50.2675 381.157C48.3731 381.179 46.4587 380.832 44.759 379.891C42.9647 378.896 41.5544 377.257 40.5626 375.367C39.9512 374.202 39.5872 373.046 39.3797 371.727C39.1559 370.308 38.923 368.97 38.0659 367.825C36.5737 365.832 34.026 365.554 31.9842 364.548C30.0698 363.604 28.6012 361.811 27.4657 359.925C26.3265 358.032 25.5203 355.904 24.9671 353.728C23.797 349.119 23.6696 344.195 24.2119 339.467C24.7123 335.094 25.7715 330.76 27.7641 326.9C30.1389 322.301 33.2598 318.195 35.4818 313.501C36.5718 311.199 37.3835 308.745 37.7383 306.177C38.1605 303.118 37.8966 300.035 37.2561 297.035C36.5482 293.723 35.4236 290.545 34.268 287.394C33.1889 284.458 32.2662 281.493 31.6493 278.404C31.9314 281.315 32.39 284.414 33.0396 287.706C38.0568 313.129 16.5634 323.072 17.6025 341.704C18.6489 360.462 30.6739 389.723 50.2839 381.157H50.2675Z" fill="#202234"/>
<path d="M62.8057 333.2C62.7869 333.179 62.7645 333.162 62.7398 333.151C62.7151 333.14 62.6887 333.134 62.6619 333.134C62.6352 333.134 62.6087 333.14 62.584 333.151C62.5593 333.162 62.5369 333.179 62.5182 333.2L45.405 351.832V320.149L54.9406 309.181C55.017 309.094 55.0152 308.954 54.9333 308.868C54.8942 308.828 54.8419 308.806 54.7881 308.808C54.7342 308.809 54.683 308.834 54.6458 308.876L45.405 319.503V290.997L52.3329 283.34C52.4111 283.253 52.4111 283.114 52.331 283.027C52.2926 282.986 52.2408 282.963 52.1869 282.963C52.133 282.964 52.0815 282.987 52.0435 283.029L45.405 290.367V265.853C45.4061 265.823 45.4017 265.794 45.3921 265.766C45.3824 265.738 45.3676 265.712 45.3487 265.691C45.3297 265.669 45.307 265.652 45.2818 265.64C45.2566 265.629 45.2295 265.623 45.2021 265.623C45.1747 265.623 45.1476 265.629 45.1224 265.64C45.0972 265.652 45.0744 265.669 45.0555 265.691C45.0365 265.712 45.0217 265.738 45.0121 265.766C45.0024 265.794 44.998 265.823 44.9992 265.853V300.043L39.7291 295.152C39.688 295.115 39.6349 295.096 39.5814 295.101C39.5279 295.106 39.4783 295.134 39.4434 295.178C39.3706 295.271 39.3815 295.41 39.467 295.489L45.001 300.623V332.821L34.5591 321.451C34.4809 321.366 34.3516 321.366 34.2716 321.451C34.1933 321.538 34.1933 321.677 34.2716 321.764L45.001 333.445V382.045C45.001 382.167 45.092 382.264 45.2048 382.264C45.3158 382.264 45.4068 382.165 45.4068 382.045V352.454L62.8057 333.509C62.8858 333.426 62.8858 333.287 62.8057 333.2Z" fill="#B8DEBF"/>
<path d="M445.914 393.107H447.508L447.257 404.799H445.914V393.107Z" fill="#5CA88D"/>
<path d="M460.862 387.094C461.462 386.525 477.842 370.284 475.913 349.904C473.984 329.524 458.354 324.481 462.793 300.738C467.231 276.995 462.793 260.606 449.286 260.398C435.778 260.188 429.605 274.475 434.621 299.898C439.638 325.321 418.144 335.264 419.184 353.897C420.381 375.373 435.971 410.624 460.862 387.094Z" fill="#7AC094"/>
<path opacity="0.2" d="M439.931 263.574C440.164 264.706 440.775 265.823 441.776 266.311C442.699 266.761 443.76 266.669 444.73 266.483C446.526 266.14 448.34 265.407 450.187 265.671C451.115 265.804 452 266.247 452.831 266.695C453.747 267.189 454.615 267.783 455.424 268.461C456.975 269.759 458.32 271.38 459.246 273.262C460.301 275.408 460.667 277.774 460.731 280.186C460.802 282.97 460.565 285.758 461.027 288.514C461.335 290.349 461.855 292.36 463.035 293.769C463.262 294.04 463.515 294.258 463.779 294.449C466.343 274.148 461.562 260.586 449.284 260.396C445.578 260.338 442.435 261.389 439.913 263.448C439.92 263.491 439.922 263.531 439.931 263.574Z" fill="#F2FAFF"/>
<path opacity="0.15" d="M449.858 345.459C447.981 341.697 447.956 337.024 448.988 332.982C449.541 330.816 450.387 328.745 451.359 326.766C451.752 325.967 452.236 325.21 452.593 324.392C452.851 323.801 452.8 323.284 452.591 322.682C452.229 321.639 451.716 320.647 451.31 319.622C450.902 318.59 450.509 317.548 450.176 316.483C449.479 314.268 449.199 312.027 449.035 309.703C448.875 307.408 448.951 305.034 449.625 302.835C450.225 300.871 451.525 299.286 452.18 297.364C451.106 296.648 450.172 295.727 449.401 294.643C448.511 293.391 447.819 291.998 447.275 290.525C447.27 293.777 447.27 297.029 447.263 300.28C447.232 313.24 447.183 326.199 447.153 339.158C447.128 350.707 447.13 362.255 447.13 373.803C447.35 372.973 447.585 372.147 447.852 371.332C450.24 364.013 454.221 357.513 458.081 351.034C454.62 351.176 451.505 348.759 449.858 345.459Z" fill="#202234"/>
<path opacity="0.15" d="M451.849 393.349C449.954 393.371 448.04 393.024 446.34 392.083C444.546 391.088 443.135 389.45 442.144 387.559C441.532 386.394 441.168 385.239 440.961 383.919C440.737 382.5 440.504 381.163 439.647 380.017C438.155 378.024 435.607 377.747 433.565 376.74C431.651 375.797 430.182 374.003 429.047 372.117C427.908 370.225 427.101 368.097 426.548 365.921C425.378 361.312 425.251 356.388 425.793 351.66C426.293 347.286 427.352 342.953 429.345 339.093C431.72 334.494 434.841 330.388 437.063 325.694C438.153 323.391 438.964 320.938 439.319 318.37C439.742 315.31 439.478 312.227 438.837 309.227C438.129 305.916 437.005 302.737 435.847 299.587C434.768 296.65 433.845 293.686 433.229 290.597C433.511 293.507 433.969 296.607 434.619 299.898C439.636 325.321 418.143 335.264 419.182 353.897C420.228 372.654 432.253 401.915 451.863 393.349C451.859 393.347 451.854 393.349 451.849 393.349Z" fill="#202234"/>
<path d="M464.387 345.392C464.368 345.371 464.345 345.355 464.321 345.344C464.296 345.332 464.27 345.327 464.243 345.327C464.216 345.327 464.19 345.332 464.165 345.344C464.14 345.355 464.118 345.371 464.099 345.392L446.986 364.024V332.342L456.522 321.374C456.598 321.287 456.596 321.146 456.514 321.061C456.475 321.02 456.423 320.999 456.369 321C456.315 321.002 456.264 321.026 456.227 321.069L446.986 331.696V303.189L453.914 295.533C453.992 295.445 453.992 295.307 453.912 295.219C453.874 295.178 453.822 295.156 453.768 295.156C453.714 295.156 453.662 295.18 453.624 295.221L446.986 302.559V278.042C446.986 277.983 446.965 277.927 446.927 277.886C446.889 277.845 446.838 277.822 446.784 277.822C446.73 277.822 446.679 277.845 446.641 277.886C446.603 277.927 446.582 277.983 446.582 278.042V312.231L441.312 307.341C441.271 307.303 441.218 307.285 441.164 307.29C441.111 307.294 441.061 307.322 441.026 307.366C440.953 307.459 440.964 307.598 441.05 307.677L446.584 312.812V345.01L436.142 333.64C436.064 333.554 435.934 333.554 435.854 333.64C435.776 333.727 435.776 333.865 435.854 333.953L446.584 345.634V394.233C446.584 394.356 446.675 394.453 446.786 394.453C446.897 394.453 446.988 394.354 446.988 394.233V364.643L464.387 345.697C464.465 345.618 464.465 345.477 464.387 345.392Z" fill="#B8DEBF"/>
<path d="M414.712 386.969H412.448L412.807 403.57H414.712V386.969Z" fill="#5CA88D"/>
<path d="M393.486 378.426C392.633 377.62 369.373 354.557 372.113 325.614C374.854 296.672 397.048 289.513 390.746 255.797C384.444 222.081 390.746 198.808 409.926 198.511C429.107 198.211 437.876 218.5 430.752 254.604C423.627 290.706 454.149 304.826 452.673 331.284C450.971 361.783 428.834 411.845 393.486 378.426Z" fill="#7AC094"/>
<path opacity="0.2" d="M423.211 203.022C422.879 204.628 422.011 206.215 420.59 206.908C419.28 207.546 417.771 207.418 416.396 207.154C413.846 206.667 411.267 205.624 408.645 205.999C407.326 206.187 406.072 206.819 404.891 207.455C403.59 208.155 402.36 209.001 401.208 209.962C399.006 211.805 397.097 214.105 395.781 216.78C394.282 219.826 393.763 223.187 393.674 226.613C393.572 230.566 393.909 234.525 393.252 238.441C392.817 241.046 392.076 243.902 390.4 245.905C390.078 246.289 389.719 246.599 389.343 246.87C385.7 218.043 392.491 198.782 409.926 198.513C415.191 198.429 419.655 199.923 423.234 202.846C423.223 202.906 423.222 202.961 423.211 203.022Z" fill="#F2FAFF"/>
<path opacity="0.15" d="M409.111 319.305C411.775 313.961 411.81 307.325 410.345 301.586C409.559 298.511 408.358 295.57 406.976 292.758C406.42 291.625 405.732 290.551 405.224 289.388C404.858 288.55 404.931 287.814 405.228 286.96C405.741 285.482 406.47 284.071 407.046 282.615C407.624 281.149 408.181 279.668 408.656 278.158C409.644 275.014 410.045 271.831 410.276 268.528C410.503 265.271 410.394 261.9 409.439 258.775C408.587 255.987 406.742 253.734 405.81 251.007C407.333 249.993 408.66 248.683 409.755 247.143C411.02 245.366 412.001 243.388 412.774 241.296C412.781 245.915 412.781 250.532 412.792 255.149C412.836 273.551 412.905 291.956 412.947 310.358C412.983 326.758 412.98 343.157 412.98 359.556C412.667 358.377 412.332 357.204 411.955 356.047C408.565 345.652 402.909 336.424 397.432 327.221C402.35 327.423 406.774 323.991 409.111 319.305Z" fill="#202234"/>
<path opacity="0.15" d="M406.285 387.312C408.976 387.343 411.693 386.852 414.108 385.514C416.658 384.101 418.658 381.775 420.068 379.09C420.938 377.436 421.453 375.795 421.746 373.92C422.064 371.905 422.394 370.005 423.611 368.38C425.729 365.548 429.349 365.156 432.248 363.725C434.966 362.386 437.052 359.839 438.664 357.16C440.284 354.472 441.427 351.452 442.211 348.36C443.874 341.815 444.053 334.821 443.285 328.109C442.573 321.899 441.07 315.744 438.24 310.263C434.868 303.732 430.435 297.903 427.28 291.235C425.731 287.965 424.579 284.482 424.077 280.834C423.478 276.488 423.851 272.109 424.761 267.849C425.766 263.146 427.362 258.632 429.005 254.16C430.537 249.991 431.847 245.78 432.723 241.393C432.32 245.527 431.671 249.928 430.748 254.6C423.624 290.702 454.145 304.822 452.669 331.28C451.182 357.915 434.107 399.47 406.259 387.306C406.27 387.312 406.278 387.312 406.285 387.312Z" fill="#202234"/>
<path d="M388.482 319.21C388.595 319.087 388.777 319.087 388.89 319.21L413.191 345.669V300.679L399.65 285.104C399.541 284.979 399.545 284.779 399.661 284.66C399.777 284.541 399.959 284.547 400.069 284.672L413.191 299.763V259.282L403.353 248.408C403.242 248.285 403.242 248.087 403.357 247.964C403.472 247.843 403.654 247.843 403.765 247.968L413.193 258.389V223.573C413.193 223.49 413.223 223.41 413.277 223.352C413.331 223.293 413.404 223.26 413.48 223.26C413.557 223.26 413.63 223.293 413.684 223.352C413.738 223.41 413.768 223.49 413.768 223.573V272.125L421.251 265.181C421.373 265.07 421.555 265.084 421.657 265.217C421.76 265.35 421.746 265.548 421.624 265.659L413.766 272.949V318.673L428.594 302.527C428.706 302.405 428.888 302.405 429.001 302.527C429.114 302.65 429.114 302.848 429.001 302.971L413.766 319.561V388.578C413.766 388.752 413.637 388.891 413.479 388.891C413.32 388.891 413.191 388.75 413.191 388.578V346.557L388.484 319.654C388.369 319.531 388.369 319.331 388.482 319.21Z" fill="#B8DEBF"/>
<path d="M83.6694 375.45H86.0242L85.653 392.721H83.6694V375.45Z" fill="#5CA88D"/>
<path d="M105.752 366.565C106.64 365.727 130.838 341.732 127.986 311.623C125.137 281.513 102.046 274.065 108.602 238.987C115.159 203.912 108.602 179.7 88.6483 179.391C68.6945 179.08 59.572 200.187 66.9839 237.747C74.3959 275.305 42.6426 289.996 44.1785 317.522C45.9491 349.248 68.9784 401.329 105.752 366.565Z" fill="#7AC094"/>
<path opacity="0.2" d="M74.8289 184.083C75.1747 185.753 76.0773 187.406 77.555 188.125C78.918 188.789 80.4848 188.654 81.9188 188.381C84.572 187.874 87.2544 186.79 89.9822 187.18C91.3543 187.376 92.6591 188.032 93.8893 188.696C95.2432 189.425 96.5225 190.303 97.7199 191.306C100.011 193.224 101.996 195.617 103.365 198.4C104.924 201.568 105.465 205.063 105.558 208.626C105.665 212.738 105.314 216.858 105.996 220.932C106.449 223.642 107.219 226.613 108.962 228.697C109.297 229.098 109.672 229.419 110.062 229.702C113.85 199.711 106.786 179.674 88.6465 179.393C83.1708 179.307 78.5267 180.861 74.8016 183.901C74.8144 183.962 74.8162 184.02 74.8289 184.083Z" fill="#F2FAFF"/>
<path opacity="0.15" d="M89.4964 305.056C86.723 299.498 86.6884 292.594 88.2116 286.622C89.0287 283.421 90.2789 280.362 91.7147 277.439C92.2934 276.258 93.0103 275.141 93.5381 273.932C93.9184 273.06 93.8438 272.295 93.5344 271.407C92.9994 269.868 92.2406 268.401 91.6419 266.887C91.0395 265.362 90.4608 263.822 89.9659 262.251C88.9377 258.979 88.5228 255.668 88.2826 252.232C88.046 248.842 88.1588 245.334 89.1524 242.085C90.0386 239.184 91.9585 236.841 92.9266 234.004C91.3416 232.948 89.9622 231.586 88.823 229.983C87.5073 228.135 86.4865 226.076 85.6803 223.898C85.673 228.701 85.673 233.506 85.6603 238.31C85.6148 257.455 85.5438 276.601 85.5001 295.747C85.4619 312.808 85.4655 329.867 85.4655 346.928C85.7913 345.701 86.1389 344.481 86.5319 343.278C90.0605 332.463 95.942 322.862 101.643 313.291C96.5298 313.503 91.9276 309.932 89.4964 305.056Z" fill="#202234"/>
<path opacity="0.15" d="M92.4353 375.807C89.6365 375.84 86.8085 375.329 84.2973 373.936C81.6458 372.468 79.564 370.044 78.0973 367.252C77.1928 365.53 76.6578 363.824 76.3503 361.874C76.0209 359.778 75.6752 357.802 74.4104 356.112C72.2067 353.166 68.4415 352.757 65.4262 351.269C62.5982 349.874 60.4291 347.227 58.7512 344.439C57.0679 341.643 55.8778 338.498 55.0607 335.284C53.3301 328.476 53.1445 321.199 53.9434 314.217C54.684 307.755 56.2472 301.354 59.1898 295.651C62.6965 288.857 67.3078 282.791 70.5925 275.856C72.203 272.456 73.4023 268.829 73.9245 265.037C74.5487 260.517 74.1593 255.961 73.213 251.529C72.1684 246.636 70.507 241.94 68.7964 237.285C67.2041 232.948 65.8393 228.568 64.9294 224.005C65.3479 228.305 66.0249 232.884 66.9839 237.745C74.3959 275.303 42.6426 289.994 44.1785 317.52C45.7253 345.23 63.4881 388.461 92.4608 375.805C92.4517 375.807 92.4444 375.807 92.4353 375.807Z" fill="#202234"/>
<path d="M110.959 304.957C110.84 304.828 110.651 304.828 110.535 304.957L85.2544 332.484V285.678L99.3413 269.477C99.3702 269.447 99.3931 269.41 99.4086 269.369C99.4241 269.329 99.432 269.285 99.4317 269.241C99.4314 269.197 99.4229 269.154 99.4068 269.114C99.3907 269.073 99.3673 269.037 99.338 269.007C99.3086 268.977 99.274 268.953 99.2362 268.938C99.1983 268.923 99.1581 268.916 99.1178 268.918C99.0774 268.92 99.038 268.931 99.0016 268.95C98.9653 268.969 98.9329 268.996 98.9064 269.03L85.2544 284.729V242.614L95.4889 231.301C95.6053 231.172 95.6035 230.966 95.4852 230.839C95.3669 230.713 95.1777 230.713 95.0612 230.843L85.2526 241.684V205.464C85.2526 205.283 85.1198 205.137 84.9524 205.137C84.7868 205.137 84.6521 205.283 84.6521 205.464V255.973L76.8671 248.75C76.7415 248.634 76.5523 248.649 76.4449 248.788C76.3375 248.925 76.3521 249.131 76.4795 249.248L84.6539 256.833V304.4L69.2295 287.604C69.113 287.478 68.922 287.478 68.8055 287.604C68.689 287.731 68.689 287.937 68.8055 288.066L84.6557 305.323V377.122C84.6557 377.303 84.7904 377.449 84.956 377.449C85.1216 377.449 85.2563 377.303 85.2563 377.122V333.408L110.961 305.419C111.075 305.292 111.075 305.084 110.959 304.957Z" fill="#B8DEBF"/>
<path d="M37.7256 402.129C37.7256 402.129 42.508 364.328 32.9851 368.059C23.464 371.79 27.8351 386.939 37.7256 402.129Z" fill="#394CA4"/>
<path d="M38.3552 401.763C38.3552 401.763 18.8836 364.476 5.44996 377.297C-7.98363 390.119 38.3552 401.763 38.3552 401.763Z" fill="#100959"/>
<path opacity="0.5" d="M6.19605 377.715C6.58549 378.88 7.22423 379.867 8.37797 380.172C9.81923 380.553 11.3897 380.091 12.8382 380.002C14.4906 379.901 16.0756 380.168 17.5733 380.951C19.02 381.708 20.2593 382.853 21.484 383.967C22.7105 385.082 23.9607 386.297 25.3947 387.088C26.7559 387.837 28.37 388.158 29.8659 388.411H29.8695C23.1473 379.417 13.6408 370.3 5.9613 376.841C6.02318 377.136 6.09961 377.428 6.19605 377.715Z" fill="#F2FAFF"/>
<path d="M10.9548 422.305H179.058L176.647 413.155L170.977 391.481C166.959 376.181 153.001 366.606 138.583 369.282L131.306 370.657C130.754 370.758 130.227 370.807 129.699 370.807C126.485 370.807 123.432 369.058 121.617 366.081C109.128 345.683 80.8906 348.208 71.6152 370.558L70.3759 373.558C68.1886 378.85 62.4799 381.216 57.6157 378.844L50.3584 375.307C46.111 373.233 41.3815 374.782 38.7646 378.432C37.8001 379.756 37.1104 381.357 36.8356 383.156L35.7565 390.006C35.4799 391.707 34.883 393.207 34.035 394.457C33.8749 394.683 33.7129 394.907 33.5528 395.107C32.0949 396.944 30.1012 398.18 27.906 398.606C27.3564 398.731 26.7577 398.781 26.1845 398.781C24.3629 398.781 22.5176 398.238 20.8416 397.019C17.062 394.273 11.9957 394.956 8.78197 398.456L3.90497 403.766C-2.37872 410.606 2.07064 422.305 10.9548 422.305Z" fill="#4094F2"/>
<path opacity="0.2" d="M4.37452 407.696C5.35902 406.1 5.95227 404.244 7.01138 402.704C9.19875 399.522 13.2077 398.882 16.618 399.504C18.9109 399.924 21.0746 400.818 23.4349 400.588C25.2765 400.408 27.109 400.092 28.8978 399.581C32.41 398.575 35.9695 396.702 37.9403 393.228C39.902 389.775 38.9667 385.199 41.285 381.922C43.7781 378.397 48.0728 378.727 51.5322 380.107C53.4721 380.879 55.1918 382.175 57.1371 382.903C59.4209 383.757 61.8722 383.864 64.2215 383.279C65.4371 382.976 66.6145 382.506 67.7319 381.908C68.4252 381.535 69.0567 381.133 69.5462 380.469C70.3505 379.377 70.6526 377.933 70.6053 376.556C70.578 375.718 70.4069 374.879 70.1139 374.111C67.7664 379.007 62.3016 381.129 57.6139 378.844L50.3566 375.307C46.1093 373.233 41.3797 374.782 38.7628 378.432C37.7984 379.756 37.1087 381.357 36.8339 383.156L35.7547 390.006C35.4781 391.707 34.8813 393.207 34.0332 394.457C33.8731 394.683 33.7111 394.907 33.551 395.107C32.0926 396.944 30.0992 398.179 27.9042 398.606C27.3547 398.731 26.756 398.781 26.1827 398.781C24.3611 398.781 22.5159 398.238 20.8399 397.019C17.0602 394.273 11.9939 394.956 8.7802 398.456L3.9032 403.766C2.13074 405.696 1.21357 408.013 1.00793 410.345C2.40916 410.008 3.54652 409.041 4.37452 407.696Z" fill="#F2FAFF"/>
<path opacity="0.25" d="M25.7914 422.305H179.058L176.647 413.155C169.072 405.756 158.602 402.131 147.949 404.131L142.279 405.181L139.225 405.732C138.559 405.857 137.895 405.906 137.251 405.906C135.828 405.906 134.427 405.631 133.118 405.082C130.914 404.157 128.985 402.532 127.608 400.283C125.679 397.108 123.406 394.407 120.928 392.182C119.963 391.282 118.977 390.482 117.943 389.757C112.364 385.732 105.96 383.733 99.5306 383.658C95.7654 383.582 92.024 384.183 88.4427 385.457C79.7423 388.457 72.0283 395.281 67.7354 405.655L66.2432 409.206C63.6027 415.58 56.7385 418.406 50.9079 415.554L46.5004 413.404L42.2531 411.33C40.3241 410.381 38.3042 410.081 36.3752 410.279C31.369 410.805 26.9615 414.855 26.0443 420.728L25.7914 422.305Z" fill="#F2FAFF"/>
<path d="M46.5751 388.566C46.5751 390.363 47.9126 391.82 49.5631 391.82C51.2137 391.82 52.5512 390.363 52.5512 388.566C52.5512 386.769 51.2137 385.312 49.5631 385.312C47.9126 385.312 46.5751 386.771 46.5751 388.566Z" fill="#100959"/>
<path opacity="0.15" d="M47.2666 389.337C47.2666 391.134 48.6041 392.59 50.2547 392.59C51.9052 392.59 53.2427 391.134 53.2427 389.337C53.2427 387.539 51.9052 386.083 50.2547 386.083C48.6041 386.083 47.2666 387.539 47.2666 389.337Z" fill="#202234"/>
<path d="M89.9076 413.418C89.9076 415.216 91.2451 416.672 92.8957 416.672C94.5462 416.672 95.8837 415.216 95.8837 413.418C95.8837 411.621 94.5462 410.165 92.8957 410.165C91.2451 410.165 89.9076 411.621 89.9076 413.418Z" fill="#394CA4"/>
<path opacity="0.15" d="M78.4412 372.06C78.4412 375.523 81.0198 378.329 84.1989 378.329C87.3799 378.329 89.9585 375.521 89.9585 372.06C89.9585 368.598 87.3799 365.788 84.1989 365.788C81.0198 365.788 78.4412 368.596 78.4412 372.06Z" fill="#202234"/>
<path d="M79.1637 369.83C79.1637 373.294 81.7423 376.1 84.9215 376.1C88.1024 376.1 90.6811 373.292 90.6811 369.83C90.6811 366.367 88.1024 363.559 84.9215 363.559C81.7423 363.561 79.1637 366.367 79.1637 369.83Z" fill="#394CA4"/>
<path d="M46.6843 420.593C46.6843 420.593 60.1598 402.092 54.0089 400.816C47.8563 399.54 45.8054 409.108 46.6843 420.593Z" fill="#100959"/>
<path opacity="0.5" d="M47.1174 409.219C47.7452 409.057 48.1383 408.579 48.4076 407.961C48.9481 406.721 48.9098 405.266 49.5304 404.061C49.8434 403.455 50.3311 402.991 50.908 402.702C51.4775 402.417 52.1145 402.274 52.6568 401.923C53.1809 401.585 53.2773 401.174 52.8715 400.703C49.6523 400.75 47.7525 404.159 46.9481 409.251C47.0027 409.239 47.0609 409.233 47.1174 409.219Z" fill="#F2FAFF"/>
<path d="M46.6842 420.593C46.6842 420.593 38.1895 395.713 28.814 402.092C19.4404 408.47 46.6842 420.593 46.6842 420.593Z" fill="#394CA4"/>
<path opacity="0.2" d="M29.1963 401.87C29.2946 402.108 29.5129 402.328 29.6822 402.401C30.057 402.567 30.5393 402.502 30.9342 402.494C31.804 402.476 32.7012 402.409 33.5601 402.597C34.4846 402.799 35.369 403.382 36.1296 403.968C37.529 405.044 38.4317 406.721 39.8693 407.723C40.1022 407.886 40.4316 408.064 40.8046 408.219C37.6528 403.271 33.531 399.302 29.1963 401.87Z" fill="#F2FAFF"/>
<path d="M46.6843 420.593C46.6843 420.593 78.03 416.446 70.1194 411.025C62.2107 405.601 46.6843 420.593 46.6843 420.593Z" fill="#394CA4"/>
<path opacity="0.2" d="M57.1517 413.018C58.0743 412.834 58.7531 412.241 59.5392 411.732C60.2817 411.25 61.0878 410.86 61.9377 410.666C63.1405 410.39 64.3489 410.725 65.5572 410.545C65.9794 410.482 66.4744 410.325 66.6327 409.869C63.5009 409.659 59.8813 411.143 56.5894 413.075C56.7768 413.068 56.9642 413.056 57.1517 413.018Z" fill="#F2FAFF"/>
<path d="M310.881 402.129C310.881 402.129 315.664 364.328 306.141 368.059C296.62 371.79 300.991 386.939 310.881 402.129Z" fill="#394CA4"/>
<path d="M311.511 401.763C311.511 401.763 292.039 364.476 278.606 377.297C265.172 390.119 311.511 401.763 311.511 401.763Z" fill="#100959"/>
<path opacity="0.5" d="M279.352 377.715C279.741 378.88 280.38 379.867 281.534 380.172C282.975 380.553 284.545 380.091 285.994 380.002C287.646 379.901 289.231 380.168 290.729 380.951C292.176 381.708 293.415 382.853 294.638 383.967C295.864 385.082 297.115 386.297 298.549 387.088C299.91 387.837 301.524 388.158 303.02 388.411H303.023C296.299 379.417 286.795 370.3 279.115 376.841C279.179 377.136 279.257 377.428 279.352 377.715Z" fill="#F2FAFF"/>
<path d="M284.111 422.305H452.214L449.803 413.155L444.133 391.481C440.115 376.181 426.157 366.606 411.741 369.282L404.463 370.657C403.912 370.758 403.384 370.807 402.857 370.807C399.643 370.807 396.589 369.058 394.775 366.081C382.286 345.683 354.048 348.208 344.773 370.558L343.534 373.558C341.346 378.85 335.638 381.216 330.772 378.844L323.514 375.307C319.267 373.233 314.537 374.782 311.92 378.432C310.956 379.756 310.266 381.357 309.991 383.156L308.912 390.006C308.636 391.707 308.041 393.207 307.191 394.457C307.031 394.683 306.869 394.907 306.709 395.107C305.25 396.945 303.256 398.18 301.06 398.606C300.51 398.731 299.912 398.781 299.339 398.781C297.517 398.781 295.672 398.238 293.996 397.019C290.216 394.273 285.15 394.956 281.936 398.456L277.059 403.766C270.777 410.606 275.226 422.305 284.111 422.305Z" fill="#4094F2"/>
<path opacity="0.2" d="M277.532 407.696C278.517 406.1 279.11 404.244 280.169 402.704C282.356 399.522 286.365 398.882 289.774 399.504C292.067 399.924 294.23 400.818 296.591 400.588C298.432 400.408 300.265 400.092 302.054 399.581C305.566 398.575 309.125 396.702 311.096 393.228C313.058 389.775 312.122 385.199 314.441 381.922C316.934 378.397 321.229 378.727 324.688 380.107C326.628 380.879 328.348 382.175 330.293 382.903C332.577 383.757 335.028 383.864 337.377 383.279C338.593 382.976 339.77 382.506 340.888 381.908C341.581 381.535 342.212 381.133 342.702 380.469C343.506 379.377 343.808 377.933 343.761 376.556C343.734 375.718 343.563 374.879 343.27 374.111C340.922 379.007 335.457 381.129 330.77 378.844L323.512 375.307C319.265 373.233 314.535 374.782 311.919 378.432C310.954 379.756 310.264 381.357 309.99 383.156L308.91 390.006C308.634 391.707 308.039 393.207 307.189 394.457C307.029 394.683 306.867 394.907 306.707 395.107C305.248 396.944 303.254 398.179 301.058 398.606C300.509 398.731 299.91 398.781 299.337 398.781C297.515 398.781 295.67 398.238 293.994 397.019C290.214 394.273 285.148 394.956 281.934 398.456L277.057 403.766C275.285 405.696 274.367 408.013 274.162 410.345C275.565 410.008 276.702 409.041 277.532 407.696Z" fill="#F2FAFF"/>
<path opacity="0.25" d="M298.947 422.305H452.214L449.803 413.155C442.227 405.756 431.758 402.131 421.105 404.131L415.435 405.181L412.381 405.732C411.715 405.857 411.049 405.906 410.407 405.906C408.984 405.906 407.583 405.631 406.274 405.082C404.07 404.157 402.141 402.532 400.764 400.283C398.835 397.108 396.562 394.407 394.083 392.182C393.119 391.282 392.133 390.482 391.099 389.757C385.52 385.732 379.116 383.733 372.686 383.658C368.921 383.582 365.18 384.183 361.599 385.457C352.898 388.457 345.184 395.281 340.891 405.655L339.399 409.206C336.759 415.58 329.894 418.406 324.064 415.554L319.656 413.404L315.409 411.33C313.48 410.381 311.46 410.081 309.531 410.279C304.525 410.805 300.119 414.855 299.2 420.728L298.947 422.305Z" fill="#F2FAFF"/>
<path d="M319.731 388.566C319.731 390.363 321.068 391.82 322.719 391.82C324.369 391.82 325.707 390.363 325.707 388.566C325.707 386.769 324.369 385.312 322.719 385.312C321.068 385.312 319.731 386.771 319.731 388.566Z" fill="#100959"/>
<path opacity="0.15" d="M320.424 389.337C320.424 391.134 321.762 392.59 323.412 392.59C325.063 392.59 326.4 391.134 326.4 389.337C326.4 387.539 325.063 386.083 323.412 386.083C321.762 386.083 320.424 387.539 320.424 389.337Z" fill="#202234"/>
<path d="M363.063 413.418C363.063 415.216 364.401 416.672 366.051 416.672C367.702 416.672 369.04 415.216 369.04 413.418C369.04 411.621 367.702 410.165 366.051 410.165C364.401 410.165 363.063 411.621 363.063 413.418Z" fill="#394CA4"/>
<path opacity="0.15" d="M351.597 372.06C351.597 375.523 354.176 378.329 357.355 378.329C360.536 378.329 363.114 375.521 363.114 372.06C363.114 368.598 360.536 365.788 357.355 365.788C354.176 365.788 351.597 368.596 351.597 372.06Z" fill="#202234"/>
<path d="M352.319 369.83C352.319 373.294 354.898 376.1 358.079 376.1C361.26 376.1 363.839 373.292 363.839 369.83C363.839 366.367 361.26 363.559 358.079 363.559C354.898 363.561 352.319 366.367 352.319 369.83Z" fill="#394CA4"/>
<path d="M319.84 420.593C319.84 420.593 333.316 402.092 327.165 400.816C321.012 399.54 318.961 409.108 319.84 420.593Z" fill="#100959"/>
<path opacity="0.5" d="M320.273 409.219C320.901 409.057 321.294 408.579 321.563 407.961C322.104 406.721 322.064 405.266 322.686 404.061C322.999 403.455 323.487 402.991 324.064 402.702C324.633 402.417 325.27 402.274 325.813 401.923C326.337 401.585 326.433 401.174 326.027 400.703C322.808 400.75 320.908 404.159 320.104 409.251C320.16 409.239 320.219 409.233 320.273 409.219Z" fill="#F2FAFF"/>
<path d="M319.84 420.593C319.84 420.593 311.345 395.713 301.97 402.092C292.596 408.47 319.84 420.593 319.84 420.593Z" fill="#394CA4"/>
<path opacity="0.2" d="M302.354 401.87C302.452 402.108 302.67 402.328 302.84 402.401C303.214 402.567 303.697 402.502 304.092 402.494C304.963 402.476 305.859 402.409 306.718 402.597C307.642 402.799 308.526 403.382 309.287 403.968C310.687 405.044 311.589 406.721 313.025 407.723C313.258 407.886 313.587 408.064 313.96 408.219C310.81 403.271 306.688 399.302 302.354 401.87Z" fill="#F2FAFF"/>
<path d="M319.84 420.593C319.84 420.593 351.186 416.446 343.275 411.025C335.366 405.601 319.84 420.593 319.84 420.593Z" fill="#394CA4"/>
<path opacity="0.2" d="M330.307 413.018C331.23 412.834 331.909 412.241 332.695 411.732C333.437 411.25 334.243 410.86 335.093 410.666C336.296 410.39 337.505 410.725 338.713 410.545C339.135 410.482 339.63 410.325 339.788 409.869C336.658 409.659 333.037 411.143 329.745 413.075C329.932 413.068 330.12 413.056 330.307 413.018Z" fill="#F2FAFF"/>
<path d="M594.897 391.495C594.897 391.495 587.595 333.77 602.135 339.467C616.675 345.166 610.002 368.299 594.897 391.495Z" fill="#394CA4"/>
<path d="M593.937 390.938C593.937 390.938 623.672 333.998 644.186 353.576C664.699 373.155 593.937 390.938 593.937 390.938Z" fill="#100959"/>
<path opacity="0.5" d="M643.045 354.214C642.45 355.991 641.477 357.499 639.715 357.965C637.513 358.545 635.116 357.84 632.904 357.705C630.38 357.551 627.961 357.959 625.672 359.156C623.461 360.313 621.57 362.061 619.701 363.761C617.829 365.467 615.92 367.32 613.729 368.527C611.65 369.67 609.185 370.159 606.901 370.55H606.894C617.161 356.816 631.677 342.891 643.404 352.882C643.309 353.328 643.191 353.774 643.045 354.214Z" fill="#F2FAFF"/>
<path d="M635.779 422.305H379.072L382.753 408.334L391.414 375.236C397.548 351.874 418.863 337.252 440.881 341.336L451.994 343.434C452.835 343.587 453.643 343.664 454.449 343.664C459.357 343.664 464.019 340.991 466.791 336.447C485.862 305.298 528.983 309.154 543.147 343.282L545.041 347.863C548.38 355.946 557.099 359.558 564.529 355.938L575.612 350.536C582.097 347.368 589.32 349.736 593.316 355.308C594.788 357.331 595.842 359.774 596.261 362.522L597.907 372.983C598.33 375.579 599.24 377.869 600.537 379.778C600.783 380.122 601.028 380.465 601.274 380.77C603.501 383.576 606.546 385.463 609.898 386.115C610.739 386.305 611.65 386.382 612.528 386.382C615.308 386.382 618.127 385.552 620.686 383.691C626.458 379.496 634.196 380.543 639.102 385.885L646.548 393.993C656.14 404.442 649.345 422.305 635.779 422.305Z" fill="#4094F2"/>
<path opacity="0.2" d="M645.826 399.997C644.323 397.562 643.416 394.726 641.8 392.376C638.459 387.518 632.339 386.539 627.133 387.49C623.63 388.13 620.327 389.497 616.722 389.144C613.911 388.871 611.112 388.388 608.38 387.607C603.016 386.071 597.582 383.21 594.572 377.905C591.576 372.63 593.003 365.645 589.464 360.64C585.657 355.256 579.1 355.763 573.815 357.868C570.855 359.047 568.227 361.026 565.255 362.138C561.768 363.442 558.025 363.606 554.437 362.713C552.58 362.251 550.783 361.534 549.076 360.618C548.018 360.051 547.052 359.433 546.304 358.421C545.076 356.752 544.615 354.547 544.686 352.444C544.73 351.164 544.99 349.886 545.438 348.711C549.023 356.187 557.366 359.429 564.527 355.94L575.61 350.538C582.095 347.37 589.318 349.738 593.314 355.31C594.787 357.333 595.84 359.776 596.259 362.524L597.906 372.985C598.328 375.581 599.238 377.871 600.535 379.78C600.781 380.124 601.027 380.467 601.272 380.772C603.499 383.578 606.544 385.465 609.896 386.117C610.737 386.307 611.649 386.384 612.526 386.384C615.306 386.384 618.125 385.554 620.684 383.693C626.456 379.498 634.194 380.545 639.1 385.887L646.546 393.995C649.252 396.944 650.654 400.481 650.967 404.042C648.828 403.526 647.092 402.05 645.826 399.997Z" fill="#F2FAFF"/>
<path opacity="0.25" d="M613.123 422.305H379.072L382.753 408.334C394.324 397.033 410.308 391.498 426.575 394.554L435.236 396.157L439.898 396.997C440.913 397.187 441.931 397.265 442.913 397.265C445.086 397.265 447.226 396.845 449.224 396.004C452.589 394.594 455.535 392.109 457.637 388.675C460.582 383.828 464.054 379.704 467.839 376.306C469.311 374.933 470.818 373.71 472.396 372.603C480.916 366.458 490.695 363.404 500.513 363.289C506.262 363.174 511.978 364.092 517.446 366.038C530.732 370.619 542.512 381.04 549.068 396.882L551.348 402.304C555.379 412.039 565.861 416.353 574.767 411.999L581.499 408.716L587.984 405.548C590.929 404.097 594.015 403.639 596.959 403.945C604.602 404.745 611.334 410.929 612.737 419.9L613.123 422.305Z" fill="#F2FAFF"/>
<path d="M581.384 370.783C581.384 373.528 579.342 375.751 576.822 375.751C574.301 375.751 572.26 373.526 572.26 370.783C572.26 368.039 574.303 365.814 576.822 365.814C579.34 365.816 581.384 368.039 581.384 370.783Z" fill="#100959"/>
<path opacity="0.15" d="M580.327 371.961C580.327 374.705 578.283 376.928 575.764 376.928C573.244 376.928 571.202 374.703 571.202 371.961C571.202 369.216 573.246 366.991 575.764 366.991C578.283 366.991 580.327 369.216 580.327 371.961Z" fill="#202234"/>
<path d="M515.211 408.736C515.211 411.48 513.17 413.704 510.649 413.704C508.129 413.704 506.085 411.478 506.085 408.736C506.085 405.991 508.129 403.766 510.649 403.766C513.17 403.766 515.211 405.991 515.211 408.736Z" fill="#394CA4"/>
<path opacity="0.15" d="M532.721 345.576C532.721 350.865 528.783 355.151 523.928 355.151C519.071 355.151 515.133 350.863 515.133 345.576C515.133 340.29 519.071 336 523.928 336C528.783 336 532.721 340.288 532.721 345.576Z" fill="#202234"/>
<path d="M531.618 342.172C531.618 347.461 527.682 351.747 522.825 351.747C517.968 351.747 514.03 347.461 514.03 342.172C514.03 336.883 517.968 332.595 522.825 332.595C527.68 332.597 531.618 336.883 531.618 342.172Z" fill="#394CA4"/>
<path d="M581.216 419.69C581.216 419.69 560.638 391.437 570.032 389.489C579.428 387.541 582.558 402.155 581.216 419.69Z" fill="#100959"/>
<path opacity="0.5" d="M580.556 402.322C579.597 402.074 578.998 401.343 578.585 400.4C577.759 398.505 577.819 396.284 576.871 394.445C576.392 393.52 575.65 392.81 574.767 392.368C573.895 391.932 572.926 391.712 572.098 391.179C571.297 390.664 571.149 390.036 571.77 389.317C576.685 389.39 579.588 394.594 580.816 402.371C580.729 402.353 580.641 402.343 580.556 402.322Z" fill="#F2FAFF"/>
<path d="M581.216 419.69C581.216 419.69 594.189 381.694 608.504 391.437C622.82 401.18 581.216 419.69 581.216 419.69Z" fill="#394CA4"/>
<path opacity="0.2" d="M607.922 391.098C607.772 391.463 607.438 391.796 607.181 391.911C606.61 392.164 605.873 392.065 605.268 392.053C603.938 392.026 602.57 391.925 601.258 392.21C599.845 392.519 598.497 393.409 597.332 394.302C595.196 395.945 593.817 398.503 591.622 400.037C591.267 400.285 590.763 400.558 590.193 400.794C595.008 393.238 601.301 387.177 607.922 391.098Z" fill="#F2FAFF"/>
<path d="M581.216 419.69C581.216 419.69 533.349 413.357 545.429 405.076C557.507 396.795 581.216 419.69 581.216 419.69Z" fill="#394CA4"/>
<path opacity="0.2" d="M565.232 408.124C563.821 407.842 562.786 406.939 561.585 406.16C560.449 405.425 559.219 404.828 557.923 404.531C556.087 404.111 554.24 404.62 552.397 404.347C551.752 404.252 550.997 404.01 550.753 403.314C555.534 402.993 561.062 405.26 566.09 408.211C565.805 408.199 565.519 408.181 565.232 408.124Z" fill="#F2FAFF"/>
<path d="M189.662 108.004C189.662 108.004 209.481 125.695 217.616 126.295C226.429 126.947 250.086 111.121 250.086 111.121L255.096 119.14C255.096 119.14 226.542 146.297 214.147 146.341C203.196 146.378 176.731 121.536 176.731 121.536L189.662 108.004Z" fill="#FB8A77"/>
<path d="M250.086 111.123L253.735 107.843C253.735 107.843 253.904 91.9256 255.926 93.9428C257.949 95.962 259.083 98.9006 259.083 98.9006C259.083 98.9006 261.995 92.2862 264.861 94.4183C267.727 96.5525 273.811 104.431 270.848 106.93C267.885 109.43 268.248 114.077 264.022 113.417C260.701 112.896 255.096 119.14 255.096 119.14L250.086 111.123Z" fill="#FB8A77"/>
<path d="M159.805 422.22C162.553 420.879 165.67 420.978 167.969 421.356C169.619 421.628 171.079 422.581 172.373 423.809C175.839 427.103 185.841 427.719 188.081 430.343C190.641 433.343 185.946 435.342 185.946 435.342H160.56C156.515 436.091 156.923 433.592 156.923 433.592C156.923 433.592 154.683 424.721 159.805 422.22Z" fill="#231F20"/>
<path d="M169.359 408.696V425.93C169.359 425.93 164.509 429.821 159.66 425.93V408.696H169.359Z" fill="#FF8D7D"/>
<path d="M143.493 184.665L151.662 306.09L158.41 421.111L170.715 419.133L182.294 298.376L169.359 184.665H143.493Z" fill="#202234"/>
<path d="M110.731 423.171C113.647 422.385 116.742 422.993 118.984 423.726C120.595 424.253 121.927 425.377 123.057 426.732C126.085 430.362 135.979 432.594 137.873 435.399C140.037 438.606 135.095 439.68 135.095 439.68L109.778 435.465C105.647 435.489 106.378 433.24 106.378 433.24C106.378 433.24 105.298 424.638 110.731 423.171Z" fill="#231F20"/>
<path d="M122.898 408.696L119.605 425.93C119.605 425.93 114.755 429.821 109.903 425.93L113.197 408.696H122.898Z" fill="#FF8D7D"/>
<path d="M124.432 191.199C124.432 191.199 116.263 201.576 116.944 226.777C117.625 251.98 116.904 291.264 116.904 291.264L111.046 415.215C111.046 415.215 120.049 420.732 122.898 418.671C151.571 397.952 151.662 271.251 151.662 271.251C151.662 271.251 163.234 188.234 155.745 185.268C148.259 182.305 124.432 191.199 124.432 191.199Z" fill="#232B57"/>
<path d="M174.46 132.743C174.46 132.743 187.741 137.091 190.037 135.143C192.336 133.197 200.281 113.647 197.951 111.888C195.622 110.128 171.792 94.1766 158.269 93.7644C158.268 93.7644 178.289 121.811 174.46 132.743Z" fill="#4094F2"/>
<path opacity="0.25" d="M197.951 111.888C197.041 111.2 192.843 108.343 187.262 105.093C186.663 105.919 186.139 106.811 185.615 107.691C184.838 108.997 184.072 110.314 183.188 111.539C182.37 112.67 181.431 113.752 180.272 114.47C179.146 115.169 177.865 115.419 176.585 115.181C176.238 115.116 175.865 115.04 175.548 114.864C175.208 114.676 174.906 114.406 174.62 114.133C173.914 113.455 173.292 112.682 172.587 112.005C171.828 111.271 170.933 110.77 170.007 110.328C169.355 110.017 168.684 109.759 168.005 109.536C172.447 117.826 176.347 127.359 174.462 132.743C174.462 132.743 187.742 137.091 190.039 135.143C192.336 133.199 200.279 113.649 197.951 111.888Z" fill="#231F20"/>
<path d="M146.896 90.3938C177.528 89.4922 177.528 133.385 177.528 133.385C177.528 133.385 183.792 185.64 172.422 195.649C162.429 204.445 129.197 206.449 121.028 195.649C112.371 184.208 121.028 136.352 121.028 136.352C121.028 136.352 111.068 91.446 146.896 90.3938Z" fill="#4094F2"/>
<path opacity="0.25" d="M158.184 195.053C156.659 193.907 154.866 193.648 153.054 193.683C151.114 193.723 149.185 193.963 147.245 193.775C145.504 193.606 143.837 193.111 142.264 192.283C140.741 191.478 139.28 190.531 137.853 189.54C134.587 187.273 131.369 184.735 128.651 181.715C127.461 180.393 126.451 178.99 125.781 177.276C124.815 174.803 124.476 172.108 124.467 169.437C124.447 163.586 125.808 157.849 125.866 152C125.954 143.281 124.654 134.703 123.231 126.151C122.813 126.45 122.412 126.779 122.025 127.124C121.328 127.746 120.669 128.42 120.012 129.093C120.383 133.443 121.028 136.348 121.028 136.348C121.028 136.348 112.371 184.204 121.028 195.645C127.242 203.861 147.964 204.665 161.922 200.708C161.148 198.481 160.004 196.42 158.184 195.053Z" fill="#231F20"/>
<path d="M119.757 133.296L106.054 164.515L126.816 195.647L122.105 203.419C122.105 203.419 90.1096 178.412 87.3344 165.256C84.8832 153.633 104.835 122.586 104.835 122.586L119.757 133.296Z" fill="#FB8A77"/>
<path d="M126.816 195.647L135.719 199.779C135.719 199.779 144.856 197.918 143.495 200.514C142.133 203.108 139.75 202.503 139.75 202.503C139.75 202.503 146.317 204.136 145.04 207.649C143.762 211.163 138.048 219.366 135.155 216.77C132.261 214.177 128.347 215.056 128.007 210.424C127.739 206.781 122.103 203.417 122.103 203.417L126.816 195.647Z" fill="#FB8A77"/>
<path d="M121.029 136.35L114.902 143.02C114.902 143.02 95.3324 133.476 95.3324 129.307C95.3324 125.138 113.887 98.0327 130.536 95.5121C138.174 94.3569 121.029 136.35 121.029 136.35Z" fill="#4094F2"/>
<path d="M119.896 403.984L135.617 298.428L135.622 220.345C144.373 217.208 148.328 203.019 148.493 202.412L147.922 202.228C147.882 202.375 143.829 216.919 135.236 219.798L135.027 219.87V298.376L119.312 403.881L119.896 403.984Z" fill="#726658"/>
<path opacity="0.5" d="M164.808 406.733C165.408 396.328 170.653 305.03 169.619 302.969C168.828 301.388 160.129 261.664 155.64 240.88L155.057 241.028C155.591 243.485 168.069 301.226 169.097 303.278C169.863 305.51 165.831 378.684 164.211 406.691L164.808 406.733Z" fill="#726658"/>
<path d="M170.511 113.356C165.243 116.396 159.117 118.629 153.363 118.044C150.488 117.753 148.06 116.12 145.438 114.634C142.865 113.178 139.8 112.191 137.382 114.68C136.902 115.175 136.438 114.057 136.913 113.568C141.662 108.681 147.063 115.314 151.806 116.487C154.939 117.262 158.251 116.673 161.348 115.853C164.409 115.044 167.388 113.772 170.264 112.113C170.815 111.796 171.057 113.041 170.511 113.356ZM171.725 125.221C168.644 125.867 165.563 126.515 162.48 127.161C159.609 127.764 156.632 128.772 153.724 128.873C151.045 128.968 149.145 126.373 146.665 125.453C143.855 124.413 140.885 124.827 138.032 125.221C137.437 125.303 137.44 124.017 138.032 123.933C140.598 123.579 143.2 123.254 145.758 123.862C146.967 124.149 148.124 124.68 149.218 125.449C150.557 126.392 151.749 127.506 153.307 127.585C154.848 127.665 156.431 127.134 157.951 126.816C159.379 126.517 160.806 126.218 162.235 125.917C165.316 125.271 168.396 124.623 171.477 123.977C172.063 123.858 172.314 125.098 171.725 125.221ZM169.774 135.353C164.697 137.372 159.394 138.87 154.108 137.713C151.505 137.144 149.001 135.971 146.555 134.653C143.917 133.235 141.264 131.661 138.37 132.135C137.777 132.232 137.782 130.944 138.37 130.849C140.891 130.435 143.269 131.511 145.593 132.755C148.053 134.075 150.51 135.393 153.101 136.15C158.622 137.763 164.198 136.231 169.528 134.111C170.103 133.883 170.349 135.123 169.774 135.353Z" fill="white"/>
<path d="M142.39 72.5243L140.876 92.3001C140.876 92.3001 146.657 101.318 152.188 94.4104L151.824 81.142L142.39 72.5243Z" fill="#FB8A77"/>
<path opacity="0.15" d="M147.36 94.7552C148.535 92.4883 148.947 89.0642 147.038 87.1025C146.264 86.3079 145.269 85.8224 144.523 84.9941C143.596 83.9637 143.407 82.3805 143.518 81.0013C143.698 78.7523 144.541 76.5468 144.361 74.3235L151.822 81.14L152.186 94.4084C150.026 97.1053 147.829 97.3708 145.953 96.6951C146.495 96.1383 146.976 95.4963 147.36 94.7552Z" fill="#33133F"/>
<path d="M166.087 51.7756C166.087 51.7756 167.608 83.4981 156.046 84.7108C144.483 85.9255 139.193 72.7502 139.193 72.7502C139.193 72.7502 137.082 74.2284 136.538 71.916C135.993 69.6035 133.389 65.5592 135.902 63.9621C138.417 62.365 139.269 64.8934 139.269 64.8934L137.733 57.7321C137.735 57.7321 165.618 41.3864 166.087 51.7756Z" fill="#FB8A77"/>
<path opacity="0.05" d="M138.263 65.5612C138.263 65.5612 136.723 64.6933 136.135 66.0011C135.546 67.3069 136.967 72.2271 138.756 71.597C138.756 71.597 136.421 70.5448 136.649 67.519C136.872 64.4912 137.881 66.5302 138.263 65.5612Z" fill="#33133F"/>
<path d="M138.532 64.1721C139.366 65.474 146.232 52.275 151.087 55.0313C155.944 57.7876 161.785 56.7651 163.521 54.1138C165.257 51.4606 170.351 51.7756 166.185 44.0397C158.591 29.9351 121.364 37.3302 138.532 64.1721Z" fill="#202234"/>
<path opacity="0.05" d="M145.527 69.9879C145.391 70.8697 146.273 71.7654 147.496 71.9893C148.721 72.2152 149.822 71.6821 149.959 70.8004C150.095 69.9206 149.214 69.0229 147.99 68.799C146.767 68.5751 145.664 69.1081 145.527 69.9879ZM159.392 70.0712C159.256 70.9529 160.137 71.8486 161.361 72.0725C162.586 72.2964 163.689 71.7654 163.825 70.8836C163.962 70.0018 163.079 69.1062 161.856 68.8822C160.631 68.6583 159.529 69.1914 159.392 70.0712Z" fill="#33133F"/>
<path d="M158.806 61.7883C158.925 61.7883 159.039 61.721 159.103 61.6021C159.157 61.497 160.48 59.1172 163.727 60.6826C163.768 60.7024 163.812 60.7132 163.857 60.7143C163.902 60.7155 163.947 60.707 163.989 60.6893C164.031 60.6716 164.069 60.6451 164.101 60.6114C164.134 60.5776 164.16 60.5372 164.178 60.4924C164.196 60.4476 164.206 60.3994 164.207 60.3505C164.208 60.3016 164.201 60.2529 164.184 60.2073C164.168 60.1617 164.144 60.1199 164.113 60.0845C164.082 60.0491 164.045 60.0208 164.004 60.001C160.177 58.1542 158.524 61.1998 158.508 61.2295C158.415 61.4079 158.473 61.6357 158.635 61.7388C158.69 61.7745 158.748 61.7883 158.806 61.7883ZM152.168 61.8537C152.211 61.8537 152.253 61.8438 152.295 61.826C152.47 61.7487 152.555 61.5347 152.486 61.3445C152.473 61.3108 151.231 58.0571 146.73 59.1093C146.642 59.1301 146.564 59.1882 146.515 59.271C146.465 59.3538 146.448 59.4545 146.466 59.5512C146.476 59.5991 146.493 59.6445 146.519 59.6848C146.544 59.7251 146.577 59.7596 146.615 59.7861C146.652 59.8127 146.694 59.8308 146.739 59.8394C146.783 59.8481 146.828 59.8471 146.872 59.8365C150.785 58.923 151.807 61.5089 151.849 61.6199C151.906 61.7665 152.033 61.8537 152.168 61.8537ZM156.066 71.266C156.184 71.266 156.3 71.2482 156.415 71.2125C157.141 70.9827 157.449 70.0929 157.461 70.0553C157.498 69.9443 157.485 69.8215 157.427 69.7224C156.204 67.6775 156.526 64.8993 156.528 64.8716C156.553 64.6675 156.422 64.4812 156.235 64.4535C156.055 64.4218 155.875 64.5684 155.851 64.7725C155.835 64.8934 155.505 67.6993 156.752 69.9523C156.653 70.1484 156.47 70.4199 156.222 70.4952C155.989 70.5665 155.709 70.4675 155.387 70.198C155.238 70.0731 155.023 70.1048 154.908 70.2673C154.794 70.4318 154.823 70.6636 154.972 70.7885C155.347 71.1075 155.714 71.266 156.066 71.266Z" fill="#202234"/>
<path d="M138.725 56.5511C138.725 56.5511 138.337 69.2845 145.768 76.531C145.768 76.531 146.543 71.8882 155.136 73.2238C163.729 74.5594 162.435 77.4445 162.435 77.4445C162.435 77.4445 164.522 77.0779 165.738 64.0552C165.55 72.2727 165.257 74.5792 165.257 74.5792C165.257 74.5792 163.922 83.7061 156.815 85.3231C149.709 86.942 139.276 82.4756 139.258 72.5382C139.258 72.5382 139.759 65.9773 138.145 62.1787C136.529 58.3801 135.753 56.8345 138.725 56.5511Z" fill="#202234"/>
<path d="M158.266 75.0131C158.266 75.0131 154.362 76.9392 149.989 74.7238C148.998 76.7014 154.18 81.8514 158.266 75.0131Z" fill="#FCFAF7"/>
<path d="M159.843 64.8776C159.843 66.0387 160.435 66.98 161.165 66.98C161.894 66.98 162.484 66.0387 162.484 64.8776C162.484 63.7164 161.893 62.7771 161.165 62.7771C160.435 62.7771 159.843 63.7184 159.843 64.8776ZM147.958 64.8776C147.958 66.0387 148.55 66.98 149.28 66.98C150.009 66.98 150.601 66.0387 150.601 64.8776C150.601 63.7164 150.009 62.7771 149.28 62.7771C148.55 62.7771 147.958 63.7184 147.958 64.8776Z" fill="#202234"/>
<path d="M460.571 105.093H198.152C189.397 105.093 182.3 112.821 182.3 122.354V231.357C182.3 240.89 189.397 248.618 198.152 248.618H460.594C469.337 248.618 476.423 240.902 476.423 231.382V122.354C476.421 112.821 469.324 105.093 460.571 105.093Z" fill="#6EA4FE"/>
<path d="M426.457 177.144C426.457 177.144 425.768 191.149 435.882 190.038C445.996 188.926 476.432 210.019 476.432 210.019V175.214L426.457 177.144Z" fill="#5994EA"/>
<path d="M488.178 140.834L481.733 167.04L445.386 173.192L445.097 181.539C445.097 181.539 477.342 187.144 486.406 181.004C494.415 175.578 503.301 144.272 503.301 144.272L488.178 140.834Z" fill="#FB8A77"/>
<path d="M518.429 422.246C516.238 421.378 513.805 421.572 512.018 421.937C510.735 422.198 509.623 422.949 508.649 423.895C506.04 426.425 498.236 427.265 496.564 429.261C494.653 431.541 498.386 432.812 498.386 432.812L518.239 431.817C521.426 432.203 521.031 430.402 521.031 430.402C521.031 430.402 522.51 423.863 518.429 422.246Z" fill="#231F20"/>
<path d="M510.944 413.349L511.421 424.616C511.421 424.616 514.698 427.002 517.763 424.299L517.286 413.032L510.944 413.349Z" fill="#FB8A77"/>
<path d="M542.808 214.765C542.808 214.765 555.49 227.13 550.915 249.47C546.34 271.81 524.641 325.343 524.641 325.343L520.096 418.182L509.186 418.346L497.569 314.343C497.569 314.343 508.684 204.879 515.826 203.635C522.967 202.388 542.808 214.765 542.808 214.765Z" fill="#202234"/>
<path d="M626.651 397.94C624.411 398.469 622.48 400.021 621.17 401.347C620.231 402.298 619.665 403.556 619.31 404.9C618.36 408.496 612.275 413.65 611.845 416.266C611.356 419.254 615.072 418.178 615.072 418.178L631.104 406.009C633.941 404.511 632.744 403.237 632.744 403.237C632.744 403.237 630.825 396.954 626.651 397.94Z" fill="#231F20"/>
<path d="M616.14 394.816L621.965 403.915C621.965 403.915 625.841 404.026 627.086 400.027L621.261 390.928L616.14 394.816Z" fill="#FB8A77"/>
<path d="M558.551 205.365C558.551 205.365 560.888 203.092 569.918 223.761C575.015 235.429 575.353 260.812 575.353 260.812L587.64 304.154L625.559 395.852L618.993 400.913L560.138 314.904C560.138 314.904 509.679 212.32 515.346 207.425C521.015 202.531 558.551 205.365 558.551 205.365Z" fill="#232B57"/>
<path d="M517.67 114.089C504.032 116.235 486.593 130.635 484.14 149.139L500.873 153.981C500.875 153.981 527.296 112.575 517.67 114.089Z" fill="#4094F2"/>
<path opacity="0.25" d="M496.797 152.8L493.489 151.843L504.846 125.608C504.846 125.61 501.295 149.618 496.797 152.8Z" fill="#231F20"/>
<path d="M510.487 216.447C510.487 216.447 515.282 178.378 509.637 171.601C503.992 164.824 493.041 163.528 497.53 150.121C501.985 136.714 508.787 119.939 516.747 114.236C519.537 112.272 529.738 111.273 529.738 111.273C529.738 111.273 554.464 103.349 556.504 113.237C557.354 117.311 557.388 131.309 557.728 147.381C557.965 158.787 558.305 171.266 559.122 182.006C560.007 193.117 561.366 202.301 563.679 206.484C569.528 217.078 510.487 216.447 510.487 216.447Z" fill="#4094F2"/>
<path d="M562.698 145.724L580.922 168.997L568.576 214.583L574.798 215.11C574.798 215.11 597.789 174.427 596.069 162.954C594.55 152.818 571.428 131.846 571.428 131.846L562.698 145.724Z" fill="#FB8A77"/>
<path d="M565.373 219.657C565.373 219.657 564.88 216.192 565.475 215.419C566.857 213.626 568.978 213.091 569.623 213.326C567.772 215.294 565.373 219.657 565.373 219.657Z" fill="#FB8A77"/>
<path opacity="0.2" d="M566.835 215.092C566.414 215.145 565.998 215.278 565.574 215.298C566.955 213.604 568.991 213.095 569.623 213.324C569.139 213.84 568.616 214.519 568.11 215.241C567.694 215.114 567.272 215.037 566.835 215.092Z" fill="white"/>
<path d="M574.807 219.313C574.563 219.963 574.287 220.599 573.979 221.169L573.981 221.171C573.979 221.173 573.979 221.173 573.979 221.177C573.965 221.207 573.899 221.364 573.801 221.59L573.799 221.592C573.721 221.772 573.617 221.988 573.501 222.216C573.501 222.216 572.345 224.873 571.533 224.831C570.722 224.788 570.578 224.14 570.578 224.14C570.578 224.14 570.01 224.734 569.317 224.366C568.624 223.997 568.653 223.383 568.653 223.383C568.653 223.383 568.143 223.948 567.353 223.531C566.564 223.115 566.525 222.245 566.525 222.245C566.525 222.245 565.706 223.044 565.033 221.76C564.362 220.482 565.526 218.726 565.566 218.645C565.73 218.298 565.905 217.969 566.085 217.66C566.134 217.577 566.17 217.482 566.234 217.41C570.782 212.278 573.772 200.914 574.92 200.71C574.92 200.71 580.194 201.891 580.179 203.344C579.728 204.602 574.796 215.112 574.796 215.112C574.796 215.112 575.721 216.875 574.807 219.313Z" fill="#FB8A77"/>
<path opacity="0.2" d="M573.981 221.169V221.177C573.966 221.207 573.901 221.364 573.803 221.589L573.801 221.591C573.722 221.772 573.619 221.988 573.502 222.216C573.502 222.216 572.347 224.873 571.535 224.831C570.724 224.788 570.58 224.14 570.58 224.14C570.58 224.14 570.012 224.734 569.319 224.366C568.625 223.997 568.654 223.383 568.654 223.383C568.654 223.383 568.145 223.948 567.355 223.531C566.565 223.115 566.527 222.245 566.527 222.245C566.527 222.245 565.708 223.044 565.035 221.76C564.793 221.3 564.791 220.779 564.887 220.298C565.111 220.797 565.486 221.274 565.948 221.498C566.067 221.556 566.194 221.595 566.325 221.601C566.474 221.609 566.622 221.572 566.769 221.566C567.091 221.552 567.293 221.825 567.508 222.051C567.785 222.344 568.079 222.6 568.462 222.693C568.749 222.763 569.044 222.737 569.335 222.735C569.641 222.731 569.943 222.778 570.203 222.969C570.451 223.151 570.678 223.329 570.975 223.403C571.488 223.531 571.966 223.278 572.336 222.901C572.591 222.64 572.787 222.325 572.991 222.018C573.255 221.617 573.511 221.209 573.768 220.803C574.208 220.107 574.649 219.422 575.009 218.673C574.953 218.89 574.886 219.105 574.809 219.315C574.565 219.963 574.288 220.597 573.981 221.169Z" fill="white"/>
<path opacity="0.25" d="M559.121 182.008C557.863 178.824 556.298 175.491 554.462 172.602C549.225 164.343 537.424 166.824 537.424 166.824C553.307 162.565 554.055 153.343 554.055 153.343C555.041 151.122 556.435 149.047 557.729 147.381C557.965 158.789 558.306 171.268 559.121 182.008Z" fill="#231F20"/>
<path d="M552.609 109.121C552.609 109.121 572.026 119.639 579.429 137.15C579.429 137.15 570.705 147.565 564.085 150.006L556.3 143.769L552.609 109.121Z" fill="#4094F2"/>
<path d="M535.049 109.847L537.353 109.121C537.353 109.121 542.202 121.288 529.184 122.956C516.165 124.625 513.612 120.038 513.612 120.038C513.612 120.038 512.762 116.213 516.063 114.47C519.364 112.726 535.049 109.847 535.049 109.847Z" fill="#F56F58"/>
<path d="M523.857 61.1622C521.349 61.9052 511.947 61.9033 508.309 67.8043C504.36 74.0025 509.137 84.897 503.197 86.1078C496.757 86.2405 499.538 94.9751 504.982 98.8015C507.625 100.718 513.721 102.002 516.465 103.658C520.884 106.823 529.049 108.452 535.196 107.306C541.391 106.373 545.571 102.665 543.119 100.066C538.075 93.6495 545.656 91.3291 540.614 84.4987C536.55 78.4709 538.525 76.747 537.354 73.9649C533.731 64.7864 530.243 60.3854 523.857 61.1622Z" fill="#231F20"/>
<path d="M529.788 94.1013L531.536 112.979C531.536 112.979 526.146 121.704 520.756 115.201L520.902 102.509L529.788 94.1013Z" fill="#F18A66"/>
<path opacity="0.15" d="M525.375 115.442C524.216 113.296 523.771 110.031 525.566 108.121C526.292 107.348 527.238 106.864 527.937 106.06C528.807 105.059 528.963 103.541 528.838 102.226C528.63 100.078 527.793 97.9851 527.93 95.8569L520.9 102.507L520.754 115.199C522.86 117.739 524.963 117.951 526.747 117.273C526.223 116.75 525.753 116.144 525.375 115.442Z" fill="#33133F"/>
<path d="M506.819 74.6941C506.819 74.6941 505.847 105.047 516.92 105.998C527.992 106.952 532.849 94.2598 532.849 94.2598C532.849 94.2598 534.889 95.635 535.375 93.4137C535.86 91.1924 538.288 87.2808 535.86 85.7987C533.433 84.3184 532.656 86.7518 532.656 86.7518L534.015 79.8778C534.013 79.8758 507.11 64.7527 506.819 74.6941Z" fill="#F18A66"/>
<path opacity="0.05" d="M533.728 87.1679C533.728 87.1679 535.185 86.3099 535.768 87.5483C536.352 88.7868 535.069 93.5167 533.349 92.9441C533.349 92.9441 535.564 91.8958 535.302 89.0087C535.04 86.1216 534.108 88.0893 533.728 87.1679ZM527.014 94.4916C527.144 95.3338 526.301 96.1898 525.131 96.4058C523.961 96.6198 522.905 96.1125 522.776 95.2704C522.645 94.4282 523.488 93.5702 524.66 93.3562C525.83 93.1402 526.883 93.6495 527.014 94.4916ZM513.757 94.5709C513.888 95.4131 513.046 96.2711 511.874 96.4851C510.704 96.6991 509.648 96.1918 509.519 95.3477C509.388 94.5055 510.231 93.6475 511.403 93.4335C512.573 93.2195 513.626 93.7288 513.757 94.5709Z" fill="#33133F"/>
<path d="M514.318 86.6507C514.205 86.6507 514.094 86.5873 514.034 86.4724C513.979 86.3713 512.715 84.0945 509.612 85.5945C509.446 85.6758 509.253 85.5925 509.181 85.4122C509.108 85.2319 509.182 85.0219 509.348 84.9426C513.008 83.177 514.587 86.0879 514.603 86.1176C514.632 86.172 514.647 86.2335 514.646 86.296C514.646 86.3585 514.631 86.4199 514.602 86.4739C514.573 86.5279 514.531 86.5727 514.482 86.6037C514.432 86.6347 514.375 86.6509 514.318 86.6507ZM520.665 86.7141C520.625 86.7141 520.583 86.7062 520.543 86.6883C520.503 86.6711 520.467 86.6454 520.436 86.6129C520.406 86.5803 520.381 86.5415 520.364 86.4986C520.347 86.4557 520.338 86.4096 520.338 86.3629C520.337 86.3163 520.345 86.27 520.361 86.2266C520.372 86.1949 521.562 83.0879 525.864 84.0886C526.041 84.1302 526.154 84.3184 526.115 84.5126C526.077 84.7048 525.904 84.8277 525.726 84.7861C521.986 83.9122 521.007 86.3852 520.967 86.4922C520.916 86.6309 520.794 86.7141 520.665 86.7141ZM516.938 95.7123C516.825 95.7123 516.714 95.6944 516.605 95.6607C515.912 95.4408 515.619 94.5907 515.606 94.555C515.57 94.45 515.583 94.3311 515.639 94.238C516.813 92.2763 516.502 89.627 516.498 89.6012C516.487 89.5077 516.51 89.4131 516.562 89.3381C516.615 89.263 516.692 89.2137 516.778 89.2009C516.962 89.1752 517.122 89.3119 517.146 89.5061C517.16 89.623 517.475 92.304 516.283 94.4579C516.378 94.6442 516.552 94.9038 516.789 94.9791C517.009 95.0484 517.279 94.9533 517.588 94.6957C517.732 94.5768 517.937 94.6066 518.047 94.7611C518.156 94.9177 518.128 95.1416 517.986 95.2605C517.624 95.5617 517.273 95.7123 516.938 95.7123Z" fill="#231F20"/>
<path d="M514.835 99.2949C514.835 99.2949 518.567 101.136 522.747 99.0195C523.695 100.91 518.742 105.834 514.835 99.2949Z" fill="#FCFAF7"/>
<path d="M513.326 89.6052C513.326 90.7148 512.762 91.6145 512.063 91.6145C511.364 91.6145 510.8 90.7148 510.8 89.6052C510.8 88.4955 511.366 87.5959 512.063 87.5959C512.76 87.5959 513.326 88.4955 513.326 89.6052ZM524.689 89.6052C524.689 90.7148 524.123 91.6145 523.426 91.6145C522.729 91.6145 522.163 90.7148 522.163 89.6052C522.163 88.4955 522.729 87.5959 523.426 87.5959C524.123 87.5959 524.689 88.4955 524.689 89.6052Z" fill="#231F20"/>
<path opacity="0.05" d="M519.675 104.34C519.329 104.34 519.104 104.284 519.082 104.278C519.04 104.267 519.004 104.239 518.981 104.199C518.958 104.159 518.951 104.11 518.96 104.064C518.982 103.969 519.069 103.91 519.157 103.932C519.171 103.936 520.607 104.282 521.908 103.054C521.941 103.023 521.984 103.008 522.027 103.011C522.07 103.015 522.11 103.036 522.139 103.072C522.197 103.147 522.19 103.26 522.123 103.323C521.217 104.177 520.267 104.34 519.675 104.34Z" fill="#33133F"/>
<path d="M511.859 69.7125C511.927 68.4384 511.868 67.6081 511.868 67.6081C500.358 68.7178 505.896 81.7266 505.896 81.7266C509.892 79.5508 511.246 74.9517 511.688 71.591C514.78 76.2001 524.461 81.7186 535.282 81.9564L536.637 79.3467L511.859 69.7125Z" fill="#231F20"/>
<path d="M510.786 69.4628C511.284 72.9741 513.595 76.0415 516.057 78.2173C519.299 81.0826 523.324 82.8244 527.491 83.1275C530.277 83.3316 533.062 82.858 535.698 81.8772C536.193 81.6929 535.98 80.8329 535.482 81.0192C531.163 82.6262 526.527 82.7173 522.219 81.0152C518.8 79.6658 515.595 77.2285 513.479 73.9788C512.551 72.556 511.823 70.9629 511.575 69.225C511.495 68.6623 510.707 68.9021 510.786 69.4628Z" fill="#33133F"/>
<path d="M270.315 155.757V193.953H267.758V175.784H244.307V193.953H241.753V155.757H244.307V173.325H267.758V155.757H270.315ZM307.999 191.442V193.953H283.794V155.757H307.245V158.267H286.351V173.327H305.042V175.784H286.351V191.444H307.999V191.442ZM318.57 155.757H321.127V191.442H341.321V193.953H318.57V155.757ZM349.138 155.757H351.692V191.442H371.887V193.953H349.137V155.757H349.138ZM384.564 191.688C381.791 189.996 379.612 187.677 378.026 184.731C376.439 181.784 375.647 178.493 375.647 174.855C375.647 171.219 376.439 167.925 378.026 164.981C379.612 162.032 381.791 159.716 384.564 158.024C387.337 156.332 390.444 155.485 393.887 155.485C397.326 155.485 400.432 156.324 403.206 157.996C405.979 159.67 408.157 161.979 409.744 164.927C411.331 167.874 412.123 171.183 412.123 174.857C412.123 178.531 411.331 181.842 409.744 184.788C408.157 187.735 405.979 190.045 403.206 191.72C400.432 193.394 397.326 194.23 393.887 194.23C390.444 194.224 387.337 193.378 384.564 191.688ZM401.854 189.479C404.223 188.024 406.096 186.013 407.466 183.449C408.833 180.883 409.519 178.019 409.519 174.853C409.519 171.688 408.833 168.823 407.466 166.259C406.096 163.695 404.223 161.686 401.854 160.229C399.481 158.775 396.824 158.048 393.885 158.048C390.944 158.048 388.28 158.777 385.891 160.229C383.501 161.684 381.623 163.695 380.253 166.259C378.883 168.823 378.197 171.688 378.197 174.853C378.197 178.019 378.883 180.883 380.253 183.449C381.623 186.013 383.501 188.022 385.891 189.479C388.28 190.935 390.942 191.66 393.885 191.66C396.824 191.66 399.481 190.935 401.854 189.479Z" fill="white"/>
<g opacity="0.25">
<path d="M365.271 67.2554C365.271 68.153 365.939 68.8803 366.763 68.8803C367.587 68.8803 368.253 68.153 368.253 67.2554C368.253 66.3578 367.586 65.6305 366.763 65.6305C365.939 65.6325 365.271 66.3597 365.271 67.2554ZM356.618 67.2554C356.618 68.153 357.286 68.8803 358.11 68.8803C358.933 68.8803 359.602 68.153 359.602 67.2554C359.602 66.3578 358.934 65.6305 358.11 65.6305C357.286 65.6325 356.618 66.3597 356.618 67.2554ZM347.965 67.2554C347.965 68.153 348.633 68.8803 349.457 68.8803C350.279 68.8803 350.949 68.153 350.949 67.2554C350.949 66.3578 350.281 65.6305 349.457 65.6305C348.631 65.6325 347.965 66.3597 347.965 67.2554Z" fill="#4094F2"/>
<path d="M340.802 68.8803C341.626 68.8803 342.294 68.1528 342.294 67.2554C342.294 66.358 341.626 65.6305 340.802 65.6305C339.978 65.6305 339.31 66.358 339.31 67.2554C339.31 68.1528 339.978 68.8803 340.802 68.8803Z" fill="#4094F2"/>
<path d="M332.149 68.8803C332.973 68.8803 333.641 68.1528 333.641 67.2554C333.641 66.358 332.973 65.6305 332.149 65.6305C331.325 65.6305 330.657 66.358 330.657 67.2554C330.657 68.1528 331.325 68.8803 332.149 68.8803Z" fill="#4094F2"/>
<path d="M362.548 75.2767C362.548 76.1743 363.216 76.9015 364.039 76.9015C364.863 76.9015 365.531 76.1743 365.531 75.2767C365.531 74.379 364.863 73.6538 364.039 73.6538C363.216 73.6518 362.548 74.379 362.548 75.2767ZM353.895 75.2767C353.895 76.1743 354.563 76.9015 355.388 76.9015C356.212 76.9015 356.88 76.1743 356.88 75.2767C356.88 74.379 356.212 73.6538 355.388 73.6538C354.563 73.6518 353.895 74.379 353.895 75.2767ZM345.242 75.2767C345.242 76.1743 345.91 76.9015 346.735 76.9015C347.559 76.9015 348.227 76.1743 348.227 75.2767C348.227 74.379 347.559 73.6538 346.735 73.6538C345.91 73.6518 345.242 74.379 345.242 75.2767ZM336.589 75.2767C336.589 76.1743 337.257 76.9015 338.081 76.9015C338.906 76.9015 339.572 76.1743 339.572 75.2767C339.572 74.379 338.904 73.6538 338.081 73.6538C337.257 73.6518 336.589 74.379 336.589 75.2767ZM327.936 75.2767C327.936 76.1743 328.604 76.9015 329.428 76.9015C330.253 76.9015 330.921 76.1743 330.921 75.2767C330.921 74.379 330.253 73.6538 329.428 73.6538C328.604 73.6518 327.936 74.379 327.936 75.2767ZM319.281 75.2767C319.281 76.1743 319.949 76.9015 320.774 76.9015C321.598 76.9015 322.266 76.1743 322.266 75.2767C322.266 74.379 321.598 73.6538 320.774 73.6538C319.951 73.6518 319.281 74.379 319.281 75.2767Z" fill="#4094F2"/>
</g>
<g opacity="0.25">
<path d="M252.352 318.758C253.176 318.758 253.844 318.031 253.844 317.133C253.844 316.236 253.176 315.51 252.352 315.51C251.527 315.51 250.86 316.238 250.86 317.133C250.86 318.031 251.527 318.758 252.352 318.758ZM252.352 328.18C253.176 328.18 253.844 327.453 253.844 326.556C253.844 325.66 253.176 324.931 252.352 324.931C251.527 324.931 250.86 325.658 250.86 326.556C250.86 327.453 251.527 328.18 252.352 328.18ZM252.352 337.603C253.176 337.603 253.844 336.875 253.844 335.978C253.844 335.082 253.176 334.353 252.352 334.353C251.527 334.353 250.86 335.08 250.86 335.978C250.86 336.877 251.527 337.603 252.352 337.603Z" fill="#4094F2"/>
<path d="M252.352 347.027C253.176 347.027 253.844 346.299 253.844 345.402C253.844 344.505 253.176 343.777 252.352 343.777C251.528 343.777 250.86 344.505 250.86 345.402C250.86 346.299 251.528 347.027 252.352 347.027Z" fill="#4094F2"/>
<path d="M252.352 356.449C253.176 356.449 253.844 355.722 253.844 354.824C253.844 353.927 253.176 353.199 252.352 353.199C251.528 353.199 250.86 353.927 250.86 354.824C250.86 355.722 251.528 356.449 252.352 356.449Z" fill="#4094F2"/>
<path d="M259.716 321.721C260.541 321.721 261.209 320.993 261.209 320.098C261.209 319.2 260.541 318.473 259.716 318.473C258.892 318.473 258.226 319.2 258.226 320.098C258.226 320.995 258.892 321.721 259.716 321.721ZM259.716 331.145C260.541 331.145 261.209 330.418 261.209 329.52C261.209 328.622 260.541 327.895 259.716 327.895C258.892 327.895 258.226 328.622 258.226 329.52C258.226 330.418 258.892 331.145 259.716 331.145ZM259.716 340.567C260.541 340.567 261.209 339.84 261.209 338.942C261.209 338.045 260.541 337.317 259.716 337.317C258.892 337.317 258.226 338.045 258.226 338.942C258.226 339.84 258.892 340.567 259.716 340.567ZM259.716 349.989C260.541 349.989 261.209 349.262 261.209 348.364C261.209 347.467 260.541 346.741 259.716 346.741C258.892 346.741 258.226 347.469 258.226 348.364C258.226 349.262 258.892 349.989 259.716 349.989ZM259.716 359.411C260.541 359.411 261.209 358.684 261.209 357.787C261.209 356.889 260.541 356.162 259.716 356.162C258.892 356.162 258.226 356.889 258.226 357.787C258.226 358.684 258.892 359.411 259.716 359.411ZM259.716 368.834C260.541 368.834 261.209 368.106 261.209 367.209C261.209 366.311 260.541 365.584 259.716 365.584C258.892 365.584 258.226 366.311 258.226 367.209C258.226 368.106 258.892 368.834 259.716 368.834Z" fill="#4094F2"/>
</g>
<path d="M433.145 184.703C435.263 184.685 437.152 184.566 438.113 184.345C438.854 184.174 439.549 183.918 440.175 183.629C440.711 183.38 441.197 183.106 441.62 182.839C442.721 182.151 443.388 181.509 443.388 181.509L459.075 182.202C459.774 178.981 459.211 174.463 459.075 173.696C459.075 173.696 444.609 174.474 442.533 172.588C442.513 172.576 442.491 172.554 442.475 172.537C442.453 172.5 442.432 172.462 442.413 172.424C442.069 171.861 441.259 171.298 440.278 170.856C439.558 170.533 438.75 170.272 437.973 170.111C436.073 169.725 433.944 164.446 432.89 165.054C431.836 165.669 432.311 169.095 433.58 170.169C434.843 171.243 433.946 172.465 432.417 172.465H431.937C428.883 172.465 419.438 172.517 419.198 174.181C419.042 175.267 422.961 175.675 426.002 175.83C422.275 175.79 416.932 175.943 417.313 177.148C417.606 178.073 423.012 178.642 426.033 178.927C423.946 178.939 419.819 179.125 419.802 179.904C419.771 181.586 424.05 181.818 426.936 181.784C425.22 181.933 423.267 182.302 423.147 183.199C423.005 184.293 428.61 184.749 433.145 184.703Z" fill="#FB8A77"/>
<path opacity="0.25" d="M431.17 176.044C431.165 176.044 431.161 176.05 431.158 176.048L426.453 175.699L431.169 175.762H431.176C431.185 175.762 431.358 174.692 431.512 174.175C431.392 174.946 431.347 175.723 431.327 176.498C431.321 176.785 431.32 177.074 431.321 177.362C431.321 177.364 431.154 176.192 431.17 176.044ZM431.165 179.284C431.161 179.284 431.159 179.288 431.156 179.288L426.452 178.939L431.134 179.002C431.116 178.231 431.325 177.724 431.325 177.724C431.332 178.091 431.345 178.457 431.374 178.822C431.401 179.264 431.472 179.704 431.562 180.142C431.502 180.154 431.207 179.587 431.165 179.284ZM431.76 181.826L427.045 181.792L431.72 181.543C431.676 181.412 431.562 180.506 431.634 180.492H431.636C431.682 180.689 431.727 180.887 431.776 181.081C431.966 181.826 432.189 182.561 432.428 183.294C432.189 182.817 431.78 181.826 431.76 181.826Z" fill="#231F20"/>
<path d="M262.554 100.696C262.554 100.696 262.392 100.87 262.131 101.163C262.122 100.028 261.884 98.746 260.863 98.6449C259.005 98.4607 253.782 106.236 255.413 106.971C256.141 107.298 257.527 106.529 258.841 105.578C257.937 107.172 258.177 109.339 259.602 109.605C261.715 109.997 262.832 107.53 263.842 106.123C262.608 108.259 261.918 111.836 263.371 111.773C265.48 111.681 267.951 106.942 267.951 106.942C267.951 106.942 265.758 110.798 267.951 111.717C269.794 112.488 271.64 105.095 271.64 105.095C271.64 105.095 268.626 96.9309 262.554 100.696Z" fill="#FB8A77"/>
</svg>
