<svg width="74" height="70" viewBox="0 0 74 70" fill="none" xmlns="http://www.w3.org/2000/svg">
<g clip-path="url(#clip0_125_2002)">
<path d="M72.8438 58.125H71.6875V27.7489C72.9582 25.4521 73.7252 22.9111 73.9376 20.2949C74.1499 17.6787 73.8027 15.0473 72.919 12.5757C72.0354 10.104 70.6355 7.84895 68.8126 5.96039C66.9897 4.07183 64.7855 2.5931 62.3467 1.62259C59.9079 0.652083 57.2903 0.212037 54.6683 0.331733C52.0462 0.451428 49.4796 1.12812 47.1394 2.31679C44.7991 3.50546 42.7388 5.17885 41.0956 7.22564C39.4523 9.27243 38.2637 11.6457 37.6089 14.1875H8.09375C6.56102 14.1893 5.09158 14.799 4.00778 15.8828C2.92397 16.9666 2.3143 18.436 2.3125 19.9688V58.125H1.15625C1.00438 58.1249 0.853991 58.1548 0.713668 58.2128C0.573346 58.2709 0.445847 58.3561 0.338461 58.4635C0.231076 58.5709 0.145911 58.6984 0.0878349 58.8387C0.0297592 58.979 -8.79641e-05 59.1294 1.94725e-07 59.2813V63.9063C0.00179951 65.439 0.611471 66.9084 1.69528 67.9922C2.77908 69.076 4.24852 69.6857 5.78125 69.6875H68.2188C69.7515 69.6857 71.2209 69.076 72.3047 67.9922C73.3885 66.9084 73.9982 65.439 74 63.9063V59.2813C74.0001 59.1294 73.9702 58.979 73.9122 58.8387C73.8541 58.6984 73.7689 58.5709 73.6615 58.4635C73.5542 58.3561 73.4267 58.2709 73.2863 58.2128C73.146 58.1548 72.9956 58.1249 72.8438 58.125ZM55.5 2.62501C58.9074 2.62078 62.2289 3.69319 64.9905 5.68912C67.7521 7.68506 69.8125 10.5025 70.8775 13.7391C71.9425 16.9757 71.9577 20.4661 70.9209 23.7119C69.8841 26.9577 67.8484 29.793 65.1043 31.8129L65.0869 31.8259C63.2279 33.204 61.0942 34.1662 58.8307 34.6473C56.5671 35.1285 54.2266 35.1172 51.9677 34.6144C49.7089 34.1116 47.5846 33.1289 45.7388 31.7331C43.8931 30.3372 42.3691 28.5608 41.2702 26.5242C41.2478 26.4656 41.2204 26.4089 41.1883 26.355C40.1505 24.3884 39.5324 22.2277 39.3732 20.0097C39.3738 19.9953 39.3814 19.9833 39.3814 19.9688C39.3814 19.9445 39.369 19.9242 39.3675 19.9003C39.3434 19.5391 39.3125 19.1796 39.3125 18.8125C39.3173 14.5208 41.0243 10.4062 44.059 7.37154C47.0937 4.33683 51.2083 2.62983 55.5 2.62501ZM43.3045 32.6875H17.3438C17.0372 32.6873 16.7432 32.5654 16.5264 32.3486C16.3096 32.1318 16.1877 31.8379 16.1875 31.5313V29.2188C16.1877 28.9122 16.3096 28.6182 16.5264 28.4014C16.7432 28.1846 17.0372 28.0627 17.3438 28.0625H39.5032C40.5123 29.7993 41.796 31.3611 43.3045 32.6875ZM38.3621 25.75H17.3438C16.4241 25.751 15.5424 26.1168 14.8921 26.7671C14.2418 27.4174 13.876 28.2991 13.875 29.2188V31.5313C13.876 32.4509 14.2418 33.3326 14.8921 33.9829C15.5424 34.6332 16.4241 34.999 17.3438 35H46.5636C49.3512 36.5484 52.4935 37.3449 55.682 37.3115C58.8706 37.2781 61.9955 36.4158 64.75 34.8093V53.5H9.25V21.125H37.1606C37.3577 22.7125 37.7617 24.2673 38.3621 25.75ZM4.625 19.9688C4.626 19.0491 4.99178 18.1674 5.64208 17.5171C6.29238 16.8668 7.17409 16.501 8.09375 16.5H37.1606C37.0588 17.2667 37.0052 18.0391 37 18.8125H8.09375C7.94188 18.8124 7.79149 18.8423 7.65117 18.9004C7.51085 18.9584 7.38335 19.0436 7.27596 19.151C7.16858 19.2584 7.08341 19.3859 7.02533 19.5262C6.96726 19.6665 6.93741 19.8169 6.9375 19.9688V54.6563C6.93741 54.8081 6.96726 54.9585 7.02533 55.0988C7.08341 55.2392 7.16858 55.3667 7.27596 55.474C7.38335 55.5814 7.51085 55.6666 7.65117 55.7247C7.79149 55.7828 7.94188 55.8126 8.09375 55.8125H65.9062C66.0581 55.8126 66.2085 55.7828 66.3488 55.7247C66.4892 55.6666 66.6167 55.5814 66.724 55.474C66.8314 55.3667 66.9166 55.2392 66.9747 55.0988C67.0327 54.9585 67.0626 54.8081 67.0625 54.6563V33.231C67.8958 32.5577 68.6694 31.814 69.375 31.0079V58.125H49.7188C48.7991 58.126 47.9174 58.4918 47.2671 59.1421C46.6168 59.7924 46.251 60.6741 46.25 61.5938C46.2498 61.9004 46.1279 62.1943 45.9111 62.4111C45.6943 62.6279 45.4003 62.7498 45.0938 62.75H28.9062C28.5997 62.7498 28.3057 62.6279 28.0889 62.4111C27.8721 62.1943 27.7502 61.9004 27.75 61.5938C27.749 60.6741 27.3832 59.7924 26.7329 59.1421C26.0826 58.4918 25.2009 58.126 24.2812 58.125H4.625V19.9688ZM71.6875 63.9063C71.6865 64.8259 71.3207 65.7076 70.6704 66.3579C70.0201 67.0082 69.1384 67.374 68.2188 67.375H5.78125C4.86159 67.374 3.97988 67.0082 3.32958 66.3579C2.67928 65.7076 2.3135 64.8259 2.3125 63.9063V60.4375H24.2812C24.5878 60.4377 24.8818 60.5596 25.0986 60.7764C25.3154 60.9932 25.4373 61.2872 25.4375 61.5938C25.4385 62.5134 25.8043 63.3951 26.4546 64.0454C27.1049 64.6957 27.9866 65.0615 28.9062 65.0625H45.0938C46.0134 65.0615 46.8951 64.6957 47.5454 64.0454C48.1957 63.3951 48.5615 62.5134 48.5625 61.5938C48.5627 61.2872 48.6846 60.9932 48.9014 60.7764C49.1182 60.5596 49.4122 60.4377 49.7188 60.4375H71.6875V63.9063ZM35.8438 46.5625H15.0312C14.7246 46.5625 14.4305 46.6843 14.2137 46.9012C13.9968 47.118 13.875 47.4121 13.875 47.7188C13.875 48.0254 13.9968 48.3195 14.2137 48.5364C14.4305 48.7532 14.7246 48.875 15.0312 48.875H35.8438C36.1504 48.875 36.4445 48.7532 36.6613 48.5364C36.8782 48.3195 37 48.0254 37 47.7188C37 47.4121 36.8782 47.118 36.6613 46.9012C36.4445 46.6843 36.1504 46.5625 35.8438 46.5625ZM55.0676 22.2542C55.2133 22.2722 55.36 22.2812 55.5068 22.2813C56.2225 22.2805 56.9204 22.0576 57.5042 21.6434C58.0879 21.2292 58.5287 20.6441 58.7658 19.9688H60.7031C61.0098 19.9688 61.3039 19.8469 61.5207 19.6301C61.7376 19.4133 61.8594 19.1192 61.8594 18.8125C61.8594 18.5059 61.7376 18.2118 61.5207 17.9949C61.3039 17.7781 61.0098 17.6563 60.7031 17.6563H58.7552C58.5909 17.167 58.3161 16.7222 57.9521 16.3563C57.5881 15.9904 57.1447 15.7134 56.6562 15.5466V12.4531C56.6562 12.1465 56.5344 11.8524 56.3176 11.6355C56.1008 11.4187 55.8067 11.2969 55.5 11.2969C55.1933 11.2969 54.8992 11.4187 54.6824 11.6355C54.4656 11.8524 54.3438 12.1465 54.3438 12.4531V15.5592C53.6089 15.8187 52.9831 16.3187 52.5679 16.9783C52.1527 17.6378 51.9724 18.4183 52.0562 19.1931C52.14 19.9679 52.4829 20.6918 53.0295 21.2474C53.576 21.803 54.2942 22.1577 55.0676 22.2542ZM54.7909 17.9002C54.9925 17.7419 55.2414 17.656 55.4977 17.6563C55.5468 17.6565 55.5958 17.6595 55.6445 17.6653C55.9104 17.6984 56.1567 17.8227 56.3412 18.017C56.5258 18.2113 56.6373 18.4636 56.6567 18.7308C56.6761 18.9981 56.6021 19.2639 56.4475 19.4828C56.2929 19.7017 56.0672 19.8602 55.8088 19.9313C55.5504 20.0023 55.2753 19.9816 55.0305 19.8726C54.7857 19.7636 54.5862 19.5731 54.4662 19.3335C54.3461 19.0939 54.3128 18.8201 54.372 18.5587C54.4312 18.2974 54.5793 18.0646 54.7909 17.9002ZM15.0312 41.9375H40.4688C40.7754 41.9375 41.0695 41.8157 41.2863 41.5989C41.5032 41.382 41.625 41.0879 41.625 40.7813C41.625 40.4746 41.5032 40.1805 41.2863 39.9637C41.0695 39.7468 40.7754 39.625 40.4688 39.625H15.0312C14.7246 39.625 14.4305 39.7468 14.2137 39.9637C13.9968 40.1805 13.875 40.4746 13.875 40.7813C13.875 41.0879 13.9968 41.382 14.2137 41.5989C14.4305 41.8157 14.7246 41.9375 15.0312 41.9375ZM55.5 32.6875C58.2442 32.6875 60.9268 31.8738 63.2085 30.3492C65.4903 28.8246 67.2687 26.6576 68.3188 24.1222C69.369 21.5869 69.6438 18.7971 69.1084 16.1056C68.573 13.4142 67.2516 10.9419 65.3111 9.00141C63.3707 7.06096 60.8984 5.73949 58.2069 5.20412C55.5154 4.66875 52.7256 4.94352 50.1903 5.99369C47.6549 7.04385 45.488 8.82225 43.9634 11.104C42.4388 13.3857 41.625 16.0683 41.625 18.8125C41.629 22.4912 43.0921 26.018 45.6933 28.6192C48.2945 31.2204 51.8214 32.6835 55.5 32.6875ZM55.5 7.25001C57.7868 7.25001 60.0223 7.92814 61.9238 9.19865C63.8252 10.4692 65.3072 12.275 66.1824 14.3877C67.0575 16.5005 67.2865 18.8253 66.8403 21.0682C66.3942 23.3112 65.293 25.3714 63.6759 26.9884C62.0589 28.6055 59.9986 29.7067 57.7557 30.1528C55.5128 30.599 53.188 30.37 51.0752 29.4949C48.9625 28.6197 47.1566 27.1377 45.8861 25.2363C44.6156 23.3349 43.9375 21.0994 43.9375 18.8125C43.9411 15.7471 45.1605 12.8082 47.3281 10.6406C49.4957 8.47297 52.4345 7.25362 55.5 7.25001Z" fill="black"/>
</g>
<defs>
<clipPath id="clip0_125_2002">
<rect width="74" height="70" fill="white"/>
</clipPath>
</defs>
</svg>
