<svg width="530" height="384" viewBox="0 0 530 384" fill="none" xmlns="http://www.w3.org/2000/svg">
<g clip-path="url(#clip0_1959_2318)">
<path opacity="0.18" d="M84.4865 80.402C68.8246 83.721 52.545 87.323 39.9718 97.235C29.3547 105.597 12.8113 121.034 7.79871 133.577C-13.4355 186.558 10.572 251.028 57.1715 283.999C79.0878 299.507 106.403 307.013 126.099 325.268C138.557 336.814 147.282 352.096 160.537 362.71C179.905 378.205 206.056 381.633 230.803 383.292C247.996 384.457 265.859 384.958 281.81 378.423C293.341 373.702 303.109 365.604 312.697 357.622L376.213 304.601C386.418 296.092 395.96 282.539 409.248 282.629C528.842 283.485 536.904 142.794 353.357 80.4792C337.18 74.9861 326.087 59.7162 310.888 51.8882C279.494 35.7114 243.364 40.9536 211.699 52.1455C171.495 66.3928 126.209 71.5321 84.4865 80.402Z" fill="#68E1FD"/>
<path opacity="0.05" d="M501.302 307.367C506.308 307.451 512.755 308.699 513.527 313.639C513.946 316.212 512.472 318.714 510.876 320.791C500.896 333.829 484.359 340.422 468.041 342.191C451.723 343.96 435.276 341.484 418.984 339.477C395.442 336.569 371.805 334.64 348.074 333.688C331.203 333.006 313.456 332.581 298.927 323.988C296.23 322.399 293.579 320.412 292.286 317.556C289.712 311.876 293.779 304.962 299.364 302.202C304.949 299.443 311.513 299.713 317.741 300.048C378.909 303.341 440.031 307.367 501.302 307.367Z" fill="#000405"/>
<path d="M501.514 81.3025C501.514 81.3025 479.745 109.443 475.614 114.158C468.08 122.726 463.221 133.963 463.221 133.963L452.283 180.493L440.057 177.232L413.475 170.156C413.475 170.156 422.921 144.724 418.346 137.005C412.246 126.714 417.523 120.281 418.913 115.863C421.486 107.674 408.34 92.7067 408.34 92.7067L399.918 54.995L412.632 53.2969L421.86 83.8689L437.669 97.9747L448.93 98.5729C448.93 98.5729 457.424 100.322 463.601 97.4665C469.508 94.7264 490.375 71.204 490.375 71.204L498.888 78.9226L501.514 81.3025ZM397.228 129.023V296.619C397.227 298.719 396.812 300.798 396.008 302.738C395.203 304.678 394.024 306.44 392.538 307.924C391.052 309.408 389.288 310.585 387.347 311.388C385.406 312.191 383.326 312.604 381.225 312.603H130.474C128.373 312.603 126.293 312.189 124.351 311.385C122.41 310.581 120.647 309.403 119.161 307.917C117.676 306.432 116.497 304.668 115.694 302.727C114.89 300.787 114.477 298.707 114.478 296.606V129.023C114.476 126.922 114.889 124.842 115.692 122.9C116.495 120.959 117.673 119.195 119.159 117.71C120.645 116.224 122.409 115.046 124.35 114.242C126.292 113.438 128.373 113.025 130.474 113.026H381.225C385.469 113.026 389.54 114.711 392.541 117.711C395.542 120.711 397.228 124.78 397.228 129.023Z" fill="#68E1FD"/>
<path d="M392.891 118.14H118.384L120.611 116.435C120.713 116.346 120.821 116.262 120.932 116.184L251.516 16.1255L255.641 12.9673L388.497 114.776L392.891 118.14Z" fill="#68E1FD"/>
<path d="M397.228 129.023L393.888 131.435L369.572 149.04L251.516 234.517L137.977 147.11L114.478 129.023L114.78 125.916C115.353 123.003 116.731 120.309 118.757 118.139C119.326 117.52 119.946 116.95 120.61 116.435C120.713 116.346 120.82 116.262 120.932 116.184C123.688 114.129 127.036 113.021 130.474 113.026H381.225C385.201 113.028 389.034 114.509 391.978 117.181C394.922 119.852 396.766 123.523 397.151 127.479C397.202 127.992 397.228 128.507 397.228 129.023Z" fill="#68E1FD"/>
<path opacity="0.61" d="M120.611 116.422C119.949 116.941 119.33 117.511 118.757 118.127H118.384L120.611 116.422Z" fill="url(#paint0_linear_1959_2318)"/>
<path opacity="0.61" d="M397.228 129.023L393.888 131.441L369.572 149.04L251.516 234.517L137.977 147.116L114.478 129.023L114.78 125.922C115.353 123.008 116.731 120.312 118.757 118.14C119.329 117.524 119.949 116.954 120.61 116.435L120.932 116.191L251.516 16.1255L255.641 12.9673L388.496 114.776C390.892 115.995 392.941 117.799 394.454 120.021C395.967 122.243 396.894 124.81 397.151 127.485C397.202 127.996 397.228 128.509 397.228 129.023Z" fill="url(#paint1_linear_1959_2318)"/>
<path d="M369.572 116.641V149.046L326.003 180.564L316.01 187.819L251.516 234.517L190.857 187.819L181.469 180.589L137.978 147.142V116.641C137.978 114.121 138.979 111.705 140.761 109.923C142.544 108.141 144.961 107.141 147.481 107.141H360.075C362.594 107.142 365.01 108.144 366.791 109.925C368.572 111.707 369.572 114.122 369.572 116.641Z" fill="white"/>
<path d="M337.644 145.052H165.839C164.88 145.052 163.96 144.671 163.282 143.993C162.604 143.315 162.223 142.395 162.223 141.437C162.223 140.962 162.317 140.492 162.498 140.053C162.68 139.615 162.947 139.216 163.282 138.881C163.618 138.545 164.017 138.279 164.456 138.097C164.894 137.915 165.365 137.822 165.839 137.822H337.644C338.119 137.822 338.589 137.915 339.028 138.097C339.466 138.279 339.865 138.545 340.201 138.881C340.537 139.216 340.803 139.615 340.985 140.053C341.166 140.492 341.26 140.962 341.26 141.437C341.26 142.395 340.879 143.315 340.201 143.993C339.523 144.671 338.603 145.052 337.644 145.052Z" fill="url(#paint2_linear_1959_2318)"/>
<path d="M337.644 166.439H165.839C164.88 166.439 163.96 166.058 163.282 165.38C162.604 164.702 162.223 163.782 162.223 162.824C162.223 161.865 162.604 160.946 163.282 160.268C163.96 159.59 164.88 159.209 165.839 159.209H337.644C338.603 159.209 339.523 159.59 340.201 160.268C340.879 160.946 341.26 161.865 341.26 162.824C341.26 163.782 340.879 164.702 340.201 165.38C339.523 166.058 338.603 166.439 337.644 166.439Z" fill="url(#paint3_linear_1959_2318)"/>
<path d="M326.003 180.589L316.01 187.819H190.857L181.462 180.589H326.003Z" fill="url(#paint4_linear_1959_2318)"/>
<path opacity="0.05" d="M251.516 234.517L146.722 312.616H358.472L251.516 234.517Z" fill="#000405"/>
<path d="M161.123 58.018C155.847 46.7039 136.028 48.5628 136.028 48.5628C148.254 41.3523 145.911 23.04 145.763 21.9594C151.111 37.924 169.572 34.3991 171.225 34.0518C158.967 37.0749 161.123 58.018 161.123 58.018ZM126.762 81.2317C123.41 74.0406 110.804 75.2241 110.804 75.2241C118.783 70.4836 116.975 58.2818 116.975 58.2818V58.3525C120.398 68.4446 132.109 66.2062 133.152 65.9875C125.391 67.9171 126.762 81.2317 126.762 81.2317Z" fill="#68E1FD"/>
<path d="M464.296 59.6261C465.85 58.3777 467.815 57.7579 469.804 57.8894C471.26 57.8303 472.685 58.3218 473.794 59.2659C474.647 60.2252 475.19 61.4205 475.351 62.6942C475.665 64.2732 475.784 65.8847 475.705 67.4926C475.563 70.445 474.798 73.571 476.072 76.2404C476.376 76.8746 476.785 77.453 477.281 77.9513C477.857 78.596 478.659 78.9944 479.521 79.0641C479.949 79.0832 480.37 78.9484 480.707 78.6841C481.045 78.4198 481.277 78.0435 481.361 77.6233C480.932 78.5766 480.291 79.419 479.486 80.0855C478.68 80.752 477.733 81.2249 476.716 81.4679C475.699 81.7108 474.64 81.7173 473.62 81.4868C472.601 81.2562 471.647 80.7949 470.834 80.1383L471.954 82.4088C471.027 82.1693 470.129 81.8285 469.277 81.3925C466.542 79.9067 465.011 76.89 464.283 73.8412C463.64 71.0432 463.511 68.1551 462.906 65.3443C462.437 63.1895 462.553 61.1827 464.296 59.6261Z" fill="#3F3D56"/>
<path d="M463.472 62.7135C464.028 62.6956 464.582 62.7807 465.107 62.9644C465.542 63.145 465.918 63.4415 466.196 63.8214C466.474 64.2013 466.643 64.6502 466.683 65.1192C466.707 65.5905 466.593 66.0585 466.356 66.4663C466.118 66.874 465.767 67.2038 465.345 67.4154C464.795 67.6416 464.202 67.7448 463.607 67.7177C463.067 67.7177 462.52 67.7177 461.98 67.6663C461.825 67.6667 461.672 67.6291 461.536 67.5569C461.397 67.4436 461.293 67.2946 461.233 67.126C460.881 66.4252 460.615 65.6844 460.442 64.9198C459.998 62.5527 461.593 62.6942 463.472 62.7135Z" fill="#68E1FD"/>
<path d="M453.003 85.2969C453.003 85.2969 452.9 87.1558 452.772 89.5743C452.662 91.6133 452.527 94.0768 452.418 96.1222C452.23 99.5822 450.743 102.844 448.255 105.256C446.8 106.742 443.332 109.514 440.687 108.53C439.401 108.054 439.356 106.433 439.626 105.462C440.221 103.691 440.553 101.842 440.61 99.9751C440.653 98.4635 440.516 96.9523 440.205 95.4725C438.545 91.3367 453.003 85.2969 453.003 85.2969Z" fill="url(#paint5_linear_1959_2318)"/>
<path d="M453.003 85.2969C453.003 85.2969 452.9 87.1558 452.772 89.5743C451.755 91.8384 450.803 93.6844 450.281 94.6042C449.233 96.4631 444.921 99.3897 440.63 99.9751C440.672 98.4635 440.536 96.9523 440.224 95.4725C438.545 91.3367 453.003 85.2969 453.003 85.2969Z" fill="url(#paint6_linear_1959_2318)"/>
<path d="M440.411 60.6681C438.516 60.7833 436.665 61.2873 434.973 62.1486C433.282 63.01 431.786 64.2103 430.578 65.6748C429.371 67.1393 428.478 68.8366 427.956 70.6609C427.433 72.4853 427.292 74.3977 427.541 76.279C427.971 81.8988 429.415 87.3945 431.801 92.5009C436.305 100.219 447.72 93.8709 449.528 90.6935C451.337 87.516 458.273 73.1851 455.358 69.1264C453.351 66.3863 447.785 60.3722 440.411 60.6681Z" fill="url(#paint7_linear_1959_2318)"/>
<path d="M436.357 52.8273C441.2 51.4132 446.366 51.564 451.118 53.2583C455.796 55.0336 459.831 58.687 461.613 63.3632C463.147 67.6967 463 72.4473 461.201 76.6778C459.39 80.8738 456.505 84.5188 452.836 87.2458C451.89 84.3513 454.805 81.7785 455.938 78.9548C456.2 78.4329 456.258 77.8316 456.099 77.2695C455.687 76.2211 454.117 76.1053 453.222 76.7871C452.328 77.4689 451.935 78.6203 451.607 79.6945C452.476 75.0955 453.119 69.6925 449.864 66.322C447.933 64.328 445.018 63.5819 442.239 63.5562C439.686 63.5486 437.158 64.0648 434.813 65.0727C432.468 66.0806 430.354 67.5588 428.604 69.4159C427.58 70.5158 426.126 71.8665 424.826 71.1075C424.422 70.8311 424.105 70.445 423.913 69.9948C420.071 62.392 430.161 54.5254 436.357 52.8273Z" fill="#3F3D56"/>
<path d="M442.573 61.3242C439.356 59.9091 435.978 58.7513 432.484 58.7513C428.99 58.7513 425.367 59.9349 423.057 62.5592C421.851 64.0216 420.973 65.726 420.483 67.557C420.095 68.7025 419.942 69.9144 420.033 71.1204C420.172 71.995 420.388 72.8558 420.676 73.6933C421.281 75.7773 421.538 78.1958 420.219 79.9453C419.975 80.2942 419.654 80.583 419.282 80.7903C418.91 80.9975 418.495 81.1176 418.07 81.1417C417.644 81.1492 417.23 81.0011 416.905 80.7252C416.581 80.4493 416.368 80.0645 416.307 79.643C415.741 81.2446 416.667 83.1228 418.141 83.9654C418.9 84.3517 419.732 84.5726 420.583 84.6136C421.434 84.6546 422.283 84.5148 423.076 84.2034C423.742 83.9932 424.361 83.6545 424.897 83.2064C425.427 82.6968 425.862 82.0981 426.184 81.4376C427.529 78.9998 428.205 76.2918 429.208 73.6611C430.212 71.0303 431.666 68.5154 434.041 67.036C435.922 66.0095 438.036 65.4845 440.179 65.5115C442.309 65.4408 444.452 65.6145 446.575 65.4215C448.699 65.2285 447.161 63.9678 446.247 63.3053C445.094 62.5204 443.863 61.8565 442.573 61.3242Z" fill="#3F3D56"/>
<path d="M528.996 38.2649C529.543 38.6895 524.421 42.6774 524.421 42.6774C524.421 42.6774 522.027 46.8004 519.595 47.9453C517.163 49.0903 498.889 78.9162 498.889 78.9162L491.675 72.3811L507.234 51.4573C507.234 51.4573 512.382 41.5968 511.809 37.3066C511.809 37.3066 512.118 32.238 513.669 34.5922C514.763 36.271 514.061 38.9146 515.355 39.1976C515.498 39.2105 515.642 39.1791 515.766 39.1076C516.839 38.4565 517.823 37.6695 518.694 36.7663C521.268 34.3156 524.344 30.9066 524.344 30.9066C524.344 30.9066 526.03 30.1926 525.817 30.9066C525.605 31.6205 522.51 36.4382 522.336 36.6955C522.626 36.4318 527.375 32.193 528.127 32.521C528.88 32.8491 524.447 37.7311 524.189 38.0141C524.466 37.8211 529.53 34.2963 529.91 34.6115C530.624 35.2097 526.049 39.1783 525.669 39.4806C525.959 39.3263 528.475 37.8533 528.996 38.2649Z" fill="url(#paint8_linear_1959_2318)"/>
<path d="M523.565 41.3202C523.181 41.4452 522.774 41.4782 522.375 41.4166C521.077 41.318 519.775 41.2965 518.475 41.3523C517.6 41.3909 515.792 41.9955 515.747 40.6384C515.747 40.2782 515.837 39.9244 515.818 39.5642C515.818 39.4098 515.779 39.2554 515.754 39.1011C516.826 38.45 517.81 37.6631 518.681 36.7598C519.075 36.8914 519.448 37.0799 519.788 37.3194C520.646 37.8725 521.491 38.4193 522.323 38.9596C522.774 39.2554 523.224 39.5513 523.655 39.8729C523.846 39.992 523.998 40.1641 524.093 40.3682C524.134 40.5638 524.104 40.7678 524.007 40.9427C523.91 41.1176 523.753 41.2517 523.565 41.3202Z" fill="url(#paint9_linear_1959_2318)"/>
<path d="M397.917 4.77269C397.222 4.84987 399.474 10.9347 399.474 10.9347C399.474 10.9347 399.332 15.7009 400.793 17.9522C402.254 20.2034 402.048 54.712 402.048 54.712L411.623 53.4255L409.448 27.4332C409.448 27.4332 410.278 16.3441 413.025 13.0059C413.025 13.0059 415.432 8.5355 412.877 9.71902C411.063 10.5681 410.258 13.1795 409.017 12.7421C408.887 12.6781 408.781 12.5744 408.714 12.4463C408.13 11.3316 407.697 10.144 407.427 8.915C406.52 5.47379 405.722 0.958417 405.722 0.958417C405.722 0.958417 404.692 -0.52098 404.525 0.19299C404.358 0.90696 404.416 6.62515 404.422 6.95319C404.313 6.58656 402.524 0.463141 401.688 0.353794C400.851 0.244447 402.067 6.72163 402.144 7.0947C402.003 6.78595 399.571 1.12565 399.069 1.18997C398.148 1.32505 399.976 7.12686 400.111 7.55781C399.931 7.2748 398.573 4.70837 397.917 4.77269Z" fill="url(#paint10_linear_1959_2318)"/>
<path d="M400.902 10.2336C401.163 10.5388 401.491 10.7789 401.861 10.9347C403.015 11.5364 404.133 12.2065 405.207 12.9415C405.934 13.4368 407.137 14.9162 407.903 13.7713C408.109 13.4754 408.206 13.1281 408.412 12.8258C408.505 12.6979 408.606 12.5755 408.714 12.4591C408.13 11.3445 407.697 10.1569 407.427 8.92788C407.023 8.83232 406.606 8.79763 406.192 8.82496L403.174 8.88285C402.633 8.88285 402.093 8.88285 401.552 8.95361C401.323 8.95258 401.099 9.01976 400.909 9.14657C400.777 9.29667 400.704 9.48922 400.703 9.68889C400.701 9.88856 400.772 10.082 400.902 10.2336Z" fill="url(#paint11_linear_1959_2318)"/>
<path d="M363.987 308.236C361.413 313.491 359.541 317.575 359.541 317.575L327.155 319.119C327.155 319.119 332.522 304.923 341.253 308.589C344.207 309.824 354.908 307.502 354.908 307.502L355.242 306.428L363.987 308.236Z" fill="url(#paint12_linear_1959_2318)"/>
<path d="M478.767 309.824L473.806 312.603L431.338 267.977L426.653 208.402L387.93 243.515C387.93 243.515 388.966 267.694 375.427 286.611C373.002 290 368.066 299.848 364.334 307.541C364.218 307.779 364.103 308.023 363.993 308.261L363.266 308.113L360.737 307.586L355.249 306.454L373.047 234.542L413.488 170.182L440.07 177.258L452.295 180.519C452.295 180.519 460.545 197.043 452.295 239.81L446.826 264.291C446.826 264.291 468.871 276.043 475.666 299.288L478.761 309.811L478.767 309.824Z" fill="#3F3D56"/>
<path d="M478.768 309.824L483.806 315.092L471.021 328.42H454.291C454.291 328.42 457.855 322.534 464.985 321.602C472.114 320.669 473.82 312.597 473.82 312.597L478.768 309.824Z" fill="url(#paint13_linear_1959_2318)"/>
<path opacity="0.22" d="M138.865 47.6365L136.04 48.5628C148.266 41.3523 145.924 23.04 145.776 21.9594C145.969 22.8277 148.813 34.9137 147.262 38.8824C145.326 43.8416 138.865 47.6365 138.865 47.6365ZM118.661 69.7503C117.168 71.815 111.235 74.9989 110.83 75.2112C118.809 70.4707 117 58.2689 117 58.2689V58.3397C117.316 59.1758 120.115 67.7306 118.661 69.7503Z" fill="white"/>
<path opacity="0.22" d="M114.954 137.822L246.008 238.62L251.516 234.517L114.478 129.023L114.954 137.822ZM255.853 237.971L397.228 136.252V129.312L251.516 234.8L255.853 237.971Z" fill="white"/>
<path opacity="0.22" d="M397.151 127.768L396.765 128.849L393.888 131.724C395.909 128.238 390.201 120.146 390.201 120.146L387.924 118.442L381.084 113.296L251.516 16.4149L255.641 13.2567L388.496 115.059C390.891 116.279 392.939 118.084 394.452 120.305C395.965 122.527 396.893 125.094 397.151 127.768Z" fill="white"/>
<path opacity="0.61" d="M501.514 81.3025C501.514 81.3025 479.746 109.443 475.615 114.158C468.08 122.726 463.222 133.963 463.222 133.963L452.283 180.493L440.057 177.232C440.057 177.232 451.472 134.567 456.06 125.511C460.648 116.454 498.876 78.9161 498.876 78.9161L501.514 81.3025Z" fill="url(#paint14_linear_1959_2318)"/>
<path d="M478.761 309.812C478.536 309.168 471.271 288.997 460.364 280.539C449.29 271.945 442.856 260.084 442.856 260.084C440.25 237.315 440.07 177.232 440.07 177.232L452.295 180.493C452.295 180.493 460.545 197.017 452.295 239.785L446.826 264.265C446.826 264.265 468.871 276.043 475.666 299.288L478.761 309.812ZM387.93 243.502C387.93 243.502 388.966 267.681 375.428 286.598C373.002 289.988 368.066 299.835 364.334 307.528L363.266 308.101L360.737 307.573L381.727 241.393C381.727 241.393 407.15 211.284 411.802 208.402C416.455 205.52 426.654 208.402 426.654 208.402L387.93 243.502Z" fill="#25233A"/>
</g>
<defs>
<linearGradient id="paint0_linear_1959_2318" x1="118.487" y1="120.037" x2="120.95" y2="113.341" gradientUnits="userSpaceOnUse">
<stop offset="0.36" stop-color="#00272E"/>
<stop offset="0.75" stop-color="#3F80A1" stop-opacity="0.25"/>
<stop offset="1" stop-color="#69B9EB" stop-opacity="0"/>
</linearGradient>
<linearGradient id="paint1_linear_1959_2318" x1="220.688" y1="223.183" x2="292.926" y2="26.6757" gradientUnits="userSpaceOnUse">
<stop offset="0.36" stop-color="#00272E"/>
<stop offset="0.75" stop-color="#3F80A1" stop-opacity="0.25"/>
<stop offset="1" stop-color="#69B9EB" stop-opacity="0"/>
</linearGradient>
<linearGradient id="paint2_linear_1959_2318" x1="252.797" y1="89.7994" x2="246.29" y2="407.773" gradientUnits="userSpaceOnUse">
<stop stop-color="#68E1FD"/>
<stop offset="0.01" stop-color="#67DDF9"/>
<stop offset="0.12" stop-color="#5CB3CE"/>
<stop offset="0.24" stop-color="#538EA9"/>
<stop offset="0.37" stop-color="#4C718B"/>
<stop offset="0.5" stop-color="#465A73"/>
<stop offset="0.63" stop-color="#424A63"/>
<stop offset="0.79" stop-color="#404059"/>
<stop offset="0.99" stop-color="#3F3D56"/>
</linearGradient>
<linearGradient id="paint3_linear_1959_2318" x1="253.234" y1="89.8058" x2="246.727" y2="407.786" gradientUnits="userSpaceOnUse">
<stop stop-color="#68E1FD"/>
<stop offset="0.01" stop-color="#67DDF9"/>
<stop offset="0.12" stop-color="#5CB3CE"/>
<stop offset="0.24" stop-color="#538EA9"/>
<stop offset="0.37" stop-color="#4C718B"/>
<stop offset="0.5" stop-color="#465A73"/>
<stop offset="0.63" stop-color="#424A63"/>
<stop offset="0.79" stop-color="#404059"/>
<stop offset="0.99" stop-color="#3F3D56"/>
</linearGradient>
<linearGradient id="paint4_linear_1959_2318" x1="255.589" y1="89.8509" x2="249.082" y2="407.831" gradientUnits="userSpaceOnUse">
<stop stop-color="#68E1FD"/>
<stop offset="0.01" stop-color="#67DDF9"/>
<stop offset="0.12" stop-color="#5CB3CE"/>
<stop offset="0.24" stop-color="#538EA9"/>
<stop offset="0.37" stop-color="#4C718B"/>
<stop offset="0.5" stop-color="#465A73"/>
<stop offset="0.63" stop-color="#424A63"/>
<stop offset="0.79" stop-color="#404059"/>
<stop offset="0.99" stop-color="#3F3D56"/>
</linearGradient>
<linearGradient id="paint5_linear_1959_2318" x1="439.497" y1="97.0163" x2="453.003" y2="97.0163" gradientUnits="userSpaceOnUse">
<stop stop-color="#ECC4D7"/>
<stop offset="0.42" stop-color="#EFD4D1"/>
<stop offset="1" stop-color="#F2EAC9"/>
</linearGradient>
<linearGradient id="paint6_linear_1959_2318" x1="446.652" y1="89.5035" x2="443.868" y2="120.732" gradientUnits="userSpaceOnUse">
<stop stop-color="#ECC4D7"/>
<stop offset="0.42" stop-color="#EFD4D1"/>
<stop offset="1" stop-color="#F2EAC9"/>
</linearGradient>
<linearGradient id="paint7_linear_1959_2318" x1="427.432" y1="78.4145" x2="456.072" y2="78.4145" gradientUnits="userSpaceOnUse">
<stop stop-color="#ECC4D7"/>
<stop offset="0.42" stop-color="#EFD4D1"/>
<stop offset="1" stop-color="#F2EAC9"/>
</linearGradient>
<linearGradient id="paint8_linear_1959_2318" x1="491.675" y1="54.7506" x2="530" y2="54.7506" gradientUnits="userSpaceOnUse">
<stop stop-color="#ECC4D7"/>
<stop offset="0.42" stop-color="#EFD4D1"/>
<stop offset="1" stop-color="#F2EAC9"/>
</linearGradient>
<linearGradient id="paint9_linear_1959_2318" x1="521.184" y1="50.2158" x2="517.314" y2="20.1516" gradientUnits="userSpaceOnUse">
<stop stop-color="#ECC4D7"/>
<stop offset="0.42" stop-color="#EFD4D1"/>
<stop offset="1" stop-color="#F2EAC9"/>
</linearGradient>
<linearGradient id="paint10_linear_1959_2318" x1="421.262" y1="38.5785" x2="388.773" y2="18.2695" gradientUnits="userSpaceOnUse">
<stop stop-color="#ECC4D7"/>
<stop offset="0.42" stop-color="#EFD4D1"/>
<stop offset="1" stop-color="#F2EAC9"/>
</linearGradient>
<linearGradient id="paint11_linear_1959_2318" x1="398.537" y1="19.2793" x2="417.751" y2="-4.17163" gradientUnits="userSpaceOnUse">
<stop stop-color="#ECC4D7"/>
<stop offset="0.42" stop-color="#EFD4D1"/>
<stop offset="1" stop-color="#F2EAC9"/>
</linearGradient>
<linearGradient id="paint12_linear_1959_2318" x1="342.862" y1="302.382" x2="347.82" y2="323.043" gradientUnits="userSpaceOnUse">
<stop stop-color="#68E1FD"/>
<stop offset="0.01" stop-color="#67DDF9"/>
<stop offset="0.12" stop-color="#5CB3CE"/>
<stop offset="0.24" stop-color="#538EA9"/>
<stop offset="0.37" stop-color="#4C718B"/>
<stop offset="0.5" stop-color="#465A73"/>
<stop offset="0.63" stop-color="#424A63"/>
<stop offset="0.79" stop-color="#404059"/>
<stop offset="0.99" stop-color="#3F3D56"/>
</linearGradient>
<linearGradient id="paint13_linear_1959_2318" x1="465.146" y1="316.308" x2="473.41" y2="327.876" gradientUnits="userSpaceOnUse">
<stop stop-color="#68E1FD"/>
<stop offset="0.01" stop-color="#67DDF9"/>
<stop offset="0.12" stop-color="#5CB3CE"/>
<stop offset="0.24" stop-color="#538EA9"/>
<stop offset="0.37" stop-color="#4C718B"/>
<stop offset="0.5" stop-color="#465A73"/>
<stop offset="0.63" stop-color="#424A63"/>
<stop offset="0.79" stop-color="#404059"/>
<stop offset="0.99" stop-color="#3F3D56"/>
</linearGradient>
<linearGradient id="paint14_linear_1959_2318" x1="495.401" y1="143.006" x2="446.636" y2="114.894" gradientUnits="userSpaceOnUse">
<stop/>
<stop offset="0.98" stop-opacity="0"/>
</linearGradient>
<clipPath id="clip0_1959_2318">
<rect width="530" height="384" fill="white"/>
</clipPath>
</defs>
</svg>
