<svg width="72" height="57" viewBox="0 0 72 57" fill="none" xmlns="http://www.w3.org/2000/svg">
<path opacity="0.4" d="M42.2715 20.3432V13.1708C40.8635 13.1708 39.6959 12.0366 39.6959 10.6689V2.1288C39.6959 0.991239 38.7686 0.0938644 37.601 0.0938644H14.0083C6.59052 0.0938644 0.546387 5.96183 0.546387 13.1708V21.8077C0.546387 22.4782 0.82112 23.112 1.3019 23.5791C1.78269 24.0428 2.43518 24.3096 3.12201 24.3096C5.73198 24.3096 7.72379 26.1111 7.72379 28.4796C7.72379 30.9515 5.69763 32.9198 3.15635 32.9498C1.74834 32.9498 0.546387 33.9172 0.546387 35.3183V43.8617C0.546387 51.0674 6.59052 56.9053 13.974 56.9053H37.601C38.7686 56.9053 39.6959 56.0013 39.6959 54.8704V47.6614C39.6959 46.2636 40.8635 45.1594 42.2715 45.1594V38.691C40.8635 38.691 39.6959 37.5534 39.6959 36.189V22.8451C39.6959 21.4774 40.8635 20.3432 42.2715 20.3432Z" fill="#A6ABC8"/>
<path d="M64.3875 28.4817C64.3875 30.9503 66.448 32.9185 68.9549 32.9518C70.3629 32.9518 71.5649 33.9193 71.5649 35.287V43.8604C71.5649 51.0695 65.5551 56.9074 58.1373 56.9074H46.9419C45.8087 56.9074 44.8471 56.0034 44.8471 54.8691V47.6634C44.8471 46.2623 43.7138 45.1615 42.2715 45.1615V38.693C43.7138 38.693 44.8471 37.5555 44.8471 36.1911V22.8472C44.8471 21.4761 43.7138 20.3452 42.2715 20.3452V13.1696C43.7138 13.1696 44.8471 12.0353 44.8471 10.6676V2.13087C44.8471 0.993303 45.8087 0.0925922 46.9419 0.0925922H58.1373C65.5551 0.0925922 71.5649 5.93053 71.5649 13.1362V21.5428C71.5649 22.21 71.2902 22.8472 70.8094 23.3109C70.3286 23.7779 69.6761 24.0448 68.9893 24.0448C66.448 24.0448 64.3875 26.0497 64.3875 28.4817Z" fill="#707FDD"/>
</svg>
