<svg width="475" height="436" viewBox="0 0 475 436" fill="none" xmlns="http://www.w3.org/2000/svg">
<g clip-path="url(#clip0_1959_2038)">
<path d="M157.815 21.4711C209.921 -12.8587 283.145 -5.86116 329.21 45.0952C354.395 72.9657 364.625 111.303 390.768 138.575C420.202 169.257 455.378 199.101 468.719 240.966C482.897 285.463 470.453 336.48 438.747 370.51C400.161 411.897 343.448 399.457 289.846 398.799C70.3526 396.048 -92.7865 249.579 114.802 69.0184C132.15 53.8272 140.586 32.7748 157.815 21.4711Z" fill="#CCE9FF"/>
<path d="M352.362 149.52H282.368C278.419 149.52 275.189 146.29 275.189 142.343V96.8889C275.189 92.9415 278.419 89.7119 282.368 89.7119H352.362C356.31 89.7119 359.54 92.9415 359.54 96.8889V142.343C359.54 146.29 356.31 149.52 352.362 149.52Z" fill="white"/>
<path d="M271.36 98.1449V143.061C271.36 149.281 276.385 154.305 282.607 154.305H349.969C356.19 154.305 361.215 149.281 361.215 143.061V98.1449C361.215 91.9249 356.19 86.901 349.969 86.901H282.607C276.385 86.901 271.36 91.9249 271.36 98.1449ZM277.223 144.197C277.163 143.838 276.984 143.479 276.984 143.12V98.2047C276.984 97.6066 277.163 97.0684 277.343 96.5899L301.093 116.984L277.223 144.197ZM349.969 92.5229C350.327 92.5229 350.686 92.6426 351.045 92.7622L316.288 122.547L281.53 92.7622C281.889 92.7024 282.188 92.5229 282.607 92.5229H349.969ZM331.483 116.865L355.233 96.4703C355.412 97.0085 355.592 97.5468 355.592 98.0851V143.001C355.592 143.42 355.472 143.719 355.353 144.077L331.483 116.865ZM282.607 148.683C282.009 148.683 281.53 148.503 280.992 148.384L305.34 120.573L314.433 128.408C314.972 128.886 315.63 129.066 316.288 129.066C316.946 129.066 317.604 128.826 318.142 128.408L327.236 120.573L351.584 148.384C351.045 148.563 350.567 148.683 349.969 148.683H282.607Z" fill="#FFBE55"/>
<path d="M386.461 278.107H333.816C329.868 278.107 326.637 274.877 326.637 270.93V237.796C326.637 233.849 329.868 230.62 333.816 230.62H386.461C390.409 230.62 393.64 233.849 393.64 237.796V270.93C393.64 274.877 390.409 278.107 386.461 278.107Z" fill="white"/>
<path d="M324.723 237.019V272.545C324.723 277.449 328.671 281.456 333.637 281.456H386.94C391.845 281.456 395.853 277.509 395.853 272.545V237.019C395.853 232.115 391.905 228.108 386.94 228.108H333.637C328.731 228.167 324.723 232.115 324.723 237.019ZM329.329 273.442C329.27 273.143 329.15 272.904 329.15 272.545V237.019C329.15 236.54 329.269 236.122 329.389 235.703L348.174 251.791L329.329 273.442ZM386.94 232.593C387.239 232.593 387.478 232.713 387.777 232.773L360.318 256.337L332.859 232.773C333.158 232.713 333.397 232.593 333.696 232.593H386.94ZM372.283 251.851L391.067 235.763C391.187 236.182 391.307 236.6 391.307 237.079V272.605C391.307 272.904 391.187 273.203 391.127 273.502L372.283 251.851ZM333.637 276.971C333.158 276.971 332.799 276.851 332.38 276.731L351.644 254.722L358.882 260.882C359.301 261.241 359.839 261.421 360.318 261.421C360.856 261.421 361.335 261.241 361.754 260.882L368.992 254.722L388.256 276.731C387.837 276.851 387.418 276.971 386.999 276.971H333.637Z" fill="#2A94F4"/>
<path d="M412.424 90.5493V114.592C412.424 117.941 415.116 120.633 418.467 120.633H454.54C457.89 120.633 460.582 117.941 460.582 114.592V90.5493C460.582 87.2 457.89 84.5087 454.54 84.5087H418.467C415.116 84.5087 412.424 87.2 412.424 90.5493ZM415.595 115.19C415.535 115.011 415.475 114.831 415.475 114.592V90.5493C415.475 90.2502 415.535 89.9512 415.655 89.6521L428.397 100.537L415.595 115.19ZM454.54 87.5589C454.72 87.5589 454.899 87.6187 455.079 87.6785L436.474 103.647L417.868 87.6785C418.048 87.6187 418.227 87.5589 418.407 87.5589H454.54ZM444.669 100.597L457.412 89.712C457.472 90.011 457.591 90.2502 457.591 90.6091V114.652C457.591 114.831 457.531 115.071 457.472 115.25L444.669 100.597ZM418.467 117.582C418.167 117.582 417.868 117.523 417.629 117.403L430.671 102.511L435.576 106.697C435.875 106.937 436.234 107.056 436.533 107.056C436.892 107.056 437.251 106.937 437.491 106.697L442.396 102.511L455.438 117.403C455.139 117.463 454.899 117.582 454.6 117.582H418.467Z" fill="#CCE9FF"/>
<path d="M422.355 214.711H400.819C396.87 214.711 393.64 211.481 393.64 207.534V194.735C393.64 190.787 396.87 187.558 400.819 187.558H422.355C426.303 187.558 429.534 190.787 429.534 194.735V207.534C429.534 211.481 426.303 214.711 422.355 214.711Z" fill="white"/>
<path d="M392.742 191.744V210.404C392.742 212.976 394.836 215.069 397.409 215.069H425.406C427.979 215.069 430.072 212.976 430.072 210.404V191.744C430.072 189.173 427.979 187.079 425.406 187.079H397.409C394.836 187.139 392.742 189.173 392.742 191.744ZM395.195 210.883C395.135 210.703 395.076 210.584 395.076 210.404V191.744C395.076 191.505 395.135 191.266 395.195 191.086L405.066 199.519L395.195 210.883ZM425.406 189.472C425.586 189.472 425.705 189.531 425.825 189.531L411.407 201.912L396.99 189.531C397.11 189.531 397.289 189.472 397.409 189.472H425.406ZM417.689 199.519L427.56 191.086C427.62 191.326 427.679 191.505 427.679 191.744V210.404C427.679 210.584 427.62 210.703 427.56 210.883L417.689 199.519ZM397.409 212.737C397.169 212.737 396.93 212.677 396.751 212.617L406.861 201.074L410.63 204.304C410.869 204.483 411.108 204.603 411.407 204.603C411.707 204.603 411.946 204.483 412.185 204.304L415.954 201.074L426.064 212.617C425.825 212.677 425.645 212.737 425.406 212.737H397.409Z" fill="#FFBE55"/>
<path d="M350.208 38.0378V57.4156C350.208 60.1069 352.361 62.26 355.053 62.26H384.068C386.76 62.26 388.914 60.1069 388.914 57.4156V38.0378C388.914 35.3464 386.76 33.1934 384.068 33.1934H355.053C352.421 33.1934 350.208 35.3464 350.208 38.0378ZM352.78 57.894C352.72 57.7146 352.661 57.595 352.661 57.4156V38.0378C352.661 37.7986 352.72 37.5593 352.78 37.3201L363.01 46.1119L352.78 57.894ZM384.128 35.6455C384.307 35.6455 384.427 35.7053 384.606 35.7651L369.65 48.6238L354.695 35.7651C354.874 35.7053 354.994 35.6455 355.173 35.6455H384.128ZM376.171 46.1119L386.401 37.3201C386.461 37.5593 386.521 37.7986 386.521 38.0378V57.4156C386.521 57.595 386.461 57.7146 386.401 57.894L376.171 46.1119ZM355.053 59.8079C354.814 59.8079 354.575 59.7481 354.336 59.6883L364.805 47.7267L368.753 51.0759C368.992 51.2554 369.232 51.375 369.531 51.375C369.83 51.375 370.069 51.2554 370.309 51.0759L374.257 47.7267L384.726 59.6883C384.487 59.7481 384.307 59.8079 384.008 59.8079H355.053Z" fill="#2A94F4"/>
<path d="M301.631 159.867C302.622 159.867 303.426 159.063 303.426 158.072C303.426 157.082 302.622 156.278 301.631 156.278C300.64 156.278 299.836 157.082 299.836 158.072C299.836 159.063 300.64 159.867 301.631 159.867Z" fill="#6B6B6B"/>
<path d="M295.948 162.917C296.939 162.917 297.742 162.114 297.742 161.123C297.742 160.132 296.939 159.328 295.948 159.328C294.957 159.328 294.153 160.132 294.153 161.123C294.153 162.114 294.957 162.917 295.948 162.917Z" fill="#6B6B6B"/>
<path d="M290.384 166.146C291.375 166.146 292.179 165.343 292.179 164.352C292.179 163.361 291.375 162.558 290.384 162.558C289.393 162.558 288.589 163.361 288.589 164.352C288.589 165.343 289.393 166.146 290.384 166.146Z" fill="#6B6B6B"/>
<path d="M285.897 170.752C286.889 170.752 287.692 169.948 287.692 168.957C287.692 167.967 286.889 167.163 285.897 167.163C284.906 167.163 284.103 167.967 284.103 168.957C284.103 169.948 284.906 170.752 285.897 170.752Z" fill="#6B6B6B"/>
<path d="M282.069 175.895C283.06 175.895 283.863 175.092 283.863 174.101C283.863 173.11 283.06 172.307 282.069 172.307C281.077 172.307 280.274 173.11 280.274 174.101C280.274 175.092 281.077 175.895 282.069 175.895Z" fill="#6B6B6B"/>
<path d="M279.137 181.637C280.128 181.637 280.932 180.834 280.932 179.843C280.932 178.852 280.128 178.048 279.137 178.048C278.146 178.048 277.343 178.852 277.343 179.843C277.343 180.834 278.146 181.637 279.137 181.637Z" fill="#6B6B6B"/>
<path d="M277.283 187.797C278.274 187.797 279.077 186.994 279.077 186.003C279.077 185.012 278.274 184.208 277.283 184.208C276.292 184.208 275.488 185.012 275.488 186.003C275.488 186.994 276.292 187.797 277.283 187.797Z" fill="#6B6B6B"/>
<path d="M311.502 213.215C312.493 213.215 313.297 212.412 313.297 211.421C313.297 210.43 312.493 209.627 311.502 209.627C310.511 209.627 309.707 210.43 309.707 211.421C309.707 212.412 310.511 213.215 311.502 213.215Z" fill="#6B6B6B"/>
<path d="M305.041 213.215C306.032 213.215 306.836 212.412 306.836 211.421C306.836 210.43 306.032 209.627 305.041 209.627C304.05 209.627 303.246 210.43 303.246 211.421C303.246 212.412 304.05 213.215 305.041 213.215Z" fill="#6B6B6B"/>
<path d="M298.58 213.215C299.571 213.215 300.375 212.412 300.375 211.421C300.375 210.43 299.571 209.627 298.58 209.627C297.589 209.627 296.785 210.43 296.785 211.421C296.785 212.412 297.589 213.215 298.58 213.215Z" fill="#6B6B6B"/>
<path d="M292.119 213.215C293.11 213.215 293.914 212.412 293.914 211.421C293.914 210.43 293.11 209.627 292.119 209.627C291.128 209.627 290.324 210.43 290.324 211.421C290.324 212.412 291.128 213.215 292.119 213.215Z" fill="#6B6B6B"/>
<path d="M285.658 213.215C286.649 213.215 287.453 212.412 287.453 211.421C287.453 210.43 286.649 209.627 285.658 209.627C284.667 209.627 283.863 210.43 283.863 211.421C283.863 212.412 284.667 213.215 285.658 213.215Z" fill="#6B6B6B"/>
<path d="M386.282 202.809C387.273 202.809 388.076 202.006 388.076 201.015C388.076 200.024 387.273 199.22 386.282 199.22C385.29 199.22 384.487 200.024 384.487 201.015C384.487 202.006 385.29 202.809 386.282 202.809Z" fill="#6B6B6B"/>
<path d="M379.821 202.629C380.812 202.629 381.615 201.826 381.615 200.835C381.615 199.844 380.812 199.041 379.821 199.041C378.829 199.041 378.026 199.844 378.026 200.835C378.026 201.826 378.829 202.629 379.821 202.629Z" fill="#6B6B6B"/>
<path d="M373.36 202.45C374.351 202.45 375.154 201.647 375.154 200.656C375.154 199.665 374.351 198.861 373.36 198.861C372.368 198.861 371.565 199.665 371.565 200.656C371.565 201.647 372.368 202.45 373.36 202.45Z" fill="#6B6B6B"/>
<path d="M367.078 204.005C368.069 204.005 368.873 203.202 368.873 202.211C368.873 201.22 368.069 200.417 367.078 200.417C366.087 200.417 365.283 201.22 365.283 202.211C365.283 203.202 366.087 204.005 367.078 204.005Z" fill="#6B6B6B"/>
<path d="M360.856 205.739C361.848 205.739 362.651 204.936 362.651 203.945C362.651 202.954 361.848 202.151 360.856 202.151C359.865 202.151 359.062 202.954 359.062 203.945C359.062 204.936 359.865 205.739 360.856 205.739Z" fill="#6B6B6B"/>
<path d="M355.532 209.328C356.523 209.328 357.327 208.525 357.327 207.534C357.327 206.543 356.523 205.739 355.532 205.739C354.541 205.739 353.737 206.543 353.737 207.534C353.737 208.525 354.541 209.328 355.532 209.328Z" fill="#6B6B6B"/>
<path d="M350.686 213.514C351.678 213.514 352.481 212.711 352.481 211.72C352.481 210.729 351.678 209.926 350.686 209.926C349.695 209.926 348.892 210.729 348.892 211.72C348.892 212.711 349.695 213.514 350.686 213.514Z" fill="#6B6B6B"/>
<path d="M346.798 218.658C347.789 218.658 348.593 217.855 348.593 216.864C348.593 215.873 347.789 215.069 346.798 215.069C345.807 215.069 345.003 215.873 345.003 216.864C345.003 217.855 345.807 218.658 346.798 218.658Z" fill="#6B6B6B"/>
<path d="M344.046 224.459C345.037 224.459 345.841 223.656 345.841 222.665C345.841 221.674 345.037 220.871 344.046 220.871C343.055 220.871 342.251 221.674 342.251 222.665C342.251 223.656 343.055 224.459 344.046 224.459Z" fill="#6B6B6B"/>
<path d="M416.373 128.049C417.364 128.049 418.168 127.245 418.168 126.255C418.168 125.264 417.364 124.46 416.373 124.46C415.382 124.46 414.578 125.264 414.578 126.255C414.578 127.245 415.382 128.049 416.373 128.049Z" fill="#6B6B6B"/>
<path d="M411.048 131.757C412.04 131.757 412.843 130.954 412.843 129.963C412.843 128.972 412.04 128.168 411.048 128.168C410.057 128.168 409.254 128.972 409.254 129.963C409.254 130.954 410.057 131.757 411.048 131.757Z" fill="#6B6B6B"/>
<path d="M405.126 134.209C406.117 134.209 406.921 133.406 406.921 132.415C406.921 131.424 406.117 130.621 405.126 130.621C404.135 130.621 403.331 131.424 403.331 132.415C403.331 133.406 404.135 134.209 405.126 134.209Z" fill="#6B6B6B"/>
<path d="M399.084 136.542C400.075 136.542 400.878 135.738 400.878 134.747C400.878 133.756 400.075 132.953 399.084 132.953C398.093 132.953 397.289 133.756 397.289 134.747C397.289 135.738 398.093 136.542 399.084 136.542Z" fill="#6B6B6B"/>
<path d="M392.802 137.917C393.793 137.917 394.597 137.114 394.597 136.123C394.597 135.132 393.793 134.329 392.802 134.329C391.811 134.329 391.008 135.132 391.008 136.123C391.008 137.114 391.811 137.917 392.802 137.917Z" fill="#6B6B6B"/>
<path d="M386.461 139.173C387.452 139.173 388.256 138.37 388.256 137.379C388.256 136.388 387.452 135.585 386.461 135.585C385.47 135.585 384.666 136.388 384.666 137.379C384.666 138.37 385.47 139.173 386.461 139.173Z" fill="#6B6B6B"/>
<path d="M380 139.711C380.991 139.711 381.795 138.908 381.795 137.917C381.795 136.926 380.991 136.123 380 136.123C379.009 136.123 378.205 136.926 378.205 137.917C378.205 138.908 379.009 139.711 380 139.711Z" fill="#6B6B6B"/>
<path d="M373.539 139.951C374.53 139.951 375.334 139.147 375.334 138.156C375.334 137.165 374.53 136.362 373.539 136.362C372.548 136.362 371.744 137.165 371.744 138.156C371.744 139.147 372.548 139.951 373.539 139.951Z" fill="#6B6B6B"/>
<path d="M367.078 139.771C368.069 139.771 368.873 138.968 368.873 137.977C368.873 136.986 368.069 136.183 367.078 136.183C366.087 136.183 365.283 136.986 365.283 137.977C365.283 138.968 366.087 139.771 367.078 139.771Z" fill="#6B6B6B"/>
<path d="M342.67 52.332C343.661 52.332 344.465 51.5287 344.465 50.5378C344.465 49.5468 343.661 48.7435 342.67 48.7435C341.679 48.7435 340.875 49.5468 340.875 50.5378C340.875 51.5287 341.679 52.332 342.67 52.332Z" fill="#6B6B6B"/>
<path d="M336.448 54.0066C337.44 54.0066 338.243 53.2033 338.243 52.2123C338.243 51.2214 337.44 50.4181 336.448 50.4181C335.457 50.4181 334.654 51.2214 334.654 52.2123C334.654 53.2033 335.457 54.0066 336.448 54.0066Z" fill="#6B6B6B"/>
<path d="M331.303 57.7745C332.295 57.7745 333.098 56.9712 333.098 55.9803C333.098 54.9893 332.295 54.186 331.303 54.186C330.312 54.186 329.509 54.9893 329.509 55.9803C329.509 56.9712 330.312 57.7745 331.303 57.7745Z" fill="#6B6B6B"/>
<path d="M327.475 62.7385C328.466 62.7385 329.27 61.9352 329.27 60.9443C329.27 59.9533 328.466 59.15 327.475 59.15C326.484 59.15 325.68 59.9533 325.68 60.9443C325.68 61.9352 326.484 62.7385 327.475 62.7385Z" fill="#6B6B6B"/>
<path d="M325.201 68.7792C326.193 68.7792 326.996 67.9758 326.996 66.9849C326.996 65.994 326.193 65.1907 325.201 65.1907C324.21 65.1907 323.407 65.994 323.407 66.9849C323.407 67.9758 324.21 68.7792 325.201 68.7792Z" fill="#6B6B6B"/>
<path d="M324.484 75.1786C325.475 75.1786 326.278 74.3753 326.278 73.3843C326.278 72.3934 325.475 71.5901 324.484 71.5901C323.492 71.5901 322.689 72.3934 322.689 73.3843C322.689 74.3753 323.492 75.1786 324.484 75.1786Z" fill="#6B6B6B"/>
<path d="M324.962 81.6379C325.953 81.6379 326.757 80.8346 326.757 79.8437C326.757 78.8527 325.953 78.0494 324.962 78.0494C323.971 78.0494 323.167 78.8527 323.167 79.8437C323.167 80.8346 323.971 81.6379 324.962 81.6379Z" fill="#6B6B6B"/>
<path d="M220.63 401.311C221.108 401.132 221.527 401.012 222.006 400.833C222.006 400.833 221.826 400.474 221.527 399.756C216.622 389.589 175.822 309.207 97.1536 293.777C96.5554 293.657 95.8973 293.537 95.2991 293.418C85.3085 291.624 74.7796 290.846 63.6524 291.384C63.6524 291.384 48.0384 291.683 28.835 305.2C28.4162 305.499 27.9975 305.798 27.5189 306.097C18.9043 312.377 9.63159 321.408 0.717857 334.207L0.179443 334.925C0.179443 334.925 0.299091 335.283 0.59821 335.941C3.3501 342.281 19.3828 376.072 57.3111 398.261C57.7896 398.56 58.3281 398.859 58.8066 399.098C93.2053 418.775 145.072 428.703 220.63 401.311Z" fill="#0B4870"/>
<path d="M221.826 401.67L222.006 400.833L222.185 399.996L221.527 399.816L0.717857 334.326L0.179443 335.044C0.179443 335.044 0.299091 335.403 0.59821 336.061L220.63 401.311L221.826 401.67Z" fill="white"/>
<path d="M58.8665 399.278L91.8294 362.317L90.7526 361.001L57.3709 398.441C57.8495 398.74 58.3281 398.979 58.8665 399.278ZM132.151 374.218L134.005 374.458L97.1537 293.836C96.5555 293.717 95.8974 293.597 95.2992 293.478L132.151 374.218ZM49.4742 350.295L50.7903 349.458L28.7752 305.26C28.3565 305.559 27.9377 305.858 27.4591 306.157L49.4742 350.295Z" fill="white"/>
<path d="M217.519 397.783L218.237 398.321C218.237 398.321 218.356 398.082 218.656 397.723C222.484 391.682 251.798 342.52 233.432 295.092C233.312 294.734 233.133 294.315 233.013 293.956C230.62 287.975 227.45 282.054 223.382 276.253C223.382 276.253 217.938 267.999 204.178 262.258C203.879 262.138 203.58 262.019 203.221 261.899C196.94 259.387 188.923 257.473 179.052 257.055H178.454C178.454 257.055 178.334 257.234 178.035 257.653C175.582 261.241 162.84 281.277 163.797 309.207C163.797 309.566 163.797 309.925 163.857 310.284C164.994 335.343 177.258 366.503 217.519 397.783Z" fill="#2A94F4"/>
<path d="M217.758 398.56L218.297 398.381L218.835 398.201L218.715 397.783L179.052 257.174H178.454C178.454 257.174 178.334 257.354 178.035 257.772L217.519 397.902L217.758 398.56Z" fill="white"/>
<path d="M163.857 310.284L194.846 315.487L195.145 314.47L163.737 309.207C163.797 309.566 163.797 309.925 163.857 310.284ZM202.144 341.145L202.623 342.221L233.432 295.152C233.312 294.793 233.133 294.375 233.013 294.016L202.144 341.145ZM186.949 288.693L187.846 289.112L204.118 262.318C203.819 262.198 203.52 262.078 203.161 261.959L186.949 288.693Z" fill="white"/>
<path d="M217.998 401.012C218.416 401.072 218.835 401.072 219.194 401.132V400.235C219.194 391.383 217.339 320.75 163.02 282.951C162.601 282.652 162.182 282.353 161.703 282.054C154.764 277.389 146.987 273.203 138.312 269.794C138.312 269.794 126.288 264.65 106.785 267.641C106.367 267.7 105.888 267.76 105.469 267.82C96.6153 269.315 86.2658 272.485 74.8395 278.466C74.6002 278.585 74.4207 278.705 74.1814 278.825C74.1814 278.825 74.1814 279.124 74.1216 279.722C73.8823 285.105 73.8225 314.41 94.7009 343.058C95 343.417 95.2393 343.776 95.5385 344.195C114.562 369.673 150.516 394.433 217.998 401.012Z" fill="#FFBE55"/>
<path d="M218.775 401.67L219.194 401.132L219.613 400.594L219.194 400.235L74.8395 278.466C74.6002 278.585 74.4207 278.705 74.1814 278.825C74.1814 278.825 74.1814 279.124 74.1216 279.722L217.938 401.012L218.775 401.67Z" fill="white"/>
<path d="M95.5385 344.135L134.065 329.362L133.706 328.047L94.7009 342.999C95 343.417 95.2393 343.776 95.5385 344.135ZM160.507 351.551L161.823 352.389L163.079 282.892C162.661 282.593 162.242 282.294 161.763 281.995L160.507 351.551ZM106.187 306.396L107.503 306.277L106.785 267.581C106.367 267.641 105.888 267.7 105.469 267.76L106.187 306.396Z" fill="white"/>
<path d="M252.875 404.481L250.661 421.826L243.183 424.517L245.157 403.704L252.875 404.481ZM218.775 404.481L216.562 421.826L209.084 424.517L211.058 403.704L218.775 404.481Z" fill="#DBA17B"/>
<path d="M228.467 189.89L216.681 204.902L227.928 211.002L240.551 195.393L228.467 189.89Z" fill="#CC9271"/>
<path d="M258.678 190.967C258.319 188.694 258.079 186.362 257.9 184.029C257.78 182.175 257.84 180.321 257.9 178.467C258.079 176.613 258.079 174.759 257.96 173.024C257.96 173.084 257.9 173.144 257.9 173.204C257.78 171.649 257.541 170.094 257.122 168.599C255.926 164.831 253.473 161.302 249.644 159.986C241.987 157.415 232.654 164.592 228.766 176.075C224.877 187.558 227.928 198.981 235.586 201.553C241.03 203.407 247.311 200.297 251.858 194.256C253.652 194.196 255.447 194.077 257.182 193.598C257.78 193.419 258.378 193.18 258.678 192.641C258.857 192.103 258.797 191.505 258.678 190.967Z" fill="#DBA17B"/>
<path d="M265.019 172.068C267.472 171.23 269.565 169.137 270.044 166.625C270.523 164.053 269.087 161.183 266.634 160.345C264.78 159.687 262.566 160.226 260.891 159.269C259.874 158.671 259.216 157.654 258.498 156.757C254.55 151.733 248.029 148.862 241.688 149.341C235.346 149.819 229.304 153.587 226.133 159.089C223.441 163.754 222.783 169.316 223.262 174.639C223.741 179.962 225.356 185.165 226.911 190.249C229.543 185.046 232.176 179.843 234.808 174.699C235.406 173.563 236.004 172.367 237.081 171.709C238.158 171.051 239.833 171.111 240.431 172.187C240.85 172.905 240.73 173.802 240.73 174.579C240.73 175.417 240.85 176.374 241.568 176.733C242.346 177.151 243.363 176.673 244.081 176.134C245.636 174.998 247.012 173.623 248.268 172.127C249.046 171.17 249.824 169.974 250.96 169.496C252.217 168.958 253.293 169.556 254.43 170.214C255.985 171.111 257.601 171.948 259.395 172.307C261.25 172.666 263.224 172.666 265.019 172.068ZM257.122 280.858C259.455 295.81 261.669 321.827 264.002 336.779C267.412 358.728 256.584 391.563 252.576 413.393C249.644 413.034 247.072 412.137 244.14 411.778C245.098 374.757 243.423 327.568 241.03 290.607C246.234 291.265 251.917 280.2 257.122 280.858Z" fill="#0B4870"/>
<path d="M220.809 291.265C223.86 291.444 226.851 288.693 229.902 288.932C233.611 289.171 237.62 289.889 241.149 290.966C244.679 292.042 248.807 288.753 252.276 287.557C252.994 293.537 251.738 304.183 250.601 310.104C247.969 323.98 244.918 337.736 241.388 351.372C239.474 358.908 233.791 366.144 230.8 373.321C229.543 376.371 228.347 379.541 227.21 382.651C224.817 389.111 220.689 407.292 218.297 413.751C215.365 413.512 212.374 413.452 209.443 413.213C209.742 406.694 212.314 387.914 212.553 381.395C213.032 370.51 218.476 359.087 222.783 349.039C220.63 338.633 220.57 327.329 220.63 316.683C220.689 307.293 220.749 300.595 220.809 291.265Z" fill="#0E538C"/>
<path d="M262.147 251.074C263.224 251.253 264.481 251.193 265.318 250.476C265.737 250.117 266.036 249.579 266.335 249.16C267.352 247.964 269.087 247.366 270.583 247.725C273.693 248.502 275.189 252.449 278.3 253.107C278.778 253.227 279.257 253.227 279.736 253.406C280.214 253.586 280.633 253.885 280.693 254.363C280.812 254.961 280.394 255.44 279.975 255.918C279.436 256.516 278.838 257.114 278.3 257.712C278.06 257.952 277.761 258.251 277.462 258.37C276.804 258.669 275.967 258.37 275.428 258.789C274.95 259.148 274.83 259.866 274.292 260.224C273.514 260.703 272.437 259.985 271.54 260.344C271.061 260.523 270.762 260.942 270.403 261.181C269.745 261.6 268.848 261.54 268.07 261.301C267.292 261.002 266.634 260.523 265.976 260.165C265.079 259.686 264.122 259.327 263.164 259.028C260.532 258.37 257.72 258.55 254.969 258.789C254.849 256.636 254.789 254.483 254.669 252.33C254.669 251.971 254.669 251.552 254.849 251.193C255.208 250.535 256.165 250.535 256.943 250.715C257.9 250.954 258.378 250.894 259.276 250.715C260.173 250.535 261.25 250.954 262.147 251.074Z" fill="#DBA17B"/>
<path d="M269.207 259.327C268.907 258.849 269.027 258.191 269.506 257.892L286.735 246.528C287.213 246.229 287.872 246.349 288.171 246.827C288.47 247.306 288.35 247.964 287.872 248.263L270.642 259.626C270.164 259.925 269.506 259.806 269.207 259.327Z" fill="#0B4870"/>
<path d="M255.447 412.854C255.686 412.316 256.344 412.137 256.763 412.496C258.618 414.051 263.583 417.579 273.454 419.852C273.454 419.852 275.847 420.33 277.582 423.141H240.97V416.682C240.97 415.964 241.807 415.606 242.346 416.024L243.781 417.22C244.44 417.818 245.337 418.117 246.174 418.117L251.439 418.177C252.576 418.177 253.593 417.519 254.011 416.443L255.447 412.854Z" fill="#CCE9FF"/>
<path d="M277.624 426.926H241.012V423.158H277.624V426.926Z" fill="#0E538C"/>
<path d="M219.673 414.888C220.032 414.469 220.749 414.529 221.049 415.007C222.245 417.101 225.775 422.065 234.21 427.627C234.21 427.627 236.304 428.943 237.021 432.112L202.563 419.732L204.776 413.632C205.016 412.974 205.913 412.854 206.272 413.512L207.169 415.127C207.588 415.904 208.306 416.503 209.144 416.802L214.049 418.596C215.126 419.014 216.322 418.656 217.04 417.818L219.673 414.888Z" fill="#CCE9FF"/>
<path d="M235.678 435.678L201.229 423.281L202.506 419.736L236.954 432.133L235.678 435.678Z" fill="#0E538C"/>
<path d="M255.985 248.024C258.618 256.815 260.592 270.631 261.848 279.722C262.147 281.875 261.968 290.009 260.472 291.564C259.575 292.521 236.423 295.092 226.792 298.262C225.475 298.681 219.194 301.133 217.938 300.595C216.143 299.817 215.186 291.923 215.604 290.069C221.168 266.086 221.168 283.729 213.032 236.54C211.417 227.091 208.306 218.359 211.536 209.328C212.613 206.337 220.749 197.605 220.749 197.605C220.749 197.605 223.501 200.536 226.313 202.211C228.646 203.586 231.697 206.038 233.671 206.517C242.705 208.61 252.815 237.438 255.985 248.024Z" fill="#2A94F4"/>
<path d="M244.798 312.018C245.576 313.693 245.935 315.547 246.115 317.341C246.354 320.511 245.995 323.681 245.098 326.671C243.781 326.372 242.705 325.176 242.525 323.8C243.123 324.757 242.585 326.193 241.508 326.492C240.431 326.791 239.235 325.774 239.295 324.638C238.996 325.594 237.919 326.312 236.962 326.133C235.945 325.953 235.167 324.996 235.227 323.98C235.645 324.279 235.526 324.996 235.167 325.295C234.748 325.594 234.15 325.535 233.731 325.295C233.312 325.056 233.013 324.578 232.834 324.099C232.535 323.262 232.415 322.365 232.355 321.468C232.056 317.64 231.817 313.752 231.518 309.925C231.458 309.387 231.458 308.848 231.697 308.37C232.176 307.473 233.432 307.353 234.509 307.413L238.637 307.592C239.534 307.652 240.491 307.592 241.329 307.891C242.824 308.609 244.081 310.583 244.798 312.018Z" fill="#DBA17B"/>
<path d="M229.843 222.187C229.364 230.261 228.885 238.395 228.347 246.469C228.048 250.954 227.809 255.5 228.467 259.925C229.005 263.633 230.142 267.222 231.278 270.751C235.406 283.55 239.534 296.348 243.722 309.147C239.295 308.848 234.808 308.549 230.381 308.25C226.851 294.554 220.031 270.093 219.433 267.88C214.528 252.509 212.793 236.182 214.348 220.153L229.843 222.187Z" fill="#2A94F4"/>
<path d="M209.383 143.539C209.383 127.69 191.974 114.831 170.497 114.831C149.021 114.831 131.612 127.69 131.612 143.539C131.612 159.388 149.021 172.247 170.497 172.247C174.565 172.247 178.514 171.768 182.163 170.931L196.222 182.414V165.07C204.298 159.807 209.383 152.092 209.383 143.539Z" fill="#FFBE55"/>
<path d="M186.949 115.728C186.949 102.87 172.831 92.4033 155.362 92.4033C137.894 92.4033 123.775 102.81 123.775 115.728C123.775 128.587 137.894 139.054 155.362 139.054C158.652 139.054 161.883 138.695 164.874 137.977L176.241 147.307V133.252C182.821 128.886 186.949 122.666 186.949 115.728Z" fill="white"/>
<path d="M171.694 107.355H137.594C137.116 107.355 136.697 106.937 136.697 106.458C136.697 105.98 137.116 105.561 137.594 105.561H171.694C172.173 105.561 172.591 105.98 172.591 106.458C172.591 106.937 172.173 107.355 171.694 107.355ZM171.694 113.815H137.594C137.116 113.815 136.697 113.396 136.697 112.917C136.697 112.439 137.116 112.02 137.594 112.02H171.694C172.173 112.02 172.591 112.439 172.591 112.917C172.591 113.396 172.173 113.815 171.694 113.815ZM171.694 120.334H137.594C137.116 120.334 136.697 119.915 136.697 119.436C136.697 118.958 137.116 118.539 137.594 118.539H171.694C172.173 118.539 172.591 118.958 172.591 119.436C172.591 119.915 172.173 120.334 171.694 120.334ZM171.694 126.793H137.594C137.116 126.793 136.697 126.374 136.697 125.896C136.697 125.417 137.116 124.999 137.594 124.999H171.694C172.173 124.999 172.591 125.417 172.591 125.896C172.591 126.374 172.173 126.793 171.694 126.793Z" fill="#FFBE55"/>
</g>
<defs>
<clipPath id="clip0_1959_2038">
<rect width="475" height="436" fill="white"/>
</clipPath>
</defs>
</svg>
