<svg width="67" height="61" viewBox="0 0 67 61" fill="none" xmlns="http://www.w3.org/2000/svg">
<path d="M48.358 0.875C59.7018 0.875 66.4051 7.38796 66.4051 18.4455V18.5681H52.466C45.9792 18.5795 40.7243 23.7032 40.7126 30.0279C40.7038 36.3668 45.9646 41.5133 52.466 41.5218H66.4168V42.5289C66.4168 53.5864 59.7135 60.125 48.3697 60.125H18.6335C7.28679 60.125 0.583496 53.5864 0.583496 42.5289V18.4455C0.583496 7.38796 7.28679 0.875 18.6335 0.875H48.358ZM34.7612 13.6299H16.1845C14.8035 13.6356 13.6829 14.7282 13.677 16.0776C13.6712 17.4327 14.7947 18.5367 16.1845 18.5424H34.7846C36.1745 18.5367 37.298 17.4327 37.2922 16.0748C37.2863 14.7197 36.1511 13.6242 34.7612 13.6299Z" fill="#707FDD"/>
<path opacity="0.4" d="M46.7901 31.4765C47.4785 34.6075 50.2236 36.8104 53.3576 36.7531H64.0553C65.3593 36.7531 66.417 35.6731 66.417 34.3382V26.0052C66.4142 24.6732 65.3593 23.5904 64.0553 23.5875H53.1058C49.5408 23.599 46.6614 26.5581 46.667 30.2047C46.667 30.6315 46.709 31.0583 46.7901 31.4765Z" fill="#A6ABC8"/>
<path d="M53.2502 33.4625C55.0681 33.4625 56.5418 31.9888 56.5418 30.1708C56.5418 28.3529 55.0681 26.8792 53.2502 26.8792C51.4322 26.8792 49.9585 28.3529 49.9585 30.1708C49.9585 31.9888 51.4322 33.4625 53.2502 33.4625Z" fill="#707FDD"/>
</svg>
