<svg width="20" height="20" viewBox="0 0 20 20" fill="none" xmlns="http://www.w3.org/2000/svg">
<path d="M14.2163 11.8335C14.033 11.7418 12.8413 11.1918 12.658 11.1001C12.4747 11.0085 12.2913 11.0085 12.108 11.1918C11.9247 11.3751 11.558 11.9251 11.3747 12.1085C11.283 12.2918 11.0997 12.2918 10.9163 12.2001C10.2747 11.9251 9.63301 11.5585 9.08301 11.1001C8.62467 10.6418 8.16634 10.0918 7.79967 9.5418C7.70801 9.35846 7.79967 9.17513 7.89134 9.08346C7.98301 8.9918 8.07468 8.80846 8.25801 8.7168C8.34968 8.62513 8.44134 8.4418 8.44134 8.35013C8.53301 8.25846 8.53301 8.07513 8.44134 7.98346C8.34967 7.8918 7.89134 6.7918 7.70801 6.33346C7.61634 5.6918 7.43301 5.6918 7.24967 5.6918H6.79134C6.60801 5.6918 6.33301 5.87513 6.24134 5.9668C5.69134 6.5168 5.41634 7.15846 5.41634 7.8918C5.50801 8.7168 5.78301 9.5418 6.33301 10.2751C7.34134 11.7418 8.62467 12.9335 10.183 13.6668C10.6413 13.8501 11.008 14.0335 11.4663 14.1251C11.9247 14.3085 12.383 14.3085 12.933 14.2168C13.5747 14.1251 14.1247 13.6668 14.4913 13.1168C14.6747 12.7501 14.6747 12.3835 14.583 12.0168L14.2163 11.8335ZM16.508 3.4918C12.933 -0.083203 7.15801 -0.083203 3.58301 3.4918C0.649674 6.42513 0.0996745 10.9168 2.11634 14.4918L0.833008 19.1668L5.69134 17.8835C7.06634 18.6168 8.53301 18.9835 9.99967 18.9835C15.0413 18.9835 19.0747 14.9501 19.0747 9.90846C19.1663 7.52513 18.158 5.23346 16.508 3.4918ZM14.033 16.3251C12.8413 17.0585 11.4663 17.5168 9.99967 17.5168C8.62467 17.5168 7.34134 17.1501 6.14967 16.5085L5.87467 16.3251L3.03301 17.0585L3.76634 14.3085L3.58301 14.0335C1.38301 10.3668 2.48301 5.78346 6.05801 3.4918C9.63301 1.20013 14.2163 2.3918 16.4163 5.87513C18.6163 9.45013 17.608 14.1251 14.033 16.3251Z" fill="#0081FE"/>
</svg>
